G04 #@! TF.GenerationSoftware,KiCad,Pcbnew,(5.1.4)-1*
G04 #@! TF.CreationDate,2021-04-18T09:35:50+09:00*
G04 #@! TF.ProjectId,audio-board-wm8731,61756469-6f2d-4626-9f61-72642d776d38,rev?*
G04 #@! TF.SameCoordinates,Original*
G04 #@! TF.FileFunction,Soldermask,Bot*
G04 #@! TF.FilePolarity,Negative*
%FSLAX46Y46*%
G04 Gerber Fmt 4.6, Leading zero omitted, Abs format (unit mm)*
G04 Created by KiCad (PCBNEW (5.1.4)-1) date 2021-04-18 09:35:50*
%MOMM*%
%LPD*%
G04 APERTURE LIST*
%ADD10C,0.100000*%
G04 APERTURE END LIST*
D10*
G36*
X58541228Y-81096703D02*
G01*
X58696100Y-81160853D01*
X58835481Y-81253985D01*
X58954015Y-81372519D01*
X59047147Y-81511900D01*
X59111297Y-81666772D01*
X59144000Y-81831184D01*
X59144000Y-81998816D01*
X59111297Y-82163228D01*
X59047147Y-82318100D01*
X58954015Y-82457481D01*
X58835481Y-82576015D01*
X58696100Y-82669147D01*
X58541228Y-82733297D01*
X58376816Y-82766000D01*
X58209184Y-82766000D01*
X58044772Y-82733297D01*
X57889900Y-82669147D01*
X57750519Y-82576015D01*
X57631985Y-82457481D01*
X57538853Y-82318100D01*
X57474703Y-82163228D01*
X57442000Y-81998816D01*
X57442000Y-81831184D01*
X57474703Y-81666772D01*
X57538853Y-81511900D01*
X57631985Y-81372519D01*
X57750519Y-81253985D01*
X57889900Y-81160853D01*
X58044772Y-81096703D01*
X58209184Y-81064000D01*
X58376816Y-81064000D01*
X58541228Y-81096703D01*
X58541228Y-81096703D01*
G37*
G36*
X68690442Y-80385518D02*
G01*
X68756627Y-80392037D01*
X68926466Y-80443557D01*
X69082991Y-80527222D01*
X69118729Y-80556552D01*
X69220186Y-80639814D01*
X69303448Y-80741271D01*
X69332778Y-80777009D01*
X69416443Y-80933534D01*
X69467963Y-81103373D01*
X69485359Y-81280000D01*
X69467963Y-81456627D01*
X69416443Y-81626466D01*
X69332778Y-81782991D01*
X69303448Y-81818729D01*
X69220186Y-81920186D01*
X69124375Y-81998815D01*
X69082991Y-82032778D01*
X68926466Y-82116443D01*
X68756627Y-82167963D01*
X68690443Y-82174481D01*
X68624260Y-82181000D01*
X68535740Y-82181000D01*
X68469557Y-82174481D01*
X68403373Y-82167963D01*
X68233534Y-82116443D01*
X68077009Y-82032778D01*
X68035625Y-81998815D01*
X67939814Y-81920186D01*
X67856552Y-81818729D01*
X67827222Y-81782991D01*
X67743557Y-81626466D01*
X67692037Y-81456627D01*
X67674641Y-81280000D01*
X67692037Y-81103373D01*
X67743557Y-80933534D01*
X67827222Y-80777009D01*
X67856552Y-80741271D01*
X67939814Y-80639814D01*
X68041271Y-80556552D01*
X68077009Y-80527222D01*
X68233534Y-80443557D01*
X68403373Y-80392037D01*
X68469558Y-80385518D01*
X68535740Y-80379000D01*
X68624260Y-80379000D01*
X68690442Y-80385518D01*
X68690442Y-80385518D01*
G37*
G36*
X53450442Y-80385518D02*
G01*
X53516627Y-80392037D01*
X53686466Y-80443557D01*
X53842991Y-80527222D01*
X53878729Y-80556552D01*
X53980186Y-80639814D01*
X54063448Y-80741271D01*
X54092778Y-80777009D01*
X54176443Y-80933534D01*
X54227963Y-81103373D01*
X54245359Y-81280000D01*
X54227963Y-81456627D01*
X54176443Y-81626466D01*
X54092778Y-81782991D01*
X54063448Y-81818729D01*
X53980186Y-81920186D01*
X53884375Y-81998815D01*
X53842991Y-82032778D01*
X53686466Y-82116443D01*
X53516627Y-82167963D01*
X53450443Y-82174481D01*
X53384260Y-82181000D01*
X53295740Y-82181000D01*
X53229557Y-82174481D01*
X53163373Y-82167963D01*
X52993534Y-82116443D01*
X52837009Y-82032778D01*
X52795625Y-81998815D01*
X52699814Y-81920186D01*
X52616552Y-81818729D01*
X52587222Y-81782991D01*
X52503557Y-81626466D01*
X52452037Y-81456627D01*
X52434641Y-81280000D01*
X52452037Y-81103373D01*
X52503557Y-80933534D01*
X52587222Y-80777009D01*
X52616552Y-80741271D01*
X52699814Y-80639814D01*
X52801271Y-80556552D01*
X52837009Y-80527222D01*
X52993534Y-80443557D01*
X53163373Y-80392037D01*
X53229558Y-80385518D01*
X53295740Y-80379000D01*
X53384260Y-80379000D01*
X53450442Y-80385518D01*
X53450442Y-80385518D01*
G37*
G36*
X68690443Y-77845519D02*
G01*
X68756627Y-77852037D01*
X68926466Y-77903557D01*
X69082991Y-77987222D01*
X69118729Y-78016552D01*
X69220186Y-78099814D01*
X69303448Y-78201271D01*
X69332778Y-78237009D01*
X69416443Y-78393534D01*
X69467963Y-78563373D01*
X69485359Y-78740000D01*
X69467963Y-78916627D01*
X69416443Y-79086466D01*
X69332778Y-79242991D01*
X69303448Y-79278729D01*
X69220186Y-79380186D01*
X69118729Y-79463448D01*
X69082991Y-79492778D01*
X68926466Y-79576443D01*
X68756627Y-79627963D01*
X68690442Y-79634482D01*
X68624260Y-79641000D01*
X68535740Y-79641000D01*
X68469558Y-79634482D01*
X68403373Y-79627963D01*
X68233534Y-79576443D01*
X68077009Y-79492778D01*
X68041271Y-79463448D01*
X67939814Y-79380186D01*
X67856552Y-79278729D01*
X67827222Y-79242991D01*
X67743557Y-79086466D01*
X67692037Y-78916627D01*
X67674641Y-78740000D01*
X67692037Y-78563373D01*
X67743557Y-78393534D01*
X67827222Y-78237009D01*
X67856552Y-78201271D01*
X67939814Y-78099814D01*
X68041271Y-78016552D01*
X68077009Y-77987222D01*
X68233534Y-77903557D01*
X68403373Y-77852037D01*
X68469557Y-77845519D01*
X68535740Y-77839000D01*
X68624260Y-77839000D01*
X68690443Y-77845519D01*
X68690443Y-77845519D01*
G37*
G36*
X53450443Y-77845519D02*
G01*
X53516627Y-77852037D01*
X53686466Y-77903557D01*
X53842991Y-77987222D01*
X53878729Y-78016552D01*
X53980186Y-78099814D01*
X54063448Y-78201271D01*
X54092778Y-78237009D01*
X54176443Y-78393534D01*
X54227963Y-78563373D01*
X54245359Y-78740000D01*
X54227963Y-78916627D01*
X54176443Y-79086466D01*
X54092778Y-79242991D01*
X54063448Y-79278729D01*
X53980186Y-79380186D01*
X53878729Y-79463448D01*
X53842991Y-79492778D01*
X53686466Y-79576443D01*
X53516627Y-79627963D01*
X53450442Y-79634482D01*
X53384260Y-79641000D01*
X53295740Y-79641000D01*
X53229558Y-79634482D01*
X53163373Y-79627963D01*
X52993534Y-79576443D01*
X52837009Y-79492778D01*
X52801271Y-79463448D01*
X52699814Y-79380186D01*
X52616552Y-79278729D01*
X52587222Y-79242991D01*
X52503557Y-79086466D01*
X52452037Y-78916627D01*
X52434641Y-78740000D01*
X52452037Y-78563373D01*
X52503557Y-78393534D01*
X52587222Y-78237009D01*
X52616552Y-78201271D01*
X52699814Y-78099814D01*
X52801271Y-78016552D01*
X52837009Y-77987222D01*
X52993534Y-77903557D01*
X53163373Y-77852037D01*
X53229557Y-77845519D01*
X53295740Y-77839000D01*
X53384260Y-77839000D01*
X53450443Y-77845519D01*
X53450443Y-77845519D01*
G37*
G36*
X58541228Y-76096703D02*
G01*
X58696100Y-76160853D01*
X58835481Y-76253985D01*
X58954015Y-76372519D01*
X59047147Y-76511900D01*
X59111297Y-76666772D01*
X59144000Y-76831184D01*
X59144000Y-76998816D01*
X59111297Y-77163228D01*
X59047147Y-77318100D01*
X58954015Y-77457481D01*
X58835481Y-77576015D01*
X58696100Y-77669147D01*
X58541228Y-77733297D01*
X58376816Y-77766000D01*
X58209184Y-77766000D01*
X58044772Y-77733297D01*
X57889900Y-77669147D01*
X57750519Y-77576015D01*
X57631985Y-77457481D01*
X57538853Y-77318100D01*
X57474703Y-77163228D01*
X57442000Y-76998816D01*
X57442000Y-76831184D01*
X57474703Y-76666772D01*
X57538853Y-76511900D01*
X57631985Y-76372519D01*
X57750519Y-76253985D01*
X57889900Y-76160853D01*
X58044772Y-76096703D01*
X58209184Y-76064000D01*
X58376816Y-76064000D01*
X58541228Y-76096703D01*
X58541228Y-76096703D01*
G37*
G36*
X68690442Y-75305518D02*
G01*
X68756627Y-75312037D01*
X68926466Y-75363557D01*
X69082991Y-75447222D01*
X69118729Y-75476552D01*
X69220186Y-75559814D01*
X69303448Y-75661271D01*
X69332778Y-75697009D01*
X69416443Y-75853534D01*
X69467963Y-76023373D01*
X69485359Y-76200000D01*
X69467963Y-76376627D01*
X69416443Y-76546466D01*
X69332778Y-76702991D01*
X69303448Y-76738729D01*
X69220186Y-76840186D01*
X69118729Y-76923448D01*
X69082991Y-76952778D01*
X69082989Y-76952779D01*
X68996863Y-76998815D01*
X68926466Y-77036443D01*
X68756627Y-77087963D01*
X68690442Y-77094482D01*
X68624260Y-77101000D01*
X68535740Y-77101000D01*
X68469558Y-77094482D01*
X68403373Y-77087963D01*
X68233534Y-77036443D01*
X68163138Y-76998815D01*
X68077011Y-76952779D01*
X68077009Y-76952778D01*
X68041271Y-76923448D01*
X67939814Y-76840186D01*
X67856552Y-76738729D01*
X67827222Y-76702991D01*
X67743557Y-76546466D01*
X67692037Y-76376627D01*
X67674641Y-76200000D01*
X67692037Y-76023373D01*
X67743557Y-75853534D01*
X67827222Y-75697009D01*
X67856552Y-75661271D01*
X67939814Y-75559814D01*
X68041271Y-75476552D01*
X68077009Y-75447222D01*
X68233534Y-75363557D01*
X68403373Y-75312037D01*
X68469558Y-75305518D01*
X68535740Y-75299000D01*
X68624260Y-75299000D01*
X68690442Y-75305518D01*
X68690442Y-75305518D01*
G37*
G36*
X53450442Y-75305518D02*
G01*
X53516627Y-75312037D01*
X53686466Y-75363557D01*
X53842991Y-75447222D01*
X53878729Y-75476552D01*
X53980186Y-75559814D01*
X54063448Y-75661271D01*
X54092778Y-75697009D01*
X54176443Y-75853534D01*
X54227963Y-76023373D01*
X54245359Y-76200000D01*
X54227963Y-76376627D01*
X54176443Y-76546466D01*
X54092778Y-76702991D01*
X54063448Y-76738729D01*
X53980186Y-76840186D01*
X53878729Y-76923448D01*
X53842991Y-76952778D01*
X53842989Y-76952779D01*
X53756863Y-76998815D01*
X53686466Y-77036443D01*
X53516627Y-77087963D01*
X53450442Y-77094482D01*
X53384260Y-77101000D01*
X53295740Y-77101000D01*
X53229558Y-77094482D01*
X53163373Y-77087963D01*
X52993534Y-77036443D01*
X52923138Y-76998815D01*
X52837011Y-76952779D01*
X52837009Y-76952778D01*
X52801271Y-76923448D01*
X52699814Y-76840186D01*
X52616552Y-76738729D01*
X52587222Y-76702991D01*
X52503557Y-76546466D01*
X52452037Y-76376627D01*
X52434641Y-76200000D01*
X52452037Y-76023373D01*
X52503557Y-75853534D01*
X52587222Y-75697009D01*
X52616552Y-75661271D01*
X52699814Y-75559814D01*
X52801271Y-75476552D01*
X52837009Y-75447222D01*
X52993534Y-75363557D01*
X53163373Y-75312037D01*
X53229558Y-75305518D01*
X53295740Y-75299000D01*
X53384260Y-75299000D01*
X53450442Y-75305518D01*
X53450442Y-75305518D01*
G37*
G36*
X58541228Y-73476703D02*
G01*
X58696100Y-73540853D01*
X58835481Y-73633985D01*
X58954015Y-73752519D01*
X59047147Y-73891900D01*
X59111297Y-74046772D01*
X59144000Y-74211184D01*
X59144000Y-74378816D01*
X59111297Y-74543228D01*
X59047147Y-74698100D01*
X58954015Y-74837481D01*
X58835481Y-74956015D01*
X58696100Y-75049147D01*
X58541228Y-75113297D01*
X58376816Y-75146000D01*
X58209184Y-75146000D01*
X58044772Y-75113297D01*
X57889900Y-75049147D01*
X57750519Y-74956015D01*
X57631985Y-74837481D01*
X57538853Y-74698100D01*
X57474703Y-74543228D01*
X57442000Y-74378816D01*
X57442000Y-74211184D01*
X57474703Y-74046772D01*
X57538853Y-73891900D01*
X57631985Y-73752519D01*
X57750519Y-73633985D01*
X57889900Y-73540853D01*
X58044772Y-73476703D01*
X58209184Y-73444000D01*
X58376816Y-73444000D01*
X58541228Y-73476703D01*
X58541228Y-73476703D01*
G37*
G36*
X53450442Y-72765518D02*
G01*
X53516627Y-72772037D01*
X53686466Y-72823557D01*
X53842991Y-72907222D01*
X53878729Y-72936552D01*
X53980186Y-73019814D01*
X54063448Y-73121271D01*
X54092778Y-73157009D01*
X54176443Y-73313534D01*
X54227963Y-73483373D01*
X54245359Y-73660000D01*
X54227963Y-73836627D01*
X54176443Y-74006466D01*
X54092778Y-74162991D01*
X54063448Y-74198729D01*
X53980186Y-74300186D01*
X53884375Y-74378815D01*
X53842991Y-74412778D01*
X53686466Y-74496443D01*
X53516627Y-74547963D01*
X53450442Y-74554482D01*
X53384260Y-74561000D01*
X53295740Y-74561000D01*
X53229558Y-74554482D01*
X53163373Y-74547963D01*
X52993534Y-74496443D01*
X52837009Y-74412778D01*
X52795625Y-74378815D01*
X52699814Y-74300186D01*
X52616552Y-74198729D01*
X52587222Y-74162991D01*
X52503557Y-74006466D01*
X52452037Y-73836627D01*
X52434641Y-73660000D01*
X52452037Y-73483373D01*
X52503557Y-73313534D01*
X52587222Y-73157009D01*
X52616552Y-73121271D01*
X52699814Y-73019814D01*
X52801271Y-72936552D01*
X52837009Y-72907222D01*
X52993534Y-72823557D01*
X53163373Y-72772037D01*
X53229558Y-72765518D01*
X53295740Y-72759000D01*
X53384260Y-72759000D01*
X53450442Y-72765518D01*
X53450442Y-72765518D01*
G37*
G36*
X68690442Y-72765518D02*
G01*
X68756627Y-72772037D01*
X68926466Y-72823557D01*
X69082991Y-72907222D01*
X69118729Y-72936552D01*
X69220186Y-73019814D01*
X69303448Y-73121271D01*
X69332778Y-73157009D01*
X69416443Y-73313534D01*
X69467963Y-73483373D01*
X69485359Y-73660000D01*
X69467963Y-73836627D01*
X69416443Y-74006466D01*
X69332778Y-74162991D01*
X69303448Y-74198729D01*
X69220186Y-74300186D01*
X69124375Y-74378815D01*
X69082991Y-74412778D01*
X68926466Y-74496443D01*
X68756627Y-74547963D01*
X68690442Y-74554482D01*
X68624260Y-74561000D01*
X68535740Y-74561000D01*
X68469558Y-74554482D01*
X68403373Y-74547963D01*
X68233534Y-74496443D01*
X68077009Y-74412778D01*
X68035625Y-74378815D01*
X67939814Y-74300186D01*
X67856552Y-74198729D01*
X67827222Y-74162991D01*
X67743557Y-74006466D01*
X67692037Y-73836627D01*
X67674641Y-73660000D01*
X67692037Y-73483373D01*
X67743557Y-73313534D01*
X67827222Y-73157009D01*
X67856552Y-73121271D01*
X67939814Y-73019814D01*
X68041271Y-72936552D01*
X68077009Y-72907222D01*
X68233534Y-72823557D01*
X68403373Y-72772037D01*
X68469558Y-72765518D01*
X68535740Y-72759000D01*
X68624260Y-72759000D01*
X68690442Y-72765518D01*
X68690442Y-72765518D01*
G37*
G36*
X53450442Y-70225518D02*
G01*
X53516627Y-70232037D01*
X53686466Y-70283557D01*
X53842991Y-70367222D01*
X53878729Y-70396552D01*
X53980186Y-70479814D01*
X54063448Y-70581271D01*
X54092778Y-70617009D01*
X54176443Y-70773534D01*
X54227963Y-70943373D01*
X54245359Y-71120000D01*
X54227963Y-71296627D01*
X54176443Y-71466466D01*
X54092778Y-71622991D01*
X54063448Y-71658729D01*
X53980186Y-71760186D01*
X53878729Y-71843448D01*
X53842991Y-71872778D01*
X53686466Y-71956443D01*
X53516627Y-72007963D01*
X53450443Y-72014481D01*
X53384260Y-72021000D01*
X53295740Y-72021000D01*
X53229557Y-72014481D01*
X53163373Y-72007963D01*
X52993534Y-71956443D01*
X52837009Y-71872778D01*
X52801271Y-71843448D01*
X52699814Y-71760186D01*
X52616552Y-71658729D01*
X52587222Y-71622991D01*
X52503557Y-71466466D01*
X52452037Y-71296627D01*
X52434641Y-71120000D01*
X52452037Y-70943373D01*
X52503557Y-70773534D01*
X52587222Y-70617009D01*
X52616552Y-70581271D01*
X52699814Y-70479814D01*
X52801271Y-70396552D01*
X52837009Y-70367222D01*
X52993534Y-70283557D01*
X53163373Y-70232037D01*
X53229558Y-70225518D01*
X53295740Y-70219000D01*
X53384260Y-70219000D01*
X53450442Y-70225518D01*
X53450442Y-70225518D01*
G37*
G36*
X68690442Y-70225518D02*
G01*
X68756627Y-70232037D01*
X68926466Y-70283557D01*
X69082991Y-70367222D01*
X69118729Y-70396552D01*
X69220186Y-70479814D01*
X69303448Y-70581271D01*
X69332778Y-70617009D01*
X69416443Y-70773534D01*
X69467963Y-70943373D01*
X69485359Y-71120000D01*
X69467963Y-71296627D01*
X69416443Y-71466466D01*
X69332778Y-71622991D01*
X69303448Y-71658729D01*
X69220186Y-71760186D01*
X69118729Y-71843448D01*
X69082991Y-71872778D01*
X68926466Y-71956443D01*
X68756627Y-72007963D01*
X68690443Y-72014481D01*
X68624260Y-72021000D01*
X68535740Y-72021000D01*
X68469557Y-72014481D01*
X68403373Y-72007963D01*
X68233534Y-71956443D01*
X68077009Y-71872778D01*
X68041271Y-71843448D01*
X67939814Y-71760186D01*
X67856552Y-71658729D01*
X67827222Y-71622991D01*
X67743557Y-71466466D01*
X67692037Y-71296627D01*
X67674641Y-71120000D01*
X67692037Y-70943373D01*
X67743557Y-70773534D01*
X67827222Y-70617009D01*
X67856552Y-70581271D01*
X67939814Y-70479814D01*
X68041271Y-70396552D01*
X68077009Y-70367222D01*
X68233534Y-70283557D01*
X68403373Y-70232037D01*
X68469558Y-70225518D01*
X68535740Y-70219000D01*
X68624260Y-70219000D01*
X68690442Y-70225518D01*
X68690442Y-70225518D01*
G37*
G36*
X58541228Y-68476703D02*
G01*
X58696100Y-68540853D01*
X58835481Y-68633985D01*
X58954015Y-68752519D01*
X59047147Y-68891900D01*
X59111297Y-69046772D01*
X59144000Y-69211184D01*
X59144000Y-69378816D01*
X59111297Y-69543228D01*
X59047147Y-69698100D01*
X58954015Y-69837481D01*
X58835481Y-69956015D01*
X58696100Y-70049147D01*
X58541228Y-70113297D01*
X58376816Y-70146000D01*
X58209184Y-70146000D01*
X58044772Y-70113297D01*
X57889900Y-70049147D01*
X57750519Y-69956015D01*
X57631985Y-69837481D01*
X57538853Y-69698100D01*
X57474703Y-69543228D01*
X57442000Y-69378816D01*
X57442000Y-69211184D01*
X57474703Y-69046772D01*
X57538853Y-68891900D01*
X57631985Y-68752519D01*
X57750519Y-68633985D01*
X57889900Y-68540853D01*
X58044772Y-68476703D01*
X58209184Y-68444000D01*
X58376816Y-68444000D01*
X58541228Y-68476703D01*
X58541228Y-68476703D01*
G37*
G36*
X53450443Y-67685519D02*
G01*
X53516627Y-67692037D01*
X53686466Y-67743557D01*
X53842991Y-67827222D01*
X53878729Y-67856552D01*
X53980186Y-67939814D01*
X54063448Y-68041271D01*
X54092778Y-68077009D01*
X54176443Y-68233534D01*
X54227963Y-68403373D01*
X54245359Y-68580000D01*
X54227963Y-68756627D01*
X54176443Y-68926466D01*
X54092778Y-69082991D01*
X54063448Y-69118729D01*
X53980186Y-69220186D01*
X53878729Y-69303448D01*
X53842991Y-69332778D01*
X53842989Y-69332779D01*
X53756863Y-69378815D01*
X53686466Y-69416443D01*
X53516627Y-69467963D01*
X53450442Y-69474482D01*
X53384260Y-69481000D01*
X53295740Y-69481000D01*
X53229558Y-69474482D01*
X53163373Y-69467963D01*
X52993534Y-69416443D01*
X52923138Y-69378815D01*
X52837011Y-69332779D01*
X52837009Y-69332778D01*
X52801271Y-69303448D01*
X52699814Y-69220186D01*
X52616552Y-69118729D01*
X52587222Y-69082991D01*
X52503557Y-68926466D01*
X52452037Y-68756627D01*
X52434641Y-68580000D01*
X52452037Y-68403373D01*
X52503557Y-68233534D01*
X52587222Y-68077009D01*
X52616552Y-68041271D01*
X52699814Y-67939814D01*
X52801271Y-67856552D01*
X52837009Y-67827222D01*
X52993534Y-67743557D01*
X53163373Y-67692037D01*
X53229557Y-67685519D01*
X53295740Y-67679000D01*
X53384260Y-67679000D01*
X53450443Y-67685519D01*
X53450443Y-67685519D01*
G37*
G36*
X68690443Y-67685519D02*
G01*
X68756627Y-67692037D01*
X68926466Y-67743557D01*
X69082991Y-67827222D01*
X69118729Y-67856552D01*
X69220186Y-67939814D01*
X69303448Y-68041271D01*
X69332778Y-68077009D01*
X69416443Y-68233534D01*
X69467963Y-68403373D01*
X69485359Y-68580000D01*
X69467963Y-68756627D01*
X69416443Y-68926466D01*
X69332778Y-69082991D01*
X69303448Y-69118729D01*
X69220186Y-69220186D01*
X69118729Y-69303448D01*
X69082991Y-69332778D01*
X69082989Y-69332779D01*
X68996863Y-69378815D01*
X68926466Y-69416443D01*
X68756627Y-69467963D01*
X68690442Y-69474482D01*
X68624260Y-69481000D01*
X68535740Y-69481000D01*
X68469558Y-69474482D01*
X68403373Y-69467963D01*
X68233534Y-69416443D01*
X68163138Y-69378815D01*
X68077011Y-69332779D01*
X68077009Y-69332778D01*
X68041271Y-69303448D01*
X67939814Y-69220186D01*
X67856552Y-69118729D01*
X67827222Y-69082991D01*
X67743557Y-68926466D01*
X67692037Y-68756627D01*
X67674641Y-68580000D01*
X67692037Y-68403373D01*
X67743557Y-68233534D01*
X67827222Y-68077009D01*
X67856552Y-68041271D01*
X67939814Y-67939814D01*
X68041271Y-67856552D01*
X68077009Y-67827222D01*
X68233534Y-67743557D01*
X68403373Y-67692037D01*
X68469557Y-67685519D01*
X68535740Y-67679000D01*
X68624260Y-67679000D01*
X68690443Y-67685519D01*
X68690443Y-67685519D01*
G37*
G36*
X60827228Y-65856703D02*
G01*
X60982100Y-65920853D01*
X61121481Y-66013985D01*
X61240015Y-66132519D01*
X61333147Y-66271900D01*
X61397297Y-66426772D01*
X61430000Y-66591184D01*
X61430000Y-66758816D01*
X61397297Y-66923228D01*
X61333147Y-67078100D01*
X61240015Y-67217481D01*
X61121481Y-67336015D01*
X60982100Y-67429147D01*
X60827228Y-67493297D01*
X60662816Y-67526000D01*
X60495184Y-67526000D01*
X60330772Y-67493297D01*
X60175900Y-67429147D01*
X60036519Y-67336015D01*
X59917985Y-67217481D01*
X59824853Y-67078100D01*
X59760703Y-66923228D01*
X59728000Y-66758816D01*
X59728000Y-66591184D01*
X59760703Y-66426772D01*
X59824853Y-66271900D01*
X59917985Y-66132519D01*
X60036519Y-66013985D01*
X60175900Y-65920853D01*
X60330772Y-65856703D01*
X60495184Y-65824000D01*
X60662816Y-65824000D01*
X60827228Y-65856703D01*
X60827228Y-65856703D01*
G37*
G36*
X68690442Y-65145518D02*
G01*
X68756627Y-65152037D01*
X68926466Y-65203557D01*
X69082991Y-65287222D01*
X69118729Y-65316552D01*
X69220186Y-65399814D01*
X69303448Y-65501271D01*
X69332778Y-65537009D01*
X69416443Y-65693534D01*
X69467963Y-65863373D01*
X69485359Y-66040000D01*
X69467963Y-66216627D01*
X69416443Y-66386466D01*
X69332778Y-66542991D01*
X69303448Y-66578729D01*
X69220186Y-66680186D01*
X69124375Y-66758815D01*
X69082991Y-66792778D01*
X68926466Y-66876443D01*
X68756627Y-66927963D01*
X68690442Y-66934482D01*
X68624260Y-66941000D01*
X68535740Y-66941000D01*
X68469558Y-66934482D01*
X68403373Y-66927963D01*
X68233534Y-66876443D01*
X68077009Y-66792778D01*
X68035625Y-66758815D01*
X67939814Y-66680186D01*
X67856552Y-66578729D01*
X67827222Y-66542991D01*
X67743557Y-66386466D01*
X67692037Y-66216627D01*
X67674641Y-66040000D01*
X67692037Y-65863373D01*
X67743557Y-65693534D01*
X67827222Y-65537009D01*
X67856552Y-65501271D01*
X67939814Y-65399814D01*
X68041271Y-65316552D01*
X68077009Y-65287222D01*
X68233534Y-65203557D01*
X68403373Y-65152037D01*
X68469558Y-65145518D01*
X68535740Y-65139000D01*
X68624260Y-65139000D01*
X68690442Y-65145518D01*
X68690442Y-65145518D01*
G37*
G36*
X53450442Y-65145518D02*
G01*
X53516627Y-65152037D01*
X53686466Y-65203557D01*
X53842991Y-65287222D01*
X53878729Y-65316552D01*
X53980186Y-65399814D01*
X54063448Y-65501271D01*
X54092778Y-65537009D01*
X54176443Y-65693534D01*
X54227963Y-65863373D01*
X54245359Y-66040000D01*
X54227963Y-66216627D01*
X54176443Y-66386466D01*
X54092778Y-66542991D01*
X54063448Y-66578729D01*
X53980186Y-66680186D01*
X53884375Y-66758815D01*
X53842991Y-66792778D01*
X53686466Y-66876443D01*
X53516627Y-66927963D01*
X53450442Y-66934482D01*
X53384260Y-66941000D01*
X53295740Y-66941000D01*
X53229558Y-66934482D01*
X53163373Y-66927963D01*
X52993534Y-66876443D01*
X52837009Y-66792778D01*
X52795625Y-66758815D01*
X52699814Y-66680186D01*
X52616552Y-66578729D01*
X52587222Y-66542991D01*
X52503557Y-66386466D01*
X52452037Y-66216627D01*
X52434641Y-66040000D01*
X52452037Y-65863373D01*
X52503557Y-65693534D01*
X52587222Y-65537009D01*
X52616552Y-65501271D01*
X52699814Y-65399814D01*
X52801271Y-65316552D01*
X52837009Y-65287222D01*
X52993534Y-65203557D01*
X53163373Y-65152037D01*
X53229558Y-65145518D01*
X53295740Y-65139000D01*
X53384260Y-65139000D01*
X53450442Y-65145518D01*
X53450442Y-65145518D01*
G37*
G36*
X68690442Y-62605518D02*
G01*
X68756627Y-62612037D01*
X68926466Y-62663557D01*
X69082991Y-62747222D01*
X69118729Y-62776552D01*
X69220186Y-62859814D01*
X69303448Y-62961271D01*
X69332778Y-62997009D01*
X69416443Y-63153534D01*
X69467963Y-63323373D01*
X69485359Y-63500000D01*
X69467963Y-63676627D01*
X69416443Y-63846466D01*
X69332778Y-64002991D01*
X69303448Y-64038729D01*
X69220186Y-64140186D01*
X69118729Y-64223448D01*
X69082991Y-64252778D01*
X68926466Y-64336443D01*
X68756627Y-64387963D01*
X68690442Y-64394482D01*
X68624260Y-64401000D01*
X68535740Y-64401000D01*
X68469558Y-64394482D01*
X68403373Y-64387963D01*
X68233534Y-64336443D01*
X68077009Y-64252778D01*
X68041271Y-64223448D01*
X67939814Y-64140186D01*
X67856552Y-64038729D01*
X67827222Y-64002991D01*
X67743557Y-63846466D01*
X67692037Y-63676627D01*
X67674641Y-63500000D01*
X67692037Y-63323373D01*
X67743557Y-63153534D01*
X67827222Y-62997009D01*
X67856552Y-62961271D01*
X67939814Y-62859814D01*
X68041271Y-62776552D01*
X68077009Y-62747222D01*
X68233534Y-62663557D01*
X68403373Y-62612037D01*
X68469558Y-62605518D01*
X68535740Y-62599000D01*
X68624260Y-62599000D01*
X68690442Y-62605518D01*
X68690442Y-62605518D01*
G37*
G36*
X53450442Y-62605518D02*
G01*
X53516627Y-62612037D01*
X53686466Y-62663557D01*
X53842991Y-62747222D01*
X53878729Y-62776552D01*
X53980186Y-62859814D01*
X54063448Y-62961271D01*
X54092778Y-62997009D01*
X54176443Y-63153534D01*
X54227963Y-63323373D01*
X54245359Y-63500000D01*
X54227963Y-63676627D01*
X54176443Y-63846466D01*
X54092778Y-64002991D01*
X54063448Y-64038729D01*
X53980186Y-64140186D01*
X53878729Y-64223448D01*
X53842991Y-64252778D01*
X53686466Y-64336443D01*
X53516627Y-64387963D01*
X53450442Y-64394482D01*
X53384260Y-64401000D01*
X53295740Y-64401000D01*
X53229558Y-64394482D01*
X53163373Y-64387963D01*
X52993534Y-64336443D01*
X52837009Y-64252778D01*
X52801271Y-64223448D01*
X52699814Y-64140186D01*
X52616552Y-64038729D01*
X52587222Y-64002991D01*
X52503557Y-63846466D01*
X52452037Y-63676627D01*
X52434641Y-63500000D01*
X52452037Y-63323373D01*
X52503557Y-63153534D01*
X52587222Y-62997009D01*
X52616552Y-62961271D01*
X52699814Y-62859814D01*
X52801271Y-62776552D01*
X52837009Y-62747222D01*
X52993534Y-62663557D01*
X53163373Y-62612037D01*
X53229558Y-62605518D01*
X53295740Y-62599000D01*
X53384260Y-62599000D01*
X53450442Y-62605518D01*
X53450442Y-62605518D01*
G37*
G36*
X60827228Y-60856703D02*
G01*
X60982100Y-60920853D01*
X61121481Y-61013985D01*
X61240015Y-61132519D01*
X61333147Y-61271900D01*
X61397297Y-61426772D01*
X61430000Y-61591184D01*
X61430000Y-61758816D01*
X61397297Y-61923228D01*
X61333147Y-62078100D01*
X61240015Y-62217481D01*
X61121481Y-62336015D01*
X60982100Y-62429147D01*
X60827228Y-62493297D01*
X60662816Y-62526000D01*
X60495184Y-62526000D01*
X60330772Y-62493297D01*
X60175900Y-62429147D01*
X60036519Y-62336015D01*
X59917985Y-62217481D01*
X59824853Y-62078100D01*
X59760703Y-61923228D01*
X59728000Y-61758816D01*
X59728000Y-61591184D01*
X59760703Y-61426772D01*
X59824853Y-61271900D01*
X59917985Y-61132519D01*
X60036519Y-61013985D01*
X60175900Y-60920853D01*
X60330772Y-60856703D01*
X60495184Y-60824000D01*
X60662816Y-60824000D01*
X60827228Y-60856703D01*
X60827228Y-60856703D01*
G37*
G36*
X53450442Y-60065518D02*
G01*
X53516627Y-60072037D01*
X53686466Y-60123557D01*
X53842991Y-60207222D01*
X53878729Y-60236552D01*
X53980186Y-60319814D01*
X54063448Y-60421271D01*
X54092778Y-60457009D01*
X54176443Y-60613534D01*
X54227963Y-60783373D01*
X54245359Y-60960000D01*
X54227963Y-61136627D01*
X54176443Y-61306466D01*
X54092778Y-61462991D01*
X54063448Y-61498729D01*
X53980186Y-61600186D01*
X53878729Y-61683448D01*
X53842991Y-61712778D01*
X53842989Y-61712779D01*
X53756863Y-61758815D01*
X53686466Y-61796443D01*
X53516627Y-61847963D01*
X53450443Y-61854481D01*
X53384260Y-61861000D01*
X53295740Y-61861000D01*
X53229557Y-61854481D01*
X53163373Y-61847963D01*
X52993534Y-61796443D01*
X52923138Y-61758815D01*
X52837011Y-61712779D01*
X52837009Y-61712778D01*
X52801271Y-61683448D01*
X52699814Y-61600186D01*
X52616552Y-61498729D01*
X52587222Y-61462991D01*
X52503557Y-61306466D01*
X52452037Y-61136627D01*
X52434641Y-60960000D01*
X52452037Y-60783373D01*
X52503557Y-60613534D01*
X52587222Y-60457009D01*
X52616552Y-60421271D01*
X52699814Y-60319814D01*
X52801271Y-60236552D01*
X52837009Y-60207222D01*
X52993534Y-60123557D01*
X53163373Y-60072037D01*
X53229558Y-60065518D01*
X53295740Y-60059000D01*
X53384260Y-60059000D01*
X53450442Y-60065518D01*
X53450442Y-60065518D01*
G37*
G36*
X68690442Y-60065518D02*
G01*
X68756627Y-60072037D01*
X68926466Y-60123557D01*
X69082991Y-60207222D01*
X69118729Y-60236552D01*
X69220186Y-60319814D01*
X69303448Y-60421271D01*
X69332778Y-60457009D01*
X69416443Y-60613534D01*
X69467963Y-60783373D01*
X69485359Y-60960000D01*
X69467963Y-61136627D01*
X69416443Y-61306466D01*
X69332778Y-61462991D01*
X69303448Y-61498729D01*
X69220186Y-61600186D01*
X69118729Y-61683448D01*
X69082991Y-61712778D01*
X69082989Y-61712779D01*
X68996863Y-61758815D01*
X68926466Y-61796443D01*
X68756627Y-61847963D01*
X68690443Y-61854481D01*
X68624260Y-61861000D01*
X68535740Y-61861000D01*
X68469557Y-61854481D01*
X68403373Y-61847963D01*
X68233534Y-61796443D01*
X68163138Y-61758815D01*
X68077011Y-61712779D01*
X68077009Y-61712778D01*
X68041271Y-61683448D01*
X67939814Y-61600186D01*
X67856552Y-61498729D01*
X67827222Y-61462991D01*
X67743557Y-61306466D01*
X67692037Y-61136627D01*
X67674641Y-60960000D01*
X67692037Y-60783373D01*
X67743557Y-60613534D01*
X67827222Y-60457009D01*
X67856552Y-60421271D01*
X67939814Y-60319814D01*
X68041271Y-60236552D01*
X68077009Y-60207222D01*
X68233534Y-60123557D01*
X68403373Y-60072037D01*
X68469558Y-60065518D01*
X68535740Y-60059000D01*
X68624260Y-60059000D01*
X68690442Y-60065518D01*
X68690442Y-60065518D01*
G37*
G36*
X60827228Y-58236703D02*
G01*
X60982100Y-58300853D01*
X61121481Y-58393985D01*
X61240015Y-58512519D01*
X61333147Y-58651900D01*
X61397297Y-58806772D01*
X61430000Y-58971184D01*
X61430000Y-59138816D01*
X61397297Y-59303228D01*
X61333147Y-59458100D01*
X61240015Y-59597481D01*
X61121481Y-59716015D01*
X60982100Y-59809147D01*
X60827228Y-59873297D01*
X60662816Y-59906000D01*
X60495184Y-59906000D01*
X60330772Y-59873297D01*
X60175900Y-59809147D01*
X60036519Y-59716015D01*
X59917985Y-59597481D01*
X59824853Y-59458100D01*
X59760703Y-59303228D01*
X59728000Y-59138816D01*
X59728000Y-58971184D01*
X59760703Y-58806772D01*
X59824853Y-58651900D01*
X59917985Y-58512519D01*
X60036519Y-58393985D01*
X60175900Y-58300853D01*
X60330772Y-58236703D01*
X60495184Y-58204000D01*
X60662816Y-58204000D01*
X60827228Y-58236703D01*
X60827228Y-58236703D01*
G37*
G36*
X68690443Y-57525519D02*
G01*
X68756627Y-57532037D01*
X68926466Y-57583557D01*
X69082991Y-57667222D01*
X69118729Y-57696552D01*
X69220186Y-57779814D01*
X69303448Y-57881271D01*
X69332778Y-57917009D01*
X69416443Y-58073534D01*
X69467963Y-58243373D01*
X69485359Y-58420000D01*
X69467963Y-58596627D01*
X69416443Y-58766466D01*
X69332778Y-58922991D01*
X69303448Y-58958729D01*
X69220186Y-59060186D01*
X69124375Y-59138815D01*
X69082991Y-59172778D01*
X68926466Y-59256443D01*
X68756627Y-59307963D01*
X68690442Y-59314482D01*
X68624260Y-59321000D01*
X68535740Y-59321000D01*
X68469558Y-59314482D01*
X68403373Y-59307963D01*
X68233534Y-59256443D01*
X68077009Y-59172778D01*
X68035625Y-59138815D01*
X67939814Y-59060186D01*
X67856552Y-58958729D01*
X67827222Y-58922991D01*
X67743557Y-58766466D01*
X67692037Y-58596627D01*
X67674641Y-58420000D01*
X67692037Y-58243373D01*
X67743557Y-58073534D01*
X67827222Y-57917009D01*
X67856552Y-57881271D01*
X67939814Y-57779814D01*
X68041271Y-57696552D01*
X68077009Y-57667222D01*
X68233534Y-57583557D01*
X68403373Y-57532037D01*
X68469557Y-57525519D01*
X68535740Y-57519000D01*
X68624260Y-57519000D01*
X68690443Y-57525519D01*
X68690443Y-57525519D01*
G37*
G36*
X53450443Y-57525519D02*
G01*
X53516627Y-57532037D01*
X53686466Y-57583557D01*
X53842991Y-57667222D01*
X53878729Y-57696552D01*
X53980186Y-57779814D01*
X54063448Y-57881271D01*
X54092778Y-57917009D01*
X54176443Y-58073534D01*
X54227963Y-58243373D01*
X54245359Y-58420000D01*
X54227963Y-58596627D01*
X54176443Y-58766466D01*
X54092778Y-58922991D01*
X54063448Y-58958729D01*
X53980186Y-59060186D01*
X53884375Y-59138815D01*
X53842991Y-59172778D01*
X53686466Y-59256443D01*
X53516627Y-59307963D01*
X53450442Y-59314482D01*
X53384260Y-59321000D01*
X53295740Y-59321000D01*
X53229558Y-59314482D01*
X53163373Y-59307963D01*
X52993534Y-59256443D01*
X52837009Y-59172778D01*
X52795625Y-59138815D01*
X52699814Y-59060186D01*
X52616552Y-58958729D01*
X52587222Y-58922991D01*
X52503557Y-58766466D01*
X52452037Y-58596627D01*
X52434641Y-58420000D01*
X52452037Y-58243373D01*
X52503557Y-58073534D01*
X52587222Y-57917009D01*
X52616552Y-57881271D01*
X52699814Y-57779814D01*
X52801271Y-57696552D01*
X52837009Y-57667222D01*
X52993534Y-57583557D01*
X53163373Y-57532037D01*
X53229557Y-57525519D01*
X53295740Y-57519000D01*
X53384260Y-57519000D01*
X53450443Y-57525519D01*
X53450443Y-57525519D01*
G37*
G36*
X68690443Y-54985519D02*
G01*
X68756627Y-54992037D01*
X68926466Y-55043557D01*
X69082991Y-55127222D01*
X69118729Y-55156552D01*
X69220186Y-55239814D01*
X69303448Y-55341271D01*
X69332778Y-55377009D01*
X69416443Y-55533534D01*
X69467963Y-55703373D01*
X69485359Y-55880000D01*
X69467963Y-56056627D01*
X69416443Y-56226466D01*
X69332778Y-56382991D01*
X69303448Y-56418729D01*
X69220186Y-56520186D01*
X69118729Y-56603448D01*
X69082991Y-56632778D01*
X68926466Y-56716443D01*
X68756627Y-56767963D01*
X68690443Y-56774481D01*
X68624260Y-56781000D01*
X68535740Y-56781000D01*
X68469557Y-56774481D01*
X68403373Y-56767963D01*
X68233534Y-56716443D01*
X68077009Y-56632778D01*
X68041271Y-56603448D01*
X67939814Y-56520186D01*
X67856552Y-56418729D01*
X67827222Y-56382991D01*
X67743557Y-56226466D01*
X67692037Y-56056627D01*
X67674641Y-55880000D01*
X67692037Y-55703373D01*
X67743557Y-55533534D01*
X67827222Y-55377009D01*
X67856552Y-55341271D01*
X67939814Y-55239814D01*
X68041271Y-55156552D01*
X68077009Y-55127222D01*
X68233534Y-55043557D01*
X68403373Y-54992037D01*
X68469557Y-54985519D01*
X68535740Y-54979000D01*
X68624260Y-54979000D01*
X68690443Y-54985519D01*
X68690443Y-54985519D01*
G37*
G36*
X53450443Y-54985519D02*
G01*
X53516627Y-54992037D01*
X53686466Y-55043557D01*
X53842991Y-55127222D01*
X53878729Y-55156552D01*
X53980186Y-55239814D01*
X54063448Y-55341271D01*
X54092778Y-55377009D01*
X54176443Y-55533534D01*
X54227963Y-55703373D01*
X54245359Y-55880000D01*
X54227963Y-56056627D01*
X54176443Y-56226466D01*
X54092778Y-56382991D01*
X54063448Y-56418729D01*
X53980186Y-56520186D01*
X53878729Y-56603448D01*
X53842991Y-56632778D01*
X53686466Y-56716443D01*
X53516627Y-56767963D01*
X53450443Y-56774481D01*
X53384260Y-56781000D01*
X53295740Y-56781000D01*
X53229557Y-56774481D01*
X53163373Y-56767963D01*
X52993534Y-56716443D01*
X52837009Y-56632778D01*
X52801271Y-56603448D01*
X52699814Y-56520186D01*
X52616552Y-56418729D01*
X52587222Y-56382991D01*
X52503557Y-56226466D01*
X52452037Y-56056627D01*
X52434641Y-55880000D01*
X52452037Y-55703373D01*
X52503557Y-55533534D01*
X52587222Y-55377009D01*
X52616552Y-55341271D01*
X52699814Y-55239814D01*
X52801271Y-55156552D01*
X52837009Y-55127222D01*
X52993534Y-55043557D01*
X53163373Y-54992037D01*
X53229557Y-54985519D01*
X53295740Y-54979000D01*
X53384260Y-54979000D01*
X53450443Y-54985519D01*
X53450443Y-54985519D01*
G37*
G36*
X60827228Y-53236703D02*
G01*
X60982100Y-53300853D01*
X61121481Y-53393985D01*
X61240015Y-53512519D01*
X61333147Y-53651900D01*
X61397297Y-53806772D01*
X61430000Y-53971184D01*
X61430000Y-54138816D01*
X61397297Y-54303228D01*
X61333147Y-54458100D01*
X61240015Y-54597481D01*
X61121481Y-54716015D01*
X60982100Y-54809147D01*
X60827228Y-54873297D01*
X60662816Y-54906000D01*
X60495184Y-54906000D01*
X60330772Y-54873297D01*
X60175900Y-54809147D01*
X60036519Y-54716015D01*
X59917985Y-54597481D01*
X59824853Y-54458100D01*
X59760703Y-54303228D01*
X59728000Y-54138816D01*
X59728000Y-53971184D01*
X59760703Y-53806772D01*
X59824853Y-53651900D01*
X59917985Y-53512519D01*
X60036519Y-53393985D01*
X60175900Y-53300853D01*
X60330772Y-53236703D01*
X60495184Y-53204000D01*
X60662816Y-53204000D01*
X60827228Y-53236703D01*
X60827228Y-53236703D01*
G37*
G36*
X69481000Y-54241000D02*
G01*
X67679000Y-54241000D01*
X67679000Y-52439000D01*
X69481000Y-52439000D01*
X69481000Y-54241000D01*
X69481000Y-54241000D01*
G37*
G36*
X54241000Y-54241000D02*
G01*
X52439000Y-54241000D01*
X52439000Y-52439000D01*
X54241000Y-52439000D01*
X54241000Y-54241000D01*
X54241000Y-54241000D01*
G37*
M02*
