G04 #@! TF.GenerationSoftware,KiCad,Pcbnew,(5.1.4)-1*
G04 #@! TF.CreationDate,2021-04-18T09:35:50+09:00*
G04 #@! TF.ProjectId,audio-board-wm8731,61756469-6f2d-4626-9f61-72642d776d38,rev?*
G04 #@! TF.SameCoordinates,Original*
G04 #@! TF.FileFunction,Soldermask,Top*
G04 #@! TF.FilePolarity,Negative*
%FSLAX46Y46*%
G04 Gerber Fmt 4.6, Leading zero omitted, Abs format (unit mm)*
G04 Created by KiCad (PCBNEW (5.1.4)-1) date 2021-04-18 09:35:50*
%MOMM*%
%LPD*%
G04 APERTURE LIST*
%ADD10C,0.100000*%
G04 APERTURE END LIST*
D10*
G36*
X66688604Y-81628347D02*
G01*
X66725144Y-81639432D01*
X66758821Y-81657433D01*
X66788341Y-81681659D01*
X66812567Y-81711179D01*
X66830568Y-81744856D01*
X66841653Y-81781396D01*
X66846000Y-81825538D01*
X66846000Y-83274462D01*
X66841653Y-83318604D01*
X66830568Y-83355144D01*
X66812567Y-83388821D01*
X66788341Y-83418341D01*
X66758821Y-83442567D01*
X66725144Y-83460568D01*
X66688604Y-83471653D01*
X66644462Y-83476000D01*
X65695538Y-83476000D01*
X65651396Y-83471653D01*
X65614856Y-83460568D01*
X65581179Y-83442567D01*
X65551659Y-83418341D01*
X65527433Y-83388821D01*
X65509432Y-83355144D01*
X65498347Y-83318604D01*
X65494000Y-83274462D01*
X65494000Y-81825538D01*
X65498347Y-81781396D01*
X65509432Y-81744856D01*
X65527433Y-81711179D01*
X65551659Y-81681659D01*
X65581179Y-81657433D01*
X65614856Y-81639432D01*
X65651396Y-81628347D01*
X65695538Y-81624000D01*
X66644462Y-81624000D01*
X66688604Y-81628347D01*
X66688604Y-81628347D01*
G37*
G36*
X63888604Y-81628347D02*
G01*
X63925144Y-81639432D01*
X63958821Y-81657433D01*
X63988341Y-81681659D01*
X64012567Y-81711179D01*
X64030568Y-81744856D01*
X64041653Y-81781396D01*
X64046000Y-81825538D01*
X64046000Y-83274462D01*
X64041653Y-83318604D01*
X64030568Y-83355144D01*
X64012567Y-83388821D01*
X63988341Y-83418341D01*
X63958821Y-83442567D01*
X63925144Y-83460568D01*
X63888604Y-83471653D01*
X63844462Y-83476000D01*
X62895538Y-83476000D01*
X62851396Y-83471653D01*
X62814856Y-83460568D01*
X62781179Y-83442567D01*
X62751659Y-83418341D01*
X62727433Y-83388821D01*
X62709432Y-83355144D01*
X62698347Y-83318604D01*
X62694000Y-83274462D01*
X62694000Y-81825538D01*
X62698347Y-81781396D01*
X62709432Y-81744856D01*
X62727433Y-81711179D01*
X62751659Y-81681659D01*
X62781179Y-81657433D01*
X62814856Y-81639432D01*
X62851396Y-81628347D01*
X62895538Y-81624000D01*
X63844462Y-81624000D01*
X63888604Y-81628347D01*
X63888604Y-81628347D01*
G37*
G36*
X58541228Y-81096703D02*
G01*
X58696100Y-81160853D01*
X58835481Y-81253985D01*
X58954015Y-81372519D01*
X59047147Y-81511900D01*
X59111297Y-81666772D01*
X59144000Y-81831184D01*
X59144000Y-81998816D01*
X59111297Y-82163228D01*
X59047147Y-82318100D01*
X58954015Y-82457481D01*
X58835481Y-82576015D01*
X58696100Y-82669147D01*
X58541228Y-82733297D01*
X58376816Y-82766000D01*
X58209184Y-82766000D01*
X58044772Y-82733297D01*
X57889900Y-82669147D01*
X57750519Y-82576015D01*
X57631985Y-82457481D01*
X57538853Y-82318100D01*
X57474703Y-82163228D01*
X57442000Y-81998816D01*
X57442000Y-81831184D01*
X57474703Y-81666772D01*
X57538853Y-81511900D01*
X57631985Y-81372519D01*
X57750519Y-81253985D01*
X57889900Y-81160853D01*
X58044772Y-81096703D01*
X58209184Y-81064000D01*
X58376816Y-81064000D01*
X58541228Y-81096703D01*
X58541228Y-81096703D01*
G37*
G36*
X68690442Y-80385518D02*
G01*
X68756627Y-80392037D01*
X68926466Y-80443557D01*
X69082991Y-80527222D01*
X69118729Y-80556552D01*
X69220186Y-80639814D01*
X69303448Y-80741271D01*
X69332778Y-80777009D01*
X69416443Y-80933534D01*
X69467963Y-81103373D01*
X69485359Y-81280000D01*
X69467963Y-81456627D01*
X69451196Y-81511900D01*
X69416442Y-81626468D01*
X69375429Y-81703198D01*
X69332778Y-81782991D01*
X69326269Y-81790922D01*
X69220186Y-81920186D01*
X69124375Y-81998815D01*
X69082991Y-82032778D01*
X68926466Y-82116443D01*
X68756627Y-82167963D01*
X68690443Y-82174481D01*
X68624260Y-82181000D01*
X68535740Y-82181000D01*
X68469557Y-82174481D01*
X68403373Y-82167963D01*
X68233534Y-82116443D01*
X68077009Y-82032778D01*
X68035625Y-81998815D01*
X67939814Y-81920186D01*
X67833731Y-81790922D01*
X67827222Y-81782991D01*
X67784571Y-81703198D01*
X67743558Y-81626468D01*
X67708804Y-81511900D01*
X67692037Y-81456627D01*
X67674641Y-81280000D01*
X67692037Y-81103373D01*
X67743557Y-80933534D01*
X67827222Y-80777009D01*
X67856552Y-80741271D01*
X67939814Y-80639814D01*
X68041271Y-80556552D01*
X68077009Y-80527222D01*
X68233534Y-80443557D01*
X68403373Y-80392037D01*
X68469558Y-80385518D01*
X68535740Y-80379000D01*
X68624260Y-80379000D01*
X68690442Y-80385518D01*
X68690442Y-80385518D01*
G37*
G36*
X53450442Y-80385518D02*
G01*
X53516627Y-80392037D01*
X53686466Y-80443557D01*
X53842991Y-80527222D01*
X53878729Y-80556552D01*
X53980186Y-80639814D01*
X54063448Y-80741271D01*
X54092778Y-80777009D01*
X54176443Y-80933534D01*
X54227963Y-81103373D01*
X54245359Y-81280000D01*
X54227963Y-81456627D01*
X54211196Y-81511900D01*
X54176442Y-81626468D01*
X54135429Y-81703198D01*
X54092778Y-81782991D01*
X54086269Y-81790922D01*
X53980186Y-81920186D01*
X53884375Y-81998815D01*
X53842991Y-82032778D01*
X53686466Y-82116443D01*
X53516627Y-82167963D01*
X53450443Y-82174481D01*
X53384260Y-82181000D01*
X53295740Y-82181000D01*
X53229557Y-82174481D01*
X53163373Y-82167963D01*
X52993534Y-82116443D01*
X52837009Y-82032778D01*
X52795625Y-81998815D01*
X52699814Y-81920186D01*
X52593731Y-81790922D01*
X52587222Y-81782991D01*
X52544571Y-81703198D01*
X52503558Y-81626468D01*
X52468804Y-81511900D01*
X52452037Y-81456627D01*
X52434641Y-81280000D01*
X52452037Y-81103373D01*
X52503557Y-80933534D01*
X52587222Y-80777009D01*
X52616552Y-80741271D01*
X52699814Y-80639814D01*
X52801271Y-80556552D01*
X52837009Y-80527222D01*
X52993534Y-80443557D01*
X53163373Y-80392037D01*
X53229558Y-80385518D01*
X53295740Y-80379000D01*
X53384260Y-80379000D01*
X53450442Y-80385518D01*
X53450442Y-80385518D01*
G37*
G36*
X66714468Y-79517565D02*
G01*
X66753138Y-79529296D01*
X66788777Y-79548346D01*
X66820017Y-79573983D01*
X66845654Y-79605223D01*
X66864704Y-79640862D01*
X66876435Y-79679532D01*
X66881000Y-79725888D01*
X66881000Y-80802112D01*
X66876435Y-80848468D01*
X66864704Y-80887138D01*
X66845654Y-80922777D01*
X66820017Y-80954017D01*
X66788777Y-80979654D01*
X66753138Y-80998704D01*
X66714468Y-81010435D01*
X66668112Y-81015000D01*
X66016888Y-81015000D01*
X65970532Y-81010435D01*
X65931862Y-80998704D01*
X65896223Y-80979654D01*
X65864983Y-80954017D01*
X65839346Y-80922777D01*
X65820296Y-80887138D01*
X65808565Y-80848468D01*
X65804000Y-80802112D01*
X65804000Y-79725888D01*
X65808565Y-79679532D01*
X65820296Y-79640862D01*
X65839346Y-79605223D01*
X65864983Y-79573983D01*
X65896223Y-79548346D01*
X65931862Y-79529296D01*
X65970532Y-79517565D01*
X66016888Y-79513000D01*
X66668112Y-79513000D01*
X66714468Y-79517565D01*
X66714468Y-79517565D01*
G37*
G36*
X64839468Y-79517565D02*
G01*
X64878138Y-79529296D01*
X64913777Y-79548346D01*
X64945017Y-79573983D01*
X64970654Y-79605223D01*
X64989704Y-79640862D01*
X65001435Y-79679532D01*
X65006000Y-79725888D01*
X65006000Y-80802112D01*
X65001435Y-80848468D01*
X64989704Y-80887138D01*
X64970654Y-80922777D01*
X64945017Y-80954017D01*
X64913777Y-80979654D01*
X64878138Y-80998704D01*
X64839468Y-81010435D01*
X64793112Y-81015000D01*
X64141888Y-81015000D01*
X64095532Y-81010435D01*
X64056862Y-80998704D01*
X64021223Y-80979654D01*
X63989983Y-80954017D01*
X63964346Y-80922777D01*
X63945296Y-80887138D01*
X63933565Y-80848468D01*
X63929000Y-80802112D01*
X63929000Y-79725888D01*
X63933565Y-79679532D01*
X63945296Y-79640862D01*
X63964346Y-79605223D01*
X63989983Y-79573983D01*
X64021223Y-79548346D01*
X64056862Y-79529296D01*
X64095532Y-79517565D01*
X64141888Y-79513000D01*
X64793112Y-79513000D01*
X64839468Y-79517565D01*
X64839468Y-79517565D01*
G37*
G36*
X53450443Y-77845519D02*
G01*
X53516627Y-77852037D01*
X53686466Y-77903557D01*
X53842991Y-77987222D01*
X53878729Y-78016552D01*
X53980186Y-78099814D01*
X54063448Y-78201271D01*
X54092778Y-78237009D01*
X54176443Y-78393534D01*
X54227963Y-78563373D01*
X54245359Y-78740000D01*
X54227963Y-78916627D01*
X54176443Y-79086466D01*
X54092778Y-79242991D01*
X54063448Y-79278729D01*
X53980186Y-79380186D01*
X53878729Y-79463448D01*
X53842991Y-79492778D01*
X53686466Y-79576443D01*
X53516627Y-79627963D01*
X53468906Y-79632663D01*
X53384260Y-79641000D01*
X53295740Y-79641000D01*
X53211094Y-79632663D01*
X53163373Y-79627963D01*
X52993534Y-79576443D01*
X52837009Y-79492778D01*
X52801271Y-79463448D01*
X52699814Y-79380186D01*
X52616552Y-79278729D01*
X52587222Y-79242991D01*
X52503557Y-79086466D01*
X52452037Y-78916627D01*
X52434641Y-78740000D01*
X52452037Y-78563373D01*
X52503557Y-78393534D01*
X52587222Y-78237009D01*
X52616552Y-78201271D01*
X52699814Y-78099814D01*
X52801271Y-78016552D01*
X52837009Y-77987222D01*
X52993534Y-77903557D01*
X53163373Y-77852037D01*
X53229557Y-77845519D01*
X53295740Y-77839000D01*
X53384260Y-77839000D01*
X53450443Y-77845519D01*
X53450443Y-77845519D01*
G37*
G36*
X68690443Y-77845519D02*
G01*
X68756627Y-77852037D01*
X68926466Y-77903557D01*
X69082991Y-77987222D01*
X69118729Y-78016552D01*
X69220186Y-78099814D01*
X69303448Y-78201271D01*
X69332778Y-78237009D01*
X69416443Y-78393534D01*
X69467963Y-78563373D01*
X69485359Y-78740000D01*
X69467963Y-78916627D01*
X69416443Y-79086466D01*
X69332778Y-79242991D01*
X69303448Y-79278729D01*
X69220186Y-79380186D01*
X69118729Y-79463448D01*
X69082991Y-79492778D01*
X68926466Y-79576443D01*
X68756627Y-79627963D01*
X68708906Y-79632663D01*
X68624260Y-79641000D01*
X68535740Y-79641000D01*
X68451094Y-79632663D01*
X68403373Y-79627963D01*
X68233534Y-79576443D01*
X68077009Y-79492778D01*
X68041271Y-79463448D01*
X67939814Y-79380186D01*
X67856552Y-79278729D01*
X67827222Y-79242991D01*
X67743557Y-79086466D01*
X67692037Y-78916627D01*
X67674641Y-78740000D01*
X67692037Y-78563373D01*
X67743557Y-78393534D01*
X67827222Y-78237009D01*
X67856552Y-78201271D01*
X67939814Y-78099814D01*
X68041271Y-78016552D01*
X68077009Y-77987222D01*
X68233534Y-77903557D01*
X68403373Y-77852037D01*
X68469557Y-77845519D01*
X68535740Y-77839000D01*
X68624260Y-77839000D01*
X68690443Y-77845519D01*
X68690443Y-77845519D01*
G37*
G36*
X63888604Y-77056347D02*
G01*
X63925144Y-77067432D01*
X63958821Y-77085433D01*
X63988341Y-77109659D01*
X64012567Y-77139179D01*
X64030568Y-77172856D01*
X64041653Y-77209396D01*
X64046000Y-77253538D01*
X64046000Y-78702462D01*
X64041653Y-78746604D01*
X64030568Y-78783144D01*
X64012567Y-78816821D01*
X63988341Y-78846341D01*
X63958821Y-78870567D01*
X63925144Y-78888568D01*
X63888604Y-78899653D01*
X63844462Y-78904000D01*
X62895538Y-78904000D01*
X62851396Y-78899653D01*
X62814856Y-78888568D01*
X62781179Y-78870567D01*
X62751659Y-78846341D01*
X62727433Y-78816821D01*
X62709432Y-78783144D01*
X62698347Y-78746604D01*
X62694000Y-78702462D01*
X62694000Y-77253538D01*
X62698347Y-77209396D01*
X62709432Y-77172856D01*
X62727433Y-77139179D01*
X62751659Y-77109659D01*
X62781179Y-77085433D01*
X62814856Y-77067432D01*
X62851396Y-77056347D01*
X62895538Y-77052000D01*
X63844462Y-77052000D01*
X63888604Y-77056347D01*
X63888604Y-77056347D01*
G37*
G36*
X66688604Y-77056347D02*
G01*
X66725144Y-77067432D01*
X66758821Y-77085433D01*
X66788341Y-77109659D01*
X66812567Y-77139179D01*
X66830568Y-77172856D01*
X66841653Y-77209396D01*
X66846000Y-77253538D01*
X66846000Y-78702462D01*
X66841653Y-78746604D01*
X66830568Y-78783144D01*
X66812567Y-78816821D01*
X66788341Y-78846341D01*
X66758821Y-78870567D01*
X66725144Y-78888568D01*
X66688604Y-78899653D01*
X66644462Y-78904000D01*
X65695538Y-78904000D01*
X65651396Y-78899653D01*
X65614856Y-78888568D01*
X65581179Y-78870567D01*
X65551659Y-78846341D01*
X65527433Y-78816821D01*
X65509432Y-78783144D01*
X65498347Y-78746604D01*
X65494000Y-78702462D01*
X65494000Y-77253538D01*
X65498347Y-77209396D01*
X65509432Y-77172856D01*
X65527433Y-77139179D01*
X65551659Y-77109659D01*
X65581179Y-77085433D01*
X65614856Y-77067432D01*
X65651396Y-77056347D01*
X65695538Y-77052000D01*
X66644462Y-77052000D01*
X66688604Y-77056347D01*
X66688604Y-77056347D01*
G37*
G36*
X58541228Y-76096703D02*
G01*
X58696100Y-76160853D01*
X58835481Y-76253985D01*
X58954015Y-76372519D01*
X59047147Y-76511900D01*
X59111297Y-76666772D01*
X59144000Y-76831184D01*
X59144000Y-76998816D01*
X59111297Y-77163228D01*
X59047147Y-77318100D01*
X58954015Y-77457481D01*
X58835481Y-77576015D01*
X58696100Y-77669147D01*
X58541228Y-77733297D01*
X58376816Y-77766000D01*
X58209184Y-77766000D01*
X58044772Y-77733297D01*
X57889900Y-77669147D01*
X57750519Y-77576015D01*
X57631985Y-77457481D01*
X57538853Y-77318100D01*
X57474703Y-77163228D01*
X57442000Y-76998816D01*
X57442000Y-76831184D01*
X57474703Y-76666772D01*
X57538853Y-76511900D01*
X57631985Y-76372519D01*
X57750519Y-76253985D01*
X57889900Y-76160853D01*
X58044772Y-76096703D01*
X58209184Y-76064000D01*
X58376816Y-76064000D01*
X58541228Y-76096703D01*
X58541228Y-76096703D01*
G37*
G36*
X68690442Y-75305518D02*
G01*
X68756627Y-75312037D01*
X68926466Y-75363557D01*
X68926468Y-75363558D01*
X69004729Y-75405390D01*
X69082991Y-75447222D01*
X69112269Y-75471250D01*
X69220186Y-75559814D01*
X69303448Y-75661271D01*
X69332778Y-75697009D01*
X69416443Y-75853534D01*
X69467963Y-76023373D01*
X69485359Y-76200000D01*
X69467963Y-76376627D01*
X69416443Y-76546466D01*
X69332778Y-76702991D01*
X69303448Y-76738729D01*
X69220186Y-76840186D01*
X69118729Y-76923448D01*
X69082991Y-76952778D01*
X69082989Y-76952779D01*
X68996863Y-76998815D01*
X68926466Y-77036443D01*
X68756627Y-77087963D01*
X68690442Y-77094482D01*
X68624260Y-77101000D01*
X68535740Y-77101000D01*
X68469558Y-77094482D01*
X68403373Y-77087963D01*
X68233534Y-77036443D01*
X68163138Y-76998815D01*
X68077011Y-76952779D01*
X68077009Y-76952778D01*
X68041271Y-76923448D01*
X67939814Y-76840186D01*
X67856552Y-76738729D01*
X67827222Y-76702991D01*
X67743557Y-76546466D01*
X67692037Y-76376627D01*
X67674641Y-76200000D01*
X67692037Y-76023373D01*
X67743557Y-75853534D01*
X67827222Y-75697009D01*
X67856552Y-75661271D01*
X67939814Y-75559814D01*
X68047731Y-75471250D01*
X68077009Y-75447222D01*
X68155271Y-75405390D01*
X68233532Y-75363558D01*
X68233534Y-75363557D01*
X68403373Y-75312037D01*
X68469558Y-75305518D01*
X68535740Y-75299000D01*
X68624260Y-75299000D01*
X68690442Y-75305518D01*
X68690442Y-75305518D01*
G37*
G36*
X53450442Y-75305518D02*
G01*
X53516627Y-75312037D01*
X53686466Y-75363557D01*
X53686468Y-75363558D01*
X53764729Y-75405390D01*
X53842991Y-75447222D01*
X53872269Y-75471250D01*
X53980186Y-75559814D01*
X54063448Y-75661271D01*
X54092778Y-75697009D01*
X54176443Y-75853534D01*
X54227963Y-76023373D01*
X54245359Y-76200000D01*
X54227963Y-76376627D01*
X54176443Y-76546466D01*
X54092778Y-76702991D01*
X54063448Y-76738729D01*
X53980186Y-76840186D01*
X53878729Y-76923448D01*
X53842991Y-76952778D01*
X53842989Y-76952779D01*
X53756863Y-76998815D01*
X53686466Y-77036443D01*
X53516627Y-77087963D01*
X53450442Y-77094482D01*
X53384260Y-77101000D01*
X53295740Y-77101000D01*
X53229558Y-77094482D01*
X53163373Y-77087963D01*
X52993534Y-77036443D01*
X52923138Y-76998815D01*
X52837011Y-76952779D01*
X52837009Y-76952778D01*
X52801271Y-76923448D01*
X52699814Y-76840186D01*
X52616552Y-76738729D01*
X52587222Y-76702991D01*
X52503557Y-76546466D01*
X52452037Y-76376627D01*
X52434641Y-76200000D01*
X52452037Y-76023373D01*
X52503557Y-75853534D01*
X52587222Y-75697009D01*
X52616552Y-75661271D01*
X52699814Y-75559814D01*
X52807731Y-75471250D01*
X52837009Y-75447222D01*
X52915271Y-75405390D01*
X52993532Y-75363558D01*
X52993534Y-75363557D01*
X53163373Y-75312037D01*
X53229558Y-75305518D01*
X53295740Y-75299000D01*
X53384260Y-75299000D01*
X53450442Y-75305518D01*
X53450442Y-75305518D01*
G37*
G36*
X64839468Y-74945565D02*
G01*
X64878138Y-74957296D01*
X64913777Y-74976346D01*
X64945017Y-75001983D01*
X64970654Y-75033223D01*
X64989704Y-75068862D01*
X65001435Y-75107532D01*
X65006000Y-75153888D01*
X65006000Y-76230112D01*
X65001435Y-76276468D01*
X64989704Y-76315138D01*
X64970654Y-76350777D01*
X64945017Y-76382017D01*
X64913777Y-76407654D01*
X64878138Y-76426704D01*
X64839468Y-76438435D01*
X64793112Y-76443000D01*
X64141888Y-76443000D01*
X64095532Y-76438435D01*
X64056862Y-76426704D01*
X64021223Y-76407654D01*
X63989983Y-76382017D01*
X63964346Y-76350777D01*
X63945296Y-76315138D01*
X63933565Y-76276468D01*
X63929000Y-76230112D01*
X63929000Y-75153888D01*
X63933565Y-75107532D01*
X63945296Y-75068862D01*
X63964346Y-75033223D01*
X63989983Y-75001983D01*
X64021223Y-74976346D01*
X64056862Y-74957296D01*
X64095532Y-74945565D01*
X64141888Y-74941000D01*
X64793112Y-74941000D01*
X64839468Y-74945565D01*
X64839468Y-74945565D01*
G37*
G36*
X66714468Y-74945565D02*
G01*
X66753138Y-74957296D01*
X66788777Y-74976346D01*
X66820017Y-75001983D01*
X66845654Y-75033223D01*
X66864704Y-75068862D01*
X66876435Y-75107532D01*
X66881000Y-75153888D01*
X66881000Y-76230112D01*
X66876435Y-76276468D01*
X66864704Y-76315138D01*
X66845654Y-76350777D01*
X66820017Y-76382017D01*
X66788777Y-76407654D01*
X66753138Y-76426704D01*
X66714468Y-76438435D01*
X66668112Y-76443000D01*
X66016888Y-76443000D01*
X65970532Y-76438435D01*
X65931862Y-76426704D01*
X65896223Y-76407654D01*
X65864983Y-76382017D01*
X65839346Y-76350777D01*
X65820296Y-76315138D01*
X65808565Y-76276468D01*
X65804000Y-76230112D01*
X65804000Y-75153888D01*
X65808565Y-75107532D01*
X65820296Y-75068862D01*
X65839346Y-75033223D01*
X65864983Y-75001983D01*
X65896223Y-74976346D01*
X65931862Y-74957296D01*
X65970532Y-74945565D01*
X66016888Y-74941000D01*
X66668112Y-74941000D01*
X66714468Y-74945565D01*
X66714468Y-74945565D01*
G37*
G36*
X62433468Y-75206565D02*
G01*
X62472138Y-75218296D01*
X62507777Y-75237346D01*
X62539017Y-75262983D01*
X62564654Y-75294223D01*
X62583704Y-75329862D01*
X62595435Y-75368532D01*
X62600000Y-75414888D01*
X62600000Y-76066112D01*
X62595435Y-76112468D01*
X62583704Y-76151138D01*
X62564654Y-76186777D01*
X62539017Y-76218017D01*
X62507777Y-76243654D01*
X62472138Y-76262704D01*
X62433468Y-76274435D01*
X62387112Y-76279000D01*
X61310888Y-76279000D01*
X61264532Y-76274435D01*
X61225862Y-76262704D01*
X61190223Y-76243654D01*
X61158983Y-76218017D01*
X61133346Y-76186777D01*
X61114296Y-76151138D01*
X61102565Y-76112468D01*
X61098000Y-76066112D01*
X61098000Y-75414888D01*
X61102565Y-75368532D01*
X61114296Y-75329862D01*
X61133346Y-75294223D01*
X61158983Y-75262983D01*
X61190223Y-75237346D01*
X61225862Y-75218296D01*
X61264532Y-75206565D01*
X61310888Y-75202000D01*
X62387112Y-75202000D01*
X62433468Y-75206565D01*
X62433468Y-75206565D01*
G37*
G36*
X58541228Y-73476703D02*
G01*
X58696100Y-73540853D01*
X58835481Y-73633985D01*
X58954015Y-73752519D01*
X59047147Y-73891900D01*
X59111297Y-74046772D01*
X59144000Y-74211184D01*
X59144000Y-74378816D01*
X59111297Y-74543228D01*
X59047147Y-74698100D01*
X58954015Y-74837481D01*
X58835481Y-74956015D01*
X58696100Y-75049147D01*
X58541228Y-75113297D01*
X58376816Y-75146000D01*
X58209184Y-75146000D01*
X58044772Y-75113297D01*
X57889900Y-75049147D01*
X57750519Y-74956015D01*
X57631985Y-74837481D01*
X57538853Y-74698100D01*
X57474703Y-74543228D01*
X57442000Y-74378816D01*
X57442000Y-74211184D01*
X57474703Y-74046772D01*
X57538853Y-73891900D01*
X57631985Y-73752519D01*
X57750519Y-73633985D01*
X57889900Y-73540853D01*
X58044772Y-73476703D01*
X58209184Y-73444000D01*
X58376816Y-73444000D01*
X58541228Y-73476703D01*
X58541228Y-73476703D01*
G37*
G36*
X53450442Y-72765518D02*
G01*
X53516627Y-72772037D01*
X53686466Y-72823557D01*
X53842991Y-72907222D01*
X53874706Y-72933250D01*
X53980186Y-73019814D01*
X54063448Y-73121271D01*
X54092778Y-73157009D01*
X54176443Y-73313534D01*
X54220386Y-73458395D01*
X54229762Y-73481029D01*
X54243375Y-73501403D01*
X54260702Y-73518730D01*
X54270408Y-73525216D01*
X54269011Y-73526613D01*
X54255397Y-73546987D01*
X54246020Y-73569626D01*
X54241239Y-73593660D01*
X54241239Y-73618164D01*
X54245359Y-73660000D01*
X54227963Y-73836627D01*
X54176443Y-74006466D01*
X54092778Y-74162991D01*
X54069154Y-74191777D01*
X53980186Y-74300186D01*
X53908979Y-74358623D01*
X53842991Y-74412778D01*
X53686466Y-74496443D01*
X53516627Y-74547963D01*
X53450442Y-74554482D01*
X53384260Y-74561000D01*
X53295740Y-74561000D01*
X53229558Y-74554482D01*
X53163373Y-74547963D01*
X52993534Y-74496443D01*
X52837009Y-74412778D01*
X52771021Y-74358623D01*
X52699814Y-74300186D01*
X52610846Y-74191777D01*
X52587222Y-74162991D01*
X52503557Y-74006466D01*
X52452037Y-73836627D01*
X52434641Y-73660000D01*
X52452037Y-73483373D01*
X52503557Y-73313534D01*
X52587222Y-73157009D01*
X52616552Y-73121271D01*
X52699814Y-73019814D01*
X52805294Y-72933250D01*
X52837009Y-72907222D01*
X52993534Y-72823557D01*
X53163373Y-72772037D01*
X53229558Y-72765518D01*
X53295740Y-72759000D01*
X53384260Y-72759000D01*
X53450442Y-72765518D01*
X53450442Y-72765518D01*
G37*
G36*
X68690442Y-72765518D02*
G01*
X68756627Y-72772037D01*
X68926466Y-72823557D01*
X69082991Y-72907222D01*
X69114706Y-72933250D01*
X69220186Y-73019814D01*
X69303448Y-73121271D01*
X69332778Y-73157009D01*
X69416443Y-73313534D01*
X69467963Y-73483373D01*
X69485359Y-73660000D01*
X69467963Y-73836627D01*
X69416443Y-74006466D01*
X69332778Y-74162991D01*
X69309154Y-74191777D01*
X69220186Y-74300186D01*
X69148979Y-74358623D01*
X69082991Y-74412778D01*
X68926466Y-74496443D01*
X68756627Y-74547963D01*
X68690442Y-74554482D01*
X68624260Y-74561000D01*
X68535740Y-74561000D01*
X68469558Y-74554482D01*
X68403373Y-74547963D01*
X68233534Y-74496443D01*
X68077009Y-74412778D01*
X68011021Y-74358623D01*
X67939814Y-74300186D01*
X67850846Y-74191777D01*
X67827222Y-74162991D01*
X67743557Y-74006466D01*
X67692037Y-73836627D01*
X67674641Y-73660000D01*
X67692037Y-73483373D01*
X67743557Y-73313534D01*
X67827222Y-73157009D01*
X67856552Y-73121271D01*
X67939814Y-73019814D01*
X68045294Y-72933250D01*
X68077009Y-72907222D01*
X68233534Y-72823557D01*
X68403373Y-72772037D01*
X68469558Y-72765518D01*
X68535740Y-72759000D01*
X68624260Y-72759000D01*
X68690442Y-72765518D01*
X68690442Y-72765518D01*
G37*
G36*
X62433468Y-73331565D02*
G01*
X62472138Y-73343296D01*
X62507777Y-73362346D01*
X62539017Y-73387983D01*
X62564654Y-73419223D01*
X62583704Y-73454862D01*
X62595435Y-73493532D01*
X62600000Y-73539888D01*
X62600000Y-74191112D01*
X62595435Y-74237468D01*
X62583704Y-74276138D01*
X62564654Y-74311777D01*
X62539017Y-74343017D01*
X62507777Y-74368654D01*
X62472138Y-74387704D01*
X62433468Y-74399435D01*
X62387112Y-74404000D01*
X61310888Y-74404000D01*
X61264532Y-74399435D01*
X61225862Y-74387704D01*
X61190223Y-74368654D01*
X61158983Y-74343017D01*
X61133346Y-74311777D01*
X61114296Y-74276138D01*
X61102565Y-74237468D01*
X61098000Y-74191112D01*
X61098000Y-73539888D01*
X61102565Y-73493532D01*
X61114296Y-73454862D01*
X61133346Y-73419223D01*
X61158983Y-73387983D01*
X61190223Y-73362346D01*
X61225862Y-73343296D01*
X61264532Y-73331565D01*
X61310888Y-73327000D01*
X62387112Y-73327000D01*
X62433468Y-73331565D01*
X62433468Y-73331565D01*
G37*
G36*
X64839468Y-72786565D02*
G01*
X64878138Y-72798296D01*
X64913777Y-72817346D01*
X64945017Y-72842983D01*
X64970654Y-72874223D01*
X64989704Y-72909862D01*
X65001435Y-72948532D01*
X65006000Y-72994888D01*
X65006000Y-74071112D01*
X65001435Y-74117468D01*
X64989704Y-74156138D01*
X64970654Y-74191777D01*
X64945017Y-74223017D01*
X64913777Y-74248654D01*
X64878138Y-74267704D01*
X64839468Y-74279435D01*
X64793112Y-74284000D01*
X64141888Y-74284000D01*
X64095532Y-74279435D01*
X64056862Y-74267704D01*
X64021223Y-74248654D01*
X63989983Y-74223017D01*
X63964346Y-74191777D01*
X63945296Y-74156138D01*
X63933565Y-74117468D01*
X63929000Y-74071112D01*
X63929000Y-72994888D01*
X63933565Y-72948532D01*
X63945296Y-72909862D01*
X63964346Y-72874223D01*
X63989983Y-72842983D01*
X64021223Y-72817346D01*
X64056862Y-72798296D01*
X64095532Y-72786565D01*
X64141888Y-72782000D01*
X64793112Y-72782000D01*
X64839468Y-72786565D01*
X64839468Y-72786565D01*
G37*
G36*
X66714468Y-72786565D02*
G01*
X66753138Y-72798296D01*
X66788777Y-72817346D01*
X66820017Y-72842983D01*
X66845654Y-72874223D01*
X66864704Y-72909862D01*
X66876435Y-72948532D01*
X66881000Y-72994888D01*
X66881000Y-74071112D01*
X66876435Y-74117468D01*
X66864704Y-74156138D01*
X66845654Y-74191777D01*
X66820017Y-74223017D01*
X66788777Y-74248654D01*
X66753138Y-74267704D01*
X66714468Y-74279435D01*
X66668112Y-74284000D01*
X66016888Y-74284000D01*
X65970532Y-74279435D01*
X65931862Y-74267704D01*
X65896223Y-74248654D01*
X65864983Y-74223017D01*
X65839346Y-74191777D01*
X65820296Y-74156138D01*
X65808565Y-74117468D01*
X65804000Y-74071112D01*
X65804000Y-72994888D01*
X65808565Y-72948532D01*
X65820296Y-72909862D01*
X65839346Y-72874223D01*
X65864983Y-72842983D01*
X65896223Y-72817346D01*
X65931862Y-72798296D01*
X65970532Y-72786565D01*
X66016888Y-72782000D01*
X66668112Y-72782000D01*
X66714468Y-72786565D01*
X66714468Y-72786565D01*
G37*
G36*
X55370591Y-72693085D02*
G01*
X55404569Y-72703393D01*
X55435890Y-72720134D01*
X55463339Y-72742661D01*
X55485866Y-72770110D01*
X55502607Y-72801431D01*
X55512915Y-72835409D01*
X55517000Y-72876890D01*
X55517000Y-73478110D01*
X55512915Y-73519591D01*
X55502607Y-73553569D01*
X55485866Y-73584890D01*
X55463339Y-73612339D01*
X55435890Y-73634866D01*
X55404569Y-73651607D01*
X55370591Y-73661915D01*
X55329110Y-73666000D01*
X54652890Y-73666000D01*
X54611409Y-73661915D01*
X54577431Y-73651607D01*
X54546110Y-73634866D01*
X54518661Y-73612339D01*
X54496133Y-73584888D01*
X54475875Y-73546988D01*
X54462262Y-73526614D01*
X54444935Y-73509287D01*
X54435229Y-73502801D01*
X54436626Y-73501404D01*
X54450240Y-73481029D01*
X54459618Y-73458391D01*
X54464398Y-73434357D01*
X54465000Y-73422105D01*
X54465000Y-72876890D01*
X54469085Y-72835409D01*
X54479393Y-72801431D01*
X54496134Y-72770110D01*
X54518661Y-72742661D01*
X54546110Y-72720134D01*
X54577431Y-72703393D01*
X54611409Y-72693085D01*
X54652890Y-72689000D01*
X55329110Y-72689000D01*
X55370591Y-72693085D01*
X55370591Y-72693085D01*
G37*
G36*
X64839468Y-70627565D02*
G01*
X64878138Y-70639296D01*
X64913777Y-70658346D01*
X64945017Y-70683983D01*
X64970654Y-70715223D01*
X64989704Y-70750862D01*
X65001435Y-70789532D01*
X65006000Y-70835888D01*
X65006000Y-71912112D01*
X65001435Y-71958468D01*
X64989704Y-71997138D01*
X64970654Y-72032777D01*
X64945017Y-72064017D01*
X64913777Y-72089654D01*
X64878138Y-72108704D01*
X64839468Y-72120435D01*
X64793112Y-72125000D01*
X64141888Y-72125000D01*
X64095532Y-72120435D01*
X64056862Y-72108704D01*
X64021223Y-72089654D01*
X63989983Y-72064017D01*
X63964346Y-72032777D01*
X63945296Y-71997138D01*
X63933565Y-71958468D01*
X63929000Y-71912112D01*
X63929000Y-70835888D01*
X63933565Y-70789532D01*
X63945296Y-70750862D01*
X63964346Y-70715223D01*
X63989983Y-70683983D01*
X64021223Y-70658346D01*
X64056862Y-70639296D01*
X64095532Y-70627565D01*
X64141888Y-70623000D01*
X64793112Y-70623000D01*
X64839468Y-70627565D01*
X64839468Y-70627565D01*
G37*
G36*
X66714468Y-70627565D02*
G01*
X66753138Y-70639296D01*
X66788777Y-70658346D01*
X66820017Y-70683983D01*
X66845654Y-70715223D01*
X66864704Y-70750862D01*
X66876435Y-70789532D01*
X66881000Y-70835888D01*
X66881000Y-71912112D01*
X66876435Y-71958468D01*
X66864704Y-71997138D01*
X66845654Y-72032777D01*
X66820017Y-72064017D01*
X66788777Y-72089654D01*
X66753138Y-72108704D01*
X66714468Y-72120435D01*
X66668112Y-72125000D01*
X66016888Y-72125000D01*
X65970532Y-72120435D01*
X65931862Y-72108704D01*
X65896223Y-72089654D01*
X65864983Y-72064017D01*
X65839346Y-72032777D01*
X65820296Y-71997138D01*
X65808565Y-71958468D01*
X65804000Y-71912112D01*
X65804000Y-70835888D01*
X65808565Y-70789532D01*
X65820296Y-70750862D01*
X65839346Y-70715223D01*
X65864983Y-70683983D01*
X65896223Y-70658346D01*
X65931862Y-70639296D01*
X65970532Y-70627565D01*
X66016888Y-70623000D01*
X66668112Y-70623000D01*
X66714468Y-70627565D01*
X66714468Y-70627565D01*
G37*
G36*
X55370591Y-71118085D02*
G01*
X55404569Y-71128393D01*
X55435890Y-71145134D01*
X55463339Y-71167661D01*
X55485866Y-71195110D01*
X55502607Y-71226431D01*
X55512915Y-71260409D01*
X55517000Y-71301890D01*
X55517000Y-71903110D01*
X55512915Y-71944591D01*
X55502607Y-71978569D01*
X55485866Y-72009890D01*
X55463339Y-72037339D01*
X55435890Y-72059866D01*
X55404569Y-72076607D01*
X55370591Y-72086915D01*
X55329110Y-72091000D01*
X54652890Y-72091000D01*
X54611409Y-72086915D01*
X54577431Y-72076607D01*
X54546110Y-72059866D01*
X54518661Y-72037339D01*
X54496134Y-72009890D01*
X54479393Y-71978569D01*
X54469085Y-71944591D01*
X54465000Y-71903110D01*
X54465000Y-71357895D01*
X54462598Y-71333509D01*
X54455485Y-71310060D01*
X54443934Y-71288449D01*
X54434888Y-71277426D01*
X54444935Y-71270713D01*
X54462262Y-71253386D01*
X54475875Y-71233012D01*
X54496133Y-71195112D01*
X54518661Y-71167661D01*
X54546110Y-71145134D01*
X54577431Y-71128393D01*
X54611409Y-71118085D01*
X54652890Y-71114000D01*
X55329110Y-71114000D01*
X55370591Y-71118085D01*
X55370591Y-71118085D01*
G37*
G36*
X53450442Y-70225518D02*
G01*
X53516627Y-70232037D01*
X53686466Y-70283557D01*
X53842991Y-70367222D01*
X53878729Y-70396552D01*
X53980186Y-70479814D01*
X54063448Y-70581271D01*
X54092778Y-70617009D01*
X54092779Y-70617011D01*
X54164325Y-70750862D01*
X54176443Y-70773534D01*
X54227963Y-70943373D01*
X54244768Y-71114000D01*
X54245359Y-71120000D01*
X54241239Y-71161836D01*
X54241239Y-71186341D01*
X54246020Y-71210374D01*
X54255397Y-71233013D01*
X54269011Y-71253387D01*
X54270023Y-71254399D01*
X54251613Y-71269507D01*
X54236068Y-71288449D01*
X54224517Y-71310060D01*
X54220387Y-71321601D01*
X54176443Y-71466466D01*
X54092778Y-71622991D01*
X54063448Y-71658729D01*
X53980186Y-71760186D01*
X53890242Y-71834000D01*
X53842991Y-71872778D01*
X53686466Y-71956443D01*
X53516627Y-72007963D01*
X53450443Y-72014481D01*
X53384260Y-72021000D01*
X53295740Y-72021000D01*
X53229557Y-72014481D01*
X53163373Y-72007963D01*
X52993534Y-71956443D01*
X52837009Y-71872778D01*
X52789758Y-71834000D01*
X52699814Y-71760186D01*
X52616552Y-71658729D01*
X52587222Y-71622991D01*
X52503557Y-71466466D01*
X52452037Y-71296627D01*
X52434641Y-71120000D01*
X52452037Y-70943373D01*
X52503557Y-70773534D01*
X52515676Y-70750862D01*
X52587221Y-70617011D01*
X52587222Y-70617009D01*
X52616552Y-70581271D01*
X52699814Y-70479814D01*
X52801271Y-70396552D01*
X52837009Y-70367222D01*
X52993534Y-70283557D01*
X53163373Y-70232037D01*
X53229558Y-70225518D01*
X53295740Y-70219000D01*
X53384260Y-70219000D01*
X53450442Y-70225518D01*
X53450442Y-70225518D01*
G37*
G36*
X68690442Y-70225518D02*
G01*
X68756627Y-70232037D01*
X68926466Y-70283557D01*
X69082991Y-70367222D01*
X69118729Y-70396552D01*
X69220186Y-70479814D01*
X69303448Y-70581271D01*
X69332778Y-70617009D01*
X69332779Y-70617011D01*
X69404325Y-70750862D01*
X69416443Y-70773534D01*
X69467963Y-70943373D01*
X69485359Y-71120000D01*
X69467963Y-71296627D01*
X69416443Y-71466466D01*
X69332778Y-71622991D01*
X69303448Y-71658729D01*
X69220186Y-71760186D01*
X69130242Y-71834000D01*
X69082991Y-71872778D01*
X68926466Y-71956443D01*
X68756627Y-72007963D01*
X68690443Y-72014481D01*
X68624260Y-72021000D01*
X68535740Y-72021000D01*
X68469557Y-72014481D01*
X68403373Y-72007963D01*
X68233534Y-71956443D01*
X68077009Y-71872778D01*
X68029758Y-71834000D01*
X67939814Y-71760186D01*
X67856552Y-71658729D01*
X67827222Y-71622991D01*
X67743557Y-71466466D01*
X67692037Y-71296627D01*
X67674641Y-71120000D01*
X67692037Y-70943373D01*
X67743557Y-70773534D01*
X67755676Y-70750862D01*
X67827221Y-70617011D01*
X67827222Y-70617009D01*
X67856552Y-70581271D01*
X67939814Y-70479814D01*
X68041271Y-70396552D01*
X68077009Y-70367222D01*
X68233534Y-70283557D01*
X68403373Y-70232037D01*
X68469558Y-70225518D01*
X68535740Y-70219000D01*
X68624260Y-70219000D01*
X68690442Y-70225518D01*
X68690442Y-70225518D01*
G37*
G36*
X62433468Y-70761565D02*
G01*
X62472138Y-70773296D01*
X62507777Y-70792346D01*
X62539017Y-70817983D01*
X62564654Y-70849223D01*
X62583704Y-70884862D01*
X62595435Y-70923532D01*
X62600000Y-70969888D01*
X62600000Y-71621112D01*
X62595435Y-71667468D01*
X62583704Y-71706138D01*
X62564654Y-71741777D01*
X62539017Y-71773017D01*
X62507777Y-71798654D01*
X62472138Y-71817704D01*
X62433468Y-71829435D01*
X62387112Y-71834000D01*
X61310888Y-71834000D01*
X61264532Y-71829435D01*
X61225862Y-71817704D01*
X61190223Y-71798654D01*
X61158983Y-71773017D01*
X61133346Y-71741777D01*
X61114296Y-71706138D01*
X61102565Y-71667468D01*
X61098000Y-71621112D01*
X61098000Y-70969888D01*
X61102565Y-70923532D01*
X61114296Y-70884862D01*
X61133346Y-70849223D01*
X61158983Y-70817983D01*
X61190223Y-70792346D01*
X61225862Y-70773296D01*
X61264532Y-70761565D01*
X61310888Y-70757000D01*
X62387112Y-70757000D01*
X62433468Y-70761565D01*
X62433468Y-70761565D01*
G37*
G36*
X58541228Y-68476703D02*
G01*
X58696100Y-68540853D01*
X58835481Y-68633985D01*
X58954015Y-68752519D01*
X59047147Y-68891900D01*
X59111297Y-69046772D01*
X59144000Y-69211184D01*
X59144000Y-69378816D01*
X59111297Y-69543228D01*
X59047147Y-69698100D01*
X58954015Y-69837481D01*
X58835481Y-69956015D01*
X58696100Y-70049147D01*
X58541228Y-70113297D01*
X58376816Y-70146000D01*
X58209184Y-70146000D01*
X58044772Y-70113297D01*
X57889900Y-70049147D01*
X57750519Y-69956015D01*
X57631985Y-69837481D01*
X57538853Y-69698100D01*
X57474703Y-69543228D01*
X57442000Y-69378816D01*
X57442000Y-69211184D01*
X57474703Y-69046772D01*
X57538853Y-68891900D01*
X57631985Y-68752519D01*
X57750519Y-68633985D01*
X57889900Y-68540853D01*
X58044772Y-68476703D01*
X58209184Y-68444000D01*
X58376816Y-68444000D01*
X58541228Y-68476703D01*
X58541228Y-68476703D01*
G37*
G36*
X66714468Y-68468565D02*
G01*
X66753138Y-68480296D01*
X66788777Y-68499346D01*
X66820017Y-68524983D01*
X66845654Y-68556223D01*
X66864704Y-68591862D01*
X66876435Y-68630532D01*
X66881000Y-68676888D01*
X66881000Y-69753112D01*
X66876435Y-69799468D01*
X66864704Y-69838138D01*
X66845654Y-69873777D01*
X66820017Y-69905017D01*
X66788777Y-69930654D01*
X66753138Y-69949704D01*
X66714468Y-69961435D01*
X66668112Y-69966000D01*
X66016888Y-69966000D01*
X65970532Y-69961435D01*
X65931862Y-69949704D01*
X65896223Y-69930654D01*
X65864983Y-69905017D01*
X65839346Y-69873777D01*
X65820296Y-69838138D01*
X65808565Y-69799468D01*
X65804000Y-69753112D01*
X65804000Y-68676888D01*
X65808565Y-68630532D01*
X65820296Y-68591862D01*
X65839346Y-68556223D01*
X65864983Y-68524983D01*
X65896223Y-68499346D01*
X65931862Y-68480296D01*
X65970532Y-68468565D01*
X66016888Y-68464000D01*
X66668112Y-68464000D01*
X66714468Y-68468565D01*
X66714468Y-68468565D01*
G37*
G36*
X64839468Y-68468565D02*
G01*
X64878138Y-68480296D01*
X64913777Y-68499346D01*
X64945017Y-68524983D01*
X64970654Y-68556223D01*
X64989704Y-68591862D01*
X65001435Y-68630532D01*
X65006000Y-68676888D01*
X65006000Y-69753112D01*
X65001435Y-69799468D01*
X64989704Y-69838138D01*
X64970654Y-69873777D01*
X64945017Y-69905017D01*
X64913777Y-69930654D01*
X64878138Y-69949704D01*
X64839468Y-69961435D01*
X64793112Y-69966000D01*
X64141888Y-69966000D01*
X64095532Y-69961435D01*
X64056862Y-69949704D01*
X64021223Y-69930654D01*
X63989983Y-69905017D01*
X63964346Y-69873777D01*
X63945296Y-69838138D01*
X63933565Y-69799468D01*
X63929000Y-69753112D01*
X63929000Y-68676888D01*
X63933565Y-68630532D01*
X63945296Y-68591862D01*
X63964346Y-68556223D01*
X63989983Y-68524983D01*
X64021223Y-68499346D01*
X64056862Y-68480296D01*
X64095532Y-68468565D01*
X64141888Y-68464000D01*
X64793112Y-68464000D01*
X64839468Y-68468565D01*
X64839468Y-68468565D01*
G37*
G36*
X62433468Y-68886565D02*
G01*
X62472138Y-68898296D01*
X62507777Y-68917346D01*
X62539017Y-68942983D01*
X62564654Y-68974223D01*
X62583704Y-69009862D01*
X62595435Y-69048532D01*
X62600000Y-69094888D01*
X62600000Y-69746112D01*
X62595435Y-69792468D01*
X62583704Y-69831138D01*
X62564654Y-69866777D01*
X62539017Y-69898017D01*
X62507777Y-69923654D01*
X62472138Y-69942704D01*
X62433468Y-69954435D01*
X62387112Y-69959000D01*
X61310888Y-69959000D01*
X61264532Y-69954435D01*
X61225862Y-69942704D01*
X61190223Y-69923654D01*
X61158983Y-69898017D01*
X61133346Y-69866777D01*
X61114296Y-69831138D01*
X61102565Y-69792468D01*
X61098000Y-69746112D01*
X61098000Y-69094888D01*
X61102565Y-69048532D01*
X61114296Y-69009862D01*
X61133346Y-68974223D01*
X61158983Y-68942983D01*
X61190223Y-68917346D01*
X61225862Y-68898296D01*
X61264532Y-68886565D01*
X61310888Y-68882000D01*
X62387112Y-68882000D01*
X62433468Y-68886565D01*
X62433468Y-68886565D01*
G37*
G36*
X68690443Y-67685519D02*
G01*
X68756627Y-67692037D01*
X68926466Y-67743557D01*
X69082991Y-67827222D01*
X69118729Y-67856552D01*
X69220186Y-67939814D01*
X69303448Y-68041271D01*
X69332778Y-68077009D01*
X69416443Y-68233534D01*
X69467963Y-68403373D01*
X69485359Y-68580000D01*
X69467963Y-68756627D01*
X69416443Y-68926466D01*
X69332778Y-69082991D01*
X69303448Y-69118729D01*
X69220186Y-69220186D01*
X69118729Y-69303448D01*
X69082991Y-69332778D01*
X69082989Y-69332779D01*
X68996863Y-69378815D01*
X68926466Y-69416443D01*
X68756627Y-69467963D01*
X68690442Y-69474482D01*
X68624260Y-69481000D01*
X68535740Y-69481000D01*
X68469558Y-69474482D01*
X68403373Y-69467963D01*
X68233534Y-69416443D01*
X68163138Y-69378815D01*
X68077011Y-69332779D01*
X68077009Y-69332778D01*
X68041271Y-69303448D01*
X67939814Y-69220186D01*
X67856552Y-69118729D01*
X67827222Y-69082991D01*
X67743557Y-68926466D01*
X67692037Y-68756627D01*
X67674641Y-68580000D01*
X67692037Y-68403373D01*
X67743557Y-68233534D01*
X67827222Y-68077009D01*
X67856552Y-68041271D01*
X67939814Y-67939814D01*
X68041271Y-67856552D01*
X68077009Y-67827222D01*
X68233534Y-67743557D01*
X68403373Y-67692037D01*
X68469557Y-67685519D01*
X68535740Y-67679000D01*
X68624260Y-67679000D01*
X68690443Y-67685519D01*
X68690443Y-67685519D01*
G37*
G36*
X53450443Y-67685519D02*
G01*
X53516627Y-67692037D01*
X53686466Y-67743557D01*
X53842991Y-67827222D01*
X53878729Y-67856552D01*
X53980186Y-67939814D01*
X54063448Y-68041271D01*
X54092778Y-68077009D01*
X54176443Y-68233534D01*
X54227963Y-68403373D01*
X54245359Y-68580000D01*
X54227963Y-68756627D01*
X54176443Y-68926466D01*
X54092778Y-69082991D01*
X54063448Y-69118729D01*
X53980186Y-69220186D01*
X53878729Y-69303448D01*
X53842991Y-69332778D01*
X53842989Y-69332779D01*
X53756863Y-69378815D01*
X53686466Y-69416443D01*
X53516627Y-69467963D01*
X53450442Y-69474482D01*
X53384260Y-69481000D01*
X53295740Y-69481000D01*
X53229558Y-69474482D01*
X53163373Y-69467963D01*
X52993534Y-69416443D01*
X52923138Y-69378815D01*
X52837011Y-69332779D01*
X52837009Y-69332778D01*
X52801271Y-69303448D01*
X52699814Y-69220186D01*
X52616552Y-69118729D01*
X52587222Y-69082991D01*
X52503557Y-68926466D01*
X52452037Y-68756627D01*
X52434641Y-68580000D01*
X52452037Y-68403373D01*
X52503557Y-68233534D01*
X52587222Y-68077009D01*
X52616552Y-68041271D01*
X52699814Y-67939814D01*
X52801271Y-67856552D01*
X52837009Y-67827222D01*
X52993534Y-67743557D01*
X53163373Y-67692037D01*
X53229557Y-67685519D01*
X53295740Y-67679000D01*
X53384260Y-67679000D01*
X53450443Y-67685519D01*
X53450443Y-67685519D01*
G37*
G36*
X66714468Y-66309565D02*
G01*
X66753138Y-66321296D01*
X66788777Y-66340346D01*
X66820017Y-66365983D01*
X66845654Y-66397223D01*
X66864704Y-66432862D01*
X66876435Y-66471532D01*
X66881000Y-66517888D01*
X66881000Y-67594112D01*
X66876435Y-67640468D01*
X66864704Y-67679138D01*
X66845654Y-67714777D01*
X66820017Y-67746017D01*
X66788777Y-67771654D01*
X66753138Y-67790704D01*
X66714468Y-67802435D01*
X66668112Y-67807000D01*
X66016888Y-67807000D01*
X65970532Y-67802435D01*
X65931862Y-67790704D01*
X65896223Y-67771654D01*
X65864983Y-67746017D01*
X65839346Y-67714777D01*
X65820296Y-67679138D01*
X65808565Y-67640468D01*
X65804000Y-67594112D01*
X65804000Y-66517888D01*
X65808565Y-66471532D01*
X65820296Y-66432862D01*
X65839346Y-66397223D01*
X65864983Y-66365983D01*
X65896223Y-66340346D01*
X65931862Y-66321296D01*
X65970532Y-66309565D01*
X66016888Y-66305000D01*
X66668112Y-66305000D01*
X66714468Y-66309565D01*
X66714468Y-66309565D01*
G37*
G36*
X64839468Y-66309565D02*
G01*
X64878138Y-66321296D01*
X64913777Y-66340346D01*
X64945017Y-66365983D01*
X64970654Y-66397223D01*
X64989704Y-66432862D01*
X65001435Y-66471532D01*
X65006000Y-66517888D01*
X65006000Y-67594112D01*
X65001435Y-67640468D01*
X64989704Y-67679138D01*
X64970654Y-67714777D01*
X64945017Y-67746017D01*
X64913777Y-67771654D01*
X64878138Y-67790704D01*
X64839468Y-67802435D01*
X64793112Y-67807000D01*
X64141888Y-67807000D01*
X64095532Y-67802435D01*
X64056862Y-67790704D01*
X64021223Y-67771654D01*
X63989983Y-67746017D01*
X63964346Y-67714777D01*
X63945296Y-67679138D01*
X63933565Y-67640468D01*
X63929000Y-67594112D01*
X63929000Y-66517888D01*
X63933565Y-66471532D01*
X63945296Y-66432862D01*
X63964346Y-66397223D01*
X63989983Y-66365983D01*
X64021223Y-66340346D01*
X64056862Y-66321296D01*
X64095532Y-66309565D01*
X64141888Y-66305000D01*
X64793112Y-66305000D01*
X64839468Y-66309565D01*
X64839468Y-66309565D01*
G37*
G36*
X60827228Y-65856703D02*
G01*
X60982100Y-65920853D01*
X61121481Y-66013985D01*
X61240015Y-66132519D01*
X61333147Y-66271900D01*
X61397297Y-66426772D01*
X61430000Y-66591184D01*
X61430000Y-66758816D01*
X61397297Y-66923228D01*
X61333147Y-67078100D01*
X61240015Y-67217481D01*
X61121481Y-67336015D01*
X60982100Y-67429147D01*
X60827228Y-67493297D01*
X60662816Y-67526000D01*
X60495184Y-67526000D01*
X60330772Y-67493297D01*
X60175900Y-67429147D01*
X60036519Y-67336015D01*
X59917985Y-67217481D01*
X59824853Y-67078100D01*
X59760703Y-66923228D01*
X59728000Y-66758816D01*
X59728000Y-66591184D01*
X59760703Y-66426772D01*
X59824853Y-66271900D01*
X59917985Y-66132519D01*
X60036519Y-66013985D01*
X60175900Y-65920853D01*
X60330772Y-65856703D01*
X60495184Y-65824000D01*
X60662816Y-65824000D01*
X60827228Y-65856703D01*
X60827228Y-65856703D01*
G37*
G36*
X53450442Y-65145518D02*
G01*
X53516627Y-65152037D01*
X53686466Y-65203557D01*
X53842991Y-65287222D01*
X53878729Y-65316552D01*
X53980186Y-65399814D01*
X54046321Y-65480401D01*
X54092778Y-65537009D01*
X54176443Y-65693534D01*
X54227963Y-65863373D01*
X54245359Y-66040000D01*
X54227963Y-66216627D01*
X54176443Y-66386466D01*
X54092778Y-66542991D01*
X54067124Y-66574250D01*
X53980186Y-66680186D01*
X53884375Y-66758815D01*
X53842991Y-66792778D01*
X53686466Y-66876443D01*
X53516627Y-66927963D01*
X53450442Y-66934482D01*
X53384260Y-66941000D01*
X53295740Y-66941000D01*
X53229558Y-66934482D01*
X53163373Y-66927963D01*
X52993534Y-66876443D01*
X52837009Y-66792778D01*
X52795625Y-66758815D01*
X52699814Y-66680186D01*
X52612876Y-66574250D01*
X52587222Y-66542991D01*
X52503557Y-66386466D01*
X52452037Y-66216627D01*
X52434641Y-66040000D01*
X52452037Y-65863373D01*
X52503557Y-65693534D01*
X52587222Y-65537009D01*
X52633679Y-65480401D01*
X52699814Y-65399814D01*
X52801271Y-65316552D01*
X52837009Y-65287222D01*
X52993534Y-65203557D01*
X53163373Y-65152037D01*
X53229558Y-65145518D01*
X53295740Y-65139000D01*
X53384260Y-65139000D01*
X53450442Y-65145518D01*
X53450442Y-65145518D01*
G37*
G36*
X68690442Y-65145518D02*
G01*
X68756627Y-65152037D01*
X68926466Y-65203557D01*
X69082991Y-65287222D01*
X69118729Y-65316552D01*
X69220186Y-65399814D01*
X69286321Y-65480401D01*
X69332778Y-65537009D01*
X69416443Y-65693534D01*
X69467963Y-65863373D01*
X69485359Y-66040000D01*
X69467963Y-66216627D01*
X69416443Y-66386466D01*
X69332778Y-66542991D01*
X69307124Y-66574250D01*
X69220186Y-66680186D01*
X69124375Y-66758815D01*
X69082991Y-66792778D01*
X68926466Y-66876443D01*
X68756627Y-66927963D01*
X68690442Y-66934482D01*
X68624260Y-66941000D01*
X68535740Y-66941000D01*
X68469558Y-66934482D01*
X68403373Y-66927963D01*
X68233534Y-66876443D01*
X68077009Y-66792778D01*
X68035625Y-66758815D01*
X67939814Y-66680186D01*
X67852876Y-66574250D01*
X67827222Y-66542991D01*
X67743557Y-66386466D01*
X67692037Y-66216627D01*
X67674641Y-66040000D01*
X67692037Y-65863373D01*
X67743557Y-65693534D01*
X67827222Y-65537009D01*
X67873679Y-65480401D01*
X67939814Y-65399814D01*
X68041271Y-65316552D01*
X68077009Y-65287222D01*
X68233534Y-65203557D01*
X68403373Y-65152037D01*
X68469558Y-65145518D01*
X68535740Y-65139000D01*
X68624260Y-65139000D01*
X68690442Y-65145518D01*
X68690442Y-65145518D01*
G37*
G36*
X65086591Y-64629085D02*
G01*
X65120569Y-64639393D01*
X65151890Y-64656134D01*
X65179339Y-64678661D01*
X65201866Y-64706110D01*
X65218607Y-64737431D01*
X65228915Y-64771409D01*
X65233000Y-64812890D01*
X65233000Y-65489110D01*
X65228915Y-65530591D01*
X65218607Y-65564569D01*
X65201866Y-65595890D01*
X65179339Y-65623339D01*
X65151890Y-65645866D01*
X65120569Y-65662607D01*
X65086591Y-65672915D01*
X65045110Y-65677000D01*
X64443890Y-65677000D01*
X64402409Y-65672915D01*
X64368431Y-65662607D01*
X64337110Y-65645866D01*
X64309661Y-65623339D01*
X64287134Y-65595890D01*
X64270393Y-65564569D01*
X64260085Y-65530591D01*
X64256000Y-65489110D01*
X64256000Y-64812890D01*
X64260085Y-64771409D01*
X64270393Y-64737431D01*
X64287134Y-64706110D01*
X64309661Y-64678661D01*
X64337110Y-64656134D01*
X64368431Y-64639393D01*
X64402409Y-64629085D01*
X64443890Y-64625000D01*
X65045110Y-64625000D01*
X65086591Y-64629085D01*
X65086591Y-64629085D01*
G37*
G36*
X66661591Y-64629085D02*
G01*
X66695569Y-64639393D01*
X66726890Y-64656134D01*
X66754339Y-64678661D01*
X66776866Y-64706110D01*
X66793607Y-64737431D01*
X66803915Y-64771409D01*
X66808000Y-64812890D01*
X66808000Y-65489110D01*
X66803915Y-65530591D01*
X66793607Y-65564569D01*
X66776866Y-65595890D01*
X66754339Y-65623339D01*
X66726890Y-65645866D01*
X66695569Y-65662607D01*
X66661591Y-65672915D01*
X66620110Y-65677000D01*
X66018890Y-65677000D01*
X65977409Y-65672915D01*
X65943431Y-65662607D01*
X65912110Y-65645866D01*
X65884661Y-65623339D01*
X65862134Y-65595890D01*
X65845393Y-65564569D01*
X65835085Y-65530591D01*
X65831000Y-65489110D01*
X65831000Y-64812890D01*
X65835085Y-64771409D01*
X65845393Y-64737431D01*
X65862134Y-64706110D01*
X65884661Y-64678661D01*
X65912110Y-64656134D01*
X65943431Y-64639393D01*
X65977409Y-64629085D01*
X66018890Y-64625000D01*
X66620110Y-64625000D01*
X66661591Y-64629085D01*
X66661591Y-64629085D01*
G37*
G36*
X68690442Y-62605518D02*
G01*
X68756627Y-62612037D01*
X68926466Y-62663557D01*
X69082991Y-62747222D01*
X69118729Y-62776552D01*
X69220186Y-62859814D01*
X69303448Y-62961271D01*
X69332778Y-62997009D01*
X69416443Y-63153534D01*
X69467963Y-63323373D01*
X69485359Y-63500000D01*
X69467963Y-63676627D01*
X69416443Y-63846466D01*
X69416442Y-63846468D01*
X69399942Y-63877337D01*
X69332778Y-64002991D01*
X69303448Y-64038729D01*
X69220186Y-64140186D01*
X69118729Y-64223448D01*
X69082991Y-64252778D01*
X68926466Y-64336443D01*
X68756627Y-64387963D01*
X68690442Y-64394482D01*
X68624260Y-64401000D01*
X68535740Y-64401000D01*
X68469558Y-64394482D01*
X68403373Y-64387963D01*
X68233534Y-64336443D01*
X68077009Y-64252778D01*
X68041271Y-64223448D01*
X67939814Y-64140186D01*
X67856552Y-64038729D01*
X67827222Y-64002991D01*
X67760058Y-63877337D01*
X67743558Y-63846468D01*
X67743557Y-63846466D01*
X67692037Y-63676627D01*
X67674641Y-63500000D01*
X67692037Y-63323373D01*
X67743557Y-63153534D01*
X67827222Y-62997009D01*
X67856552Y-62961271D01*
X67939814Y-62859814D01*
X68041271Y-62776552D01*
X68077009Y-62747222D01*
X68233534Y-62663557D01*
X68403373Y-62612037D01*
X68469558Y-62605518D01*
X68535740Y-62599000D01*
X68624260Y-62599000D01*
X68690442Y-62605518D01*
X68690442Y-62605518D01*
G37*
G36*
X53450442Y-62605518D02*
G01*
X53516627Y-62612037D01*
X53686466Y-62663557D01*
X53842991Y-62747222D01*
X53878729Y-62776552D01*
X53980186Y-62859814D01*
X54063448Y-62961271D01*
X54092778Y-62997009D01*
X54176443Y-63153534D01*
X54227963Y-63323373D01*
X54245359Y-63500000D01*
X54227963Y-63676627D01*
X54176443Y-63846466D01*
X54176442Y-63846468D01*
X54159942Y-63877337D01*
X54092778Y-64002991D01*
X54063448Y-64038729D01*
X53980186Y-64140186D01*
X53878729Y-64223448D01*
X53842991Y-64252778D01*
X53686466Y-64336443D01*
X53516627Y-64387963D01*
X53450442Y-64394482D01*
X53384260Y-64401000D01*
X53295740Y-64401000D01*
X53229558Y-64394482D01*
X53163373Y-64387963D01*
X52993534Y-64336443D01*
X52837009Y-64252778D01*
X52801271Y-64223448D01*
X52699814Y-64140186D01*
X52616552Y-64038729D01*
X52587222Y-64002991D01*
X52520058Y-63877337D01*
X52503558Y-63846468D01*
X52503557Y-63846466D01*
X52452037Y-63676627D01*
X52434641Y-63500000D01*
X52452037Y-63323373D01*
X52503557Y-63153534D01*
X52587222Y-62997009D01*
X52616552Y-62961271D01*
X52699814Y-62859814D01*
X52801271Y-62776552D01*
X52837009Y-62747222D01*
X52993534Y-62663557D01*
X53163373Y-62612037D01*
X53229558Y-62605518D01*
X53295740Y-62599000D01*
X53384260Y-62599000D01*
X53450442Y-62605518D01*
X53450442Y-62605518D01*
G37*
G36*
X64839468Y-62499565D02*
G01*
X64878138Y-62511296D01*
X64913777Y-62530346D01*
X64945017Y-62555983D01*
X64970654Y-62587223D01*
X64989704Y-62622862D01*
X65001435Y-62661532D01*
X65006000Y-62707888D01*
X65006000Y-63784112D01*
X65001435Y-63830468D01*
X64989704Y-63869138D01*
X64970654Y-63904777D01*
X64945017Y-63936017D01*
X64913777Y-63961654D01*
X64878138Y-63980704D01*
X64839468Y-63992435D01*
X64793112Y-63997000D01*
X64141888Y-63997000D01*
X64095532Y-63992435D01*
X64056862Y-63980704D01*
X64021223Y-63961654D01*
X63989983Y-63936017D01*
X63964346Y-63904777D01*
X63945296Y-63869138D01*
X63933565Y-63830468D01*
X63929000Y-63784112D01*
X63929000Y-62707888D01*
X63933565Y-62661532D01*
X63945296Y-62622862D01*
X63964346Y-62587223D01*
X63989983Y-62555983D01*
X64021223Y-62530346D01*
X64056862Y-62511296D01*
X64095532Y-62499565D01*
X64141888Y-62495000D01*
X64793112Y-62495000D01*
X64839468Y-62499565D01*
X64839468Y-62499565D01*
G37*
G36*
X66714468Y-62499565D02*
G01*
X66753138Y-62511296D01*
X66788777Y-62530346D01*
X66820017Y-62555983D01*
X66845654Y-62587223D01*
X66864704Y-62622862D01*
X66876435Y-62661532D01*
X66881000Y-62707888D01*
X66881000Y-63784112D01*
X66876435Y-63830468D01*
X66864704Y-63869138D01*
X66845654Y-63904777D01*
X66820017Y-63936017D01*
X66788777Y-63961654D01*
X66753138Y-63980704D01*
X66714468Y-63992435D01*
X66668112Y-63997000D01*
X66016888Y-63997000D01*
X65970532Y-63992435D01*
X65931862Y-63980704D01*
X65896223Y-63961654D01*
X65864983Y-63936017D01*
X65839346Y-63904777D01*
X65820296Y-63869138D01*
X65808565Y-63830468D01*
X65804000Y-63784112D01*
X65804000Y-62707888D01*
X65808565Y-62661532D01*
X65820296Y-62622862D01*
X65839346Y-62587223D01*
X65864983Y-62555983D01*
X65896223Y-62530346D01*
X65931862Y-62511296D01*
X65970532Y-62499565D01*
X66016888Y-62495000D01*
X66668112Y-62495000D01*
X66714468Y-62499565D01*
X66714468Y-62499565D01*
G37*
G36*
X60827228Y-60856703D02*
G01*
X60982100Y-60920853D01*
X61121481Y-61013985D01*
X61240015Y-61132519D01*
X61333147Y-61271900D01*
X61397297Y-61426772D01*
X61430000Y-61591184D01*
X61430000Y-61758816D01*
X61397297Y-61923228D01*
X61333147Y-62078100D01*
X61240015Y-62217481D01*
X61121481Y-62336015D01*
X60982100Y-62429147D01*
X60827228Y-62493297D01*
X60662816Y-62526000D01*
X60495184Y-62526000D01*
X60330772Y-62493297D01*
X60175900Y-62429147D01*
X60036519Y-62336015D01*
X59917985Y-62217481D01*
X59824853Y-62078100D01*
X59760703Y-61923228D01*
X59728000Y-61758816D01*
X59728000Y-61591184D01*
X59760703Y-61426772D01*
X59824853Y-61271900D01*
X59917985Y-61132519D01*
X60036519Y-61013985D01*
X60175900Y-60920853D01*
X60330772Y-60856703D01*
X60495184Y-60824000D01*
X60662816Y-60824000D01*
X60827228Y-60856703D01*
X60827228Y-60856703D01*
G37*
G36*
X68690442Y-60065518D02*
G01*
X68756627Y-60072037D01*
X68926466Y-60123557D01*
X69082991Y-60207222D01*
X69118729Y-60236552D01*
X69220186Y-60319814D01*
X69283516Y-60396983D01*
X69332778Y-60457009D01*
X69416443Y-60613534D01*
X69467963Y-60783373D01*
X69485359Y-60960000D01*
X69467963Y-61136627D01*
X69416443Y-61306466D01*
X69332778Y-61462991D01*
X69303448Y-61498729D01*
X69220186Y-61600186D01*
X69133327Y-61671468D01*
X69082991Y-61712778D01*
X69082989Y-61712779D01*
X68996863Y-61758815D01*
X68926466Y-61796443D01*
X68756627Y-61847963D01*
X68690443Y-61854481D01*
X68624260Y-61861000D01*
X68535740Y-61861000D01*
X68469557Y-61854481D01*
X68403373Y-61847963D01*
X68233534Y-61796443D01*
X68163138Y-61758815D01*
X68077011Y-61712779D01*
X68077009Y-61712778D01*
X68026673Y-61671468D01*
X67939814Y-61600186D01*
X67856552Y-61498729D01*
X67827222Y-61462991D01*
X67743557Y-61306466D01*
X67692037Y-61136627D01*
X67674641Y-60960000D01*
X67692037Y-60783373D01*
X67743557Y-60613534D01*
X67827222Y-60457009D01*
X67876484Y-60396983D01*
X67939814Y-60319814D01*
X68041271Y-60236552D01*
X68077009Y-60207222D01*
X68233534Y-60123557D01*
X68403373Y-60072037D01*
X68469558Y-60065518D01*
X68535740Y-60059000D01*
X68624260Y-60059000D01*
X68690442Y-60065518D01*
X68690442Y-60065518D01*
G37*
G36*
X53450442Y-60065518D02*
G01*
X53516627Y-60072037D01*
X53686466Y-60123557D01*
X53842991Y-60207222D01*
X53878729Y-60236552D01*
X53980186Y-60319814D01*
X54043516Y-60396983D01*
X54092778Y-60457009D01*
X54176443Y-60613534D01*
X54227963Y-60783373D01*
X54245359Y-60960000D01*
X54227963Y-61136627D01*
X54176443Y-61306466D01*
X54092778Y-61462991D01*
X54063448Y-61498729D01*
X53980186Y-61600186D01*
X53893327Y-61671468D01*
X53842991Y-61712778D01*
X53842989Y-61712779D01*
X53756863Y-61758815D01*
X53686466Y-61796443D01*
X53516627Y-61847963D01*
X53450443Y-61854481D01*
X53384260Y-61861000D01*
X53295740Y-61861000D01*
X53229557Y-61854481D01*
X53163373Y-61847963D01*
X52993534Y-61796443D01*
X52923138Y-61758815D01*
X52837011Y-61712779D01*
X52837009Y-61712778D01*
X52786673Y-61671468D01*
X52699814Y-61600186D01*
X52616552Y-61498729D01*
X52587222Y-61462991D01*
X52503557Y-61306466D01*
X52452037Y-61136627D01*
X52434641Y-60960000D01*
X52452037Y-60783373D01*
X52503557Y-60613534D01*
X52587222Y-60457009D01*
X52636484Y-60396983D01*
X52699814Y-60319814D01*
X52801271Y-60236552D01*
X52837009Y-60207222D01*
X52993534Y-60123557D01*
X53163373Y-60072037D01*
X53229558Y-60065518D01*
X53295740Y-60059000D01*
X53384260Y-60059000D01*
X53450442Y-60065518D01*
X53450442Y-60065518D01*
G37*
G36*
X66714468Y-60340565D02*
G01*
X66753138Y-60352296D01*
X66788777Y-60371346D01*
X66820017Y-60396983D01*
X66845654Y-60428223D01*
X66864704Y-60463862D01*
X66876435Y-60502532D01*
X66881000Y-60548888D01*
X66881000Y-61625112D01*
X66876435Y-61671468D01*
X66864704Y-61710138D01*
X66845654Y-61745777D01*
X66820017Y-61777017D01*
X66788777Y-61802654D01*
X66753138Y-61821704D01*
X66714468Y-61833435D01*
X66668112Y-61838000D01*
X66016888Y-61838000D01*
X65970532Y-61833435D01*
X65931862Y-61821704D01*
X65896223Y-61802654D01*
X65864983Y-61777017D01*
X65839346Y-61745777D01*
X65820296Y-61710138D01*
X65808565Y-61671468D01*
X65804000Y-61625112D01*
X65804000Y-60548888D01*
X65808565Y-60502532D01*
X65820296Y-60463862D01*
X65839346Y-60428223D01*
X65864983Y-60396983D01*
X65896223Y-60371346D01*
X65931862Y-60352296D01*
X65970532Y-60340565D01*
X66016888Y-60336000D01*
X66668112Y-60336000D01*
X66714468Y-60340565D01*
X66714468Y-60340565D01*
G37*
G36*
X64839468Y-60340565D02*
G01*
X64878138Y-60352296D01*
X64913777Y-60371346D01*
X64945017Y-60396983D01*
X64970654Y-60428223D01*
X64989704Y-60463862D01*
X65001435Y-60502532D01*
X65006000Y-60548888D01*
X65006000Y-61625112D01*
X65001435Y-61671468D01*
X64989704Y-61710138D01*
X64970654Y-61745777D01*
X64945017Y-61777017D01*
X64913777Y-61802654D01*
X64878138Y-61821704D01*
X64839468Y-61833435D01*
X64793112Y-61838000D01*
X64141888Y-61838000D01*
X64095532Y-61833435D01*
X64056862Y-61821704D01*
X64021223Y-61802654D01*
X63989983Y-61777017D01*
X63964346Y-61745777D01*
X63945296Y-61710138D01*
X63933565Y-61671468D01*
X63929000Y-61625112D01*
X63929000Y-60548888D01*
X63933565Y-60502532D01*
X63945296Y-60463862D01*
X63964346Y-60428223D01*
X63989983Y-60396983D01*
X64021223Y-60371346D01*
X64056862Y-60352296D01*
X64095532Y-60340565D01*
X64141888Y-60336000D01*
X64793112Y-60336000D01*
X64839468Y-60340565D01*
X64839468Y-60340565D01*
G37*
G36*
X60827228Y-58236703D02*
G01*
X60982100Y-58300853D01*
X61121481Y-58393985D01*
X61240015Y-58512519D01*
X61333147Y-58651900D01*
X61397297Y-58806772D01*
X61430000Y-58971184D01*
X61430000Y-59138816D01*
X61397297Y-59303228D01*
X61333147Y-59458100D01*
X61240015Y-59597481D01*
X61121481Y-59716015D01*
X60982100Y-59809147D01*
X60827228Y-59873297D01*
X60662816Y-59906000D01*
X60495184Y-59906000D01*
X60330772Y-59873297D01*
X60175900Y-59809147D01*
X60036519Y-59716015D01*
X59917985Y-59597481D01*
X59824853Y-59458100D01*
X59760703Y-59303228D01*
X59728000Y-59138816D01*
X59728000Y-58971184D01*
X59760703Y-58806772D01*
X59824853Y-58651900D01*
X59917985Y-58512519D01*
X60036519Y-58393985D01*
X60175900Y-58300853D01*
X60330772Y-58236703D01*
X60495184Y-58204000D01*
X60662816Y-58204000D01*
X60827228Y-58236703D01*
X60827228Y-58236703D01*
G37*
G36*
X65086591Y-58660085D02*
G01*
X65120569Y-58670393D01*
X65151890Y-58687134D01*
X65179339Y-58709661D01*
X65201866Y-58737110D01*
X65218607Y-58768431D01*
X65228915Y-58802409D01*
X65233000Y-58843890D01*
X65233000Y-59520110D01*
X65228915Y-59561591D01*
X65218607Y-59595569D01*
X65201866Y-59626890D01*
X65179339Y-59654339D01*
X65151890Y-59676866D01*
X65120569Y-59693607D01*
X65086591Y-59703915D01*
X65045110Y-59708000D01*
X64443890Y-59708000D01*
X64402409Y-59703915D01*
X64368431Y-59693607D01*
X64337110Y-59676866D01*
X64309661Y-59654339D01*
X64287134Y-59626890D01*
X64270393Y-59595569D01*
X64260085Y-59561591D01*
X64256000Y-59520110D01*
X64256000Y-58843890D01*
X64260085Y-58802409D01*
X64270393Y-58768431D01*
X64287134Y-58737110D01*
X64309661Y-58709661D01*
X64337110Y-58687134D01*
X64368431Y-58670393D01*
X64402409Y-58660085D01*
X64443890Y-58656000D01*
X65045110Y-58656000D01*
X65086591Y-58660085D01*
X65086591Y-58660085D01*
G37*
G36*
X66661591Y-58660085D02*
G01*
X66695569Y-58670393D01*
X66726890Y-58687134D01*
X66754339Y-58709661D01*
X66776866Y-58737110D01*
X66793607Y-58768431D01*
X66803915Y-58802409D01*
X66808000Y-58843890D01*
X66808000Y-59520110D01*
X66803915Y-59561591D01*
X66793607Y-59595569D01*
X66776866Y-59626890D01*
X66754339Y-59654339D01*
X66726890Y-59676866D01*
X66695569Y-59693607D01*
X66661591Y-59703915D01*
X66620110Y-59708000D01*
X66018890Y-59708000D01*
X65977409Y-59703915D01*
X65943431Y-59693607D01*
X65912110Y-59676866D01*
X65884661Y-59654339D01*
X65862134Y-59626890D01*
X65845393Y-59595569D01*
X65835085Y-59561591D01*
X65831000Y-59520110D01*
X65831000Y-58843890D01*
X65835085Y-58802409D01*
X65845393Y-58768431D01*
X65862134Y-58737110D01*
X65884661Y-58709661D01*
X65912110Y-58687134D01*
X65943431Y-58670393D01*
X65977409Y-58660085D01*
X66018890Y-58656000D01*
X66620110Y-58656000D01*
X66661591Y-58660085D01*
X66661591Y-58660085D01*
G37*
G36*
X68690443Y-57525519D02*
G01*
X68756627Y-57532037D01*
X68926466Y-57583557D01*
X69082991Y-57667222D01*
X69118729Y-57696552D01*
X69220186Y-57779814D01*
X69303448Y-57881271D01*
X69332778Y-57917009D01*
X69416443Y-58073534D01*
X69467963Y-58243373D01*
X69485359Y-58420000D01*
X69467963Y-58596627D01*
X69416443Y-58766466D01*
X69332778Y-58922991D01*
X69303448Y-58958729D01*
X69220186Y-59060186D01*
X69124375Y-59138815D01*
X69082991Y-59172778D01*
X68926466Y-59256443D01*
X68756627Y-59307963D01*
X68690442Y-59314482D01*
X68624260Y-59321000D01*
X68535740Y-59321000D01*
X68469558Y-59314482D01*
X68403373Y-59307963D01*
X68233534Y-59256443D01*
X68077009Y-59172778D01*
X68035625Y-59138815D01*
X67939814Y-59060186D01*
X67856552Y-58958729D01*
X67827222Y-58922991D01*
X67743557Y-58766466D01*
X67692037Y-58596627D01*
X67674641Y-58420000D01*
X67692037Y-58243373D01*
X67743557Y-58073534D01*
X67827222Y-57917009D01*
X67856552Y-57881271D01*
X67939814Y-57779814D01*
X68041271Y-57696552D01*
X68077009Y-57667222D01*
X68233534Y-57583557D01*
X68403373Y-57532037D01*
X68469557Y-57525519D01*
X68535740Y-57519000D01*
X68624260Y-57519000D01*
X68690443Y-57525519D01*
X68690443Y-57525519D01*
G37*
G36*
X53450443Y-57525519D02*
G01*
X53516627Y-57532037D01*
X53686466Y-57583557D01*
X53842991Y-57667222D01*
X53878729Y-57696552D01*
X53980186Y-57779814D01*
X54063448Y-57881271D01*
X54092778Y-57917009D01*
X54176443Y-58073534D01*
X54227963Y-58243373D01*
X54245359Y-58420000D01*
X54227963Y-58596627D01*
X54176443Y-58766466D01*
X54092778Y-58922991D01*
X54063448Y-58958729D01*
X53980186Y-59060186D01*
X53884375Y-59138815D01*
X53842991Y-59172778D01*
X53686466Y-59256443D01*
X53516627Y-59307963D01*
X53450442Y-59314482D01*
X53384260Y-59321000D01*
X53295740Y-59321000D01*
X53229558Y-59314482D01*
X53163373Y-59307963D01*
X52993534Y-59256443D01*
X52837009Y-59172778D01*
X52795625Y-59138815D01*
X52699814Y-59060186D01*
X52616552Y-58958729D01*
X52587222Y-58922991D01*
X52503557Y-58766466D01*
X52452037Y-58596627D01*
X52434641Y-58420000D01*
X52452037Y-58243373D01*
X52503557Y-58073534D01*
X52587222Y-57917009D01*
X52616552Y-57881271D01*
X52699814Y-57779814D01*
X52801271Y-57696552D01*
X52837009Y-57667222D01*
X52993534Y-57583557D01*
X53163373Y-57532037D01*
X53229557Y-57525519D01*
X53295740Y-57519000D01*
X53384260Y-57519000D01*
X53450443Y-57525519D01*
X53450443Y-57525519D01*
G37*
G36*
X68690443Y-54985519D02*
G01*
X68756627Y-54992037D01*
X68926466Y-55043557D01*
X69082991Y-55127222D01*
X69118729Y-55156552D01*
X69220186Y-55239814D01*
X69303448Y-55341271D01*
X69332778Y-55377009D01*
X69416443Y-55533534D01*
X69467963Y-55703373D01*
X69485359Y-55880000D01*
X69467963Y-56056627D01*
X69416443Y-56226466D01*
X69332778Y-56382991D01*
X69303448Y-56418729D01*
X69220186Y-56520186D01*
X69118729Y-56603448D01*
X69082991Y-56632778D01*
X68926466Y-56716443D01*
X68756627Y-56767963D01*
X68690443Y-56774481D01*
X68624260Y-56781000D01*
X68535740Y-56781000D01*
X68469557Y-56774481D01*
X68403373Y-56767963D01*
X68233534Y-56716443D01*
X68077009Y-56632778D01*
X68041271Y-56603448D01*
X67939814Y-56520186D01*
X67856552Y-56418729D01*
X67827222Y-56382991D01*
X67743557Y-56226466D01*
X67692037Y-56056627D01*
X67674641Y-55880000D01*
X67692037Y-55703373D01*
X67743557Y-55533534D01*
X67827222Y-55377009D01*
X67856552Y-55341271D01*
X67939814Y-55239814D01*
X68041271Y-55156552D01*
X68077009Y-55127222D01*
X68233534Y-55043557D01*
X68403373Y-54992037D01*
X68469557Y-54985519D01*
X68535740Y-54979000D01*
X68624260Y-54979000D01*
X68690443Y-54985519D01*
X68690443Y-54985519D01*
G37*
G36*
X53450443Y-54985519D02*
G01*
X53516627Y-54992037D01*
X53686466Y-55043557D01*
X53842991Y-55127222D01*
X53878729Y-55156552D01*
X53980186Y-55239814D01*
X54063448Y-55341271D01*
X54092778Y-55377009D01*
X54176443Y-55533534D01*
X54227963Y-55703373D01*
X54245359Y-55880000D01*
X54227963Y-56056627D01*
X54176443Y-56226466D01*
X54092778Y-56382991D01*
X54063448Y-56418729D01*
X53980186Y-56520186D01*
X53878729Y-56603448D01*
X53842991Y-56632778D01*
X53686466Y-56716443D01*
X53516627Y-56767963D01*
X53450443Y-56774481D01*
X53384260Y-56781000D01*
X53295740Y-56781000D01*
X53229557Y-56774481D01*
X53163373Y-56767963D01*
X52993534Y-56716443D01*
X52837009Y-56632778D01*
X52801271Y-56603448D01*
X52699814Y-56520186D01*
X52616552Y-56418729D01*
X52587222Y-56382991D01*
X52503557Y-56226466D01*
X52452037Y-56056627D01*
X52434641Y-55880000D01*
X52452037Y-55703373D01*
X52503557Y-55533534D01*
X52587222Y-55377009D01*
X52616552Y-55341271D01*
X52699814Y-55239814D01*
X52801271Y-55156552D01*
X52837009Y-55127222D01*
X52993534Y-55043557D01*
X53163373Y-54992037D01*
X53229557Y-54985519D01*
X53295740Y-54979000D01*
X53384260Y-54979000D01*
X53450443Y-54985519D01*
X53450443Y-54985519D01*
G37*
G36*
X60827228Y-53236703D02*
G01*
X60982100Y-53300853D01*
X61121481Y-53393985D01*
X61240015Y-53512519D01*
X61333147Y-53651900D01*
X61397297Y-53806772D01*
X61430000Y-53971184D01*
X61430000Y-54138816D01*
X61397297Y-54303228D01*
X61333147Y-54458100D01*
X61240015Y-54597481D01*
X61121481Y-54716015D01*
X60982100Y-54809147D01*
X60827228Y-54873297D01*
X60662816Y-54906000D01*
X60495184Y-54906000D01*
X60330772Y-54873297D01*
X60175900Y-54809147D01*
X60036519Y-54716015D01*
X59917985Y-54597481D01*
X59824853Y-54458100D01*
X59760703Y-54303228D01*
X59728000Y-54138816D01*
X59728000Y-53971184D01*
X59760703Y-53806772D01*
X59824853Y-53651900D01*
X59917985Y-53512519D01*
X60036519Y-53393985D01*
X60175900Y-53300853D01*
X60330772Y-53236703D01*
X60495184Y-53204000D01*
X60662816Y-53204000D01*
X60827228Y-53236703D01*
X60827228Y-53236703D01*
G37*
G36*
X69481000Y-54241000D02*
G01*
X67679000Y-54241000D01*
X67679000Y-52439000D01*
X69481000Y-52439000D01*
X69481000Y-54241000D01*
X69481000Y-54241000D01*
G37*
G36*
X54241000Y-54241000D02*
G01*
X52439000Y-54241000D01*
X52439000Y-52439000D01*
X54241000Y-52439000D01*
X54241000Y-54241000D01*
X54241000Y-54241000D01*
G37*
G36*
X59894938Y-51195716D02*
G01*
X59915557Y-51201971D01*
X59934553Y-51212124D01*
X59951208Y-51225792D01*
X59964876Y-51242447D01*
X59975029Y-51261443D01*
X59981284Y-51282062D01*
X59984000Y-51309640D01*
X59984000Y-51768360D01*
X59981284Y-51795938D01*
X59975029Y-51816557D01*
X59964876Y-51835553D01*
X59951208Y-51852208D01*
X59934553Y-51865876D01*
X59915557Y-51876029D01*
X59894938Y-51882284D01*
X59867360Y-51885000D01*
X59358640Y-51885000D01*
X59331062Y-51882284D01*
X59310443Y-51876029D01*
X59291447Y-51865876D01*
X59274792Y-51852208D01*
X59261124Y-51835553D01*
X59250971Y-51816557D01*
X59244716Y-51795938D01*
X59242000Y-51768360D01*
X59242000Y-51309640D01*
X59244716Y-51282062D01*
X59250971Y-51261443D01*
X59261124Y-51242447D01*
X59274792Y-51225792D01*
X59291447Y-51212124D01*
X59310443Y-51201971D01*
X59331062Y-51195716D01*
X59358640Y-51193000D01*
X59867360Y-51193000D01*
X59894938Y-51195716D01*
X59894938Y-51195716D01*
G37*
G36*
X59894938Y-50225716D02*
G01*
X59915557Y-50231971D01*
X59934553Y-50242124D01*
X59951208Y-50255792D01*
X59964876Y-50272447D01*
X59975029Y-50291443D01*
X59981284Y-50312062D01*
X59984000Y-50339640D01*
X59984000Y-50798360D01*
X59981284Y-50825938D01*
X59975029Y-50846557D01*
X59964876Y-50865553D01*
X59951208Y-50882208D01*
X59934553Y-50895876D01*
X59915557Y-50906029D01*
X59894938Y-50912284D01*
X59867360Y-50915000D01*
X59358640Y-50915000D01*
X59331062Y-50912284D01*
X59310443Y-50906029D01*
X59291447Y-50895876D01*
X59274792Y-50882208D01*
X59261124Y-50865553D01*
X59250971Y-50846557D01*
X59244716Y-50825938D01*
X59242000Y-50798360D01*
X59242000Y-50339640D01*
X59244716Y-50312062D01*
X59250971Y-50291443D01*
X59261124Y-50272447D01*
X59274792Y-50255792D01*
X59291447Y-50242124D01*
X59310443Y-50231971D01*
X59331062Y-50225716D01*
X59358640Y-50223000D01*
X59867360Y-50223000D01*
X59894938Y-50225716D01*
X59894938Y-50225716D01*
G37*
G36*
X64898063Y-49668438D02*
G01*
X64918682Y-49674693D01*
X64937678Y-49684846D01*
X64959099Y-49702426D01*
X65283468Y-50026795D01*
X65301048Y-50048216D01*
X65311201Y-50067212D01*
X65317456Y-50087831D01*
X65319567Y-50109269D01*
X65317456Y-50130707D01*
X65311201Y-50151326D01*
X65301048Y-50170322D01*
X65283468Y-50191743D01*
X64923743Y-50551468D01*
X64902322Y-50569048D01*
X64883326Y-50579201D01*
X64862707Y-50585456D01*
X64841269Y-50587567D01*
X64819831Y-50585456D01*
X64799212Y-50579201D01*
X64780216Y-50569048D01*
X64758795Y-50551468D01*
X64434426Y-50227099D01*
X64416846Y-50205678D01*
X64406693Y-50186682D01*
X64400438Y-50166063D01*
X64398327Y-50144625D01*
X64400438Y-50123187D01*
X64406693Y-50102568D01*
X64416846Y-50083572D01*
X64434426Y-50062151D01*
X64794151Y-49702426D01*
X64815572Y-49684846D01*
X64834568Y-49674693D01*
X64855187Y-49668438D01*
X64876625Y-49666327D01*
X64898063Y-49668438D01*
X64898063Y-49668438D01*
G37*
G36*
X66308278Y-48075448D02*
G01*
X66344818Y-48086533D01*
X66378495Y-48104534D01*
X66412780Y-48132671D01*
X66461465Y-48181356D01*
X66461476Y-48181365D01*
X67388635Y-49108524D01*
X67388644Y-49108535D01*
X67437329Y-49157220D01*
X67465466Y-49191505D01*
X67483467Y-49225182D01*
X67494552Y-49261722D01*
X67498294Y-49299726D01*
X67494552Y-49337730D01*
X67483467Y-49374270D01*
X67465466Y-49407947D01*
X67437329Y-49442232D01*
X67388644Y-49490917D01*
X67388635Y-49490928D01*
X66815030Y-50064533D01*
X66815019Y-50064542D01*
X66766334Y-50113227D01*
X66732049Y-50141364D01*
X66698372Y-50159365D01*
X66661832Y-50170450D01*
X66623828Y-50174192D01*
X66585824Y-50170450D01*
X66549284Y-50159365D01*
X66515607Y-50141364D01*
X66481322Y-50113227D01*
X66432637Y-50064542D01*
X66432626Y-50064533D01*
X65505467Y-49137374D01*
X65505458Y-49137363D01*
X65456773Y-49088678D01*
X65428636Y-49054393D01*
X65410635Y-49020716D01*
X65399550Y-48984176D01*
X65395808Y-48946172D01*
X65399550Y-48908168D01*
X65410635Y-48871628D01*
X65428636Y-48837951D01*
X65456773Y-48803666D01*
X65505458Y-48754981D01*
X65505467Y-48754970D01*
X66079072Y-48181365D01*
X66079083Y-48181356D01*
X66127768Y-48132671D01*
X66162053Y-48104534D01*
X66195730Y-48086533D01*
X66232270Y-48075448D01*
X66270274Y-48071706D01*
X66308278Y-48075448D01*
X66308278Y-48075448D01*
G37*
G36*
X64212169Y-48982544D02*
G01*
X64232788Y-48988799D01*
X64251784Y-48998952D01*
X64273205Y-49016532D01*
X64597574Y-49340901D01*
X64615154Y-49362322D01*
X64625307Y-49381318D01*
X64631562Y-49401937D01*
X64633673Y-49423375D01*
X64631562Y-49444813D01*
X64625307Y-49465432D01*
X64615154Y-49484428D01*
X64597574Y-49505849D01*
X64237849Y-49865574D01*
X64216428Y-49883154D01*
X64197432Y-49893307D01*
X64176813Y-49899562D01*
X64155375Y-49901673D01*
X64133937Y-49899562D01*
X64113318Y-49893307D01*
X64094322Y-49883154D01*
X64072901Y-49865574D01*
X63748532Y-49541205D01*
X63730952Y-49519784D01*
X63720799Y-49500788D01*
X63714544Y-49480169D01*
X63712433Y-49458731D01*
X63714544Y-49437293D01*
X63720799Y-49416674D01*
X63730952Y-49397678D01*
X63748532Y-49376257D01*
X64108257Y-49016532D01*
X64129678Y-48998952D01*
X64148674Y-48988799D01*
X64169293Y-48982544D01*
X64190731Y-48980433D01*
X64212169Y-48982544D01*
X64212169Y-48982544D01*
G37*
G36*
X54751000Y-49501000D02*
G01*
X52249000Y-49501000D01*
X52249000Y-46899000D01*
X54751000Y-46899000D01*
X54751000Y-49501000D01*
X54751000Y-49501000D01*
G37*
G36*
X60838660Y-43624898D02*
G01*
X60842742Y-43626589D01*
X60842762Y-43626595D01*
X60852054Y-43630445D01*
X60852065Y-43630451D01*
X60856157Y-43632146D01*
X60873203Y-43643537D01*
X60881309Y-43650884D01*
X61252612Y-44022186D01*
X61271554Y-44037731D01*
X61293165Y-44049282D01*
X61316614Y-44056395D01*
X61341000Y-44058797D01*
X61365386Y-44056395D01*
X61388835Y-44049282D01*
X61410446Y-44037731D01*
X61429388Y-44022186D01*
X61800691Y-43650884D01*
X61808797Y-43643537D01*
X61825843Y-43632146D01*
X61829935Y-43630451D01*
X61829946Y-43630445D01*
X61839238Y-43626595D01*
X61839258Y-43626589D01*
X61843340Y-43624898D01*
X61861870Y-43621212D01*
X61880791Y-43621212D01*
X61899320Y-43624897D01*
X61903407Y-43626590D01*
X61903423Y-43626595D01*
X61912715Y-43630445D01*
X61912725Y-43630450D01*
X61916818Y-43632146D01*
X61933863Y-43643536D01*
X61941977Y-43650890D01*
X62050790Y-43759703D01*
X62058144Y-43767817D01*
X62069534Y-43784862D01*
X62071230Y-43788955D01*
X62071235Y-43788965D01*
X62075085Y-43798257D01*
X62075090Y-43798273D01*
X62076783Y-43802360D01*
X62080468Y-43820889D01*
X62080468Y-43822478D01*
X62082870Y-43846864D01*
X62089983Y-43870313D01*
X62101534Y-43891924D01*
X62117079Y-43910866D01*
X62136021Y-43926411D01*
X62157632Y-43937962D01*
X62181081Y-43945075D01*
X62205467Y-43947477D01*
X62217723Y-43946875D01*
X62224887Y-43946169D01*
X62229739Y-43946647D01*
X62234413Y-43948065D01*
X62238715Y-43950364D01*
X62247254Y-43957372D01*
X62451415Y-44161533D01*
X62458423Y-44170072D01*
X62460722Y-44174374D01*
X62462140Y-44179048D01*
X62462948Y-44187250D01*
X62467729Y-44211284D01*
X62477107Y-44233922D01*
X62490722Y-44254296D01*
X62508049Y-44271623D01*
X62528424Y-44285236D01*
X62551063Y-44294613D01*
X62575090Y-44299392D01*
X62583292Y-44300200D01*
X62587966Y-44301618D01*
X62592268Y-44303917D01*
X62600807Y-44310925D01*
X62804968Y-44515086D01*
X62811976Y-44523625D01*
X62814275Y-44527927D01*
X62815693Y-44532601D01*
X62816501Y-44540804D01*
X62821282Y-44564837D01*
X62830660Y-44587476D01*
X62844274Y-44607850D01*
X62861602Y-44625176D01*
X62881976Y-44638790D01*
X62904615Y-44648166D01*
X62928643Y-44652946D01*
X62936845Y-44653754D01*
X62941519Y-44655172D01*
X62945821Y-44657471D01*
X62954360Y-44664479D01*
X63158521Y-44868640D01*
X63165529Y-44877179D01*
X63167828Y-44881481D01*
X63169246Y-44886155D01*
X63170054Y-44894357D01*
X63174835Y-44918391D01*
X63184213Y-44941029D01*
X63197828Y-44961403D01*
X63215155Y-44978730D01*
X63235530Y-44992343D01*
X63258169Y-45001720D01*
X63282196Y-45006499D01*
X63290399Y-45007307D01*
X63295073Y-45008725D01*
X63299375Y-45011024D01*
X63307914Y-45018032D01*
X63512075Y-45222193D01*
X63519083Y-45230732D01*
X63521382Y-45235034D01*
X63522800Y-45239708D01*
X63523608Y-45247910D01*
X63528389Y-45271944D01*
X63537767Y-45294582D01*
X63551382Y-45314956D01*
X63568709Y-45332283D01*
X63589084Y-45345896D01*
X63611723Y-45355273D01*
X63635750Y-45360052D01*
X63643952Y-45360860D01*
X63648626Y-45362278D01*
X63652928Y-45364577D01*
X63661467Y-45371585D01*
X63865628Y-45575746D01*
X63872636Y-45584285D01*
X63874935Y-45588587D01*
X63876353Y-45593261D01*
X63876831Y-45598113D01*
X63876125Y-45605277D01*
X63876125Y-45629781D01*
X63880904Y-45653815D01*
X63890281Y-45676454D01*
X63903894Y-45696829D01*
X63921221Y-45714156D01*
X63941595Y-45727770D01*
X63964233Y-45737148D01*
X63988266Y-45741930D01*
X64000522Y-45742532D01*
X64002111Y-45742532D01*
X64020640Y-45746217D01*
X64024727Y-45747910D01*
X64024743Y-45747915D01*
X64034035Y-45751765D01*
X64034045Y-45751770D01*
X64038138Y-45753466D01*
X64055183Y-45764856D01*
X64063297Y-45772210D01*
X64172110Y-45881023D01*
X64179464Y-45889137D01*
X64190854Y-45906182D01*
X64192550Y-45910275D01*
X64192555Y-45910285D01*
X64196405Y-45919577D01*
X64196410Y-45919593D01*
X64198103Y-45923680D01*
X64201788Y-45942209D01*
X64201788Y-45961130D01*
X64198102Y-45979660D01*
X64196411Y-45983742D01*
X64196405Y-45983762D01*
X64192555Y-45993054D01*
X64192549Y-45993065D01*
X64190854Y-45997157D01*
X64179463Y-46014203D01*
X64172116Y-46022309D01*
X63800814Y-46393612D01*
X63785269Y-46412554D01*
X63773718Y-46434165D01*
X63766605Y-46457614D01*
X63764203Y-46482000D01*
X63766605Y-46506386D01*
X63773718Y-46529835D01*
X63785269Y-46551446D01*
X63800814Y-46570388D01*
X64172116Y-46941691D01*
X64179463Y-46949797D01*
X64190854Y-46966843D01*
X64192549Y-46970935D01*
X64192555Y-46970946D01*
X64196405Y-46980238D01*
X64196411Y-46980258D01*
X64198102Y-46984340D01*
X64201788Y-47002870D01*
X64201788Y-47021791D01*
X64198103Y-47040320D01*
X64196410Y-47044407D01*
X64196405Y-47044423D01*
X64192555Y-47053715D01*
X64192550Y-47053725D01*
X64190854Y-47057818D01*
X64179464Y-47074863D01*
X64172110Y-47082977D01*
X64063297Y-47191790D01*
X64055183Y-47199144D01*
X64038138Y-47210534D01*
X64034045Y-47212230D01*
X64034035Y-47212235D01*
X64024743Y-47216085D01*
X64024727Y-47216090D01*
X64020640Y-47217783D01*
X64002111Y-47221468D01*
X64000522Y-47221468D01*
X63976136Y-47223870D01*
X63952687Y-47230983D01*
X63931076Y-47242534D01*
X63912134Y-47258079D01*
X63896589Y-47277021D01*
X63885038Y-47298632D01*
X63877925Y-47322081D01*
X63875523Y-47346467D01*
X63876125Y-47358723D01*
X63876831Y-47365884D01*
X63876353Y-47370739D01*
X63874935Y-47375413D01*
X63872636Y-47379715D01*
X63865628Y-47388254D01*
X63661467Y-47592415D01*
X63652928Y-47599423D01*
X63648626Y-47601722D01*
X63643952Y-47603140D01*
X63635750Y-47603948D01*
X63611716Y-47608729D01*
X63589078Y-47618107D01*
X63568704Y-47631722D01*
X63551377Y-47649049D01*
X63537764Y-47669424D01*
X63528387Y-47692063D01*
X63523608Y-47716090D01*
X63522800Y-47724292D01*
X63521382Y-47728966D01*
X63519083Y-47733268D01*
X63512075Y-47741807D01*
X63307914Y-47945968D01*
X63299375Y-47952976D01*
X63295073Y-47955275D01*
X63290399Y-47956693D01*
X63282196Y-47957501D01*
X63258163Y-47962282D01*
X63235524Y-47971660D01*
X63215150Y-47985274D01*
X63197824Y-48002602D01*
X63184210Y-48022976D01*
X63174834Y-48045615D01*
X63170054Y-48069643D01*
X63169246Y-48077845D01*
X63167828Y-48082519D01*
X63165529Y-48086821D01*
X63158521Y-48095360D01*
X62954360Y-48299521D01*
X62945821Y-48306529D01*
X62941519Y-48308828D01*
X62936845Y-48310246D01*
X62928643Y-48311054D01*
X62904609Y-48315835D01*
X62881971Y-48325213D01*
X62861597Y-48338828D01*
X62844270Y-48356155D01*
X62830657Y-48376530D01*
X62821280Y-48399169D01*
X62816501Y-48423196D01*
X62815693Y-48431399D01*
X62814275Y-48436073D01*
X62811976Y-48440375D01*
X62804968Y-48448914D01*
X62600807Y-48653075D01*
X62592268Y-48660083D01*
X62587966Y-48662382D01*
X62583292Y-48663800D01*
X62575090Y-48664608D01*
X62551056Y-48669389D01*
X62528418Y-48678767D01*
X62508044Y-48692382D01*
X62490717Y-48709709D01*
X62477104Y-48730084D01*
X62467727Y-48752723D01*
X62462948Y-48776750D01*
X62462140Y-48784952D01*
X62460722Y-48789626D01*
X62458423Y-48793928D01*
X62451415Y-48802467D01*
X62247254Y-49006628D01*
X62238715Y-49013636D01*
X62234413Y-49015935D01*
X62229739Y-49017353D01*
X62224887Y-49017831D01*
X62217723Y-49017125D01*
X62193219Y-49017125D01*
X62169185Y-49021904D01*
X62146546Y-49031281D01*
X62126171Y-49044894D01*
X62108844Y-49062221D01*
X62095230Y-49082595D01*
X62085852Y-49105233D01*
X62081070Y-49129266D01*
X62080468Y-49141522D01*
X62080468Y-49143111D01*
X62076783Y-49161640D01*
X62075090Y-49165727D01*
X62075085Y-49165743D01*
X62071235Y-49175035D01*
X62071230Y-49175045D01*
X62069534Y-49179138D01*
X62058144Y-49196183D01*
X62050790Y-49204297D01*
X61941977Y-49313110D01*
X61933863Y-49320464D01*
X61916818Y-49331854D01*
X61912725Y-49333550D01*
X61912715Y-49333555D01*
X61903423Y-49337405D01*
X61903407Y-49337410D01*
X61899320Y-49339103D01*
X61880791Y-49342788D01*
X61861870Y-49342788D01*
X61843340Y-49339102D01*
X61839258Y-49337411D01*
X61839238Y-49337405D01*
X61829946Y-49333555D01*
X61829935Y-49333549D01*
X61825843Y-49331854D01*
X61808797Y-49320463D01*
X61800691Y-49313116D01*
X61429388Y-48941814D01*
X61410446Y-48926269D01*
X61388835Y-48914718D01*
X61365386Y-48907605D01*
X61341000Y-48905203D01*
X61316614Y-48907605D01*
X61293165Y-48914718D01*
X61271554Y-48926269D01*
X61252612Y-48941814D01*
X60881309Y-49313116D01*
X60873203Y-49320463D01*
X60856157Y-49331854D01*
X60852065Y-49333549D01*
X60852054Y-49333555D01*
X60842762Y-49337405D01*
X60842742Y-49337411D01*
X60838660Y-49339102D01*
X60820130Y-49342788D01*
X60801209Y-49342788D01*
X60782680Y-49339103D01*
X60778593Y-49337410D01*
X60778577Y-49337405D01*
X60769285Y-49333555D01*
X60769275Y-49333550D01*
X60765182Y-49331854D01*
X60748137Y-49320464D01*
X60740023Y-49313110D01*
X60631210Y-49204297D01*
X60623856Y-49196183D01*
X60612466Y-49179138D01*
X60610770Y-49175045D01*
X60610765Y-49175035D01*
X60606915Y-49165743D01*
X60606910Y-49165727D01*
X60605217Y-49161640D01*
X60601532Y-49143111D01*
X60601532Y-49141522D01*
X60599130Y-49117136D01*
X60592017Y-49093687D01*
X60580466Y-49072076D01*
X60564921Y-49053134D01*
X60545979Y-49037589D01*
X60524368Y-49026038D01*
X60500919Y-49018925D01*
X60476533Y-49016523D01*
X60464277Y-49017125D01*
X60457113Y-49017831D01*
X60452261Y-49017353D01*
X60447587Y-49015935D01*
X60443285Y-49013636D01*
X60434746Y-49006628D01*
X60230585Y-48802467D01*
X60223577Y-48793928D01*
X60221278Y-48789626D01*
X60219860Y-48784952D01*
X60219052Y-48776750D01*
X60214271Y-48752716D01*
X60204893Y-48730078D01*
X60191278Y-48709704D01*
X60173951Y-48692377D01*
X60153576Y-48678764D01*
X60130937Y-48669387D01*
X60106910Y-48664608D01*
X60098708Y-48663800D01*
X60094034Y-48662382D01*
X60089732Y-48660083D01*
X60081193Y-48653075D01*
X59877032Y-48448914D01*
X59870024Y-48440375D01*
X59867725Y-48436073D01*
X59866307Y-48431399D01*
X59865499Y-48423196D01*
X59860718Y-48399163D01*
X59851340Y-48376524D01*
X59837726Y-48356150D01*
X59820398Y-48338824D01*
X59800024Y-48325210D01*
X59777385Y-48315834D01*
X59753357Y-48311054D01*
X59745155Y-48310246D01*
X59740481Y-48308828D01*
X59736179Y-48306529D01*
X59727640Y-48299521D01*
X59523479Y-48095360D01*
X59516471Y-48086821D01*
X59514172Y-48082519D01*
X59512754Y-48077845D01*
X59511946Y-48069643D01*
X59507165Y-48045609D01*
X59497787Y-48022971D01*
X59484172Y-48002597D01*
X59466845Y-47985270D01*
X59446470Y-47971657D01*
X59423831Y-47962280D01*
X59399804Y-47957501D01*
X59391601Y-47956693D01*
X59386927Y-47955275D01*
X59382625Y-47952976D01*
X59374086Y-47945968D01*
X59169925Y-47741807D01*
X59162917Y-47733268D01*
X59160618Y-47728966D01*
X59159200Y-47724292D01*
X59158392Y-47716090D01*
X59153611Y-47692056D01*
X59144233Y-47669418D01*
X59130618Y-47649044D01*
X59113291Y-47631717D01*
X59092916Y-47618104D01*
X59070277Y-47608727D01*
X59046250Y-47603948D01*
X59038048Y-47603140D01*
X59033374Y-47601722D01*
X59029072Y-47599423D01*
X59020533Y-47592415D01*
X58816372Y-47388254D01*
X58809364Y-47379715D01*
X58807065Y-47375413D01*
X58805647Y-47370739D01*
X58805169Y-47365884D01*
X58805875Y-47358723D01*
X58805875Y-47334219D01*
X58801096Y-47310185D01*
X58791719Y-47287546D01*
X58778106Y-47267171D01*
X58760779Y-47249844D01*
X58740405Y-47236230D01*
X58717767Y-47226852D01*
X58693734Y-47222070D01*
X58681478Y-47221468D01*
X58679889Y-47221468D01*
X58661360Y-47217783D01*
X58657273Y-47216090D01*
X58657257Y-47216085D01*
X58647965Y-47212235D01*
X58647955Y-47212230D01*
X58643862Y-47210534D01*
X58626817Y-47199144D01*
X58618703Y-47191790D01*
X58509890Y-47082977D01*
X58502536Y-47074863D01*
X58491146Y-47057818D01*
X58489450Y-47053725D01*
X58489445Y-47053715D01*
X58485595Y-47044423D01*
X58485590Y-47044407D01*
X58483897Y-47040320D01*
X58480212Y-47021791D01*
X58480212Y-47002870D01*
X58483898Y-46984340D01*
X58485589Y-46980258D01*
X58485595Y-46980238D01*
X58489445Y-46970946D01*
X58489451Y-46970935D01*
X58491146Y-46966843D01*
X58502537Y-46949797D01*
X58509884Y-46941691D01*
X58881186Y-46570388D01*
X58896731Y-46551446D01*
X58908282Y-46529835D01*
X58915395Y-46506386D01*
X58917796Y-46482004D01*
X59175080Y-46482004D01*
X59177483Y-46506390D01*
X59184596Y-46529839D01*
X59196148Y-46551449D01*
X59211689Y-46570385D01*
X59225894Y-46584591D01*
X59233251Y-46592708D01*
X59244642Y-46609754D01*
X59246338Y-46613847D01*
X59246343Y-46613857D01*
X59250193Y-46623149D01*
X59250198Y-46623165D01*
X59251891Y-46627252D01*
X59252845Y-46632050D01*
X59259958Y-46655499D01*
X59271508Y-46677110D01*
X59287053Y-46696052D01*
X59305994Y-46711598D01*
X59327605Y-46723150D01*
X59351053Y-46730263D01*
X59375439Y-46732666D01*
X59399826Y-46730265D01*
X59423275Y-46723152D01*
X59444886Y-46711602D01*
X59457605Y-46701165D01*
X59457724Y-46701310D01*
X59471014Y-46690403D01*
X59475316Y-46688104D01*
X59479990Y-46686686D01*
X59484845Y-46686208D01*
X59489700Y-46686686D01*
X59494374Y-46688104D01*
X59498676Y-46690403D01*
X59507215Y-46697411D01*
X59711376Y-46901572D01*
X59718384Y-46910111D01*
X59720683Y-46914413D01*
X59722101Y-46919087D01*
X59722909Y-46927289D01*
X59727690Y-46951323D01*
X59737068Y-46973961D01*
X59750683Y-46994335D01*
X59768010Y-47011662D01*
X59788385Y-47025275D01*
X59811024Y-47034652D01*
X59835051Y-47039431D01*
X59843253Y-47040239D01*
X59847927Y-47041657D01*
X59852229Y-47043956D01*
X59860768Y-47050964D01*
X60064929Y-47255125D01*
X60071937Y-47263664D01*
X60074236Y-47267966D01*
X60075654Y-47272640D01*
X60076462Y-47280842D01*
X60081243Y-47304876D01*
X60090621Y-47327514D01*
X60104236Y-47347888D01*
X60121563Y-47365215D01*
X60141938Y-47378828D01*
X60164577Y-47388205D01*
X60188604Y-47392984D01*
X60196807Y-47393792D01*
X60201481Y-47395210D01*
X60205783Y-47397509D01*
X60214322Y-47404517D01*
X60418483Y-47608678D01*
X60425491Y-47617217D01*
X60427790Y-47621519D01*
X60429208Y-47626193D01*
X60430016Y-47634396D01*
X60434797Y-47658429D01*
X60444175Y-47681068D01*
X60457789Y-47701442D01*
X60475117Y-47718768D01*
X60495491Y-47732382D01*
X60518130Y-47741758D01*
X60542158Y-47746538D01*
X60550360Y-47747346D01*
X60555034Y-47748764D01*
X60559336Y-47751063D01*
X60567875Y-47758071D01*
X60772036Y-47962232D01*
X60779044Y-47970771D01*
X60781343Y-47975073D01*
X60782761Y-47979747D01*
X60783569Y-47987949D01*
X60788350Y-48011983D01*
X60797728Y-48034621D01*
X60811343Y-48054995D01*
X60828670Y-48072322D01*
X60849045Y-48085935D01*
X60871684Y-48095312D01*
X60895711Y-48100091D01*
X60903913Y-48100899D01*
X60908587Y-48102317D01*
X60912889Y-48104616D01*
X60921428Y-48111624D01*
X61125589Y-48315785D01*
X61132597Y-48324324D01*
X61134896Y-48328626D01*
X61136314Y-48333300D01*
X61136792Y-48338155D01*
X61136314Y-48343010D01*
X61134896Y-48347684D01*
X61132597Y-48351986D01*
X61121690Y-48365276D01*
X61121835Y-48365395D01*
X61111400Y-48378111D01*
X61099849Y-48399722D01*
X61092736Y-48423171D01*
X61090334Y-48447557D01*
X61092736Y-48471943D01*
X61099849Y-48495392D01*
X61111400Y-48517003D01*
X61126945Y-48535945D01*
X61145887Y-48551490D01*
X61167498Y-48563041D01*
X61190950Y-48570155D01*
X61195748Y-48571109D01*
X61199835Y-48572802D01*
X61199851Y-48572807D01*
X61209143Y-48576657D01*
X61209153Y-48576662D01*
X61213246Y-48578358D01*
X61230292Y-48589749D01*
X61238409Y-48597106D01*
X61252615Y-48611311D01*
X61271557Y-48626856D01*
X61293168Y-48638406D01*
X61316618Y-48645519D01*
X61341004Y-48647920D01*
X61365390Y-48645517D01*
X61388839Y-48638404D01*
X61410449Y-48626852D01*
X61429385Y-48611311D01*
X61443591Y-48597106D01*
X61451708Y-48589749D01*
X61468754Y-48578358D01*
X61472847Y-48576662D01*
X61472857Y-48576657D01*
X61482149Y-48572807D01*
X61482165Y-48572802D01*
X61486252Y-48571109D01*
X61491050Y-48570155D01*
X61514499Y-48563042D01*
X61536110Y-48551492D01*
X61555052Y-48535947D01*
X61570598Y-48517006D01*
X61582150Y-48495395D01*
X61589263Y-48471947D01*
X61591666Y-48447561D01*
X61589265Y-48423174D01*
X61582152Y-48399725D01*
X61570602Y-48378114D01*
X61560165Y-48365395D01*
X61560310Y-48365276D01*
X61549403Y-48351986D01*
X61547104Y-48347684D01*
X61545686Y-48343010D01*
X61545208Y-48338155D01*
X61545686Y-48333300D01*
X61547104Y-48328626D01*
X61549403Y-48324324D01*
X61556411Y-48315785D01*
X61760572Y-48111624D01*
X61769111Y-48104616D01*
X61773413Y-48102317D01*
X61778087Y-48100899D01*
X61786289Y-48100091D01*
X61810323Y-48095310D01*
X61832961Y-48085932D01*
X61853335Y-48072317D01*
X61870662Y-48054990D01*
X61884275Y-48034615D01*
X61893652Y-48011976D01*
X61898431Y-47987949D01*
X61899239Y-47979747D01*
X61900657Y-47975073D01*
X61902956Y-47970771D01*
X61909964Y-47962232D01*
X62114125Y-47758071D01*
X62122664Y-47751063D01*
X62126966Y-47748764D01*
X62131640Y-47747346D01*
X62139842Y-47746538D01*
X62163876Y-47741757D01*
X62186514Y-47732379D01*
X62206888Y-47718764D01*
X62224215Y-47701437D01*
X62237828Y-47681062D01*
X62247205Y-47658423D01*
X62251984Y-47634396D01*
X62252792Y-47626193D01*
X62254210Y-47621519D01*
X62256509Y-47617217D01*
X62263517Y-47608678D01*
X62467678Y-47404517D01*
X62476217Y-47397509D01*
X62480519Y-47395210D01*
X62485193Y-47393792D01*
X62493396Y-47392984D01*
X62517429Y-47388203D01*
X62540068Y-47378825D01*
X62560442Y-47365211D01*
X62577768Y-47347883D01*
X62591382Y-47327509D01*
X62600758Y-47304870D01*
X62605538Y-47280842D01*
X62606346Y-47272640D01*
X62607764Y-47267966D01*
X62610063Y-47263664D01*
X62617071Y-47255125D01*
X62821232Y-47050964D01*
X62829771Y-47043956D01*
X62834073Y-47041657D01*
X62838747Y-47040239D01*
X62846949Y-47039431D01*
X62870983Y-47034650D01*
X62893621Y-47025272D01*
X62913995Y-47011657D01*
X62931322Y-46994330D01*
X62944935Y-46973955D01*
X62954312Y-46951316D01*
X62959091Y-46927289D01*
X62959899Y-46919087D01*
X62961317Y-46914413D01*
X62963616Y-46910111D01*
X62970624Y-46901572D01*
X63174785Y-46697411D01*
X63183324Y-46690403D01*
X63187626Y-46688104D01*
X63192300Y-46686686D01*
X63197155Y-46686208D01*
X63202010Y-46686686D01*
X63206684Y-46688104D01*
X63210986Y-46690403D01*
X63224276Y-46701310D01*
X63224395Y-46701165D01*
X63237111Y-46711600D01*
X63258722Y-46723151D01*
X63282171Y-46730264D01*
X63306557Y-46732666D01*
X63330943Y-46730264D01*
X63354392Y-46723151D01*
X63376003Y-46711600D01*
X63394945Y-46696055D01*
X63410490Y-46677113D01*
X63422041Y-46655502D01*
X63429155Y-46632050D01*
X63430109Y-46627252D01*
X63431802Y-46623165D01*
X63431807Y-46623149D01*
X63435657Y-46613857D01*
X63435662Y-46613847D01*
X63437358Y-46609754D01*
X63448749Y-46592708D01*
X63456106Y-46584591D01*
X63470311Y-46570385D01*
X63485856Y-46551443D01*
X63497406Y-46529832D01*
X63504519Y-46506382D01*
X63506920Y-46481996D01*
X63504517Y-46457610D01*
X63497404Y-46434161D01*
X63485852Y-46412551D01*
X63470311Y-46393615D01*
X63456106Y-46379409D01*
X63448749Y-46371292D01*
X63437358Y-46354246D01*
X63435662Y-46350153D01*
X63435657Y-46350143D01*
X63431807Y-46340851D01*
X63431802Y-46340835D01*
X63430109Y-46336748D01*
X63429155Y-46331950D01*
X63422042Y-46308501D01*
X63410492Y-46286890D01*
X63394947Y-46267948D01*
X63376006Y-46252402D01*
X63354395Y-46240850D01*
X63330947Y-46233737D01*
X63306561Y-46231334D01*
X63282174Y-46233735D01*
X63258725Y-46240848D01*
X63237114Y-46252398D01*
X63224395Y-46262835D01*
X63224276Y-46262690D01*
X63210986Y-46273597D01*
X63206684Y-46275896D01*
X63202010Y-46277314D01*
X63197155Y-46277792D01*
X63192300Y-46277314D01*
X63187626Y-46275896D01*
X63183324Y-46273597D01*
X63174785Y-46266589D01*
X62970624Y-46062428D01*
X62963616Y-46053889D01*
X62961317Y-46049587D01*
X62959899Y-46044913D01*
X62959091Y-46036711D01*
X62954310Y-46012677D01*
X62944932Y-45990039D01*
X62931317Y-45969665D01*
X62913990Y-45952338D01*
X62893615Y-45938725D01*
X62870976Y-45929348D01*
X62846949Y-45924569D01*
X62838747Y-45923761D01*
X62834073Y-45922343D01*
X62829771Y-45920044D01*
X62821232Y-45913036D01*
X62617071Y-45708875D01*
X62610063Y-45700336D01*
X62607764Y-45696034D01*
X62606346Y-45691360D01*
X62605538Y-45683158D01*
X62600757Y-45659124D01*
X62591379Y-45636486D01*
X62577764Y-45616112D01*
X62560437Y-45598785D01*
X62540062Y-45585172D01*
X62517423Y-45575795D01*
X62493396Y-45571016D01*
X62485193Y-45570208D01*
X62480519Y-45568790D01*
X62476217Y-45566491D01*
X62467678Y-45559483D01*
X62263517Y-45355322D01*
X62256509Y-45346783D01*
X62254210Y-45342481D01*
X62252792Y-45337807D01*
X62251984Y-45329604D01*
X62247203Y-45305571D01*
X62237825Y-45282932D01*
X62224211Y-45262558D01*
X62206883Y-45245232D01*
X62186509Y-45231618D01*
X62163870Y-45222242D01*
X62139842Y-45217462D01*
X62131640Y-45216654D01*
X62126966Y-45215236D01*
X62122664Y-45212937D01*
X62114125Y-45205929D01*
X61909964Y-45001768D01*
X61902956Y-44993229D01*
X61900657Y-44988927D01*
X61899239Y-44984253D01*
X61898431Y-44976051D01*
X61893650Y-44952017D01*
X61884272Y-44929379D01*
X61870657Y-44909005D01*
X61853330Y-44891678D01*
X61832955Y-44878065D01*
X61810316Y-44868688D01*
X61786289Y-44863909D01*
X61778087Y-44863101D01*
X61773413Y-44861683D01*
X61769111Y-44859384D01*
X61760572Y-44852376D01*
X61556411Y-44648215D01*
X61549403Y-44639676D01*
X61547104Y-44635374D01*
X61545686Y-44630700D01*
X61545208Y-44625845D01*
X61545686Y-44620990D01*
X61547104Y-44616316D01*
X61549403Y-44612014D01*
X61560310Y-44598724D01*
X61560165Y-44598605D01*
X61570600Y-44585889D01*
X61582151Y-44564278D01*
X61589264Y-44540829D01*
X61591666Y-44516443D01*
X61589264Y-44492057D01*
X61582151Y-44468608D01*
X61570600Y-44446997D01*
X61555055Y-44428055D01*
X61536113Y-44412510D01*
X61514502Y-44400959D01*
X61491050Y-44393845D01*
X61486252Y-44392891D01*
X61482165Y-44391198D01*
X61482149Y-44391193D01*
X61472857Y-44387343D01*
X61472847Y-44387338D01*
X61468754Y-44385642D01*
X61451708Y-44374251D01*
X61443591Y-44366894D01*
X61429385Y-44352689D01*
X61410443Y-44337144D01*
X61388832Y-44325594D01*
X61365382Y-44318481D01*
X61340996Y-44316080D01*
X61316610Y-44318483D01*
X61293161Y-44325596D01*
X61271551Y-44337148D01*
X61252615Y-44352689D01*
X61238409Y-44366894D01*
X61230292Y-44374251D01*
X61213246Y-44385642D01*
X61209153Y-44387338D01*
X61209143Y-44387343D01*
X61199851Y-44391193D01*
X61199835Y-44391198D01*
X61195748Y-44392891D01*
X61190950Y-44393845D01*
X61167501Y-44400958D01*
X61145890Y-44412508D01*
X61126948Y-44428053D01*
X61111402Y-44446994D01*
X61099850Y-44468605D01*
X61092737Y-44492053D01*
X61090334Y-44516439D01*
X61092735Y-44540826D01*
X61099848Y-44564275D01*
X61111398Y-44585886D01*
X61121835Y-44598605D01*
X61121690Y-44598724D01*
X61132597Y-44612014D01*
X61134896Y-44616316D01*
X61136314Y-44620990D01*
X61136792Y-44625845D01*
X61136314Y-44630700D01*
X61134896Y-44635374D01*
X61132597Y-44639676D01*
X61125589Y-44648215D01*
X60921428Y-44852376D01*
X60912889Y-44859384D01*
X60908587Y-44861683D01*
X60903913Y-44863101D01*
X60895711Y-44863909D01*
X60871677Y-44868690D01*
X60849039Y-44878068D01*
X60828665Y-44891683D01*
X60811338Y-44909010D01*
X60797725Y-44929385D01*
X60788348Y-44952024D01*
X60783569Y-44976051D01*
X60782761Y-44984253D01*
X60781343Y-44988927D01*
X60779044Y-44993229D01*
X60772036Y-45001768D01*
X60567875Y-45205929D01*
X60559336Y-45212937D01*
X60555034Y-45215236D01*
X60550360Y-45216654D01*
X60542158Y-45217462D01*
X60518124Y-45222243D01*
X60495486Y-45231621D01*
X60475112Y-45245236D01*
X60457785Y-45262563D01*
X60444172Y-45282938D01*
X60434795Y-45305577D01*
X60430016Y-45329604D01*
X60429208Y-45337807D01*
X60427790Y-45342481D01*
X60425491Y-45346783D01*
X60418483Y-45355322D01*
X60214322Y-45559483D01*
X60205783Y-45566491D01*
X60201481Y-45568790D01*
X60196807Y-45570208D01*
X60188604Y-45571016D01*
X60164571Y-45575797D01*
X60141932Y-45585175D01*
X60121558Y-45598789D01*
X60104232Y-45616117D01*
X60090618Y-45636491D01*
X60081242Y-45659130D01*
X60076462Y-45683158D01*
X60075654Y-45691360D01*
X60074236Y-45696034D01*
X60071937Y-45700336D01*
X60064929Y-45708875D01*
X59860768Y-45913036D01*
X59852229Y-45920044D01*
X59847927Y-45922343D01*
X59843253Y-45923761D01*
X59835051Y-45924569D01*
X59811017Y-45929350D01*
X59788379Y-45938728D01*
X59768005Y-45952343D01*
X59750678Y-45969670D01*
X59737065Y-45990045D01*
X59727688Y-46012684D01*
X59722909Y-46036711D01*
X59722101Y-46044913D01*
X59720683Y-46049587D01*
X59718384Y-46053889D01*
X59711376Y-46062428D01*
X59507215Y-46266589D01*
X59498676Y-46273597D01*
X59494374Y-46275896D01*
X59489700Y-46277314D01*
X59484845Y-46277792D01*
X59479990Y-46277314D01*
X59475316Y-46275896D01*
X59471014Y-46273597D01*
X59457724Y-46262690D01*
X59457605Y-46262835D01*
X59444889Y-46252400D01*
X59423278Y-46240849D01*
X59399829Y-46233736D01*
X59375443Y-46231334D01*
X59351057Y-46233736D01*
X59327608Y-46240849D01*
X59305997Y-46252400D01*
X59287055Y-46267945D01*
X59271510Y-46286887D01*
X59259959Y-46308498D01*
X59252845Y-46331950D01*
X59251891Y-46336748D01*
X59250198Y-46340835D01*
X59250193Y-46340851D01*
X59246343Y-46350143D01*
X59246338Y-46350153D01*
X59244642Y-46354246D01*
X59233251Y-46371292D01*
X59225894Y-46379409D01*
X59211689Y-46393615D01*
X59196144Y-46412557D01*
X59184594Y-46434168D01*
X59177481Y-46457618D01*
X59175080Y-46482004D01*
X58917796Y-46482004D01*
X58917797Y-46482000D01*
X58915395Y-46457614D01*
X58908282Y-46434165D01*
X58896731Y-46412554D01*
X58881186Y-46393612D01*
X58509884Y-46022309D01*
X58502537Y-46014203D01*
X58491146Y-45997157D01*
X58489451Y-45993065D01*
X58489445Y-45993054D01*
X58485595Y-45983762D01*
X58485589Y-45983742D01*
X58483898Y-45979660D01*
X58480212Y-45961130D01*
X58480212Y-45942209D01*
X58483897Y-45923680D01*
X58485590Y-45919593D01*
X58485595Y-45919577D01*
X58489445Y-45910285D01*
X58489450Y-45910275D01*
X58491146Y-45906182D01*
X58502536Y-45889137D01*
X58509890Y-45881023D01*
X58618703Y-45772210D01*
X58626817Y-45764856D01*
X58643862Y-45753466D01*
X58647955Y-45751770D01*
X58647965Y-45751765D01*
X58657257Y-45747915D01*
X58657273Y-45747910D01*
X58661360Y-45746217D01*
X58679889Y-45742532D01*
X58681478Y-45742532D01*
X58705864Y-45740130D01*
X58729313Y-45733017D01*
X58750924Y-45721466D01*
X58769866Y-45705921D01*
X58785411Y-45686979D01*
X58796962Y-45665368D01*
X58804075Y-45641919D01*
X58806477Y-45617533D01*
X58805875Y-45605277D01*
X58805169Y-45598113D01*
X58805647Y-45593261D01*
X58807065Y-45588587D01*
X58809364Y-45584285D01*
X58816372Y-45575746D01*
X59020533Y-45371585D01*
X59029072Y-45364577D01*
X59033374Y-45362278D01*
X59038048Y-45360860D01*
X59046250Y-45360052D01*
X59070284Y-45355271D01*
X59092922Y-45345893D01*
X59113296Y-45332278D01*
X59130623Y-45314951D01*
X59144236Y-45294576D01*
X59153613Y-45271937D01*
X59158392Y-45247910D01*
X59159200Y-45239708D01*
X59160618Y-45235034D01*
X59162917Y-45230732D01*
X59169925Y-45222193D01*
X59374086Y-45018032D01*
X59382625Y-45011024D01*
X59386927Y-45008725D01*
X59391601Y-45007307D01*
X59399804Y-45006499D01*
X59423837Y-45001718D01*
X59446476Y-44992340D01*
X59466850Y-44978726D01*
X59484176Y-44961398D01*
X59497790Y-44941024D01*
X59507166Y-44918385D01*
X59511946Y-44894357D01*
X59512754Y-44886155D01*
X59514172Y-44881481D01*
X59516471Y-44877179D01*
X59523479Y-44868640D01*
X59727640Y-44664479D01*
X59736179Y-44657471D01*
X59740481Y-44655172D01*
X59745155Y-44653754D01*
X59753357Y-44652946D01*
X59777391Y-44648165D01*
X59800029Y-44638787D01*
X59820403Y-44625172D01*
X59837730Y-44607845D01*
X59851343Y-44587470D01*
X59860720Y-44564831D01*
X59865499Y-44540804D01*
X59866307Y-44532601D01*
X59867725Y-44527927D01*
X59870024Y-44523625D01*
X59877032Y-44515086D01*
X60081193Y-44310925D01*
X60089732Y-44303917D01*
X60094034Y-44301618D01*
X60098708Y-44300200D01*
X60106910Y-44299392D01*
X60130944Y-44294611D01*
X60153582Y-44285233D01*
X60173956Y-44271618D01*
X60191283Y-44254291D01*
X60204896Y-44233916D01*
X60214273Y-44211277D01*
X60219052Y-44187250D01*
X60219860Y-44179048D01*
X60221278Y-44174374D01*
X60223577Y-44170072D01*
X60230585Y-44161533D01*
X60434746Y-43957372D01*
X60443285Y-43950364D01*
X60447587Y-43948065D01*
X60452261Y-43946647D01*
X60457113Y-43946169D01*
X60464277Y-43946875D01*
X60488781Y-43946875D01*
X60512815Y-43942096D01*
X60535454Y-43932719D01*
X60555829Y-43919106D01*
X60573156Y-43901779D01*
X60586770Y-43881405D01*
X60596148Y-43858767D01*
X60600930Y-43834734D01*
X60601532Y-43822478D01*
X60601532Y-43820889D01*
X60605217Y-43802360D01*
X60606910Y-43798273D01*
X60606915Y-43798257D01*
X60610765Y-43788965D01*
X60610770Y-43788955D01*
X60612466Y-43784862D01*
X60623856Y-43767817D01*
X60631210Y-43759703D01*
X60740023Y-43650890D01*
X60748137Y-43643536D01*
X60765182Y-43632146D01*
X60769275Y-43630450D01*
X60769285Y-43630445D01*
X60778577Y-43626595D01*
X60778593Y-43626590D01*
X60782680Y-43624897D01*
X60801209Y-43621212D01*
X60820130Y-43621212D01*
X60838660Y-43624898D01*
X60838660Y-43624898D01*
G37*
G36*
X64811813Y-47636438D02*
G01*
X64832432Y-47642693D01*
X64851428Y-47652846D01*
X64872849Y-47670426D01*
X65232574Y-48030151D01*
X65250154Y-48051572D01*
X65260307Y-48070568D01*
X65266562Y-48091187D01*
X65268673Y-48112625D01*
X65266562Y-48134063D01*
X65260307Y-48154682D01*
X65250154Y-48173678D01*
X65232574Y-48195099D01*
X64908205Y-48519468D01*
X64886784Y-48537048D01*
X64867788Y-48547201D01*
X64847169Y-48553456D01*
X64825731Y-48555567D01*
X64804293Y-48553456D01*
X64783674Y-48547201D01*
X64764678Y-48537048D01*
X64743257Y-48519468D01*
X64383532Y-48159743D01*
X64365952Y-48138322D01*
X64355799Y-48119326D01*
X64349544Y-48098707D01*
X64347433Y-48077269D01*
X64349544Y-48055831D01*
X64355799Y-48035212D01*
X64365952Y-48016216D01*
X64383532Y-47994795D01*
X64707901Y-47670426D01*
X64729322Y-47652846D01*
X64748318Y-47642693D01*
X64768937Y-47636438D01*
X64790375Y-47634327D01*
X64811813Y-47636438D01*
X64811813Y-47636438D01*
G37*
G36*
X68288176Y-46095550D02*
G01*
X68324716Y-46106635D01*
X68358393Y-46124636D01*
X68392678Y-46152773D01*
X68441363Y-46201458D01*
X68441374Y-46201467D01*
X69368533Y-47128626D01*
X69368542Y-47128637D01*
X69417227Y-47177322D01*
X69445364Y-47211607D01*
X69463365Y-47245284D01*
X69474450Y-47281824D01*
X69478192Y-47319828D01*
X69474450Y-47357832D01*
X69463365Y-47394372D01*
X69445364Y-47428049D01*
X69417227Y-47462334D01*
X69368542Y-47511019D01*
X69368533Y-47511030D01*
X68794928Y-48084635D01*
X68794917Y-48084644D01*
X68746232Y-48133329D01*
X68711947Y-48161466D01*
X68678270Y-48179467D01*
X68641730Y-48190552D01*
X68603726Y-48194294D01*
X68565722Y-48190552D01*
X68529182Y-48179467D01*
X68495505Y-48161466D01*
X68461220Y-48133329D01*
X68412535Y-48084644D01*
X68412524Y-48084635D01*
X67485365Y-47157476D01*
X67485356Y-47157465D01*
X67436671Y-47108780D01*
X67408534Y-47074495D01*
X67390533Y-47040818D01*
X67379448Y-47004278D01*
X67375706Y-46966274D01*
X67379448Y-46928270D01*
X67390533Y-46891730D01*
X67408534Y-46858053D01*
X67436671Y-46823768D01*
X67485356Y-46775083D01*
X67485365Y-46775072D01*
X68058970Y-46201467D01*
X68058981Y-46201458D01*
X68107666Y-46152773D01*
X68141951Y-46124636D01*
X68175628Y-46106635D01*
X68212168Y-46095550D01*
X68250172Y-46091808D01*
X68288176Y-46095550D01*
X68288176Y-46095550D01*
G37*
G36*
X65497707Y-46950544D02*
G01*
X65518326Y-46956799D01*
X65537322Y-46966952D01*
X65558743Y-46984532D01*
X65918468Y-47344257D01*
X65936048Y-47365678D01*
X65946201Y-47384674D01*
X65952456Y-47405293D01*
X65954567Y-47426731D01*
X65952456Y-47448169D01*
X65946201Y-47468788D01*
X65936048Y-47487784D01*
X65918468Y-47509205D01*
X65594099Y-47833574D01*
X65572678Y-47851154D01*
X65553682Y-47861307D01*
X65533063Y-47867562D01*
X65511625Y-47869673D01*
X65490187Y-47867562D01*
X65469568Y-47861307D01*
X65450572Y-47851154D01*
X65429151Y-47833574D01*
X65069426Y-47473849D01*
X65051846Y-47452428D01*
X65041693Y-47433432D01*
X65035438Y-47412813D01*
X65033327Y-47391375D01*
X65035438Y-47369937D01*
X65041693Y-47349318D01*
X65051846Y-47330322D01*
X65069426Y-47308901D01*
X65393795Y-46984532D01*
X65415216Y-46966952D01*
X65434212Y-46956799D01*
X65454831Y-46950544D01*
X65476269Y-46948433D01*
X65497707Y-46950544D01*
X65497707Y-46950544D01*
G37*
G36*
X56288938Y-45941716D02*
G01*
X56309557Y-45947971D01*
X56328553Y-45958124D01*
X56345208Y-45971792D01*
X56358876Y-45988447D01*
X56369029Y-46007443D01*
X56375284Y-46028062D01*
X56378000Y-46055640D01*
X56378000Y-46514360D01*
X56375284Y-46541938D01*
X56369029Y-46562557D01*
X56358876Y-46581553D01*
X56345208Y-46598208D01*
X56328553Y-46611876D01*
X56309557Y-46622029D01*
X56288938Y-46628284D01*
X56261360Y-46631000D01*
X55752640Y-46631000D01*
X55725062Y-46628284D01*
X55704443Y-46622029D01*
X55685447Y-46611876D01*
X55668792Y-46598208D01*
X55655124Y-46581553D01*
X55644971Y-46562557D01*
X55638716Y-46541938D01*
X55636000Y-46514360D01*
X55636000Y-46055640D01*
X55638716Y-46028062D01*
X55644971Y-46007443D01*
X55655124Y-45988447D01*
X55668792Y-45971792D01*
X55685447Y-45958124D01*
X55704443Y-45947971D01*
X55725062Y-45941716D01*
X55752640Y-45939000D01*
X56261360Y-45939000D01*
X56288938Y-45941716D01*
X56288938Y-45941716D01*
G37*
G36*
X56288938Y-44971716D02*
G01*
X56309557Y-44977971D01*
X56328553Y-44988124D01*
X56345208Y-45001792D01*
X56358876Y-45018447D01*
X56369029Y-45037443D01*
X56375284Y-45058062D01*
X56378000Y-45085640D01*
X56378000Y-45544360D01*
X56375284Y-45571938D01*
X56369029Y-45592557D01*
X56358876Y-45611553D01*
X56345208Y-45628208D01*
X56328553Y-45641876D01*
X56309557Y-45652029D01*
X56288938Y-45658284D01*
X56261360Y-45661000D01*
X55752640Y-45661000D01*
X55725062Y-45658284D01*
X55704443Y-45652029D01*
X55685447Y-45641876D01*
X55668792Y-45628208D01*
X55655124Y-45611553D01*
X55644971Y-45592557D01*
X55638716Y-45571938D01*
X55636000Y-45544360D01*
X55636000Y-45085640D01*
X55638716Y-45058062D01*
X55644971Y-45037443D01*
X55655124Y-45018447D01*
X55668792Y-45001792D01*
X55685447Y-44988124D01*
X55704443Y-44977971D01*
X55725062Y-44971716D01*
X55752640Y-44969000D01*
X56261360Y-44969000D01*
X56288938Y-44971716D01*
X56288938Y-44971716D01*
G37*
G36*
X58205116Y-44641491D02*
G01*
X58225735Y-44647746D01*
X58244731Y-44657899D01*
X58266152Y-44675479D01*
X58590521Y-44999848D01*
X58608101Y-45021269D01*
X58618254Y-45040265D01*
X58624509Y-45060884D01*
X58626620Y-45082322D01*
X58624509Y-45103760D01*
X58618254Y-45124379D01*
X58608101Y-45143375D01*
X58590521Y-45164796D01*
X58230796Y-45524521D01*
X58209375Y-45542101D01*
X58190379Y-45552254D01*
X58169760Y-45558509D01*
X58148322Y-45560620D01*
X58126884Y-45558509D01*
X58106265Y-45552254D01*
X58087269Y-45542101D01*
X58065848Y-45524521D01*
X57741479Y-45200152D01*
X57723899Y-45178731D01*
X57713746Y-45159735D01*
X57707491Y-45139116D01*
X57705380Y-45117678D01*
X57707491Y-45096240D01*
X57713746Y-45075621D01*
X57723899Y-45056625D01*
X57741479Y-45035204D01*
X58101204Y-44675479D01*
X58122625Y-44657899D01*
X58141621Y-44647746D01*
X58162240Y-44641491D01*
X58183678Y-44639380D01*
X58205116Y-44641491D01*
X58205116Y-44641491D01*
G37*
G36*
X57519222Y-43955597D02*
G01*
X57539841Y-43961852D01*
X57558837Y-43972005D01*
X57580258Y-43989585D01*
X57904627Y-44313954D01*
X57922207Y-44335375D01*
X57932360Y-44354371D01*
X57938615Y-44374990D01*
X57940726Y-44396428D01*
X57938615Y-44417866D01*
X57932360Y-44438485D01*
X57922207Y-44457481D01*
X57904627Y-44478902D01*
X57544902Y-44838627D01*
X57523481Y-44856207D01*
X57504485Y-44866360D01*
X57483866Y-44872615D01*
X57462428Y-44874726D01*
X57440990Y-44872615D01*
X57420371Y-44866360D01*
X57401375Y-44856207D01*
X57379954Y-44838627D01*
X57055585Y-44514258D01*
X57038005Y-44492837D01*
X57027852Y-44473841D01*
X57021597Y-44453222D01*
X57019486Y-44431784D01*
X57021597Y-44410346D01*
X57027852Y-44389727D01*
X57038005Y-44370731D01*
X57055585Y-44349310D01*
X57415310Y-43989585D01*
X57436731Y-43972005D01*
X57455727Y-43961852D01*
X57476346Y-43955597D01*
X57497784Y-43953486D01*
X57519222Y-43955597D01*
X57519222Y-43955597D01*
G37*
G36*
X54751000Y-44701000D02*
G01*
X52249000Y-44701000D01*
X52249000Y-42099000D01*
X54751000Y-42099000D01*
X54751000Y-44701000D01*
X54751000Y-44701000D01*
G37*
G36*
X59437063Y-43445438D02*
G01*
X59457682Y-43451693D01*
X59476678Y-43461846D01*
X59498099Y-43479426D01*
X59822468Y-43803795D01*
X59840048Y-43825216D01*
X59850201Y-43844212D01*
X59856456Y-43864831D01*
X59858567Y-43886269D01*
X59856456Y-43907707D01*
X59850201Y-43928326D01*
X59840048Y-43947322D01*
X59822468Y-43968743D01*
X59462743Y-44328468D01*
X59441322Y-44346048D01*
X59422326Y-44356201D01*
X59401707Y-44362456D01*
X59380269Y-44364567D01*
X59358831Y-44362456D01*
X59338212Y-44356201D01*
X59319216Y-44346048D01*
X59297795Y-44328468D01*
X58973426Y-44004099D01*
X58955846Y-43982678D01*
X58945693Y-43963682D01*
X58939438Y-43943063D01*
X58937327Y-43921625D01*
X58939438Y-43900187D01*
X58945693Y-43879568D01*
X58955846Y-43860572D01*
X58973426Y-43839151D01*
X59333151Y-43479426D01*
X59354572Y-43461846D01*
X59373568Y-43451693D01*
X59394187Y-43445438D01*
X59415625Y-43443327D01*
X59437063Y-43445438D01*
X59437063Y-43445438D01*
G37*
G36*
X56288938Y-43241716D02*
G01*
X56309557Y-43247971D01*
X56328553Y-43258124D01*
X56345208Y-43271792D01*
X56358876Y-43288447D01*
X56369029Y-43307443D01*
X56375284Y-43328062D01*
X56378000Y-43355640D01*
X56378000Y-43814359D01*
X56375284Y-43841938D01*
X56369029Y-43862557D01*
X56358876Y-43881553D01*
X56345208Y-43898208D01*
X56328553Y-43911876D01*
X56309557Y-43922029D01*
X56288938Y-43928284D01*
X56261360Y-43931000D01*
X55752640Y-43931000D01*
X55725062Y-43928284D01*
X55704443Y-43922029D01*
X55685447Y-43911876D01*
X55668792Y-43898208D01*
X55655124Y-43881553D01*
X55644971Y-43862557D01*
X55638716Y-43841938D01*
X55636000Y-43814359D01*
X55636000Y-43355640D01*
X55638716Y-43328062D01*
X55644971Y-43307443D01*
X55655124Y-43288447D01*
X55668792Y-43271792D01*
X55685447Y-43258124D01*
X55704443Y-43247971D01*
X55725062Y-43241716D01*
X55752640Y-43239000D01*
X56261360Y-43239000D01*
X56288938Y-43241716D01*
X56288938Y-43241716D01*
G37*
G36*
X58751169Y-42759544D02*
G01*
X58771788Y-42765799D01*
X58790784Y-42775952D01*
X58812205Y-42793532D01*
X59136574Y-43117901D01*
X59154154Y-43139322D01*
X59164307Y-43158318D01*
X59170562Y-43178937D01*
X59172673Y-43200375D01*
X59170562Y-43221813D01*
X59164307Y-43242432D01*
X59154154Y-43261428D01*
X59136574Y-43282849D01*
X58776849Y-43642574D01*
X58755428Y-43660154D01*
X58736432Y-43670307D01*
X58715813Y-43676562D01*
X58694375Y-43678673D01*
X58672937Y-43676562D01*
X58652318Y-43670307D01*
X58633322Y-43660154D01*
X58611901Y-43642574D01*
X58287532Y-43318205D01*
X58269952Y-43296784D01*
X58259799Y-43277788D01*
X58253544Y-43257169D01*
X58251433Y-43235731D01*
X58253544Y-43214293D01*
X58259799Y-43193674D01*
X58269952Y-43174678D01*
X58287532Y-43153257D01*
X58647257Y-42793532D01*
X58668678Y-42775952D01*
X58687674Y-42765799D01*
X58708293Y-42759544D01*
X58729731Y-42757433D01*
X58751169Y-42759544D01*
X58751169Y-42759544D01*
G37*
G36*
X56288938Y-42271716D02*
G01*
X56309557Y-42277971D01*
X56328553Y-42288124D01*
X56345208Y-42301792D01*
X56358876Y-42318447D01*
X56369029Y-42337443D01*
X56375284Y-42358062D01*
X56378000Y-42385640D01*
X56378000Y-42844360D01*
X56375284Y-42871938D01*
X56369029Y-42892557D01*
X56358876Y-42911553D01*
X56345208Y-42928208D01*
X56328553Y-42941876D01*
X56309557Y-42952029D01*
X56288938Y-42958284D01*
X56261360Y-42961000D01*
X55752640Y-42961000D01*
X55725062Y-42958284D01*
X55704443Y-42952029D01*
X55685447Y-42941876D01*
X55668792Y-42928208D01*
X55655124Y-42911553D01*
X55644971Y-42892557D01*
X55638716Y-42871938D01*
X55636000Y-42844360D01*
X55636000Y-42385640D01*
X55638716Y-42358062D01*
X55644971Y-42337443D01*
X55655124Y-42318447D01*
X55668792Y-42301792D01*
X55685447Y-42288124D01*
X55704443Y-42277971D01*
X55725062Y-42271716D01*
X55752640Y-42269000D01*
X56261360Y-42269000D01*
X56288938Y-42271716D01*
X56288938Y-42271716D01*
G37*
M02*
