M48
; DRILL file {KiCad (5.1.4)-1} date 2021/04/18 9:35:53
; FORMAT={-:-/ absolute / inch / decimal}
; #@! TF.CreationDate,2021-04-18T09:35:53+09:00
; #@! TF.GenerationSoftware,Kicad,Pcbnew,(5.1.4)-1
; #@! TF.FileFunction,Plated,1,2,PTH
FMAT,2
INCH
T1C0.0118
T2C0.0315
T3C0.0394
%
G90
G05
T1
X2.035Y-2.45
X2.0413Y-3.2598
X2.13Y-2.015
X2.155Y-2.045
X2.1594Y-3.2598
X2.185Y-2.145
X2.205Y-1.75
X2.215Y-1.905
X2.2208Y-1.9958
X2.225Y-2.095
X2.245Y-1.68
X2.26Y-2.03
X2.265Y-2.215
X2.2686Y-1.8013
X2.2894Y-2.8071
X2.29Y-1.725
X2.29Y-1.89
X2.2933Y-3.122
X2.2967Y-2.1617
X2.315Y-1.94
X2.33Y-3.085
X2.34Y-2.525
X2.345Y-2.06
X2.35Y-3.125
X2.3503Y-1.6986
X2.355Y-2.8
X2.37Y-3.24
X2.3759Y-1.9909
X2.3839Y-2.5236
X2.385Y-2.8806
X2.425Y-3.275
X2.4252Y-3.1909
X2.435Y-2.695
X2.44Y-2.25
X2.44Y-2.325
X2.44Y-2.38
X2.445Y-3.085
X2.45Y-1.9557
X2.475Y-1.64
X2.49Y-2.77
X2.49Y-2.855
X2.495Y-1.715
X2.51Y-2.355
X2.515Y-1.9
X2.515Y-2.595
X2.53Y-2.075
X2.535Y-2.02
X2.545Y-1.63
X2.55Y-1.725
X2.55Y-2.285
X2.55Y-3.025
X2.5512Y-3.1142
X2.555Y-2.145
X2.585Y-2.005
X2.6102Y-2.15
X2.615Y-1.83
X2.6319Y-2.2618
X2.6614Y-3.2638
X2.76Y-1.635
X2.7618Y-3.2579
X2.765Y-1.755
X2.765Y-1.995
X2.7657Y-2.5492
X2.7697Y-2.7736
T2
X2.385Y-2.4281
X2.385Y-2.625
X2.385Y-2.1281
X2.385Y-2.325
X2.295Y-2.7281
X2.295Y-2.925
X2.295Y-3.0281
X2.295Y-3.225
T3
X2.7Y-2.1
X2.7Y-2.2
X2.7Y-2.3
X2.7Y-2.4
X2.7Y-2.5
X2.7Y-2.6
X2.7Y-2.7
X2.7Y-2.8
X2.7Y-2.9
X2.7Y-3.0
X2.7Y-3.1
X2.7Y-3.2
X2.1Y-2.1
X2.1Y-2.2
X2.1Y-2.3
X2.1Y-2.4
X2.1Y-2.5
X2.1Y-2.6
X2.1Y-2.7
X2.1Y-2.8
X2.1Y-2.9
X2.1Y-3.0
X2.1Y-3.1
X2.1Y-3.2
T0
M30
