G04 #@! TF.GenerationSoftware,KiCad,Pcbnew,(5.1.4)-1*
G04 #@! TF.CreationDate,2020-02-09T23:11:54+09:00*
G04 #@! TF.ProjectId,main,6d61696e-2e6b-4696-9361-645f70636258,rev?*
G04 #@! TF.SameCoordinates,Original*
G04 #@! TF.FileFunction,Copper,L3,Inr*
G04 #@! TF.FilePolarity,Positive*
%FSLAX46Y46*%
G04 Gerber Fmt 4.6, Leading zero omitted, Abs format (unit mm)*
G04 Created by KiCad (PCBNEW (5.1.4)-1) date 2020-02-09 23:11:54*
%MOMM*%
%LPD*%
G04 APERTURE LIST*
%ADD10C,5.500000*%
%ADD11R,1.000000X1.000000*%
%ADD12O,1.000000X1.000000*%
%ADD13R,1.700000X1.700000*%
%ADD14O,1.700000X1.700000*%
%ADD15C,1.400000*%
%ADD16O,1.400000X1.400000*%
%ADD17C,2.000000*%
%ADD18C,1.200000*%
%ADD19C,0.600000*%
%ADD20C,1.000000*%
%ADD21C,1.000000*%
%ADD22C,0.800000*%
%ADD23C,0.300000*%
%ADD24C,0.600000*%
%ADD25C,0.400000*%
%ADD26C,0.200000*%
G04 APERTURE END LIST*
D10*
X53000000Y-147000000D03*
X147000000Y-147000000D03*
X147000000Y-53000000D03*
X53000000Y-53000000D03*
D11*
X137000000Y-53000000D03*
D12*
X137000000Y-54270000D03*
X135730000Y-53000000D03*
X135730000Y-54270000D03*
X134460000Y-53000000D03*
X134460000Y-54270000D03*
X133190000Y-53000000D03*
X133190000Y-54270000D03*
X131920000Y-53000000D03*
X131920000Y-54270000D03*
X130650000Y-53000000D03*
X130650000Y-54270000D03*
X129380000Y-53000000D03*
X129380000Y-54270000D03*
X128110000Y-53000000D03*
X128110000Y-54270000D03*
D13*
X122600000Y-103500000D03*
D14*
X120060000Y-103500000D03*
X122600000Y-100960000D03*
X120060000Y-100960000D03*
D12*
X61870000Y-135080000D03*
X60600000Y-135080000D03*
X61870000Y-133810000D03*
X60600000Y-133810000D03*
X61870000Y-132540000D03*
X60600000Y-132540000D03*
X61870000Y-131270000D03*
X60600000Y-131270000D03*
X61870000Y-130000000D03*
D11*
X60600000Y-130000000D03*
D12*
X109270000Y-135080000D03*
X108000000Y-135080000D03*
X109270000Y-133810000D03*
X108000000Y-133810000D03*
X109270000Y-132540000D03*
X108000000Y-132540000D03*
X109270000Y-131270000D03*
X108000000Y-131270000D03*
X109270000Y-130000000D03*
D11*
X108000000Y-130000000D03*
D12*
X61870000Y-147080000D03*
X60600000Y-147080000D03*
X61870000Y-145810000D03*
X60600000Y-145810000D03*
X61870000Y-144540000D03*
X60600000Y-144540000D03*
X61870000Y-143270000D03*
X60600000Y-143270000D03*
X61870000Y-142000000D03*
D11*
X60600000Y-142000000D03*
X108000000Y-142000000D03*
D12*
X109270000Y-142000000D03*
X108000000Y-143270000D03*
X109270000Y-143270000D03*
X108000000Y-144540000D03*
X109270000Y-144540000D03*
X108000000Y-145810000D03*
X109270000Y-145810000D03*
X108000000Y-147080000D03*
X109270000Y-147080000D03*
D11*
X70600000Y-130000000D03*
D12*
X71870000Y-130000000D03*
X70600000Y-131270000D03*
X71870000Y-131270000D03*
X70600000Y-132540000D03*
X71870000Y-132540000D03*
X70600000Y-133810000D03*
X71870000Y-133810000D03*
X70600000Y-135080000D03*
X71870000Y-135080000D03*
X119270000Y-135080000D03*
X118000000Y-135080000D03*
X119270000Y-133810000D03*
X118000000Y-133810000D03*
X119270000Y-132540000D03*
X118000000Y-132540000D03*
X119270000Y-131270000D03*
X118000000Y-131270000D03*
X119270000Y-130000000D03*
D11*
X118000000Y-130000000D03*
X70600000Y-142000000D03*
D12*
X71870000Y-142000000D03*
X70600000Y-143270000D03*
X71870000Y-143270000D03*
X70600000Y-144540000D03*
X71870000Y-144540000D03*
X70600000Y-145810000D03*
X71870000Y-145810000D03*
X70600000Y-147080000D03*
X71870000Y-147080000D03*
D11*
X118000000Y-142000000D03*
D12*
X119270000Y-142000000D03*
X118000000Y-143270000D03*
X119270000Y-143270000D03*
X118000000Y-144540000D03*
X119270000Y-144540000D03*
X118000000Y-145810000D03*
X119270000Y-145810000D03*
X118000000Y-147080000D03*
X119270000Y-147080000D03*
X81870000Y-135080000D03*
X80600000Y-135080000D03*
X81870000Y-133810000D03*
X80600000Y-133810000D03*
X81870000Y-132540000D03*
X80600000Y-132540000D03*
X81870000Y-131270000D03*
X80600000Y-131270000D03*
X81870000Y-130000000D03*
D11*
X80600000Y-130000000D03*
X128000000Y-130000000D03*
D12*
X129270000Y-130000000D03*
X128000000Y-131270000D03*
X129270000Y-131270000D03*
X128000000Y-132540000D03*
X129270000Y-132540000D03*
X128000000Y-133810000D03*
X129270000Y-133810000D03*
X128000000Y-135080000D03*
X129270000Y-135080000D03*
D11*
X80600000Y-142000000D03*
D12*
X81870000Y-142000000D03*
X80600000Y-143270000D03*
X81870000Y-143270000D03*
X80600000Y-144540000D03*
X81870000Y-144540000D03*
X80600000Y-145810000D03*
X81870000Y-145810000D03*
X80600000Y-147080000D03*
X81870000Y-147080000D03*
X129270000Y-147080000D03*
X128000000Y-147080000D03*
X129270000Y-145810000D03*
X128000000Y-145810000D03*
X129270000Y-144540000D03*
X128000000Y-144540000D03*
X129270000Y-143270000D03*
X128000000Y-143270000D03*
X129270000Y-142000000D03*
D11*
X128000000Y-142000000D03*
X142000000Y-97000000D03*
D12*
X142000000Y-95730000D03*
X143270000Y-97000000D03*
X143270000Y-95730000D03*
X144540000Y-97000000D03*
X144540000Y-95730000D03*
X145810000Y-97000000D03*
X145810000Y-95730000D03*
X147080000Y-97000000D03*
X147080000Y-95730000D03*
D11*
X90600000Y-130000000D03*
D12*
X91870000Y-130000000D03*
X90600000Y-131270000D03*
X91870000Y-131270000D03*
X90600000Y-132540000D03*
X91870000Y-132540000D03*
X90600000Y-133810000D03*
X91870000Y-133810000D03*
X90600000Y-135080000D03*
X91870000Y-135080000D03*
X139270000Y-135080000D03*
X138000000Y-135080000D03*
X139270000Y-133810000D03*
X138000000Y-133810000D03*
X139270000Y-132540000D03*
X138000000Y-132540000D03*
X139270000Y-131270000D03*
X138000000Y-131270000D03*
X139270000Y-130000000D03*
D11*
X138000000Y-130000000D03*
X90600000Y-142000000D03*
D12*
X91870000Y-142000000D03*
X90600000Y-143270000D03*
X91870000Y-143270000D03*
X90600000Y-144540000D03*
X91870000Y-144540000D03*
X90600000Y-145810000D03*
X91870000Y-145810000D03*
X90600000Y-147080000D03*
X91870000Y-147080000D03*
X139270000Y-147080000D03*
X138000000Y-147080000D03*
X139270000Y-145810000D03*
X138000000Y-145810000D03*
X139270000Y-144540000D03*
X138000000Y-144540000D03*
X139270000Y-143270000D03*
X138000000Y-143270000D03*
X139270000Y-142000000D03*
D11*
X138000000Y-142000000D03*
D13*
X113500000Y-123000000D03*
D14*
X116040000Y-123000000D03*
X118580000Y-123000000D03*
X121120000Y-123000000D03*
X123660000Y-123000000D03*
D11*
X99500000Y-142000000D03*
D12*
X100770000Y-142000000D03*
X99500000Y-143270000D03*
X100770000Y-143270000D03*
X99500000Y-144540000D03*
X100770000Y-144540000D03*
X99500000Y-145810000D03*
X100770000Y-145810000D03*
X99500000Y-147080000D03*
X100770000Y-147080000D03*
D11*
X57000000Y-80000000D03*
D12*
X58270000Y-80000000D03*
X57000000Y-81270000D03*
X58270000Y-81270000D03*
X57000000Y-82540000D03*
X58270000Y-82540000D03*
X57000000Y-83810000D03*
X58270000Y-83810000D03*
X57000000Y-85080000D03*
X58270000Y-85080000D03*
X145890000Y-118730000D03*
X145890000Y-120000000D03*
X144620000Y-118730000D03*
X144620000Y-120000000D03*
X143350000Y-118730000D03*
X143350000Y-120000000D03*
X142080000Y-118730000D03*
X142080000Y-120000000D03*
X140810000Y-118730000D03*
X140810000Y-120000000D03*
X139540000Y-118730000D03*
X139540000Y-120000000D03*
X138270000Y-118730000D03*
X138270000Y-120000000D03*
X137000000Y-118730000D03*
D11*
X137000000Y-120000000D03*
D13*
X72000000Y-54500000D03*
D14*
X74540000Y-54500000D03*
X72000000Y-57040000D03*
X74540000Y-57040000D03*
X72000000Y-59580000D03*
X74540000Y-59580000D03*
X72000000Y-62120000D03*
X74540000Y-62120000D03*
X72000000Y-64660000D03*
X74540000Y-64660000D03*
X72000000Y-67200000D03*
X74540000Y-67200000D03*
X72000000Y-69740000D03*
X74540000Y-69740000D03*
X72000000Y-72280000D03*
X74540000Y-72280000D03*
D12*
X78270000Y-85080000D03*
X77000000Y-85080000D03*
X78270000Y-83810000D03*
X77000000Y-83810000D03*
X78270000Y-82540000D03*
X77000000Y-82540000D03*
X78270000Y-81270000D03*
X77000000Y-81270000D03*
X78270000Y-80000000D03*
D11*
X77000000Y-80000000D03*
D12*
X68270000Y-85080000D03*
X67000000Y-85080000D03*
X68270000Y-83810000D03*
X67000000Y-83810000D03*
X68270000Y-82540000D03*
X67000000Y-82540000D03*
X68270000Y-81270000D03*
X67000000Y-81270000D03*
X68270000Y-80000000D03*
D11*
X67000000Y-80000000D03*
D15*
X111700000Y-87800000D03*
D16*
X111700000Y-85260000D03*
D17*
X122300000Y-117700000D03*
X130900000Y-98200000D03*
X79800000Y-115300000D03*
D18*
X67500000Y-71400000D03*
D19*
X63800000Y-99700000D03*
X66100000Y-99700000D03*
X72900000Y-99600000D03*
X63500000Y-115000000D03*
X70200000Y-115600000D03*
X52000000Y-100000000D03*
X86000000Y-79400000D03*
X89900000Y-66800000D03*
X95900000Y-66800000D03*
X86700000Y-97900000D03*
X86968257Y-106140780D03*
X86100000Y-111200000D03*
X86300000Y-118200000D03*
X97600000Y-119100000D03*
X101730103Y-119092931D03*
X111400000Y-117700000D03*
X90900000Y-93400000D03*
X101900000Y-93200000D03*
X112400000Y-97700000D03*
X112500000Y-103900000D03*
X113900000Y-110810000D03*
X117800000Y-88000000D03*
X127300000Y-89100000D03*
X133600000Y-87000000D03*
X125300000Y-99100000D03*
X130100000Y-107000000D03*
X130100000Y-109000000D03*
X143300000Y-104400000D03*
X140100000Y-113600000D03*
D20*
X87000000Y-60500000D03*
X112000000Y-59400000D03*
D19*
X133500000Y-60900000D03*
X135900000Y-62500000D03*
D20*
X117500000Y-52100000D03*
D19*
X119600000Y-66000000D03*
X129000000Y-66500000D03*
X135500000Y-69600000D03*
D20*
X92300000Y-69500000D03*
X101400000Y-68400000D03*
X108800000Y-68400000D03*
X112400000Y-76400000D03*
X118800000Y-77700000D03*
X123000000Y-76200000D03*
D19*
X98700000Y-87700000D03*
X97900000Y-91600000D03*
X93500000Y-87700000D03*
X96800000Y-91800000D03*
D20*
X119200000Y-53300000D03*
D19*
X125100000Y-70100000D03*
X118100000Y-66600000D03*
D18*
X56700000Y-67300000D03*
D20*
X97500000Y-74900000D03*
X114500000Y-84700000D03*
X121400000Y-85100000D03*
D19*
X123232806Y-80767194D03*
X124700000Y-80800000D03*
X66500000Y-135000000D03*
X66500000Y-137180000D03*
X76420000Y-135080000D03*
X76500000Y-137180000D03*
X86500000Y-135000000D03*
X86500000Y-137180000D03*
X63500000Y-147000000D03*
X63500000Y-140500000D03*
X73500000Y-140500000D03*
X73500000Y-147000000D03*
X83500000Y-147000000D03*
X83500000Y-140500000D03*
X94000000Y-140500000D03*
X94000000Y-147000000D03*
X97000000Y-137180000D03*
X97000000Y-135000000D03*
X114000000Y-137180000D03*
X114000000Y-135000000D03*
X124000000Y-137180000D03*
X124000000Y-135000000D03*
X134000000Y-137180000D03*
X134000000Y-135000000D03*
X111000000Y-140500000D03*
X111000000Y-147000000D03*
X121000000Y-140500000D03*
X121000000Y-147000000D03*
X131000000Y-140500000D03*
X131000000Y-147000000D03*
X102000000Y-147100000D03*
X81000000Y-118100000D03*
X141300000Y-140500000D03*
X141300000Y-147000000D03*
X144500000Y-137100000D03*
X144500000Y-135000000D03*
X100800000Y-140500000D03*
X65000000Y-134000000D03*
X65000000Y-136590000D03*
X75000000Y-134000000D03*
X75000000Y-136590000D03*
X85000000Y-134000000D03*
X85000000Y-136590000D03*
X65000000Y-145500000D03*
X65000000Y-139910000D03*
X75000000Y-145500000D03*
X75000000Y-139910000D03*
X85000000Y-145500000D03*
X85000000Y-139910000D03*
X95500000Y-133810000D03*
X95500000Y-136590000D03*
X112500000Y-136590000D03*
X112500000Y-134000000D03*
X122500000Y-136590000D03*
X122500000Y-134000000D03*
X132500000Y-136590000D03*
X132500000Y-134000000D03*
X95500000Y-139910000D03*
X95500000Y-145500000D03*
X112500000Y-139910000D03*
X112500000Y-145500000D03*
X122500000Y-139910000D03*
X122500000Y-145500000D03*
X132500000Y-139910000D03*
X132500000Y-145500000D03*
X102700000Y-145800000D03*
X102690000Y-139910000D03*
X88300000Y-122700000D03*
X88310000Y-136590000D03*
X142900000Y-140000000D03*
X143000000Y-145500000D03*
X142900000Y-136500000D03*
X142900000Y-134000000D03*
X59000000Y-128500000D03*
X69000000Y-128500000D03*
X69000000Y-133500000D03*
X59000000Y-133500000D03*
X79000000Y-128500000D03*
X79000000Y-133500000D03*
X89000000Y-133500000D03*
X59000000Y-146000000D03*
X59000000Y-148500000D03*
X69000000Y-146000000D03*
X69000000Y-148500000D03*
X79000000Y-146000000D03*
X79000000Y-148500000D03*
X89000000Y-146000000D03*
X89000000Y-148500000D03*
X106000000Y-133500000D03*
X106000000Y-128500000D03*
X116500000Y-128500000D03*
X116500000Y-133500000D03*
X126500000Y-128500000D03*
X126500000Y-133500000D03*
X136500000Y-128500000D03*
X136500000Y-133500000D03*
X106500000Y-148500000D03*
X106500000Y-146000000D03*
X116500000Y-148500000D03*
X116500000Y-146000000D03*
X126500000Y-148500000D03*
X126500000Y-146000000D03*
X136500000Y-148500000D03*
X136500000Y-146000000D03*
X97900000Y-148500000D03*
X93900000Y-122600000D03*
X94000000Y-128500000D03*
X97900000Y-146300000D03*
X88600000Y-128500000D03*
X94040000Y-132540000D03*
X94000000Y-136000000D03*
X73500000Y-136000000D03*
X73460000Y-132540000D03*
X63500000Y-136000000D03*
X63540000Y-132540000D03*
X83460000Y-132540000D03*
X83500000Y-136000000D03*
X66500000Y-144500000D03*
X66500000Y-139320000D03*
X76500000Y-144500000D03*
X76500000Y-139320000D03*
X86500000Y-144500000D03*
X86500000Y-139320000D03*
X111000000Y-136000000D03*
X111000000Y-132500000D03*
X121000000Y-136000000D03*
X121000000Y-132500000D03*
X131000000Y-136000000D03*
X131000000Y-132500000D03*
X97000000Y-139320000D03*
X97000000Y-144500000D03*
X114000000Y-139320000D03*
X114000000Y-144500000D03*
X124000000Y-139320000D03*
X124000000Y-144500000D03*
X134000000Y-139320000D03*
X134000000Y-144500000D03*
X104500000Y-144500000D03*
X104480000Y-139320000D03*
X94400000Y-121800000D03*
X95200000Y-132500000D03*
X144500000Y-143100000D03*
X144500000Y-139500000D03*
X141300000Y-136000000D03*
X141300000Y-132500000D03*
X111000000Y-138400000D03*
X78500000Y-123000000D03*
X67500000Y-127500000D03*
X55500000Y-127500000D03*
X55500000Y-132500000D03*
X104900000Y-127700000D03*
X105300000Y-131800000D03*
X98700000Y-125200000D03*
X98700000Y-137770000D03*
X55700000Y-137800000D03*
X55600000Y-143000000D03*
X105400000Y-142800000D03*
X103400000Y-125900000D03*
X80300000Y-123700000D03*
X74900000Y-129100000D03*
X66100000Y-129300000D03*
X66000000Y-132400000D03*
X115400000Y-126300000D03*
X115400000Y-131700000D03*
X99675736Y-138400000D03*
X64300000Y-142900000D03*
X63800000Y-138500000D03*
X99600000Y-122700000D03*
X113200000Y-127800000D03*
X113300000Y-142400000D03*
X81100000Y-124400000D03*
X75700000Y-132400000D03*
X126300000Y-113100000D03*
X125500000Y-131800000D03*
X100300000Y-125200000D03*
X78000000Y-147700000D03*
X78252500Y-144540000D03*
X95410000Y-147910000D03*
X125300000Y-113800000D03*
X123200000Y-143200000D03*
X122500000Y-109500000D03*
X126000000Y-106000000D03*
X125000000Y-105500000D03*
X119800000Y-110700000D03*
X145800000Y-91600000D03*
X125800000Y-104300000D03*
X118000000Y-109200000D03*
X85700000Y-124600000D03*
X85700000Y-132500000D03*
X129200000Y-113400000D03*
X135400000Y-131800000D03*
X102000000Y-123800000D03*
X97800000Y-141200000D03*
X127900000Y-113600000D03*
X133300000Y-143300000D03*
X103900000Y-108100000D03*
X109900000Y-117100000D03*
X108300000Y-108100000D03*
X100500000Y-97600000D03*
X103300000Y-149100000D03*
X94700000Y-143700000D03*
X93600000Y-149100000D03*
X102200000Y-127700000D03*
X82100000Y-100800000D03*
X82100000Y-83400000D03*
X70000000Y-78700000D03*
X70000000Y-82500000D03*
X59900000Y-78700000D03*
X59900000Y-82500000D03*
X80540000Y-82540000D03*
X80500000Y-78700000D03*
X82890010Y-98500000D03*
X82890010Y-86600000D03*
X75700000Y-86600000D03*
X65700000Y-86600000D03*
X55600000Y-86600000D03*
X82890010Y-84500000D03*
X83617725Y-98807489D03*
X145200000Y-113800000D03*
X138200000Y-124600000D03*
X100800000Y-87700000D03*
X99500000Y-94200000D03*
X100200000Y-86600000D03*
X98500000Y-93600000D03*
X115800000Y-99800000D03*
X115800000Y-86500000D03*
X117300000Y-99700000D03*
X117400000Y-89700000D03*
X116300000Y-61200000D03*
X116000000Y-70300000D03*
X123200000Y-93200000D03*
X124665000Y-93196937D03*
X129300000Y-93100000D03*
X125400000Y-92300000D03*
X128600000Y-92300000D03*
X122400000Y-91400000D03*
X145000000Y-76800000D03*
X147100000Y-74700000D03*
X118200000Y-100500000D03*
X122400000Y-96300000D03*
X126600000Y-96200000D03*
X129200000Y-96200000D03*
X125300000Y-108000000D03*
X127800000Y-108000000D03*
X125800000Y-109800000D03*
X133900000Y-106800000D03*
X90600000Y-114700000D03*
X64600000Y-92600000D03*
X68600000Y-88600000D03*
X63600000Y-91800000D03*
X65700000Y-89400000D03*
X103250000Y-94950000D03*
X101932799Y-91067201D03*
X97500000Y-99000000D03*
X85700000Y-106100000D03*
X86400000Y-107400000D03*
X98800000Y-98300000D03*
X61400000Y-98000000D03*
X67100000Y-92900000D03*
X89100000Y-92600000D03*
X96200000Y-93000000D03*
X52500000Y-94200000D03*
X62200000Y-94000000D03*
X75000000Y-94100000D03*
X83400000Y-103500000D03*
X74600000Y-105810000D03*
X84500000Y-104100000D03*
X79790000Y-105810000D03*
X74600000Y-109200000D03*
X90400000Y-121200000D03*
X91900000Y-106700000D03*
X89300000Y-120400000D03*
X90900000Y-107100000D03*
X94100000Y-107300000D03*
X96600000Y-102800000D03*
X88200000Y-119800000D03*
X91300000Y-108500000D03*
X68400000Y-96700000D03*
X81400000Y-99900000D03*
X81400000Y-102400000D03*
X81400000Y-110300000D03*
X70300000Y-88100000D03*
X78800000Y-87700000D03*
X85800000Y-109000000D03*
X81800000Y-105100000D03*
X84417201Y-109817201D03*
X83100000Y-106400000D03*
X83400000Y-111500000D03*
X81300000Y-107100000D03*
X77600000Y-121900000D03*
X77600000Y-109500000D03*
X61200000Y-121900000D03*
X62100000Y-114900000D03*
X65400000Y-114200000D03*
X76800000Y-122600000D03*
X75000000Y-111700000D03*
X63100000Y-122600000D03*
X66200000Y-114900000D03*
X63900000Y-123300000D03*
X75800000Y-123300000D03*
X74400000Y-114200000D03*
X64800000Y-124000000D03*
X74700000Y-124000000D03*
X74700000Y-115500000D03*
X67000000Y-116500000D03*
X66100000Y-124600000D03*
X73600000Y-124600000D03*
X73600000Y-116100000D03*
X68400000Y-114300000D03*
X70200000Y-114200000D03*
X70200000Y-126500000D03*
X93300000Y-126490000D03*
X93300000Y-121200000D03*
X71100000Y-127090000D03*
X94000000Y-120400000D03*
X71000000Y-117800000D03*
X91790000Y-127090000D03*
X72600000Y-127700000D03*
X94400000Y-119600000D03*
X72600000Y-115600000D03*
X90300000Y-127700000D03*
X90900000Y-100800000D03*
X95100000Y-105900000D03*
X83000000Y-100800000D03*
X96800000Y-115400000D03*
X70600000Y-97100000D03*
X70500000Y-93400000D03*
X89300000Y-95100000D03*
X96500000Y-98300000D03*
X98700000Y-101400000D03*
X97800000Y-116100000D03*
X59000000Y-114200000D03*
X58200000Y-122400000D03*
X96800000Y-105500000D03*
X97700000Y-114500000D03*
X99700000Y-116300000D03*
X99700000Y-106800000D03*
X60700000Y-125900000D03*
X60400000Y-115400000D03*
X100900000Y-113800000D03*
X91900000Y-101600000D03*
X100800000Y-107600000D03*
X86000000Y-101800000D03*
X90900000Y-102600000D03*
X93200000Y-105100000D03*
X93200000Y-116000000D03*
X87900000Y-102600000D03*
X141400000Y-110200000D03*
X136500000Y-113600000D03*
X60500000Y-99700000D03*
X95000000Y-100000000D03*
X75400000Y-97800000D03*
X84600000Y-97800000D03*
X105700000Y-103400000D03*
X104300000Y-105000000D03*
X95100000Y-99100000D03*
X88300000Y-97500000D03*
X62200000Y-102400000D03*
X76500000Y-96800000D03*
X85400000Y-96900000D03*
X102374264Y-99750000D03*
X102700000Y-105400000D03*
X107800000Y-99100000D03*
X101340000Y-95118378D03*
X101000000Y-91490010D03*
X127000000Y-92500000D03*
X139500000Y-69600000D03*
X139100000Y-63600000D03*
D18*
X56000000Y-71400000D03*
X62100000Y-64300000D03*
D19*
X84600000Y-115300000D03*
X84100000Y-110800000D03*
X90600000Y-110300000D03*
X73400000Y-114000000D03*
X71800000Y-114000000D03*
X67000000Y-114100000D03*
X62100000Y-114000000D03*
X84700000Y-98700000D03*
X80500000Y-99200000D03*
X69400000Y-99000000D03*
X64800000Y-96900000D03*
X52500000Y-96400000D03*
X75500000Y-96800000D03*
X52600000Y-114100000D03*
X84400000Y-105000000D03*
X91200000Y-105200000D03*
X87800000Y-98400000D03*
X93700000Y-97600000D03*
X90600000Y-91700000D03*
X115900000Y-101100000D03*
X115800000Y-104500000D03*
X116600000Y-98200000D03*
X109400000Y-105200000D03*
X109200000Y-110200000D03*
X110500000Y-121400000D03*
X109600000Y-123400000D03*
X101900000Y-122500000D03*
X97000000Y-122400000D03*
X96200000Y-116400000D03*
X115700000Y-110000000D03*
X96000000Y-87600000D03*
X127300000Y-86800000D03*
X126400000Y-80800000D03*
X130600000Y-83300000D03*
X123100000Y-83600000D03*
X112800000Y-74400000D03*
X117100000Y-74400000D03*
X134200000Y-111400000D03*
X140700000Y-105500000D03*
X88000000Y-64600000D03*
X92200000Y-58300000D03*
X95100000Y-65700000D03*
X113500000Y-62000000D03*
X122000000Y-62000000D03*
X128000000Y-62600000D03*
X116800000Y-63500000D03*
X119500000Y-62500000D03*
D18*
X82500000Y-59400000D03*
X81100000Y-69500000D03*
D19*
X134800000Y-73300000D03*
X143800000Y-74400000D03*
X147600000Y-66500000D03*
X130700000Y-65600000D03*
X101800000Y-116300000D03*
X107500000Y-74100000D03*
X107600000Y-72400000D03*
X105400000Y-72900000D03*
X100200000Y-71300000D03*
X125600000Y-66500000D03*
X127800000Y-66300000D03*
X70100000Y-117300000D03*
X56500000Y-91500000D03*
X55000000Y-93500000D03*
X58000000Y-93500000D03*
X60000000Y-91500000D03*
X55000000Y-95000000D03*
X55000000Y-96500000D03*
X56500000Y-95000000D03*
X52500000Y-93000000D03*
X55000000Y-81500000D03*
X69000000Y-87500000D03*
X61000000Y-87500000D03*
X56000000Y-89000000D03*
X67000000Y-103500000D03*
X68500000Y-103500000D03*
X72000000Y-103000000D03*
X75500000Y-99500000D03*
X78500000Y-103000000D03*
X80500000Y-101500000D03*
X77500000Y-98500000D03*
X61000000Y-85000000D03*
X64500000Y-85000000D03*
X70500000Y-85000000D03*
X74500000Y-85000000D03*
X81000000Y-85500000D03*
X81500000Y-88000000D03*
X85000000Y-88000000D03*
X85000000Y-84500000D03*
X92000000Y-88000000D03*
X105000000Y-90500000D03*
X103000000Y-88500000D03*
X106000000Y-87000000D03*
X108000000Y-89000000D03*
X107500000Y-79000000D03*
X109000000Y-80500000D03*
X111500000Y-80000000D03*
X115500000Y-83500000D03*
X121000000Y-83500000D03*
X122000000Y-81500000D03*
X115500000Y-77500000D03*
X111000000Y-77000000D03*
X109000000Y-78000000D03*
X124500000Y-84000000D03*
X129500000Y-84000000D03*
X129500000Y-86000000D03*
X124500000Y-86000000D03*
X140500000Y-90500000D03*
X144000000Y-90500000D03*
X132000000Y-95000000D03*
X135500000Y-99000000D03*
X127000000Y-100500000D03*
X128000000Y-102500000D03*
X131600000Y-102700000D03*
X130600000Y-100800000D03*
X140400000Y-95800000D03*
X140400000Y-100800000D03*
X135500000Y-106000000D03*
X127000000Y-107000000D03*
X129000000Y-107000000D03*
X141500000Y-103000000D03*
X138500000Y-103000000D03*
X137500000Y-111500000D03*
X141500000Y-111500000D03*
X141500000Y-108000000D03*
X137500000Y-108000000D03*
X134000000Y-138300000D03*
X132600000Y-138300000D03*
X124000000Y-138200000D03*
X122500000Y-138200000D03*
X114400000Y-138200000D03*
X112300000Y-137900000D03*
X105500000Y-137800000D03*
X104100000Y-138400000D03*
X102100000Y-138600000D03*
X104000000Y-127800000D03*
X103100000Y-125100000D03*
X104000000Y-135300000D03*
X106000000Y-135300000D03*
X97900000Y-135400000D03*
X96300000Y-132600000D03*
X97900000Y-126600000D03*
X95900000Y-127900000D03*
X96400000Y-124500000D03*
X97800000Y-125100000D03*
X94500000Y-127100000D03*
X93200000Y-127900000D03*
X78300000Y-131500000D03*
X77900000Y-135300000D03*
X64800000Y-129200000D03*
X68000000Y-135400000D03*
X56600000Y-138600000D03*
X62600000Y-139400000D03*
X58200000Y-123800000D03*
X61900000Y-123600000D03*
X57400000Y-119700000D03*
X53800000Y-115000000D03*
X69100000Y-126700000D03*
X59300000Y-126500000D03*
X63600000Y-137000000D03*
X114900000Y-117400000D03*
X119000000Y-117100000D03*
X127100000Y-122600000D03*
X128200000Y-116500000D03*
X130100000Y-116500000D03*
X134500000Y-121100000D03*
X142400000Y-116600000D03*
X133600000Y-116400000D03*
X144100000Y-113700000D03*
X118500000Y-96000000D03*
X121600000Y-92800000D03*
X113100000Y-92900000D03*
X113300000Y-89200000D03*
X107500000Y-115900000D03*
X109200000Y-114800000D03*
X104600000Y-114600000D03*
X107400000Y-112000000D03*
X107400000Y-109000000D03*
X101700000Y-110100000D03*
X104500000Y-106900000D03*
X108500000Y-100700000D03*
X108900000Y-98400000D03*
X103100000Y-97900000D03*
X105600000Y-100700000D03*
X101400000Y-101400000D03*
X103500000Y-103100000D03*
X101600000Y-103500000D03*
X99800000Y-103200000D03*
X99500000Y-100200000D03*
X97700000Y-103900000D03*
X99800000Y-105400000D03*
X97900000Y-106400000D03*
X97800000Y-108900000D03*
X94400000Y-114800000D03*
X94200000Y-110500000D03*
D20*
X143000000Y-131500000D03*
X140000000Y-125500000D03*
X133100000Y-80800000D03*
X141200000Y-83600000D03*
X141500000Y-78000000D03*
X134000000Y-78000000D03*
X141500000Y-70500000D03*
X139500000Y-66500000D03*
X148500000Y-57500000D03*
X142500000Y-52000000D03*
X148500000Y-61500000D03*
X114000000Y-65700000D03*
X108500000Y-61000000D03*
X108500000Y-66000000D03*
X107000000Y-56500000D03*
X100000000Y-58000000D03*
X106000000Y-61000000D03*
X101000000Y-66500000D03*
X92500000Y-72500000D03*
X88000000Y-72500000D03*
X88500000Y-66500000D03*
X79500000Y-66500000D03*
X80500000Y-56000000D03*
X77500000Y-63000000D03*
X86500000Y-56000000D03*
X85000000Y-62000000D03*
X85000000Y-51500000D03*
X52000000Y-59000000D03*
X52000000Y-65000000D03*
X52000000Y-71000000D03*
X52000000Y-77500000D03*
X62000000Y-77500000D03*
X73500000Y-77500000D03*
X82500000Y-76500000D03*
X129100000Y-71800000D03*
X122000000Y-74500000D03*
X122000000Y-71000000D03*
D19*
X131500000Y-76500000D03*
X132000000Y-73500000D03*
D20*
X101000000Y-78000000D03*
X89500000Y-78000000D03*
X64800000Y-132800000D03*
X74600000Y-131800000D03*
X84800000Y-131300000D03*
D19*
X115600000Y-135000000D03*
X111600000Y-131100000D03*
X125600000Y-135000000D03*
X121600000Y-131200000D03*
X135700000Y-135200000D03*
X131300000Y-131100000D03*
X136000000Y-124500000D03*
X131900000Y-126500000D03*
X129900000Y-124600000D03*
X128800000Y-126200000D03*
X116600000Y-126350000D03*
X127450000Y-124700000D03*
X130000000Y-122700000D03*
X134550000Y-122650000D03*
X140000000Y-121450000D03*
X130800000Y-93450000D03*
X134100000Y-88950000D03*
D20*
X119450000Y-51350000D03*
X97600000Y-71000000D03*
X98600000Y-55350000D03*
X94950000Y-60950000D03*
X94450000Y-67500000D03*
X89450000Y-85600000D03*
D19*
X79800000Y-117800000D03*
X104350000Y-129300000D03*
X122150000Y-97950000D03*
D20*
X66450000Y-146850000D03*
X75950000Y-146950000D03*
X86550000Y-146450000D03*
X104650000Y-146700000D03*
D19*
X96950000Y-147500000D03*
D20*
X113900000Y-146950000D03*
X123950000Y-146850000D03*
X134200000Y-146850000D03*
X57350000Y-148900000D03*
X138050000Y-148900000D03*
D19*
X92400000Y-149300000D03*
X104550000Y-149300000D03*
X132150000Y-55700000D03*
X118600000Y-57300000D03*
X121600000Y-57300000D03*
X111200000Y-58150000D03*
X136500000Y-55650000D03*
X143400000Y-64750000D03*
X140850000Y-61450000D03*
X134300000Y-59750000D03*
X127050000Y-60100000D03*
X133700000Y-57050000D03*
X132450000Y-58500000D03*
D20*
X136500000Y-86500000D03*
X143400000Y-86800000D03*
X148500000Y-91000000D03*
X148500000Y-100500000D03*
X148500000Y-107000000D03*
X148500000Y-116000000D03*
X148500000Y-134500000D03*
X148500000Y-142500000D03*
X143000000Y-149000000D03*
X53000000Y-118000000D03*
X53000000Y-128500000D03*
X53000000Y-132000000D03*
X53000000Y-140000000D03*
X58000000Y-135500000D03*
D19*
X55000000Y-118500000D03*
D18*
X62200000Y-52000000D03*
X66000000Y-52000000D03*
X66000000Y-56500000D03*
X58300000Y-56300000D03*
X58500000Y-52000000D03*
X62000000Y-60500000D03*
D19*
X124300000Y-126300000D03*
X55400000Y-104900000D03*
X63800000Y-104900000D03*
X52100000Y-109300000D03*
X73600000Y-109750000D03*
D20*
X71500000Y-52000000D03*
D19*
X88500000Y-60500000D03*
D20*
X141000000Y-59250000D03*
X148500000Y-75700000D03*
D18*
X66600000Y-61200000D03*
X57900000Y-61100000D03*
D19*
X126900000Y-70100000D03*
X124800000Y-60600000D03*
X84500000Y-116600000D03*
X87600000Y-114500000D03*
D21*
X67500000Y-71400000D02*
X67500000Y-76900000D01*
X67000000Y-77400000D02*
X67000000Y-80000000D01*
X67500000Y-76900000D02*
X67000000Y-77400000D01*
X65700000Y-80000000D02*
X58270000Y-80000000D01*
X67000000Y-80000000D02*
X65700000Y-80000000D01*
X68270000Y-80000000D02*
X77000000Y-80000000D01*
D22*
X57000000Y-80000000D02*
X58270000Y-80000000D01*
X67000000Y-80000000D02*
X68270000Y-80000000D01*
X77000000Y-80000000D02*
X78270000Y-80000000D01*
D23*
X63800000Y-99700000D02*
X66100000Y-99700000D01*
X66100000Y-99700000D02*
X72800000Y-99700000D01*
X72800000Y-99700000D02*
X72900000Y-99600000D01*
D21*
X51000000Y-82000000D02*
X51000000Y-98300000D01*
X57000000Y-80000000D02*
X53000000Y-80000000D01*
X53000000Y-80000000D02*
X51000000Y-82000000D01*
D23*
X63500000Y-115600000D02*
X63500000Y-115000000D01*
D21*
X51000000Y-115600000D02*
X51000000Y-130000000D01*
D22*
X51000000Y-130000000D02*
X60600000Y-130000000D01*
D21*
X51000000Y-130000000D02*
X51000000Y-142000000D01*
D22*
X51000000Y-142000000D02*
X60600000Y-142000000D01*
D24*
X60600000Y-142000000D02*
X61870000Y-142000000D01*
X70600000Y-142000000D02*
X71870000Y-142000000D01*
D22*
X71870000Y-142000000D02*
X80600000Y-142000000D01*
D24*
X69500000Y-142000000D02*
X70600000Y-142000000D01*
D22*
X61870000Y-142000000D02*
X69500000Y-142000000D01*
D24*
X60600000Y-130000000D02*
X61870000Y-130000000D01*
D22*
X69500000Y-130000000D02*
X70600000Y-130000000D01*
X69000000Y-130500000D02*
X69500000Y-130000000D01*
X63077106Y-130500000D02*
X69000000Y-130500000D01*
X61870000Y-130000000D02*
X62577106Y-130000000D01*
X62577106Y-130000000D02*
X63077106Y-130500000D01*
D24*
X80600000Y-142000000D02*
X81870000Y-142000000D01*
D22*
X81870000Y-142000000D02*
X90600000Y-142000000D01*
D24*
X90600000Y-142000000D02*
X91870000Y-142000000D01*
X99500000Y-142000000D02*
X100770000Y-142000000D01*
X108000000Y-142000000D02*
X109270000Y-142000000D01*
X118000000Y-142000000D02*
X119270000Y-142000000D01*
X128000000Y-142000000D02*
X129270000Y-142000000D01*
X138000000Y-142000000D02*
X139270000Y-142000000D01*
X80600000Y-130000000D02*
X81870000Y-130000000D01*
X80400000Y-130200000D02*
X80600000Y-130000000D01*
X90600000Y-130000000D02*
X91870000Y-130000000D01*
X108000000Y-130000000D02*
X109270000Y-130000000D01*
D22*
X109977106Y-130000000D02*
X118000000Y-130000000D01*
X109270000Y-130000000D02*
X109977106Y-130000000D01*
D24*
X118000000Y-130000000D02*
X119270000Y-130000000D01*
D22*
X119270000Y-130000000D02*
X128000000Y-130000000D01*
D24*
X128000000Y-130000000D02*
X129270000Y-130000000D01*
D22*
X129977106Y-130000000D02*
X138000000Y-130000000D01*
X129270000Y-130000000D02*
X129977106Y-130000000D01*
D24*
X138000000Y-130000000D02*
X139270000Y-130000000D01*
D21*
X51000000Y-100200000D02*
X51000000Y-115600000D01*
X51000000Y-98300000D02*
X51000000Y-100200000D01*
D23*
X61900000Y-99700000D02*
X63800000Y-99700000D01*
X60900000Y-98700000D02*
X61900000Y-99700000D01*
X58300000Y-99700000D02*
X59300000Y-98700000D01*
D24*
X51500000Y-100200000D02*
X51000000Y-100200000D01*
X52000000Y-100000000D02*
X51500000Y-100200000D01*
D23*
X52000000Y-100000000D02*
X58300000Y-99700000D01*
X59300000Y-98700000D02*
X60900000Y-98700000D01*
D24*
X70600000Y-130000000D02*
X71870000Y-130000000D01*
D22*
X71870000Y-130000000D02*
X73200000Y-130000000D01*
X73200000Y-130000000D02*
X73700000Y-130500000D01*
X73700000Y-130500000D02*
X76000000Y-130500000D01*
X76500000Y-130000000D02*
X80600000Y-130000000D01*
X76000000Y-130500000D02*
X76500000Y-130000000D01*
X81870000Y-130000000D02*
X90600000Y-130000000D01*
X92577106Y-142000000D02*
X93077106Y-142500000D01*
X91870000Y-142000000D02*
X92577106Y-142000000D01*
X93077106Y-142500000D02*
X98200000Y-142500000D01*
X98700000Y-142000000D02*
X99500000Y-142000000D01*
X98200000Y-142500000D02*
X98700000Y-142000000D01*
X106700000Y-142000000D02*
X108000000Y-142000000D01*
X106400000Y-141700000D02*
X106700000Y-142000000D01*
X100770000Y-142000000D02*
X101070000Y-141700000D01*
X101070000Y-141700000D02*
X106400000Y-141700000D01*
X109270000Y-142000000D02*
X111400000Y-142000000D01*
X111400000Y-142000000D02*
X112200000Y-141200000D01*
X112200000Y-141200000D02*
X115300000Y-141200000D01*
X116100000Y-142000000D02*
X118000000Y-142000000D01*
X115300000Y-141200000D02*
X116100000Y-142000000D01*
X119270000Y-142000000D02*
X128000000Y-142000000D01*
X129270000Y-142000000D02*
X138000000Y-142000000D01*
D23*
X70100000Y-115700000D02*
X70200000Y-115600000D01*
X63500000Y-115600000D02*
X63600000Y-115700000D01*
X63600000Y-115700000D02*
X70100000Y-115700000D01*
X62500000Y-116600000D02*
X63500000Y-115600000D01*
X51000000Y-115600000D02*
X52000000Y-116600000D01*
X52000000Y-116600000D02*
X62500000Y-116600000D01*
D24*
X137000000Y-125200000D02*
X137000000Y-120000000D01*
X139270000Y-130000000D02*
X139270000Y-127470000D01*
X139270000Y-127470000D02*
X137000000Y-125200000D01*
D21*
X102840000Y-76400000D02*
X111700000Y-85260000D01*
X78349999Y-80079999D02*
X79479999Y-80079999D01*
X78270000Y-80000000D02*
X78349999Y-80079999D01*
X79479999Y-80079999D02*
X80200000Y-80800000D01*
X80200000Y-80800000D02*
X81100000Y-80800000D01*
X81100000Y-80800000D02*
X84850000Y-77050000D01*
X84850000Y-77050000D02*
X85500000Y-76400000D01*
D25*
X86000000Y-78200000D02*
X84850000Y-77050000D01*
X86000000Y-79400000D02*
X86000000Y-78200000D01*
X89900000Y-76400000D02*
X89900000Y-66800000D01*
X95900000Y-76400000D02*
X95900000Y-66800000D01*
D21*
X95900000Y-76400000D02*
X102840000Y-76400000D01*
X89900000Y-76400000D02*
X95900000Y-76400000D01*
X87800000Y-76400000D02*
X89900000Y-76400000D01*
X85500000Y-76400000D02*
X87800000Y-76400000D01*
D24*
X86700000Y-96300000D02*
X86700000Y-97900000D01*
X87700000Y-95300000D02*
X86700000Y-96300000D01*
X87800000Y-76400000D02*
X87700000Y-76500000D01*
X86700000Y-97900000D02*
X86700000Y-100100000D01*
X86968257Y-101599055D02*
X86968257Y-106140780D01*
X86700000Y-100100000D02*
X86968257Y-100368257D01*
X86968257Y-100368257D02*
X86968257Y-101599055D01*
X87268256Y-110031744D02*
X86100000Y-111200000D01*
X86968257Y-106140780D02*
X87268256Y-106440779D01*
X87268256Y-106440779D02*
X87268256Y-110031744D01*
X86100000Y-111200000D02*
X86100000Y-118000000D01*
X86100000Y-118000000D02*
X86300000Y-118200000D01*
X86300000Y-118200000D02*
X96700000Y-118200000D01*
X96700000Y-118200000D02*
X97600000Y-119100000D01*
X97600000Y-119100000D02*
X101723034Y-119100000D01*
X101723034Y-119100000D02*
X101730103Y-119092931D01*
X101730103Y-119092931D02*
X110007069Y-119092931D01*
X110007069Y-119092931D02*
X111400000Y-117700000D01*
D23*
X90600000Y-93700000D02*
X90900000Y-93400000D01*
X87700000Y-93700000D02*
X90600000Y-93700000D01*
D24*
X87700000Y-93700000D02*
X87700000Y-95300000D01*
X87700000Y-76500000D02*
X87700000Y-93700000D01*
D23*
X95092799Y-93640001D02*
X96859999Y-93640001D01*
X90900000Y-93400000D02*
X94852798Y-93400000D01*
X94852798Y-93400000D02*
X95092799Y-93640001D01*
X96859999Y-93640001D02*
X97700000Y-92800000D01*
X97700000Y-92800000D02*
X99900000Y-92800000D01*
X99900000Y-92800000D02*
X100300000Y-93200000D01*
X100300000Y-93200000D02*
X101900000Y-93200000D01*
D24*
X114500000Y-88060000D02*
X114500000Y-94300000D01*
D22*
X111700000Y-85260000D02*
X114500000Y-88060000D01*
D24*
X114500000Y-94300000D02*
X114500000Y-95600000D01*
X114500000Y-95600000D02*
X112400000Y-97700000D01*
X112400000Y-97700000D02*
X112400000Y-103800000D01*
D23*
X112400000Y-103800000D02*
X112500000Y-103900000D01*
D24*
X112500000Y-103900000D02*
X112500000Y-109410000D01*
X112500000Y-109410000D02*
X113900000Y-110810000D01*
X114500000Y-88060000D02*
X117740000Y-88060000D01*
X117740000Y-88060000D02*
X117800000Y-88000000D01*
D25*
X118900000Y-89100000D02*
X117800000Y-88000000D01*
X127300000Y-89100000D02*
X118900000Y-89100000D01*
X127300000Y-89100000D02*
X132500000Y-89100000D01*
X132500000Y-89100000D02*
X133600000Y-88000000D01*
X133600000Y-88000000D02*
X133600000Y-87000000D01*
X114500000Y-95600000D02*
X116500000Y-95600000D01*
X116500000Y-95600000D02*
X120000000Y-99100000D01*
X120000000Y-99100000D02*
X125300000Y-99100000D01*
X125300000Y-99100000D02*
X127400000Y-99100000D01*
X127400000Y-99100000D02*
X130100000Y-101800000D01*
D23*
X130100000Y-101800000D02*
X130100000Y-107000000D01*
X130100000Y-107000000D02*
X130100000Y-109000000D01*
X130100000Y-101800000D02*
X141700000Y-101800000D01*
X143300000Y-103400000D02*
X143300000Y-104400000D01*
X141700000Y-101800000D02*
X143300000Y-103400000D01*
D22*
X92049999Y-130179999D02*
X92393201Y-130179999D01*
X107820001Y-130179999D02*
X108000000Y-130000000D01*
X91870000Y-130000000D02*
X92049999Y-130179999D01*
X92393201Y-130179999D02*
X92863202Y-130650000D01*
X92863202Y-130650000D02*
X107006798Y-130650000D01*
X107006798Y-130650000D02*
X107476799Y-130179999D01*
X107476799Y-130179999D02*
X107820001Y-130179999D01*
D26*
X140100000Y-113600000D02*
X138800000Y-113600000D01*
X137000000Y-115400000D02*
X137000000Y-118730000D01*
X138800000Y-113600000D02*
X137000000Y-115400000D01*
M02*
