M48
; DRILL file {KiCad (5.1.4)-1} date 2020/02/15 21:13:34
; FORMAT={-:-/ absolute / inch / decimal}
; #@! TF.CreationDate,2020-02-15T21:13:34+09:00
; #@! TF.GenerationSoftware,Kicad,Pcbnew,(5.1.4)-1
; #@! TF.FileFunction,Plated,1,4,PTH
FMAT,2
INCH
T1C0.0118
T2C0.0236
T3C0.0256
T4C0.0276
T5C0.0315
T6C0.0394
T7C0.1220
%
G90
G05
T1
X2.0472Y-3.8976
X2.0512Y-4.2638
X2.0669Y-3.622
X2.0669Y-3.6693
X2.0669Y-3.7559
X2.0709Y-4.4528
X2.1181Y-4.4882
X2.1654Y-3.1693
X2.1654Y-3.6417
X2.1654Y-3.7008
X2.1654Y-3.7598
X2.1654Y-4.626
X2.1811Y-4.0906
X2.185Y-4.9803
X2.185Y-5.1772
X2.189Y-3.3701
X2.1929Y-5.3858
X2.2047Y-3.4646
X2.2244Y-3.563
X2.2244Y-3.7008
X2.2283Y-5.4173
X2.2598Y-4.6732
X2.2835Y-3.6417
X2.2913Y-4.7795
X2.2913Y-4.8346
X2.3228Y-4.4567
X2.3228Y-5.0197
X2.3228Y-5.2165
X2.3228Y-5.748
X2.3228Y-5.8465
X2.3346Y-4.9409
X2.3583Y-3.0591
X2.3583Y-3.2087
X2.3622Y-3.563
X2.378Y-4.5039
X2.3819Y-3.8858
X2.3898Y-4.9173
X2.4016Y-3.3071
X2.4016Y-3.4055
X2.4094Y-4.7598
X2.4173Y-3.8189
X2.437Y-4.8268
X2.4449Y-4.4488
X2.4449Y-4.4843
X2.4488Y-3.6614
X2.4488Y-3.9921
X2.4646Y-5.4882
X2.4843Y-4.7874
X2.5Y-4.4882
X2.5Y-5.315
X2.5Y-5.5315
X2.5Y-5.7874
X2.5016Y-5.1787
X2.5039Y-3.5748
X2.5039Y-5.3543
X2.5118Y-3.8858
X2.5118Y-4.0906
X2.5157Y-4.815
X2.5315Y-5.626
X2.5316Y-5.4133
X2.5394Y-3.3071
X2.5433Y-3.6063
X2.5512Y-3.7756
X2.5512Y-4.8425
X2.5512Y-5.0472
X2.5591Y-5.2362
X2.5591Y-5.3382
X2.5591Y-5.5083
X2.5591Y-5.7283
X2.5748Y-4.4567
X2.5866Y-3.3701
X2.5866Y-3.4803
X2.5984Y-5.1732
X2.6024Y-3.8858
X2.6024Y-4.8661
X2.6024Y-5.0512
X2.6063Y-4.4843
X2.6181Y-5.2756
X2.6181Y-5.3614
X2.6181Y-5.485
X2.6181Y-5.689
X2.6378Y-4.0354
X2.6378Y-4.4528
X2.6378Y-4.5472
X2.6417Y-3.6181
X2.6575Y-4.9803
X2.6772Y-5.2913
X2.6929Y-3.7677
X2.6929Y-4.4606
X2.6969Y-4.0354
X2.7008Y-3.4488
X2.7165Y-3.4055
X2.7165Y-5.0197
X2.7165Y-5.2165
X2.7165Y-5.748
X2.7165Y-5.8465
X2.7205Y-4.9488
X2.7323Y-3.8583
X2.7559Y-3.0591
X2.7559Y-3.2087
X2.7598Y-4.5787
X2.7638Y-4.4567
X2.7638Y-4.5118
X2.7638Y-4.9409
X2.7677Y-3.4291
X2.7756Y-3.3071
X2.7756Y-3.6378
X2.7795Y-3.7835
X2.7953Y-4.5984
X2.7992Y-4.9642
X2.8268Y-4.4488
X2.8346Y-4.0157
X2.8583Y-4.5118
X2.8583Y-4.9882
X2.8701Y-3.8819
X2.8898Y-4.4488
X2.8921Y-5.1787
X2.8937Y-5.315
X2.8937Y-5.5315
X2.8937Y-5.7874
X2.8976Y-4.2815
X2.8976Y-4.5315
X2.8976Y-4.8661
X2.9291Y-4.4567
X2.9331Y-3.3071
X2.937Y-4.1264
X2.937Y-4.2598
X2.9409Y-4.5079
X2.9409Y-4.8425
X2.9488Y-5.0433
X2.9528Y-3.6654
X2.9528Y-4.3583
X2.9528Y-5.2362
X2.9528Y-5.3382
X2.9528Y-5.5083
X2.9528Y-5.7283
X2.9685Y-3.811
X2.9724Y-3.7717
X2.9724Y-3.878
X2.9803Y-3.3701
X2.9803Y-5.1732
X2.9843Y-4.815
X3.0087Y-5.2787
X3.0118Y-3.7717
X3.0118Y-5.3614
X3.0118Y-5.485
X3.0118Y-5.689
X3.0236Y-4.7874
X3.0512Y-3.8386
X3.0551Y-4.2717
X3.0551Y-4.7598
X3.0669Y-5.2874
X3.0709Y-5.815
X3.0808Y-5.6906
X3.0827Y-5.1378
X3.0906Y-4.0157
X3.0906Y-4.8031
X3.1024Y-3.4134
X3.1102Y-5.0197
X3.1102Y-5.2165
X3.1102Y-5.748
X3.1102Y-5.8465
X3.1413Y-4.1264
X3.1417Y-4.5984
X3.1614Y-4.8307
X3.1693Y-3.0591
X3.1693Y-3.8661
X3.1693Y-3.9567
X3.1709Y-3.2102
X3.189Y-3.3268
X3.189Y-4.6102
X3.1929Y-4.8583
X3.2008Y-4.1772
X3.2047Y-3.8937
X3.2047Y-3.9921
X3.2047Y-4.3031
X3.2087Y-3.4252
X3.2205Y-4.0984
X3.2323Y-3.2441
X3.2323Y-3.9291
X3.2634Y-3.2874
X3.2634Y-3.3701
X3.2634Y-3.8386
X3.2677Y-3.9291
X3.2717Y-4.1496
X3.2835Y-4.0354
X3.2835Y-4.3504
X3.2858Y-5.1787
X3.2874Y-5.315
X3.2874Y-5.5315
X3.2874Y-5.7874
X3.292Y-3.8507
X3.311Y-4.3228
X3.3228Y-4.0945
X3.3235Y-4.2841
X3.3268Y-4.0591
X3.3268Y-4.5512
X3.3307Y-3.811
X3.3307Y-4.5
X3.3346Y-3.8465
X3.3465Y-3.2874
X3.3465Y-3.4252
X3.3465Y-5.2362
X3.3465Y-5.3382
X3.3465Y-5.5083
X3.3465Y-5.7283
X3.3622Y-3.7756
X3.374Y-4.1378
X3.374Y-4.8661
X3.374Y-5.1772
X3.378Y-4.252
X3.3858Y-3.0866
X3.3858Y-3.9685
X3.3898Y-4.3386
X3.3976Y-4.6142
X3.4016Y-4.189
X3.4055Y-5.2756
X3.4055Y-5.3614
X3.4055Y-5.485
X3.4055Y-5.689
X3.4134Y-3.815
X3.4239Y-4.1394
X3.4488Y-4.4685
X3.4567Y-3.8346
X3.4606Y-4.0
X3.4646Y-2.5039
X3.4724Y-4.6772
X3.4764Y-3.7992
X3.4764Y-4.7913
X3.4768Y-5.3382
X3.4882Y-5.0197
X3.5039Y-5.2165
X3.5039Y-5.748
X3.5039Y-5.8465
X3.5079Y-3.6063
X3.5157Y-3.7047
X3.5157Y-4.7008
X3.5394Y-2.5906
X3.5551Y-4.9882
X3.5591Y-4.7323
X3.5669Y-3.5709
X3.5669Y-4.3031
X3.5669Y-4.4764
X3.5787Y-3.6378
X3.5787Y-3.9291
X3.5787Y-4.0
X3.5787Y-4.1772
X3.5906Y-4.1024
X3.5945Y-4.2323
X3.6138Y-4.9642
X3.6181Y-3.9606
X3.6181Y-4.1614
X3.622Y-3.4252
X3.6378Y-5.878
X3.6693Y-4.0984
X3.6693Y-4.5276
X3.6693Y-4.9961
X3.6732Y-4.7323
X3.6732Y-4.9406
X3.6811Y-3.4134
X3.685Y-5.8701
X3.689Y-3.8031
X3.6969Y-4.7874
X3.7008Y-4.7008
X3.7008Y-5.0197
X3.7008Y-5.315
X3.7008Y-5.5315
X3.7008Y-5.7874
X3.7024Y-5.1787
X3.7047Y-4.185
X3.7087Y-2.2756
X3.7087Y-4.311
X3.7165Y-4.4803
X3.7165Y-4.6693
X3.7165Y-4.7559
X3.7205Y-4.9646
X3.7283Y-5.6575
X3.7402Y-3.8976
X3.7441Y-2.5472
X3.7441Y-3.8622
X3.7441Y-4.1299
X3.748Y-5.1772
X3.7563Y-5.8232
X3.7598Y-5.2287
X3.7598Y-5.3382
X3.7598Y-5.5083
X3.7598Y-5.7283
X3.7756Y-2.5906
X3.7756Y-4.9961
X3.7795Y-3.4094
X3.7874Y-3.622
X3.7874Y-4.5433
X3.7913Y-5.1811
X3.7953Y-4.8622
X3.7992Y-3.8307
X3.8031Y-4.0079
X3.811Y-3.5748
X3.811Y-4.1142
X3.811Y-4.5039
X3.8169Y-5.8071
X3.8189Y-4.7795
X3.8189Y-5.2756
X3.8189Y-5.3614
X3.8189Y-5.485
X3.8189Y-5.689
X3.8386Y-3.8583
X3.8425Y-4.6496
X3.8465Y-4.0512
X3.8465Y-4.4685
X3.8504Y-4.248
X3.8504Y-4.5315
X3.8504Y-4.8858
X3.8504Y-5.5591
X3.8543Y-3.5669
X3.8543Y-4.1496
X3.8543Y-4.9449
X3.8543Y-5.2913
X3.8543Y-5.7598
X3.8543Y-5.8465
X3.878Y-3.6457
X3.8858Y-3.4134
X3.8858Y-3.9528
X3.8858Y-4.8898
X3.8858Y-5.3846
X3.8898Y-3.8307
X3.9173Y-3.6693
X3.9173Y-3.9055
X3.9213Y-4.7913
X3.9242Y-5.4094
X3.9252Y-4.1654
X3.9252Y-4.5394
X3.9291Y-4.0236
X3.9291Y-4.1102
X3.9449Y-2.7677
X3.9449Y-3.3701
X3.9488Y-4.8898
X3.9567Y-3.8031
X3.9685Y-3.4134
X3.9685Y-4.1969
X3.9685Y-5.5315
X3.9724Y-4.4409
X3.9764Y-3.5626
X3.9898Y-3.7054
X3.9921Y-3.9528
X4.0Y-4.0354
X4.0039Y-4.2953
X4.0051Y-4.6493
X4.0079Y-4.5394
X4.0118Y-3.6299
X4.0118Y-4.7835
X4.0131Y-3.546
X4.0157Y-4.8346
X4.0157Y-5.7913
X4.0197Y-5.4567
X4.0236Y-4.9882
X4.0305Y-3.8878
X4.0429Y-5.5083
X4.0433Y-4.1102
X4.0433Y-5.7402
X4.0551Y-3.4449
X4.0591Y-4.8858
X4.065Y-3.6988
X4.0669Y-5.8701
X4.0709Y-4.9173
X4.0748Y-4.0197
X4.0906Y-4.2165
X4.0945Y-4.9921
X4.0945Y-5.2874
X4.0984Y-5.4094
X4.1063Y-4.0945
X4.1083Y-5.0512
X4.1134Y-5.485
X4.1142Y-4.1693
X4.1142Y-5.689
X4.1161Y-5.878
X4.1181Y-4.4724
X4.1299Y-4.9882
X4.1339Y-3.5236
X4.1457Y-5.1496
X4.1496Y-2.8307
X4.1496Y-5.622
X4.1535Y-5.3858
X4.1575Y-3.9252
X4.1614Y-4.0315
X4.1732Y-3.3858
X4.1732Y-5.0197
X4.1732Y-5.2165
X4.1732Y-5.2874
X4.1929Y-5.748
X4.1929Y-5.8465
X4.2283Y-4.252
X4.2283Y-4.3701
X4.2323Y-2.878
X4.2323Y-3.0709
X4.2323Y-4.5236
X4.2362Y-2.811
X4.2441Y-3.8622
X4.252Y-3.4646
X4.2638Y-4.2165
X4.2717Y-3.9252
X4.2874Y-3.8346
X4.2913Y-3.0315
X4.2913Y-3.1299
X4.2992Y-4.2992
X4.2992Y-4.4803
X4.3071Y-4.1024
X4.315Y-4.8189
X4.3268Y-4.5709
X4.3504Y-4.7402
X4.3701Y-2.2835
X4.3701Y-2.9921
X4.3701Y-5.1772
X4.3701Y-5.315
X4.3701Y-5.4094
X4.3701Y-5.5315
X4.3701Y-5.7874
X4.3858Y-4.5945
X4.3898Y-3.1102
X4.3937Y-5.122
X4.4213Y-5.3898
X4.4252Y-3.8071
X4.4291Y-4.0512
X4.4291Y-5.2362
X4.4291Y-5.3382
X4.4291Y-5.5083
X4.4291Y-5.7283
X4.4409Y-2.8898
X4.4528Y-3.6181
X4.4567Y-4.9921
X4.4606Y-3.4724
X4.4606Y-5.6063
X4.4843Y-4.3232
X4.4882Y-5.2756
X4.4882Y-5.3614
X4.4882Y-5.485
X4.4882Y-5.689
X4.5039Y-5.4016
X4.5118Y-2.3661
X4.5354Y-4.563
X4.5433Y-4.9331
X4.5433Y-5.1457
X4.5472Y-3.0118
X4.5472Y-3.248
X4.5512Y-5.2756
X4.5551Y-4.2913
X4.5551Y-4.6181
X4.5591Y-3.3661
X4.5591Y-3.8898
X4.5591Y-4.0748
X4.563Y-3.9409
X4.5669Y-2.7283
X4.5787Y-2.3701
X4.5866Y-5.0197
X4.5866Y-5.2165
X4.5866Y-5.748
X4.5866Y-5.8465
X4.5906Y-3.8268
X4.5906Y-4.935
X4.5984Y-2.4606
X4.6102Y-2.8898
X4.6181Y-3.8858
X4.622Y-3.4921
X4.6378Y-3.4252
X4.6457Y-4.2598
X4.6496Y-2.5827
X4.6535Y-3.9173
X4.6654Y-3.7402
X4.689Y-2.2953
X4.7047Y-2.4213
X4.7087Y-2.5591
X4.7165Y-4.3189
X4.7638Y-3.248
X4.7638Y-5.1772
X4.7638Y-5.315
X4.7638Y-5.5315
X4.7638Y-5.7874
X4.7874Y-3.6142
X4.7874Y-5.126
X4.8031Y-2.4016
X4.8031Y-3.1693
X4.8091Y-3.8169
X4.8189Y-3.5591
X4.8189Y-3.752
X4.8228Y-4.2717
X4.8228Y-5.2362
X4.8228Y-5.3382
X4.8228Y-5.4016
X4.8228Y-5.5083
X4.8228Y-5.7283
X4.8465Y-3.252
X4.8504Y-3.6299
X4.8504Y-5.6378
X4.8517Y-3.1404
X4.8819Y-5.2756
X4.8819Y-5.3614
X4.8819Y-5.4016
X4.8819Y-5.485
X4.8819Y-5.689
X4.8937Y-4.9331
X4.9016Y-3.2677
X4.9016Y-3.3465
X4.9081Y-3.6298
X4.9094Y-3.1417
X4.9134Y-2.3465
X4.9213Y-4.1142
X4.9252Y-2.7205
X4.9331Y-3.8622
X4.9331Y-4.2126
X4.9331Y-4.4409
X4.937Y-3.5945
X4.9409Y-5.1496
X4.9449Y-2.5787
X4.9449Y-5.2756
X4.9528Y-4.0669
X4.9528Y-4.2835
X4.9606Y-4.1339
X4.9724Y-4.4134
X4.9764Y-3.1417
X4.9803Y-5.0197
X4.9803Y-5.2165
X4.9803Y-5.748
X4.9803Y-5.8465
X4.9843Y-3.748
X4.9961Y-2.7205
X5.0Y-3.6024
X5.0Y-3.9173
X5.0Y-4.1732
X5.002Y-2.3268
X5.0039Y-4.7874
X5.0118Y-3.378
X5.0118Y-3.4685
X5.0177Y-4.8701
X5.0197Y-2.2717
X5.0315Y-2.5709
X5.0315Y-4.2126
X5.0354Y-4.4331
X5.0394Y-2.4252
X5.0394Y-3.9961
X5.0472Y-4.5472
X5.063Y-3.5945
X5.0709Y-4.9291
X5.0787Y-2.5787
X5.0787Y-4.1732
X5.0866Y-3.748
X5.0866Y-4.4252
X5.0906Y-3.626
X5.0984Y-3.2677
X5.0984Y-3.3465
X5.1102Y-4.5394
X5.122Y-4.1732
X5.122Y-4.252
X5.1417Y-3.2402
X5.1417Y-3.9291
X5.1417Y-4.8937
X5.1457Y-2.5433
X5.1496Y-3.6398
X5.1575Y-4.7913
X5.1575Y-5.1772
X5.1575Y-5.315
X5.1575Y-5.5315
X5.1575Y-5.7874
X5.1693Y-5.122
X5.1772Y-2.2047
X5.1772Y-2.9724
X5.1811Y-4.0039
X5.1929Y-4.9409
X5.1969Y-2.8543
X5.1969Y-3.7008
X5.2165Y-5.2362
X5.2165Y-5.3382
X5.2165Y-5.5083
X5.2165Y-5.7283
X5.2205Y-5.4055
X5.248Y-5.6417
X5.2559Y-2.2244
X5.2559Y-2.3583
X5.2598Y-3.3858
X5.2598Y-4.5433
X5.2717Y-4.1654
X5.2756Y-5.2756
X5.2756Y-5.3614
X5.2756Y-5.4055
X5.2756Y-5.485
X5.2756Y-5.689
X5.2795Y-3.4626
X5.2835Y-2.2992
X5.2835Y-4.3465
X5.2953Y-4.7283
X5.2972Y-4.7894
X5.3071Y-2.8465
X5.3307Y-5.1496
X5.3346Y-2.7008
X5.3346Y-3.8583
X5.3346Y-4.1339
X5.3425Y-5.2835
X5.3504Y-2.4213
X5.3543Y-4.8622
X5.374Y-4.4331
X5.374Y-5.0197
X5.374Y-5.2165
X5.374Y-5.748
X5.374Y-5.8465
X5.3858Y-2.185
X5.4134Y-4.2126
X5.4134Y-4.3504
X5.4409Y-4.8661
X5.4528Y-4.0157
X5.4764Y-2.4646
X5.4921Y-2.7008
X5.5118Y-4.7421
X5.5157Y-4.4331
X5.5276Y-3.7323
X5.5276Y-3.9291
X5.5315Y-3.5236
X5.5394Y-4.1142
X5.5453Y-2.3799
X5.563Y-5.1772
X5.563Y-5.315
X5.563Y-5.5315
X5.563Y-5.7874
X5.5669Y-4.2992
X5.5709Y-4.0157
X5.5709Y-4.2126
X5.5709Y-4.3504
X5.6063Y-4.5512
X5.626Y-5.2362
X5.626Y-5.3346
X5.626Y-5.5118
X5.6299Y-5.7283
X5.6417Y-4.0709
X5.6457Y-2.5098
X5.6614Y-2.8898
X5.6693Y-3.5236
X5.6732Y-4.437
X5.689Y-5.2756
X5.689Y-5.3583
X5.689Y-5.4921
X5.689Y-5.6339
X5.7087Y-2.9843
X5.7165Y-4.4409
X5.7402Y-3.5669
X5.7913Y-2.9016
X5.811Y-2.5787
T2
X2.0472Y-2.2835
X2.0472Y-3.0118
X2.0866Y-4.6063
X2.0866Y-5.0197
X2.0866Y-5.1575
X2.0866Y-5.4724
X2.2579Y-5.8622
X2.2835Y-5.2953
X2.4016Y-2.0276
X2.4409Y-3.0118
X2.5512Y-5.189
X2.6161Y-5.7815
X2.6772Y-2.4803
X2.7087Y-2.6378
X2.7087Y-2.7362
X2.815Y-2.0276
X2.8937Y-3.0118
X2.937Y-5.1496
X2.9902Y-5.7854
X3.248Y-2.9724
X3.3386Y-5.1299
X3.3465Y-2.0276
X3.4055Y-2.5591
X3.4075Y-5.7657
X3.4843Y-2.5787
X3.4882Y-2.7756
X3.5217Y-3.3307
X3.5236Y-3.0315
X3.6575Y-2.7205
X3.7185Y-2.6181
X3.7382Y-2.3602
X3.8386Y-2.126
X3.8425Y-2.7559
X3.8465Y-2.9094
X3.9764Y-2.5787
X3.9764Y-3.0315
X3.9921Y-2.6535
X4.0157Y-2.1654
X4.1201Y-5.7756
X4.1732Y-2.3622
X4.252Y-2.185
X4.2717Y-2.3622
X4.2717Y-2.5591
X4.2835Y-2.6535
X4.3898Y-2.3622
X4.4252Y-2.9685
X4.4843Y-5.7854
X4.4882Y-2.5472
X4.626Y-2.0236
X4.6772Y-3.0197
X4.6929Y-2.0709
X4.7835Y-2.0079
X4.8031Y-2.7559
X4.8031Y-2.8937
X4.8425Y-2.9606
X4.8799Y-5.7815
X5.0827Y-2.7874
X5.2402Y-3.1417
X5.2756Y-3.0315
X5.2835Y-5.7815
X5.374Y-3.3661
X5.435Y-5.8622
X5.4921Y-2.5787
X5.5118Y-4.9016
X5.5512Y-2.2933
X5.5591Y-3.252
X5.5709Y-2.7362
X5.5709Y-3.0315
X5.6102Y-2.0079
X5.6299Y-5.1378
X5.6299Y-5.8661
X5.6457Y-3.378
X5.8465Y-2.2638
X5.8465Y-2.3819
X5.8465Y-2.9409
X5.8465Y-3.5433
X5.8465Y-3.9173
X5.8465Y-4.1732
X5.8465Y-4.5276
X5.8465Y-5.2559
X5.8465Y-5.5709
T3
X5.3937Y-4.635
X5.3937Y-4.685
X5.4437Y-4.635
X5.4437Y-4.685
X5.4937Y-4.635
X5.4937Y-4.685
X5.5437Y-4.635
X5.5437Y-4.685
X5.5937Y-4.635
X5.5937Y-4.685
X5.6437Y-4.635
X5.6437Y-4.685
X5.6937Y-4.635
X5.6937Y-4.685
X5.7437Y-4.635
X5.7437Y-4.685
X5.0394Y-5.0787
X5.0394Y-5.1287
X5.0394Y-5.1787
X5.0394Y-5.2287
X5.0394Y-5.2787
X5.0894Y-5.0787
X5.0894Y-5.1287
X5.0894Y-5.1787
X5.0894Y-5.2287
X5.0894Y-5.2787
X5.5906Y-3.7295
X5.5906Y-3.7795
X5.6406Y-3.7295
X5.6406Y-3.7795
X5.6906Y-3.7295
X5.6906Y-3.7795
X5.7406Y-3.7295
X5.7406Y-3.7795
X5.7906Y-3.7295
X5.7906Y-3.7795
X3.5669Y-5.0787
X3.5669Y-5.1287
X3.5669Y-5.1787
X3.5669Y-5.2287
X3.5669Y-5.2787
X3.6169Y-5.0787
X3.6169Y-5.1287
X3.6169Y-5.1787
X3.6169Y-5.2287
X3.6169Y-5.2787
X4.6457Y-5.0787
X4.6457Y-5.1287
X4.6457Y-5.1787
X4.6457Y-5.2287
X4.6457Y-5.2787
X4.6957Y-5.0787
X4.6957Y-5.1287
X4.6957Y-5.1787
X4.6957Y-5.2287
X4.6957Y-5.2787
X5.0437Y-2.0866
X5.0437Y-2.1366
X5.0937Y-2.0866
X5.0937Y-2.1366
X5.1437Y-2.0866
X5.1437Y-2.1366
X5.1937Y-2.0866
X5.1937Y-2.1366
X5.2437Y-2.0866
X5.2437Y-2.1366
X5.2937Y-2.0866
X5.2937Y-2.1366
X5.3437Y-2.0866
X5.3437Y-2.1366
X5.3937Y-2.0866
X5.3937Y-2.1366
X3.9173Y-5.5906
X3.9173Y-5.6406
X3.9173Y-5.6906
X3.9173Y-5.7406
X3.9173Y-5.7906
X3.9673Y-5.5906
X3.9673Y-5.6406
X3.9673Y-5.6906
X3.9673Y-5.7406
X3.9673Y-5.7906
X4.252Y-5.0787
X4.252Y-5.1287
X4.252Y-5.1787
X4.252Y-5.2287
X4.252Y-5.2787
X4.302Y-5.0787
X4.302Y-5.1287
X4.302Y-5.1787
X4.302Y-5.2287
X4.302Y-5.2787
X5.4331Y-5.5906
X5.4331Y-5.6406
X5.4331Y-5.6906
X5.4331Y-5.7406
X5.4331Y-5.7906
X5.4831Y-5.5906
X5.4831Y-5.6406
X5.4831Y-5.6906
X5.4831Y-5.7406
X5.4831Y-5.7906
X3.1732Y-5.5906
X3.1732Y-5.6406
X3.1732Y-5.6906
X3.1732Y-5.7406
X3.1732Y-5.7906
X3.2232Y-5.5906
X3.2232Y-5.6406
X3.2232Y-5.6906
X3.2232Y-5.7406
X3.2232Y-5.7906
X2.7795Y-5.0787
X2.7795Y-5.1287
X2.7795Y-5.1787
X2.7795Y-5.2287
X2.7795Y-5.2787
X2.8295Y-5.0787
X2.8295Y-5.1287
X2.8295Y-5.1787
X2.8295Y-5.2287
X2.8295Y-5.2787
X5.4331Y-5.0787
X5.4331Y-5.1287
X5.4331Y-5.1787
X5.4331Y-5.2287
X5.4331Y-5.2787
X5.4831Y-5.0787
X5.4831Y-5.1287
X5.4831Y-5.1787
X5.4831Y-5.2287
X5.4831Y-5.2787
X4.6457Y-5.5906
X4.6457Y-5.6406
X4.6457Y-5.6906
X4.6457Y-5.7406
X4.6457Y-5.7906
X4.6957Y-5.5906
X4.6957Y-5.6406
X4.6957Y-5.6906
X4.6957Y-5.7406
X4.6957Y-5.7906
X3.1732Y-5.0787
X3.1732Y-5.1287
X3.1732Y-5.1787
X3.1732Y-5.2287
X3.1732Y-5.2787
X3.2232Y-5.0787
X3.2232Y-5.1287
X3.2232Y-5.1787
X3.2232Y-5.2287
X3.2232Y-5.2787
X3.5669Y-5.5906
X3.5669Y-5.6406
X3.5669Y-5.6906
X3.5669Y-5.7406
X3.5669Y-5.7906
X3.6169Y-5.5906
X3.6169Y-5.6406
X3.6169Y-5.6906
X3.6169Y-5.7406
X3.6169Y-5.7906
X2.2441Y-3.1102
X2.2441Y-3.1602
X2.2441Y-3.2102
X2.2441Y-3.2602
X2.2441Y-3.3102
X2.2941Y-3.1102
X2.2941Y-3.1602
X2.2941Y-3.2102
X2.2941Y-3.2602
X2.2941Y-3.3102
X3.0315Y-3.1102
X3.0315Y-3.1602
X3.0315Y-3.2102
X3.0315Y-3.2602
X3.0315Y-3.3102
X3.0815Y-3.1102
X3.0815Y-3.1602
X3.0815Y-3.2102
X3.0815Y-3.2602
X3.0815Y-3.3102
X2.7795Y-5.5906
X2.7795Y-5.6406
X2.7795Y-5.6906
X2.7795Y-5.7406
X2.7795Y-5.7906
X2.8295Y-5.5906
X2.8295Y-5.6406
X2.8295Y-5.6906
X2.8295Y-5.7406
X2.8295Y-5.7906
X5.0394Y-5.5906
X5.0394Y-5.6406
X5.0394Y-5.6906
X5.0394Y-5.7406
X5.0394Y-5.7906
X5.0894Y-5.5906
X5.0894Y-5.6406
X5.0894Y-5.6906
X5.0894Y-5.7406
X5.0894Y-5.7906
X4.252Y-5.5906
X4.252Y-5.6406
X4.252Y-5.6906
X4.252Y-5.7406
X4.252Y-5.7906
X4.302Y-5.5906
X4.302Y-5.6406
X4.302Y-5.6906
X4.302Y-5.7406
X4.302Y-5.7906
X2.3858Y-5.0787
X2.3858Y-5.1287
X2.3858Y-5.1787
X2.3858Y-5.2287
X2.3858Y-5.2787
X2.4358Y-5.0787
X2.4358Y-5.1287
X2.4358Y-5.1787
X2.4358Y-5.2287
X2.4358Y-5.2787
X2.3858Y-5.5906
X2.3858Y-5.6406
X2.3858Y-5.6906
X2.3858Y-5.7406
X2.3858Y-5.7906
X2.4358Y-5.5906
X2.4358Y-5.6406
X2.4358Y-5.6906
X2.4358Y-5.7406
X2.4358Y-5.7906
X2.6378Y-3.1102
X2.6378Y-3.1602
X2.6378Y-3.2102
X2.6378Y-3.2602
X2.6378Y-3.3102
X2.6878Y-3.1102
X2.6878Y-3.1602
X2.6878Y-3.2102
X2.6878Y-3.2602
X2.6878Y-3.3102
T4
X4.3976Y-3.3173
X4.3976Y-3.4173
T5
X2.0079Y-2.6378
X2.0276Y-2.4606
X2.0276Y-2.815
X2.185Y-2.4606
X2.185Y-2.815
X2.3425Y-2.4606
X2.3425Y-2.6378
X2.3425Y-2.815
X2.4803Y-2.6378
X2.815Y-2.8189
X3.1535Y-2.6575
X3.3465Y-2.4252
X3.4567Y-2.2874
T6
X4.7268Y-3.9354
X4.7268Y-4.0354
X4.8268Y-3.9354
X4.8268Y-4.0354
X4.815Y-4.5945
X4.4685Y-4.7638
X4.5685Y-4.7638
X4.6685Y-4.7638
X4.7685Y-4.7638
X4.8685Y-4.7638
X2.4496Y-2.1654
X2.4496Y-2.2654
X2.5496Y-2.1654
X2.5496Y-2.2654
X2.6496Y-2.1654
X2.6496Y-2.2654
X2.7496Y-2.1654
X2.7496Y-2.2654
X2.8496Y-2.1654
X2.8496Y-2.2654
X2.9496Y-2.1654
X2.9496Y-2.2654
X3.0496Y-2.1654
X3.0496Y-2.2654
X3.1496Y-2.1654
X3.1496Y-2.2654
X5.1535Y-3.8268
X3.1417Y-4.5
T7
X5.7874Y-2.0866
X5.7874Y-5.7874
X2.0866Y-5.7874
X2.0866Y-2.0866
T0
M30
