G04 #@! TF.GenerationSoftware,KiCad,Pcbnew,(5.1.4)-1*
G04 #@! TF.CreationDate,2020-06-25T03:09:23+09:00*
G04 #@! TF.ProjectId,voice-dg,766f6963-652d-4646-972e-6b696361645f,rev?*
G04 #@! TF.SameCoordinates,Original*
G04 #@! TF.FileFunction,Legend,Bot*
G04 #@! TF.FilePolarity,Positive*
%FSLAX46Y46*%
G04 Gerber Fmt 4.6, Leading zero omitted, Abs format (unit mm)*
G04 Created by KiCad (PCBNEW (5.1.4)-1) date 2020-06-25 03:09:23*
%MOMM*%
%LPD*%
G04 APERTURE LIST*
%ADD10C,0.120000*%
%ADD11C,0.150000*%
%ADD12C,0.200000*%
%ADD13C,0.152400*%
%ADD14C,0.406400*%
%ADD15C,0.135128*%
%ADD16C,0.142240*%
G04 APERTURE END LIST*
D10*
X67800000Y-88300000D02*
X67300000Y-88300000D01*
X67800000Y-88600000D02*
X67800000Y-88300000D01*
X68000000Y-79100000D02*
X68000000Y-79300000D01*
X67400000Y-79100000D02*
X68000000Y-79100000D01*
D11*
X80047619Y-165752380D02*
X80047619Y-164752380D01*
X79809523Y-164752380D01*
X79666666Y-164800000D01*
X79571428Y-164895238D01*
X79523809Y-164990476D01*
X79476190Y-165180952D01*
X79476190Y-165323809D01*
X79523809Y-165514285D01*
X79571428Y-165609523D01*
X79666666Y-165704761D01*
X79809523Y-165752380D01*
X80047619Y-165752380D01*
X79047619Y-165752380D02*
X79047619Y-165085714D01*
X79047619Y-164752380D02*
X79095238Y-164800000D01*
X79047619Y-164847619D01*
X79000000Y-164800000D01*
X79047619Y-164752380D01*
X79047619Y-164847619D01*
X78142857Y-165085714D02*
X78142857Y-165895238D01*
X78190476Y-165990476D01*
X78238095Y-166038095D01*
X78333333Y-166085714D01*
X78476190Y-166085714D01*
X78571428Y-166038095D01*
X78142857Y-165704761D02*
X78238095Y-165752380D01*
X78428571Y-165752380D01*
X78523809Y-165704761D01*
X78571428Y-165657142D01*
X78619047Y-165561904D01*
X78619047Y-165276190D01*
X78571428Y-165180952D01*
X78523809Y-165133333D01*
X78428571Y-165085714D01*
X78238095Y-165085714D01*
X78142857Y-165133333D01*
X77666666Y-165752380D02*
X77666666Y-165085714D01*
X77666666Y-164752380D02*
X77714285Y-164800000D01*
X77666666Y-164847619D01*
X77619047Y-164800000D01*
X77666666Y-164752380D01*
X77666666Y-164847619D01*
X77333333Y-165085714D02*
X76952380Y-165085714D01*
X77190476Y-164752380D02*
X77190476Y-165609523D01*
X77142857Y-165704761D01*
X77047619Y-165752380D01*
X76952380Y-165752380D01*
X76190476Y-165752380D02*
X76190476Y-165228571D01*
X76238095Y-165133333D01*
X76333333Y-165085714D01*
X76523809Y-165085714D01*
X76619047Y-165133333D01*
X76190476Y-165704761D02*
X76285714Y-165752380D01*
X76523809Y-165752380D01*
X76619047Y-165704761D01*
X76666666Y-165609523D01*
X76666666Y-165514285D01*
X76619047Y-165419047D01*
X76523809Y-165371428D01*
X76285714Y-165371428D01*
X76190476Y-165323809D01*
X75571428Y-165752380D02*
X75666666Y-165704761D01*
X75714285Y-165609523D01*
X75714285Y-164752380D01*
X74857142Y-165228571D02*
X74714285Y-165276190D01*
X74666666Y-165323809D01*
X74619047Y-165419047D01*
X74619047Y-165561904D01*
X74666666Y-165657142D01*
X74714285Y-165704761D01*
X74809523Y-165752380D01*
X75190476Y-165752380D01*
X75190476Y-164752380D01*
X74857142Y-164752380D01*
X74761904Y-164800000D01*
X74714285Y-164847619D01*
X74666666Y-164942857D01*
X74666666Y-165038095D01*
X74714285Y-165133333D01*
X74761904Y-165180952D01*
X74857142Y-165228571D01*
X75190476Y-165228571D01*
X73761904Y-165085714D02*
X73761904Y-165752380D01*
X74190476Y-165085714D02*
X74190476Y-165609523D01*
X74142857Y-165704761D01*
X74047619Y-165752380D01*
X73904761Y-165752380D01*
X73809523Y-165704761D01*
X73761904Y-165657142D01*
X73333333Y-165704761D02*
X73238095Y-165752380D01*
X73047619Y-165752380D01*
X72952380Y-165704761D01*
X72904761Y-165609523D01*
X72904761Y-165561904D01*
X72952380Y-165466666D01*
X73047619Y-165419047D01*
X73190476Y-165419047D01*
X73285714Y-165371428D01*
X73333333Y-165276190D01*
X73333333Y-165228571D01*
X73285714Y-165133333D01*
X73190476Y-165085714D01*
X73047619Y-165085714D01*
X72952380Y-165133333D01*
D12*
X68900000Y-158800000D02*
X68900000Y-162700000D01*
D11*
X84342857Y-68066666D02*
X83866666Y-68066666D01*
X84438095Y-68352380D02*
X84104761Y-67352380D01*
X83771428Y-68352380D01*
X83438095Y-67685714D02*
X83438095Y-68352380D01*
X83438095Y-67780952D02*
X83390476Y-67733333D01*
X83295238Y-67685714D01*
X83152380Y-67685714D01*
X83057142Y-67733333D01*
X83009523Y-67828571D01*
X83009523Y-68352380D01*
X82104761Y-68352380D02*
X82104761Y-67828571D01*
X82152380Y-67733333D01*
X82247619Y-67685714D01*
X82438095Y-67685714D01*
X82533333Y-67733333D01*
X82104761Y-68304761D02*
X82200000Y-68352380D01*
X82438095Y-68352380D01*
X82533333Y-68304761D01*
X82580952Y-68209523D01*
X82580952Y-68114285D01*
X82533333Y-68019047D01*
X82438095Y-67971428D01*
X82200000Y-67971428D01*
X82104761Y-67923809D01*
X81485714Y-68352380D02*
X81580952Y-68304761D01*
X81628571Y-68209523D01*
X81628571Y-67352380D01*
X80961904Y-68352380D02*
X81057142Y-68304761D01*
X81104761Y-68257142D01*
X81152380Y-68161904D01*
X81152380Y-67876190D01*
X81104761Y-67780952D01*
X81057142Y-67733333D01*
X80961904Y-67685714D01*
X80819047Y-67685714D01*
X80723809Y-67733333D01*
X80676190Y-67780952D01*
X80628571Y-67876190D01*
X80628571Y-68161904D01*
X80676190Y-68257142D01*
X80723809Y-68304761D01*
X80819047Y-68352380D01*
X80961904Y-68352380D01*
X79771428Y-67685714D02*
X79771428Y-68495238D01*
X79819047Y-68590476D01*
X79866666Y-68638095D01*
X79961904Y-68685714D01*
X80104761Y-68685714D01*
X80200000Y-68638095D01*
X79771428Y-68304761D02*
X79866666Y-68352380D01*
X80057142Y-68352380D01*
X80152380Y-68304761D01*
X80200000Y-68257142D01*
X80247619Y-68161904D01*
X80247619Y-67876190D01*
X80200000Y-67780952D01*
X80152380Y-67733333D01*
X80057142Y-67685714D01*
X79866666Y-67685714D01*
X79771428Y-67733333D01*
X78961904Y-67828571D02*
X78819047Y-67876190D01*
X78771428Y-67923809D01*
X78723809Y-68019047D01*
X78723809Y-68161904D01*
X78771428Y-68257142D01*
X78819047Y-68304761D01*
X78914285Y-68352380D01*
X79295238Y-68352380D01*
X79295238Y-67352380D01*
X78961904Y-67352380D01*
X78866666Y-67400000D01*
X78819047Y-67447619D01*
X78771428Y-67542857D01*
X78771428Y-67638095D01*
X78819047Y-67733333D01*
X78866666Y-67780952D01*
X78961904Y-67828571D01*
X79295238Y-67828571D01*
X77866666Y-67685714D02*
X77866666Y-68352380D01*
X78295238Y-67685714D02*
X78295238Y-68209523D01*
X78247619Y-68304761D01*
X78152380Y-68352380D01*
X78009523Y-68352380D01*
X77914285Y-68304761D01*
X77866666Y-68257142D01*
X77438095Y-68304761D02*
X77342857Y-68352380D01*
X77152380Y-68352380D01*
X77057142Y-68304761D01*
X77009523Y-68209523D01*
X77009523Y-68161904D01*
X77057142Y-68066666D01*
X77152380Y-68019047D01*
X77295238Y-68019047D01*
X77390476Y-67971428D01*
X77438095Y-67876190D01*
X77438095Y-67828571D01*
X77390476Y-67733333D01*
X77295238Y-67685714D01*
X77152380Y-67685714D01*
X77057142Y-67733333D01*
X76628571Y-67447619D02*
X76580952Y-67400000D01*
X76485714Y-67352380D01*
X76247619Y-67352380D01*
X76152380Y-67400000D01*
X76104761Y-67447619D01*
X76057142Y-67542857D01*
X76057142Y-67638095D01*
X76104761Y-67780952D01*
X76676190Y-68352380D01*
X76057142Y-68352380D01*
X62142857Y-67866666D02*
X61666666Y-67866666D01*
X62238095Y-68152380D02*
X61904761Y-67152380D01*
X61571428Y-68152380D01*
X61238095Y-67485714D02*
X61238095Y-68152380D01*
X61238095Y-67580952D02*
X61190476Y-67533333D01*
X61095238Y-67485714D01*
X60952380Y-67485714D01*
X60857142Y-67533333D01*
X60809523Y-67628571D01*
X60809523Y-68152380D01*
X59904761Y-68152380D02*
X59904761Y-67628571D01*
X59952380Y-67533333D01*
X60047619Y-67485714D01*
X60238095Y-67485714D01*
X60333333Y-67533333D01*
X59904761Y-68104761D02*
X60000000Y-68152380D01*
X60238095Y-68152380D01*
X60333333Y-68104761D01*
X60380952Y-68009523D01*
X60380952Y-67914285D01*
X60333333Y-67819047D01*
X60238095Y-67771428D01*
X60000000Y-67771428D01*
X59904761Y-67723809D01*
X59285714Y-68152380D02*
X59380952Y-68104761D01*
X59428571Y-68009523D01*
X59428571Y-67152380D01*
X58761904Y-68152380D02*
X58857142Y-68104761D01*
X58904761Y-68057142D01*
X58952380Y-67961904D01*
X58952380Y-67676190D01*
X58904761Y-67580952D01*
X58857142Y-67533333D01*
X58761904Y-67485714D01*
X58619047Y-67485714D01*
X58523809Y-67533333D01*
X58476190Y-67580952D01*
X58428571Y-67676190D01*
X58428571Y-67961904D01*
X58476190Y-68057142D01*
X58523809Y-68104761D01*
X58619047Y-68152380D01*
X58761904Y-68152380D01*
X57571428Y-67485714D02*
X57571428Y-68295238D01*
X57619047Y-68390476D01*
X57666666Y-68438095D01*
X57761904Y-68485714D01*
X57904761Y-68485714D01*
X58000000Y-68438095D01*
X57571428Y-68104761D02*
X57666666Y-68152380D01*
X57857142Y-68152380D01*
X57952380Y-68104761D01*
X58000000Y-68057142D01*
X58047619Y-67961904D01*
X58047619Y-67676190D01*
X58000000Y-67580952D01*
X57952380Y-67533333D01*
X57857142Y-67485714D01*
X57666666Y-67485714D01*
X57571428Y-67533333D01*
X56761904Y-67628571D02*
X56619047Y-67676190D01*
X56571428Y-67723809D01*
X56523809Y-67819047D01*
X56523809Y-67961904D01*
X56571428Y-68057142D01*
X56619047Y-68104761D01*
X56714285Y-68152380D01*
X57095238Y-68152380D01*
X57095238Y-67152380D01*
X56761904Y-67152380D01*
X56666666Y-67200000D01*
X56619047Y-67247619D01*
X56571428Y-67342857D01*
X56571428Y-67438095D01*
X56619047Y-67533333D01*
X56666666Y-67580952D01*
X56761904Y-67628571D01*
X57095238Y-67628571D01*
X55666666Y-67485714D02*
X55666666Y-68152380D01*
X56095238Y-67485714D02*
X56095238Y-68009523D01*
X56047619Y-68104761D01*
X55952380Y-68152380D01*
X55809523Y-68152380D01*
X55714285Y-68104761D01*
X55666666Y-68057142D01*
X55238095Y-68104761D02*
X55142857Y-68152380D01*
X54952380Y-68152380D01*
X54857142Y-68104761D01*
X54809523Y-68009523D01*
X54809523Y-67961904D01*
X54857142Y-67866666D01*
X54952380Y-67819047D01*
X55095238Y-67819047D01*
X55190476Y-67771428D01*
X55238095Y-67676190D01*
X55238095Y-67628571D01*
X55190476Y-67533333D01*
X55095238Y-67485714D01*
X54952380Y-67485714D01*
X54857142Y-67533333D01*
X53857142Y-68152380D02*
X54428571Y-68152380D01*
X54142857Y-68152380D02*
X54142857Y-67152380D01*
X54238095Y-67295238D01*
X54333333Y-67390476D01*
X54428571Y-67438095D01*
D12*
X97300000Y-61400000D02*
X97300000Y-65300000D01*
X73500000Y-61400000D02*
X73500000Y-65300000D01*
D11*
X86250000Y-103950000D02*
X92550000Y-103950000D01*
X91482843Y-103450000D02*
G75*
G03X91482843Y-103450000I-282843J0D01*
G01*
D13*
X84839200Y-104284502D02*
X84585200Y-104284502D01*
X84839200Y-104665502D02*
X84839200Y-104284502D01*
X84585200Y-104665502D02*
X84839200Y-104665502D01*
X84585200Y-104284502D02*
X84585200Y-104665502D01*
X90882264Y-110829000D02*
X86517749Y-110829000D01*
D10*
X53925000Y-146115000D02*
X52005000Y-146115000D01*
X52005000Y-146115000D02*
X52005000Y-160125000D01*
X65525000Y-146115000D02*
X65975000Y-146115000D01*
X65975000Y-146115000D02*
X65975000Y-149725000D01*
X53685000Y-162385000D02*
X55995000Y-162385000D01*
X64945000Y-162385000D02*
X63085000Y-162385000D01*
X64945000Y-162385000D02*
X65145000Y-162185000D01*
X65975000Y-151425000D02*
X65975000Y-156125000D01*
X65975000Y-157425000D02*
X65975000Y-159225000D01*
X62875000Y-162035000D02*
X56505000Y-162035000D01*
X62875000Y-162035000D02*
X62875000Y-162185000D01*
X63085000Y-162385000D02*
X62875000Y-162185000D01*
X53685000Y-162385000D02*
X53485000Y-162185000D01*
X53485000Y-162185000D02*
X53225000Y-162185000D01*
X55995000Y-162385000D02*
X56505000Y-162035000D01*
D14*
X58360000Y-139110000D02*
X58360000Y-141650000D01*
X58360000Y-141650000D02*
X60900000Y-141650000D01*
X60900000Y-141650000D02*
X60900000Y-139110000D01*
X60900000Y-139110000D02*
X58360000Y-139110000D01*
D10*
X69562779Y-84210000D02*
X69237221Y-84210000D01*
X69562779Y-83190000D02*
X69237221Y-83190000D01*
X93462779Y-84210000D02*
X93137221Y-84210000D01*
X93462779Y-83190000D02*
X93137221Y-83190000D01*
X61237221Y-80090000D02*
X61562779Y-80090000D01*
X61237221Y-81110000D02*
X61562779Y-81110000D01*
X84837221Y-81110000D02*
X85162779Y-81110000D01*
X84837221Y-80090000D02*
X85162779Y-80090000D01*
X65862779Y-87490000D02*
X65537221Y-87490000D01*
X65862779Y-88510000D02*
X65537221Y-88510000D01*
X57337221Y-84210000D02*
X57662779Y-84210000D01*
X57337221Y-83190000D02*
X57662779Y-83190000D01*
X89562779Y-88510000D02*
X89237221Y-88510000D01*
X89562779Y-87490000D02*
X89237221Y-87490000D01*
X81037221Y-83190000D02*
X81362779Y-83190000D01*
X81037221Y-84210000D02*
X81362779Y-84210000D01*
X66402064Y-70410000D02*
X65197936Y-70410000D01*
X66402064Y-68590000D02*
X65197936Y-68590000D01*
X69662779Y-73890000D02*
X69337221Y-73890000D01*
X69662779Y-74910000D02*
X69337221Y-74910000D01*
X93462779Y-74910000D02*
X93137221Y-74910000D01*
X93462779Y-73890000D02*
X93137221Y-73890000D01*
X72002064Y-70410000D02*
X70797936Y-70410000D01*
X72002064Y-68590000D02*
X70797936Y-68590000D01*
X61137221Y-71810000D02*
X61462779Y-71810000D01*
X61137221Y-70790000D02*
X61462779Y-70790000D01*
X84937221Y-70790000D02*
X85262779Y-70790000D01*
X84937221Y-71810000D02*
X85262779Y-71810000D01*
X57662779Y-73890000D02*
X57337221Y-73890000D01*
X57662779Y-74910000D02*
X57337221Y-74910000D01*
X81362779Y-74910000D02*
X81037221Y-74910000D01*
X81362779Y-73890000D02*
X81037221Y-73890000D01*
X65862779Y-79210000D02*
X65537221Y-79210000D01*
X65862779Y-78190000D02*
X65537221Y-78190000D01*
X89562779Y-78190000D02*
X89237221Y-78190000D01*
X89562779Y-79210000D02*
X89237221Y-79210000D01*
X92510000Y-100297936D02*
X92510000Y-101502064D01*
X90690000Y-100297936D02*
X90690000Y-101502064D01*
X84010000Y-102902064D02*
X84010000Y-101697936D01*
X82190000Y-102902064D02*
X82190000Y-101697936D01*
X93390000Y-100297936D02*
X93390000Y-101502064D01*
X95210000Y-100297936D02*
X95210000Y-101502064D01*
X79590000Y-104202064D02*
X79590000Y-102997936D01*
X81410000Y-104202064D02*
X81410000Y-102997936D01*
X87110000Y-101912779D02*
X87110000Y-101587221D01*
X86090000Y-101912779D02*
X86090000Y-101587221D01*
X87840000Y-100347936D02*
X87840000Y-101552064D01*
X89660000Y-100347936D02*
X89660000Y-101552064D01*
X95590000Y-105697936D02*
X95590000Y-106902064D01*
X97410000Y-105697936D02*
X97410000Y-106902064D01*
X94810000Y-105662779D02*
X94810000Y-105337221D01*
X93790000Y-105662779D02*
X93790000Y-105337221D01*
X83097936Y-113510000D02*
X84302064Y-113510000D01*
X83097936Y-111690000D02*
X84302064Y-111690000D01*
X83062779Y-109790000D02*
X82737221Y-109790000D01*
X83062779Y-110810000D02*
X82737221Y-110810000D01*
X58515000Y-65130000D02*
X58515000Y-64307530D01*
X58515000Y-62422470D02*
X58515000Y-61600000D01*
X58515000Y-63692470D02*
X58515000Y-63037530D01*
X67340000Y-65130000D02*
X58515000Y-65130000D01*
X68795000Y-61600000D02*
X58515000Y-61600000D01*
X67340000Y-65130000D02*
X67340000Y-64563471D01*
X67340000Y-63436529D02*
X67340000Y-63293471D01*
X67393471Y-63240000D02*
X67536529Y-63240000D01*
X68663471Y-63240000D02*
X68795000Y-63240000D01*
X68795000Y-63240000D02*
X68795000Y-63037530D01*
X68795000Y-62422470D02*
X68795000Y-61600000D01*
X68100000Y-65130000D02*
X68860000Y-65130000D01*
X68860000Y-65130000D02*
X68860000Y-64000000D01*
X92660000Y-65130000D02*
X92660000Y-64000000D01*
X91900000Y-65130000D02*
X92660000Y-65130000D01*
X92595000Y-62422470D02*
X92595000Y-61600000D01*
X92595000Y-63240000D02*
X92595000Y-63037530D01*
X92463471Y-63240000D02*
X92595000Y-63240000D01*
X91193471Y-63240000D02*
X91336529Y-63240000D01*
X91140000Y-63436529D02*
X91140000Y-63293471D01*
X91140000Y-65130000D02*
X91140000Y-64563471D01*
X92595000Y-61600000D02*
X82315000Y-61600000D01*
X91140000Y-65130000D02*
X82315000Y-65130000D01*
X82315000Y-63692470D02*
X82315000Y-63037530D01*
X82315000Y-62422470D02*
X82315000Y-61600000D01*
X82315000Y-65130000D02*
X82315000Y-64307530D01*
X79775000Y-158870000D02*
X79775000Y-159692470D01*
X79775000Y-161577530D02*
X79775000Y-162400000D01*
X79775000Y-160307530D02*
X79775000Y-160962470D01*
X74760000Y-158870000D02*
X79775000Y-158870000D01*
X73305000Y-162400000D02*
X79775000Y-162400000D01*
X74760000Y-158870000D02*
X74760000Y-159436529D01*
X74760000Y-160563471D02*
X74760000Y-160706529D01*
X74706529Y-160760000D02*
X74563471Y-160760000D01*
X73436529Y-160760000D02*
X73305000Y-160760000D01*
X73305000Y-160760000D02*
X73305000Y-160962470D01*
X73305000Y-161577530D02*
X73305000Y-162400000D01*
X74000000Y-158870000D02*
X73240000Y-158870000D01*
X73240000Y-158870000D02*
X73240000Y-160000000D01*
X69562779Y-84990000D02*
X69237221Y-84990000D01*
X69562779Y-86010000D02*
X69237221Y-86010000D01*
X93462779Y-86010000D02*
X93137221Y-86010000D01*
X93462779Y-84990000D02*
X93137221Y-84990000D01*
X69237221Y-86790000D02*
X69562779Y-86790000D01*
X69237221Y-87810000D02*
X69562779Y-87810000D01*
X93137221Y-87810000D02*
X93462779Y-87810000D01*
X93137221Y-86790000D02*
X93462779Y-86790000D01*
X69562779Y-81390000D02*
X69237221Y-81390000D01*
X69562779Y-82410000D02*
X69237221Y-82410000D01*
X93462779Y-81390000D02*
X93137221Y-81390000D01*
X93462779Y-82410000D02*
X93137221Y-82410000D01*
X57337221Y-84990000D02*
X57662779Y-84990000D01*
X57337221Y-86010000D02*
X57662779Y-86010000D01*
X81037221Y-86010000D02*
X81362779Y-86010000D01*
X81037221Y-84990000D02*
X81362779Y-84990000D01*
X57662779Y-86790000D02*
X57337221Y-86790000D01*
X57662779Y-87810000D02*
X57337221Y-87810000D01*
X81362779Y-87810000D02*
X81037221Y-87810000D01*
X81362779Y-86790000D02*
X81037221Y-86790000D01*
X57337221Y-81390000D02*
X57662779Y-81390000D01*
X57337221Y-82410000D02*
X57662779Y-82410000D01*
X81037221Y-81390000D02*
X81362779Y-81390000D01*
X81037221Y-82410000D02*
X81362779Y-82410000D01*
X69662779Y-75690000D02*
X69337221Y-75690000D01*
X69662779Y-76710000D02*
X69337221Y-76710000D01*
X93462779Y-75690000D02*
X93137221Y-75690000D01*
X93462779Y-76710000D02*
X93137221Y-76710000D01*
X69337221Y-77490000D02*
X69662779Y-77490000D01*
X69337221Y-78510000D02*
X69662779Y-78510000D01*
X93137221Y-77490000D02*
X93462779Y-77490000D01*
X93137221Y-78510000D02*
X93462779Y-78510000D01*
X69662779Y-72090000D02*
X69337221Y-72090000D01*
X69662779Y-73110000D02*
X69337221Y-73110000D01*
X93462779Y-73110000D02*
X93137221Y-73110000D01*
X93462779Y-72090000D02*
X93137221Y-72090000D01*
X57662779Y-75690000D02*
X57337221Y-75690000D01*
X57662779Y-76710000D02*
X57337221Y-76710000D01*
X81362779Y-76710000D02*
X81037221Y-76710000D01*
X81362779Y-75690000D02*
X81037221Y-75690000D01*
X63462779Y-123110000D02*
X63137221Y-123110000D01*
X63462779Y-122090000D02*
X63137221Y-122090000D01*
X63137221Y-115410000D02*
X63462779Y-115410000D01*
X63137221Y-114390000D02*
X63462779Y-114390000D01*
X63462779Y-118010000D02*
X63137221Y-118010000D01*
X63462779Y-116990000D02*
X63137221Y-116990000D01*
X63137221Y-120610000D02*
X63462779Y-120610000D01*
X63137221Y-119590000D02*
X63462779Y-119590000D01*
X63462779Y-104290000D02*
X63137221Y-104290000D01*
X63462779Y-105310000D02*
X63137221Y-105310000D01*
X63137221Y-106890000D02*
X63462779Y-106890000D01*
X63137221Y-107910000D02*
X63462779Y-107910000D01*
X57662779Y-78510000D02*
X57337221Y-78510000D01*
X57662779Y-77490000D02*
X57337221Y-77490000D01*
X81362779Y-77490000D02*
X81037221Y-77490000D01*
X81362779Y-78510000D02*
X81037221Y-78510000D01*
X57337221Y-73110000D02*
X57662779Y-73110000D01*
X57337221Y-72090000D02*
X57662779Y-72090000D01*
X81037221Y-73110000D02*
X81362779Y-73110000D01*
X81037221Y-72090000D02*
X81362779Y-72090000D01*
X80862779Y-96710000D02*
X80537221Y-96710000D01*
X80862779Y-95690000D02*
X80537221Y-95690000D01*
X82137221Y-98410000D02*
X82462779Y-98410000D01*
X82137221Y-97390000D02*
X82462779Y-97390000D01*
X53062779Y-135710000D02*
X52737221Y-135710000D01*
X53062779Y-134690000D02*
X52737221Y-134690000D01*
X53062779Y-138210000D02*
X52737221Y-138210000D01*
X53062779Y-137190000D02*
X52737221Y-137190000D01*
X53062779Y-127190000D02*
X52737221Y-127190000D01*
X53062779Y-128210000D02*
X52737221Y-128210000D01*
X53062779Y-129690000D02*
X52737221Y-129690000D01*
X53062779Y-130710000D02*
X52737221Y-130710000D01*
X53062779Y-133210000D02*
X52737221Y-133210000D01*
X53062779Y-132190000D02*
X52737221Y-132190000D01*
X63550000Y-81740000D02*
X67000000Y-81740000D01*
X63550000Y-81740000D02*
X61600000Y-81740000D01*
X63550000Y-86860000D02*
X65500000Y-86860000D01*
X63550000Y-86860000D02*
X61600000Y-86860000D01*
X63500000Y-77560000D02*
X61550000Y-77560000D01*
X63500000Y-77560000D02*
X65450000Y-77560000D01*
X63500000Y-72440000D02*
X61550000Y-72440000D01*
X63500000Y-72440000D02*
X66950000Y-72440000D01*
X87200000Y-81740000D02*
X90650000Y-81740000D01*
X87200000Y-81740000D02*
X85250000Y-81740000D01*
X87200000Y-86860000D02*
X89150000Y-86860000D01*
X87200000Y-86860000D02*
X85250000Y-86860000D01*
X87250000Y-77560000D02*
X85300000Y-77560000D01*
X87250000Y-77560000D02*
X89200000Y-77560000D01*
X87250000Y-72440000D02*
X85300000Y-72440000D01*
X87250000Y-72440000D02*
X90700000Y-72440000D01*
D11*
X89561904Y-111152380D02*
X89561904Y-111961904D01*
X89514285Y-112057142D01*
X89466666Y-112104761D01*
X89371428Y-112152380D01*
X89180952Y-112152380D01*
X89085714Y-112104761D01*
X89038095Y-112057142D01*
X88990476Y-111961904D01*
X88990476Y-111152380D01*
X88085714Y-111152380D02*
X88276190Y-111152380D01*
X88371428Y-111200000D01*
X88419047Y-111247619D01*
X88514285Y-111390476D01*
X88561904Y-111580952D01*
X88561904Y-111961904D01*
X88514285Y-112057142D01*
X88466666Y-112104761D01*
X88371428Y-112152380D01*
X88180952Y-112152380D01*
X88085714Y-112104761D01*
X88038095Y-112057142D01*
X87990476Y-111961904D01*
X87990476Y-111723809D01*
X88038095Y-111628571D01*
X88085714Y-111580952D01*
X88180952Y-111533333D01*
X88371428Y-111533333D01*
X88466666Y-111580952D01*
X88514285Y-111628571D01*
X88561904Y-111723809D01*
X58533333Y-163752380D02*
X58533333Y-164466666D01*
X58580952Y-164609523D01*
X58676190Y-164704761D01*
X58819047Y-164752380D01*
X58914285Y-164752380D01*
X57628571Y-164085714D02*
X57628571Y-164752380D01*
X57866666Y-163704761D02*
X58104761Y-164419047D01*
X57485714Y-164419047D01*
D15*
X61313866Y-140055466D02*
X61313866Y-141422833D01*
X61233433Y-141583700D01*
X61152999Y-141664133D01*
X60992133Y-141744566D01*
X60670399Y-141744566D01*
X60509533Y-141664133D01*
X60429099Y-141583700D01*
X60348666Y-141422833D01*
X60348666Y-140055466D01*
X58659566Y-141744566D02*
X59624766Y-141744566D01*
X59142166Y-141744566D02*
X59142166Y-140055466D01*
X59303033Y-140296766D01*
X59463899Y-140457633D01*
X59624766Y-140538066D01*
D11*
X75364404Y-142728571D02*
X75031071Y-142728571D01*
X74888214Y-143252380D02*
X75364404Y-143252380D01*
X75364404Y-142252380D01*
X74888214Y-142252380D01*
X74507261Y-143204761D02*
X74364404Y-143252380D01*
X74126309Y-143252380D01*
X74031071Y-143204761D01*
X73983452Y-143157142D01*
X73935833Y-143061904D01*
X73935833Y-142966666D01*
X73983452Y-142871428D01*
X74031071Y-142823809D01*
X74126309Y-142776190D01*
X74316785Y-142728571D01*
X74412023Y-142680952D01*
X74459642Y-142633333D01*
X74507261Y-142538095D01*
X74507261Y-142442857D01*
X74459642Y-142347619D01*
X74412023Y-142300000D01*
X74316785Y-142252380D01*
X74078690Y-142252380D01*
X73935833Y-142300000D01*
X73745357Y-143347619D02*
X72983452Y-143347619D01*
X72745357Y-143252380D02*
X72745357Y-142252380D01*
X72507261Y-142252380D01*
X72364404Y-142300000D01*
X72269166Y-142395238D01*
X72221547Y-142490476D01*
X72173928Y-142680952D01*
X72173928Y-142823809D01*
X72221547Y-143014285D01*
X72269166Y-143109523D01*
X72364404Y-143204761D01*
X72507261Y-143252380D01*
X72745357Y-143252380D01*
X71792976Y-142966666D02*
X71316785Y-142966666D01*
X71888214Y-143252380D02*
X71554880Y-142252380D01*
X71221547Y-143252380D01*
X70888214Y-143252380D02*
X70888214Y-142252380D01*
X70459642Y-143204761D02*
X70316785Y-143252380D01*
X70078690Y-143252380D01*
X69983452Y-143204761D01*
X69935833Y-143157142D01*
X69888214Y-143061904D01*
X69888214Y-142966666D01*
X69935833Y-142871428D01*
X69983452Y-142823809D01*
X70078690Y-142776190D01*
X70269166Y-142728571D01*
X70364404Y-142680952D01*
X70412023Y-142633333D01*
X70459642Y-142538095D01*
X70459642Y-142442857D01*
X70412023Y-142347619D01*
X70364404Y-142300000D01*
X70269166Y-142252380D01*
X70031071Y-142252380D01*
X69888214Y-142300000D01*
X69269166Y-142776190D02*
X69269166Y-143252380D01*
X69602500Y-142252380D02*
X69269166Y-142776190D01*
X68935833Y-142252380D01*
X68840595Y-143347619D02*
X68078690Y-143347619D01*
X67888214Y-143204761D02*
X67745357Y-143252380D01*
X67507261Y-143252380D01*
X67412023Y-143204761D01*
X67364404Y-143157142D01*
X67316785Y-143061904D01*
X67316785Y-142966666D01*
X67364404Y-142871428D01*
X67412023Y-142823809D01*
X67507261Y-142776190D01*
X67697738Y-142728571D01*
X67792976Y-142680952D01*
X67840595Y-142633333D01*
X67888214Y-142538095D01*
X67888214Y-142442857D01*
X67840595Y-142347619D01*
X67792976Y-142300000D01*
X67697738Y-142252380D01*
X67459642Y-142252380D01*
X67316785Y-142300000D01*
X66888214Y-142728571D02*
X66554880Y-142728571D01*
X66412023Y-143252380D02*
X66888214Y-143252380D01*
X66888214Y-142252380D01*
X66412023Y-142252380D01*
X65983452Y-142728571D02*
X65650119Y-142728571D01*
X65507261Y-143252380D02*
X65983452Y-143252380D01*
X65983452Y-142252380D01*
X65507261Y-142252380D01*
X65078690Y-143252380D02*
X65078690Y-142252380D01*
X64840595Y-142252380D01*
X64697738Y-142300000D01*
X64602500Y-142395238D01*
X64554880Y-142490476D01*
X64507261Y-142680952D01*
X64507261Y-142823809D01*
X64554880Y-143014285D01*
X64602500Y-143109523D01*
X64697738Y-143204761D01*
X64840595Y-143252380D01*
X65078690Y-143252380D01*
X64316785Y-143347619D02*
X63554880Y-143347619D01*
X62745357Y-143252380D02*
X63078690Y-142776190D01*
X63316785Y-143252380D02*
X63316785Y-142252380D01*
X62935833Y-142252380D01*
X62840595Y-142300000D01*
X62792976Y-142347619D01*
X62745357Y-142442857D01*
X62745357Y-142585714D01*
X62792976Y-142680952D01*
X62840595Y-142728571D01*
X62935833Y-142776190D01*
X63316785Y-142776190D01*
X62316785Y-142728571D02*
X61983452Y-142728571D01*
X61840595Y-143252380D02*
X62316785Y-143252380D01*
X62316785Y-142252380D01*
X61840595Y-142252380D01*
X61554880Y-142252380D02*
X61221547Y-143252380D01*
X60888214Y-142252380D01*
X60126309Y-142585714D02*
X60126309Y-143252380D01*
X60364404Y-142204761D02*
X60602500Y-142919047D01*
X59983452Y-142919047D01*
D16*
X62114189Y-141419566D02*
X63079389Y-141419566D01*
X62596789Y-141419566D02*
X62596789Y-139730466D01*
X62757656Y-139971766D01*
X62918522Y-140132633D01*
X63079389Y-140213066D01*
D11*
X72566666Y-84157142D02*
X72614285Y-84204761D01*
X72757142Y-84252380D01*
X72852380Y-84252380D01*
X72995238Y-84204761D01*
X73090476Y-84109523D01*
X73138095Y-84014285D01*
X73185714Y-83823809D01*
X73185714Y-83680952D01*
X73138095Y-83490476D01*
X73090476Y-83395238D01*
X72995238Y-83300000D01*
X72852380Y-83252380D01*
X72757142Y-83252380D01*
X72614285Y-83300000D01*
X72566666Y-83347619D01*
X71614285Y-84252380D02*
X72185714Y-84252380D01*
X71900000Y-84252380D02*
X71900000Y-83252380D01*
X71995238Y-83395238D01*
X72090476Y-83490476D01*
X72185714Y-83538095D01*
X96966666Y-83957142D02*
X97014285Y-84004761D01*
X97157142Y-84052380D01*
X97252380Y-84052380D01*
X97395238Y-84004761D01*
X97490476Y-83909523D01*
X97538095Y-83814285D01*
X97585714Y-83623809D01*
X97585714Y-83480952D01*
X97538095Y-83290476D01*
X97490476Y-83195238D01*
X97395238Y-83100000D01*
X97252380Y-83052380D01*
X97157142Y-83052380D01*
X97014285Y-83100000D01*
X96966666Y-83147619D01*
X96585714Y-83147619D02*
X96538095Y-83100000D01*
X96442857Y-83052380D01*
X96204761Y-83052380D01*
X96109523Y-83100000D01*
X96061904Y-83147619D01*
X96014285Y-83242857D01*
X96014285Y-83338095D01*
X96061904Y-83480952D01*
X96633333Y-84052380D01*
X96014285Y-84052380D01*
X61266666Y-79657142D02*
X61314285Y-79704761D01*
X61457142Y-79752380D01*
X61552380Y-79752380D01*
X61695238Y-79704761D01*
X61790476Y-79609523D01*
X61838095Y-79514285D01*
X61885714Y-79323809D01*
X61885714Y-79180952D01*
X61838095Y-78990476D01*
X61790476Y-78895238D01*
X61695238Y-78800000D01*
X61552380Y-78752380D01*
X61457142Y-78752380D01*
X61314285Y-78800000D01*
X61266666Y-78847619D01*
X60933333Y-78752380D02*
X60314285Y-78752380D01*
X60647619Y-79133333D01*
X60504761Y-79133333D01*
X60409523Y-79180952D01*
X60361904Y-79228571D01*
X60314285Y-79323809D01*
X60314285Y-79561904D01*
X60361904Y-79657142D01*
X60409523Y-79704761D01*
X60504761Y-79752380D01*
X60790476Y-79752380D01*
X60885714Y-79704761D01*
X60933333Y-79657142D01*
X85866666Y-79557142D02*
X85914285Y-79604761D01*
X86057142Y-79652380D01*
X86152380Y-79652380D01*
X86295238Y-79604761D01*
X86390476Y-79509523D01*
X86438095Y-79414285D01*
X86485714Y-79223809D01*
X86485714Y-79080952D01*
X86438095Y-78890476D01*
X86390476Y-78795238D01*
X86295238Y-78700000D01*
X86152380Y-78652380D01*
X86057142Y-78652380D01*
X85914285Y-78700000D01*
X85866666Y-78747619D01*
X85009523Y-78985714D02*
X85009523Y-79652380D01*
X85247619Y-78604761D02*
X85485714Y-79319047D01*
X84866666Y-79319047D01*
X68166666Y-89757142D02*
X68214285Y-89804761D01*
X68357142Y-89852380D01*
X68452380Y-89852380D01*
X68595238Y-89804761D01*
X68690476Y-89709523D01*
X68738095Y-89614285D01*
X68785714Y-89423809D01*
X68785714Y-89280952D01*
X68738095Y-89090476D01*
X68690476Y-88995238D01*
X68595238Y-88900000D01*
X68452380Y-88852380D01*
X68357142Y-88852380D01*
X68214285Y-88900000D01*
X68166666Y-88947619D01*
X67261904Y-88852380D02*
X67738095Y-88852380D01*
X67785714Y-89328571D01*
X67738095Y-89280952D01*
X67642857Y-89233333D01*
X67404761Y-89233333D01*
X67309523Y-89280952D01*
X67261904Y-89328571D01*
X67214285Y-89423809D01*
X67214285Y-89661904D01*
X67261904Y-89757142D01*
X67309523Y-89804761D01*
X67404761Y-89852380D01*
X67642857Y-89852380D01*
X67738095Y-89804761D01*
X67785714Y-89757142D01*
X54966666Y-84157142D02*
X55014285Y-84204761D01*
X55157142Y-84252380D01*
X55252380Y-84252380D01*
X55395238Y-84204761D01*
X55490476Y-84109523D01*
X55538095Y-84014285D01*
X55585714Y-83823809D01*
X55585714Y-83680952D01*
X55538095Y-83490476D01*
X55490476Y-83395238D01*
X55395238Y-83300000D01*
X55252380Y-83252380D01*
X55157142Y-83252380D01*
X55014285Y-83300000D01*
X54966666Y-83347619D01*
X54109523Y-83252380D02*
X54300000Y-83252380D01*
X54395238Y-83300000D01*
X54442857Y-83347619D01*
X54538095Y-83490476D01*
X54585714Y-83680952D01*
X54585714Y-84061904D01*
X54538095Y-84157142D01*
X54490476Y-84204761D01*
X54395238Y-84252380D01*
X54204761Y-84252380D01*
X54109523Y-84204761D01*
X54061904Y-84157142D01*
X54014285Y-84061904D01*
X54014285Y-83823809D01*
X54061904Y-83728571D01*
X54109523Y-83680952D01*
X54204761Y-83633333D01*
X54395238Y-83633333D01*
X54490476Y-83680952D01*
X54538095Y-83728571D01*
X54585714Y-83823809D01*
X89266666Y-90157142D02*
X89314285Y-90204761D01*
X89457142Y-90252380D01*
X89552380Y-90252380D01*
X89695238Y-90204761D01*
X89790476Y-90109523D01*
X89838095Y-90014285D01*
X89885714Y-89823809D01*
X89885714Y-89680952D01*
X89838095Y-89490476D01*
X89790476Y-89395238D01*
X89695238Y-89300000D01*
X89552380Y-89252380D01*
X89457142Y-89252380D01*
X89314285Y-89300000D01*
X89266666Y-89347619D01*
X88933333Y-89252380D02*
X88266666Y-89252380D01*
X88695238Y-90252380D01*
X78766666Y-84057142D02*
X78814285Y-84104761D01*
X78957142Y-84152380D01*
X79052380Y-84152380D01*
X79195238Y-84104761D01*
X79290476Y-84009523D01*
X79338095Y-83914285D01*
X79385714Y-83723809D01*
X79385714Y-83580952D01*
X79338095Y-83390476D01*
X79290476Y-83295238D01*
X79195238Y-83200000D01*
X79052380Y-83152380D01*
X78957142Y-83152380D01*
X78814285Y-83200000D01*
X78766666Y-83247619D01*
X78195238Y-83580952D02*
X78290476Y-83533333D01*
X78338095Y-83485714D01*
X78385714Y-83390476D01*
X78385714Y-83342857D01*
X78338095Y-83247619D01*
X78290476Y-83200000D01*
X78195238Y-83152380D01*
X78004761Y-83152380D01*
X77909523Y-83200000D01*
X77861904Y-83247619D01*
X77814285Y-83342857D01*
X77814285Y-83390476D01*
X77861904Y-83485714D01*
X77909523Y-83533333D01*
X78004761Y-83580952D01*
X78195238Y-83580952D01*
X78290476Y-83628571D01*
X78338095Y-83676190D01*
X78385714Y-83771428D01*
X78385714Y-83961904D01*
X78338095Y-84057142D01*
X78290476Y-84104761D01*
X78195238Y-84152380D01*
X78004761Y-84152380D01*
X77909523Y-84104761D01*
X77861904Y-84057142D01*
X77814285Y-83961904D01*
X77814285Y-83771428D01*
X77861904Y-83676190D01*
X77909523Y-83628571D01*
X78004761Y-83580952D01*
X65966666Y-68037142D02*
X66014285Y-68084761D01*
X66157142Y-68132380D01*
X66252380Y-68132380D01*
X66395238Y-68084761D01*
X66490476Y-67989523D01*
X66538095Y-67894285D01*
X66585714Y-67703809D01*
X66585714Y-67560952D01*
X66538095Y-67370476D01*
X66490476Y-67275238D01*
X66395238Y-67180000D01*
X66252380Y-67132380D01*
X66157142Y-67132380D01*
X66014285Y-67180000D01*
X65966666Y-67227619D01*
X65490476Y-68132380D02*
X65300000Y-68132380D01*
X65204761Y-68084761D01*
X65157142Y-68037142D01*
X65061904Y-67894285D01*
X65014285Y-67703809D01*
X65014285Y-67322857D01*
X65061904Y-67227619D01*
X65109523Y-67180000D01*
X65204761Y-67132380D01*
X65395238Y-67132380D01*
X65490476Y-67180000D01*
X65538095Y-67227619D01*
X65585714Y-67322857D01*
X65585714Y-67560952D01*
X65538095Y-67656190D01*
X65490476Y-67703809D01*
X65395238Y-67751428D01*
X65204761Y-67751428D01*
X65109523Y-67703809D01*
X65061904Y-67656190D01*
X65014285Y-67560952D01*
X73242857Y-74757142D02*
X73290476Y-74804761D01*
X73433333Y-74852380D01*
X73528571Y-74852380D01*
X73671428Y-74804761D01*
X73766666Y-74709523D01*
X73814285Y-74614285D01*
X73861904Y-74423809D01*
X73861904Y-74280952D01*
X73814285Y-74090476D01*
X73766666Y-73995238D01*
X73671428Y-73900000D01*
X73528571Y-73852380D01*
X73433333Y-73852380D01*
X73290476Y-73900000D01*
X73242857Y-73947619D01*
X72290476Y-74852380D02*
X72861904Y-74852380D01*
X72576190Y-74852380D02*
X72576190Y-73852380D01*
X72671428Y-73995238D01*
X72766666Y-74090476D01*
X72861904Y-74138095D01*
X71671428Y-73852380D02*
X71576190Y-73852380D01*
X71480952Y-73900000D01*
X71433333Y-73947619D01*
X71385714Y-74042857D01*
X71338095Y-74233333D01*
X71338095Y-74471428D01*
X71385714Y-74661904D01*
X71433333Y-74757142D01*
X71480952Y-74804761D01*
X71576190Y-74852380D01*
X71671428Y-74852380D01*
X71766666Y-74804761D01*
X71814285Y-74757142D01*
X71861904Y-74661904D01*
X71909523Y-74471428D01*
X71909523Y-74233333D01*
X71861904Y-74042857D01*
X71814285Y-73947619D01*
X71766666Y-73900000D01*
X71671428Y-73852380D01*
X97042857Y-74757142D02*
X97090476Y-74804761D01*
X97233333Y-74852380D01*
X97328571Y-74852380D01*
X97471428Y-74804761D01*
X97566666Y-74709523D01*
X97614285Y-74614285D01*
X97661904Y-74423809D01*
X97661904Y-74280952D01*
X97614285Y-74090476D01*
X97566666Y-73995238D01*
X97471428Y-73900000D01*
X97328571Y-73852380D01*
X97233333Y-73852380D01*
X97090476Y-73900000D01*
X97042857Y-73947619D01*
X96090476Y-74852380D02*
X96661904Y-74852380D01*
X96376190Y-74852380D02*
X96376190Y-73852380D01*
X96471428Y-73995238D01*
X96566666Y-74090476D01*
X96661904Y-74138095D01*
X95138095Y-74852380D02*
X95709523Y-74852380D01*
X95423809Y-74852380D02*
X95423809Y-73852380D01*
X95519047Y-73995238D01*
X95614285Y-74090476D01*
X95709523Y-74138095D01*
X72042857Y-68037142D02*
X72090476Y-68084761D01*
X72233333Y-68132380D01*
X72328571Y-68132380D01*
X72471428Y-68084761D01*
X72566666Y-67989523D01*
X72614285Y-67894285D01*
X72661904Y-67703809D01*
X72661904Y-67560952D01*
X72614285Y-67370476D01*
X72566666Y-67275238D01*
X72471428Y-67180000D01*
X72328571Y-67132380D01*
X72233333Y-67132380D01*
X72090476Y-67180000D01*
X72042857Y-67227619D01*
X71090476Y-68132380D02*
X71661904Y-68132380D01*
X71376190Y-68132380D02*
X71376190Y-67132380D01*
X71471428Y-67275238D01*
X71566666Y-67370476D01*
X71661904Y-67418095D01*
X70709523Y-67227619D02*
X70661904Y-67180000D01*
X70566666Y-67132380D01*
X70328571Y-67132380D01*
X70233333Y-67180000D01*
X70185714Y-67227619D01*
X70138095Y-67322857D01*
X70138095Y-67418095D01*
X70185714Y-67560952D01*
X70757142Y-68132380D01*
X70138095Y-68132380D01*
X60842857Y-70057142D02*
X60890476Y-70104761D01*
X61033333Y-70152380D01*
X61128571Y-70152380D01*
X61271428Y-70104761D01*
X61366666Y-70009523D01*
X61414285Y-69914285D01*
X61461904Y-69723809D01*
X61461904Y-69580952D01*
X61414285Y-69390476D01*
X61366666Y-69295238D01*
X61271428Y-69200000D01*
X61128571Y-69152380D01*
X61033333Y-69152380D01*
X60890476Y-69200000D01*
X60842857Y-69247619D01*
X59890476Y-70152380D02*
X60461904Y-70152380D01*
X60176190Y-70152380D02*
X60176190Y-69152380D01*
X60271428Y-69295238D01*
X60366666Y-69390476D01*
X60461904Y-69438095D01*
X59557142Y-69152380D02*
X58938095Y-69152380D01*
X59271428Y-69533333D01*
X59128571Y-69533333D01*
X59033333Y-69580952D01*
X58985714Y-69628571D01*
X58938095Y-69723809D01*
X58938095Y-69961904D01*
X58985714Y-70057142D01*
X59033333Y-70104761D01*
X59128571Y-70152380D01*
X59414285Y-70152380D01*
X59509523Y-70104761D01*
X59557142Y-70057142D01*
X86942857Y-70257142D02*
X86990476Y-70304761D01*
X87133333Y-70352380D01*
X87228571Y-70352380D01*
X87371428Y-70304761D01*
X87466666Y-70209523D01*
X87514285Y-70114285D01*
X87561904Y-69923809D01*
X87561904Y-69780952D01*
X87514285Y-69590476D01*
X87466666Y-69495238D01*
X87371428Y-69400000D01*
X87228571Y-69352380D01*
X87133333Y-69352380D01*
X86990476Y-69400000D01*
X86942857Y-69447619D01*
X85990476Y-70352380D02*
X86561904Y-70352380D01*
X86276190Y-70352380D02*
X86276190Y-69352380D01*
X86371428Y-69495238D01*
X86466666Y-69590476D01*
X86561904Y-69638095D01*
X85133333Y-69685714D02*
X85133333Y-70352380D01*
X85371428Y-69304761D02*
X85609523Y-70019047D01*
X84990476Y-70019047D01*
X55042857Y-74857142D02*
X55090476Y-74904761D01*
X55233333Y-74952380D01*
X55328571Y-74952380D01*
X55471428Y-74904761D01*
X55566666Y-74809523D01*
X55614285Y-74714285D01*
X55661904Y-74523809D01*
X55661904Y-74380952D01*
X55614285Y-74190476D01*
X55566666Y-74095238D01*
X55471428Y-74000000D01*
X55328571Y-73952380D01*
X55233333Y-73952380D01*
X55090476Y-74000000D01*
X55042857Y-74047619D01*
X54090476Y-74952380D02*
X54661904Y-74952380D01*
X54376190Y-74952380D02*
X54376190Y-73952380D01*
X54471428Y-74095238D01*
X54566666Y-74190476D01*
X54661904Y-74238095D01*
X53185714Y-73952380D02*
X53661904Y-73952380D01*
X53709523Y-74428571D01*
X53661904Y-74380952D01*
X53566666Y-74333333D01*
X53328571Y-74333333D01*
X53233333Y-74380952D01*
X53185714Y-74428571D01*
X53138095Y-74523809D01*
X53138095Y-74761904D01*
X53185714Y-74857142D01*
X53233333Y-74904761D01*
X53328571Y-74952380D01*
X53566666Y-74952380D01*
X53661904Y-74904761D01*
X53709523Y-74857142D01*
X78742857Y-74857142D02*
X78790476Y-74904761D01*
X78933333Y-74952380D01*
X79028571Y-74952380D01*
X79171428Y-74904761D01*
X79266666Y-74809523D01*
X79314285Y-74714285D01*
X79361904Y-74523809D01*
X79361904Y-74380952D01*
X79314285Y-74190476D01*
X79266666Y-74095238D01*
X79171428Y-74000000D01*
X79028571Y-73952380D01*
X78933333Y-73952380D01*
X78790476Y-74000000D01*
X78742857Y-74047619D01*
X77790476Y-74952380D02*
X78361904Y-74952380D01*
X78076190Y-74952380D02*
X78076190Y-73952380D01*
X78171428Y-74095238D01*
X78266666Y-74190476D01*
X78361904Y-74238095D01*
X76933333Y-73952380D02*
X77123809Y-73952380D01*
X77219047Y-74000000D01*
X77266666Y-74047619D01*
X77361904Y-74190476D01*
X77409523Y-74380952D01*
X77409523Y-74761904D01*
X77361904Y-74857142D01*
X77314285Y-74904761D01*
X77219047Y-74952380D01*
X77028571Y-74952380D01*
X76933333Y-74904761D01*
X76885714Y-74857142D01*
X76838095Y-74761904D01*
X76838095Y-74523809D01*
X76885714Y-74428571D01*
X76933333Y-74380952D01*
X77028571Y-74333333D01*
X77219047Y-74333333D01*
X77314285Y-74380952D01*
X77361904Y-74428571D01*
X77409523Y-74523809D01*
X69142857Y-80557142D02*
X69190476Y-80604761D01*
X69333333Y-80652380D01*
X69428571Y-80652380D01*
X69571428Y-80604761D01*
X69666666Y-80509523D01*
X69714285Y-80414285D01*
X69761904Y-80223809D01*
X69761904Y-80080952D01*
X69714285Y-79890476D01*
X69666666Y-79795238D01*
X69571428Y-79700000D01*
X69428571Y-79652380D01*
X69333333Y-79652380D01*
X69190476Y-79700000D01*
X69142857Y-79747619D01*
X68190476Y-80652380D02*
X68761904Y-80652380D01*
X68476190Y-80652380D02*
X68476190Y-79652380D01*
X68571428Y-79795238D01*
X68666666Y-79890476D01*
X68761904Y-79938095D01*
X67857142Y-79652380D02*
X67190476Y-79652380D01*
X67619047Y-80652380D01*
X90342857Y-80457142D02*
X90390476Y-80504761D01*
X90533333Y-80552380D01*
X90628571Y-80552380D01*
X90771428Y-80504761D01*
X90866666Y-80409523D01*
X90914285Y-80314285D01*
X90961904Y-80123809D01*
X90961904Y-79980952D01*
X90914285Y-79790476D01*
X90866666Y-79695238D01*
X90771428Y-79600000D01*
X90628571Y-79552380D01*
X90533333Y-79552380D01*
X90390476Y-79600000D01*
X90342857Y-79647619D01*
X89390476Y-80552380D02*
X89961904Y-80552380D01*
X89676190Y-80552380D02*
X89676190Y-79552380D01*
X89771428Y-79695238D01*
X89866666Y-79790476D01*
X89961904Y-79838095D01*
X88819047Y-79980952D02*
X88914285Y-79933333D01*
X88961904Y-79885714D01*
X89009523Y-79790476D01*
X89009523Y-79742857D01*
X88961904Y-79647619D01*
X88914285Y-79600000D01*
X88819047Y-79552380D01*
X88628571Y-79552380D01*
X88533333Y-79600000D01*
X88485714Y-79647619D01*
X88438095Y-79742857D01*
X88438095Y-79790476D01*
X88485714Y-79885714D01*
X88533333Y-79933333D01*
X88628571Y-79980952D01*
X88819047Y-79980952D01*
X88914285Y-80028571D01*
X88961904Y-80076190D01*
X89009523Y-80171428D01*
X89009523Y-80361904D01*
X88961904Y-80457142D01*
X88914285Y-80504761D01*
X88819047Y-80552380D01*
X88628571Y-80552380D01*
X88533333Y-80504761D01*
X88485714Y-80457142D01*
X88438095Y-80361904D01*
X88438095Y-80171428D01*
X88485714Y-80076190D01*
X88533333Y-80028571D01*
X88628571Y-79980952D01*
X92242857Y-97457142D02*
X92290476Y-97504761D01*
X92433333Y-97552380D01*
X92528571Y-97552380D01*
X92671428Y-97504761D01*
X92766666Y-97409523D01*
X92814285Y-97314285D01*
X92861904Y-97123809D01*
X92861904Y-96980952D01*
X92814285Y-96790476D01*
X92766666Y-96695238D01*
X92671428Y-96600000D01*
X92528571Y-96552380D01*
X92433333Y-96552380D01*
X92290476Y-96600000D01*
X92242857Y-96647619D01*
X91290476Y-97552380D02*
X91861904Y-97552380D01*
X91576190Y-97552380D02*
X91576190Y-96552380D01*
X91671428Y-96695238D01*
X91766666Y-96790476D01*
X91861904Y-96838095D01*
X90814285Y-97552380D02*
X90623809Y-97552380D01*
X90528571Y-97504761D01*
X90480952Y-97457142D01*
X90385714Y-97314285D01*
X90338095Y-97123809D01*
X90338095Y-96742857D01*
X90385714Y-96647619D01*
X90433333Y-96600000D01*
X90528571Y-96552380D01*
X90719047Y-96552380D01*
X90814285Y-96600000D01*
X90861904Y-96647619D01*
X90909523Y-96742857D01*
X90909523Y-96980952D01*
X90861904Y-97076190D01*
X90814285Y-97123809D01*
X90719047Y-97171428D01*
X90528571Y-97171428D01*
X90433333Y-97123809D01*
X90385714Y-97076190D01*
X90338095Y-96980952D01*
X83157142Y-105557142D02*
X83204761Y-105509523D01*
X83252380Y-105366666D01*
X83252380Y-105271428D01*
X83204761Y-105128571D01*
X83109523Y-105033333D01*
X83014285Y-104985714D01*
X82823809Y-104938095D01*
X82680952Y-104938095D01*
X82490476Y-104985714D01*
X82395238Y-105033333D01*
X82300000Y-105128571D01*
X82252380Y-105271428D01*
X82252380Y-105366666D01*
X82300000Y-105509523D01*
X82347619Y-105557142D01*
X82347619Y-105938095D02*
X82300000Y-105985714D01*
X82252380Y-106080952D01*
X82252380Y-106319047D01*
X82300000Y-106414285D01*
X82347619Y-106461904D01*
X82442857Y-106509523D01*
X82538095Y-106509523D01*
X82680952Y-106461904D01*
X83252380Y-105890476D01*
X83252380Y-106509523D01*
X82252380Y-107128571D02*
X82252380Y-107223809D01*
X82300000Y-107319047D01*
X82347619Y-107366666D01*
X82442857Y-107414285D01*
X82633333Y-107461904D01*
X82871428Y-107461904D01*
X83061904Y-107414285D01*
X83157142Y-107366666D01*
X83204761Y-107319047D01*
X83252380Y-107223809D01*
X83252380Y-107128571D01*
X83204761Y-107033333D01*
X83157142Y-106985714D01*
X83061904Y-106938095D01*
X82871428Y-106890476D01*
X82633333Y-106890476D01*
X82442857Y-106938095D01*
X82347619Y-106985714D01*
X82300000Y-107033333D01*
X82252380Y-107128571D01*
X95242857Y-98257142D02*
X95290476Y-98304761D01*
X95433333Y-98352380D01*
X95528571Y-98352380D01*
X95671428Y-98304761D01*
X95766666Y-98209523D01*
X95814285Y-98114285D01*
X95861904Y-97923809D01*
X95861904Y-97780952D01*
X95814285Y-97590476D01*
X95766666Y-97495238D01*
X95671428Y-97400000D01*
X95528571Y-97352380D01*
X95433333Y-97352380D01*
X95290476Y-97400000D01*
X95242857Y-97447619D01*
X94861904Y-97447619D02*
X94814285Y-97400000D01*
X94719047Y-97352380D01*
X94480952Y-97352380D01*
X94385714Y-97400000D01*
X94338095Y-97447619D01*
X94290476Y-97542857D01*
X94290476Y-97638095D01*
X94338095Y-97780952D01*
X94909523Y-98352380D01*
X94290476Y-98352380D01*
X93338095Y-98352380D02*
X93909523Y-98352380D01*
X93623809Y-98352380D02*
X93623809Y-97352380D01*
X93719047Y-97495238D01*
X93814285Y-97590476D01*
X93909523Y-97638095D01*
X81757142Y-106757142D02*
X81804761Y-106709523D01*
X81852380Y-106566666D01*
X81852380Y-106471428D01*
X81804761Y-106328571D01*
X81709523Y-106233333D01*
X81614285Y-106185714D01*
X81423809Y-106138095D01*
X81280952Y-106138095D01*
X81090476Y-106185714D01*
X80995238Y-106233333D01*
X80900000Y-106328571D01*
X80852380Y-106471428D01*
X80852380Y-106566666D01*
X80900000Y-106709523D01*
X80947619Y-106757142D01*
X80947619Y-107138095D02*
X80900000Y-107185714D01*
X80852380Y-107280952D01*
X80852380Y-107519047D01*
X80900000Y-107614285D01*
X80947619Y-107661904D01*
X81042857Y-107709523D01*
X81138095Y-107709523D01*
X81280952Y-107661904D01*
X81852380Y-107090476D01*
X81852380Y-107709523D01*
X80947619Y-108090476D02*
X80900000Y-108138095D01*
X80852380Y-108233333D01*
X80852380Y-108471428D01*
X80900000Y-108566666D01*
X80947619Y-108614285D01*
X81042857Y-108661904D01*
X81138095Y-108661904D01*
X81280952Y-108614285D01*
X81852380Y-108042857D01*
X81852380Y-108661904D01*
X86742857Y-99957142D02*
X86790476Y-100004761D01*
X86933333Y-100052380D01*
X87028571Y-100052380D01*
X87171428Y-100004761D01*
X87266666Y-99909523D01*
X87314285Y-99814285D01*
X87361904Y-99623809D01*
X87361904Y-99480952D01*
X87314285Y-99290476D01*
X87266666Y-99195238D01*
X87171428Y-99100000D01*
X87028571Y-99052380D01*
X86933333Y-99052380D01*
X86790476Y-99100000D01*
X86742857Y-99147619D01*
X86361904Y-99147619D02*
X86314285Y-99100000D01*
X86219047Y-99052380D01*
X85980952Y-99052380D01*
X85885714Y-99100000D01*
X85838095Y-99147619D01*
X85790476Y-99242857D01*
X85790476Y-99338095D01*
X85838095Y-99480952D01*
X86409523Y-100052380D01*
X85790476Y-100052380D01*
X85457142Y-99052380D02*
X84838095Y-99052380D01*
X85171428Y-99433333D01*
X85028571Y-99433333D01*
X84933333Y-99480952D01*
X84885714Y-99528571D01*
X84838095Y-99623809D01*
X84838095Y-99861904D01*
X84885714Y-99957142D01*
X84933333Y-100004761D01*
X85028571Y-100052380D01*
X85314285Y-100052380D01*
X85409523Y-100004761D01*
X85457142Y-99957142D01*
X89442857Y-98257142D02*
X89490476Y-98304761D01*
X89633333Y-98352380D01*
X89728571Y-98352380D01*
X89871428Y-98304761D01*
X89966666Y-98209523D01*
X90014285Y-98114285D01*
X90061904Y-97923809D01*
X90061904Y-97780952D01*
X90014285Y-97590476D01*
X89966666Y-97495238D01*
X89871428Y-97400000D01*
X89728571Y-97352380D01*
X89633333Y-97352380D01*
X89490476Y-97400000D01*
X89442857Y-97447619D01*
X89061904Y-97447619D02*
X89014285Y-97400000D01*
X88919047Y-97352380D01*
X88680952Y-97352380D01*
X88585714Y-97400000D01*
X88538095Y-97447619D01*
X88490476Y-97542857D01*
X88490476Y-97638095D01*
X88538095Y-97780952D01*
X89109523Y-98352380D01*
X88490476Y-98352380D01*
X87633333Y-97685714D02*
X87633333Y-98352380D01*
X87871428Y-97304761D02*
X88109523Y-98019047D01*
X87490476Y-98019047D01*
X96957142Y-109557142D02*
X97004761Y-109509523D01*
X97052380Y-109366666D01*
X97052380Y-109271428D01*
X97004761Y-109128571D01*
X96909523Y-109033333D01*
X96814285Y-108985714D01*
X96623809Y-108938095D01*
X96480952Y-108938095D01*
X96290476Y-108985714D01*
X96195238Y-109033333D01*
X96100000Y-109128571D01*
X96052380Y-109271428D01*
X96052380Y-109366666D01*
X96100000Y-109509523D01*
X96147619Y-109557142D01*
X96147619Y-109938095D02*
X96100000Y-109985714D01*
X96052380Y-110080952D01*
X96052380Y-110319047D01*
X96100000Y-110414285D01*
X96147619Y-110461904D01*
X96242857Y-110509523D01*
X96338095Y-110509523D01*
X96480952Y-110461904D01*
X97052380Y-109890476D01*
X97052380Y-110509523D01*
X96052380Y-111414285D02*
X96052380Y-110938095D01*
X96528571Y-110890476D01*
X96480952Y-110938095D01*
X96433333Y-111033333D01*
X96433333Y-111271428D01*
X96480952Y-111366666D01*
X96528571Y-111414285D01*
X96623809Y-111461904D01*
X96861904Y-111461904D01*
X96957142Y-111414285D01*
X97004761Y-111366666D01*
X97052380Y-111271428D01*
X97052380Y-111033333D01*
X97004761Y-110938095D01*
X96957142Y-110890476D01*
X94557142Y-107957142D02*
X94604761Y-107909523D01*
X94652380Y-107766666D01*
X94652380Y-107671428D01*
X94604761Y-107528571D01*
X94509523Y-107433333D01*
X94414285Y-107385714D01*
X94223809Y-107338095D01*
X94080952Y-107338095D01*
X93890476Y-107385714D01*
X93795238Y-107433333D01*
X93700000Y-107528571D01*
X93652380Y-107671428D01*
X93652380Y-107766666D01*
X93700000Y-107909523D01*
X93747619Y-107957142D01*
X93747619Y-108338095D02*
X93700000Y-108385714D01*
X93652380Y-108480952D01*
X93652380Y-108719047D01*
X93700000Y-108814285D01*
X93747619Y-108861904D01*
X93842857Y-108909523D01*
X93938095Y-108909523D01*
X94080952Y-108861904D01*
X94652380Y-108290476D01*
X94652380Y-108909523D01*
X93652380Y-109766666D02*
X93652380Y-109576190D01*
X93700000Y-109480952D01*
X93747619Y-109433333D01*
X93890476Y-109338095D01*
X94080952Y-109290476D01*
X94461904Y-109290476D01*
X94557142Y-109338095D01*
X94604761Y-109385714D01*
X94652380Y-109480952D01*
X94652380Y-109671428D01*
X94604761Y-109766666D01*
X94557142Y-109814285D01*
X94461904Y-109861904D01*
X94223809Y-109861904D01*
X94128571Y-109814285D01*
X94080952Y-109766666D01*
X94033333Y-109671428D01*
X94033333Y-109480952D01*
X94080952Y-109385714D01*
X94128571Y-109338095D01*
X94223809Y-109290476D01*
X80442857Y-112957142D02*
X80490476Y-113004761D01*
X80633333Y-113052380D01*
X80728571Y-113052380D01*
X80871428Y-113004761D01*
X80966666Y-112909523D01*
X81014285Y-112814285D01*
X81061904Y-112623809D01*
X81061904Y-112480952D01*
X81014285Y-112290476D01*
X80966666Y-112195238D01*
X80871428Y-112100000D01*
X80728571Y-112052380D01*
X80633333Y-112052380D01*
X80490476Y-112100000D01*
X80442857Y-112147619D01*
X80061904Y-112147619D02*
X80014285Y-112100000D01*
X79919047Y-112052380D01*
X79680952Y-112052380D01*
X79585714Y-112100000D01*
X79538095Y-112147619D01*
X79490476Y-112242857D01*
X79490476Y-112338095D01*
X79538095Y-112480952D01*
X80109523Y-113052380D01*
X79490476Y-113052380D01*
X79157142Y-112052380D02*
X78490476Y-112052380D01*
X78919047Y-113052380D01*
X80442857Y-110657142D02*
X80490476Y-110704761D01*
X80633333Y-110752380D01*
X80728571Y-110752380D01*
X80871428Y-110704761D01*
X80966666Y-110609523D01*
X81014285Y-110514285D01*
X81061904Y-110323809D01*
X81061904Y-110180952D01*
X81014285Y-109990476D01*
X80966666Y-109895238D01*
X80871428Y-109800000D01*
X80728571Y-109752380D01*
X80633333Y-109752380D01*
X80490476Y-109800000D01*
X80442857Y-109847619D01*
X80061904Y-109847619D02*
X80014285Y-109800000D01*
X79919047Y-109752380D01*
X79680952Y-109752380D01*
X79585714Y-109800000D01*
X79538095Y-109847619D01*
X79490476Y-109942857D01*
X79490476Y-110038095D01*
X79538095Y-110180952D01*
X80109523Y-110752380D01*
X79490476Y-110752380D01*
X78919047Y-110180952D02*
X79014285Y-110133333D01*
X79061904Y-110085714D01*
X79109523Y-109990476D01*
X79109523Y-109942857D01*
X79061904Y-109847619D01*
X79014285Y-109800000D01*
X78919047Y-109752380D01*
X78728571Y-109752380D01*
X78633333Y-109800000D01*
X78585714Y-109847619D01*
X78538095Y-109942857D01*
X78538095Y-109990476D01*
X78585714Y-110085714D01*
X78633333Y-110133333D01*
X78728571Y-110180952D01*
X78919047Y-110180952D01*
X79014285Y-110228571D01*
X79061904Y-110276190D01*
X79109523Y-110371428D01*
X79109523Y-110561904D01*
X79061904Y-110657142D01*
X79014285Y-110704761D01*
X78919047Y-110752380D01*
X78728571Y-110752380D01*
X78633333Y-110704761D01*
X78585714Y-110657142D01*
X78538095Y-110561904D01*
X78538095Y-110371428D01*
X78585714Y-110276190D01*
X78633333Y-110228571D01*
X78728571Y-110180952D01*
X69247380Y-63031666D02*
X69961666Y-63031666D01*
X70104523Y-62984047D01*
X70199761Y-62888809D01*
X70247380Y-62745952D01*
X70247380Y-62650714D01*
X70247380Y-64031666D02*
X70247380Y-63460238D01*
X70247380Y-63745952D02*
X69247380Y-63745952D01*
X69390238Y-63650714D01*
X69485476Y-63555476D01*
X69533095Y-63460238D01*
X93047380Y-63031666D02*
X93761666Y-63031666D01*
X93904523Y-62984047D01*
X93999761Y-62888809D01*
X94047380Y-62745952D01*
X94047380Y-62650714D01*
X93142619Y-63460238D02*
X93095000Y-63507857D01*
X93047380Y-63603095D01*
X93047380Y-63841190D01*
X93095000Y-63936428D01*
X93142619Y-63984047D01*
X93237857Y-64031666D01*
X93333095Y-64031666D01*
X93475952Y-63984047D01*
X94047380Y-63412619D01*
X94047380Y-64031666D01*
X71757380Y-160301666D02*
X72471666Y-160301666D01*
X72614523Y-160254047D01*
X72709761Y-160158809D01*
X72757380Y-160015952D01*
X72757380Y-159920714D01*
X71757380Y-160682619D02*
X71757380Y-161301666D01*
X72138333Y-160968333D01*
X72138333Y-161111190D01*
X72185952Y-161206428D01*
X72233571Y-161254047D01*
X72328809Y-161301666D01*
X72566904Y-161301666D01*
X72662142Y-161254047D01*
X72709761Y-161206428D01*
X72757380Y-161111190D01*
X72757380Y-160825476D01*
X72709761Y-160730238D01*
X72662142Y-160682619D01*
X72566666Y-85952380D02*
X72900000Y-85476190D01*
X73138095Y-85952380D02*
X73138095Y-84952380D01*
X72757142Y-84952380D01*
X72661904Y-85000000D01*
X72614285Y-85047619D01*
X72566666Y-85142857D01*
X72566666Y-85285714D01*
X72614285Y-85380952D01*
X72661904Y-85428571D01*
X72757142Y-85476190D01*
X73138095Y-85476190D01*
X71614285Y-85952380D02*
X72185714Y-85952380D01*
X71900000Y-85952380D02*
X71900000Y-84952380D01*
X71995238Y-85095238D01*
X72090476Y-85190476D01*
X72185714Y-85238095D01*
X96166666Y-85952380D02*
X96500000Y-85476190D01*
X96738095Y-85952380D02*
X96738095Y-84952380D01*
X96357142Y-84952380D01*
X96261904Y-85000000D01*
X96214285Y-85047619D01*
X96166666Y-85142857D01*
X96166666Y-85285714D01*
X96214285Y-85380952D01*
X96261904Y-85428571D01*
X96357142Y-85476190D01*
X96738095Y-85476190D01*
X95785714Y-85047619D02*
X95738095Y-85000000D01*
X95642857Y-84952380D01*
X95404761Y-84952380D01*
X95309523Y-85000000D01*
X95261904Y-85047619D01*
X95214285Y-85142857D01*
X95214285Y-85238095D01*
X95261904Y-85380952D01*
X95833333Y-85952380D01*
X95214285Y-85952380D01*
X72566666Y-87852380D02*
X72900000Y-87376190D01*
X73138095Y-87852380D02*
X73138095Y-86852380D01*
X72757142Y-86852380D01*
X72661904Y-86900000D01*
X72614285Y-86947619D01*
X72566666Y-87042857D01*
X72566666Y-87185714D01*
X72614285Y-87280952D01*
X72661904Y-87328571D01*
X72757142Y-87376190D01*
X73138095Y-87376190D01*
X72233333Y-86852380D02*
X71614285Y-86852380D01*
X71947619Y-87233333D01*
X71804761Y-87233333D01*
X71709523Y-87280952D01*
X71661904Y-87328571D01*
X71614285Y-87423809D01*
X71614285Y-87661904D01*
X71661904Y-87757142D01*
X71709523Y-87804761D01*
X71804761Y-87852380D01*
X72090476Y-87852380D01*
X72185714Y-87804761D01*
X72233333Y-87757142D01*
X96066666Y-87852380D02*
X96400000Y-87376190D01*
X96638095Y-87852380D02*
X96638095Y-86852380D01*
X96257142Y-86852380D01*
X96161904Y-86900000D01*
X96114285Y-86947619D01*
X96066666Y-87042857D01*
X96066666Y-87185714D01*
X96114285Y-87280952D01*
X96161904Y-87328571D01*
X96257142Y-87376190D01*
X96638095Y-87376190D01*
X95209523Y-87185714D02*
X95209523Y-87852380D01*
X95447619Y-86804761D02*
X95685714Y-87519047D01*
X95066666Y-87519047D01*
X72666666Y-82352380D02*
X73000000Y-81876190D01*
X73238095Y-82352380D02*
X73238095Y-81352380D01*
X72857142Y-81352380D01*
X72761904Y-81400000D01*
X72714285Y-81447619D01*
X72666666Y-81542857D01*
X72666666Y-81685714D01*
X72714285Y-81780952D01*
X72761904Y-81828571D01*
X72857142Y-81876190D01*
X73238095Y-81876190D01*
X71761904Y-81352380D02*
X72238095Y-81352380D01*
X72285714Y-81828571D01*
X72238095Y-81780952D01*
X72142857Y-81733333D01*
X71904761Y-81733333D01*
X71809523Y-81780952D01*
X71761904Y-81828571D01*
X71714285Y-81923809D01*
X71714285Y-82161904D01*
X71761904Y-82257142D01*
X71809523Y-82304761D01*
X71904761Y-82352380D01*
X72142857Y-82352380D01*
X72238095Y-82304761D01*
X72285714Y-82257142D01*
X96666666Y-82352380D02*
X97000000Y-81876190D01*
X97238095Y-82352380D02*
X97238095Y-81352380D01*
X96857142Y-81352380D01*
X96761904Y-81400000D01*
X96714285Y-81447619D01*
X96666666Y-81542857D01*
X96666666Y-81685714D01*
X96714285Y-81780952D01*
X96761904Y-81828571D01*
X96857142Y-81876190D01*
X97238095Y-81876190D01*
X95809523Y-81352380D02*
X96000000Y-81352380D01*
X96095238Y-81400000D01*
X96142857Y-81447619D01*
X96238095Y-81590476D01*
X96285714Y-81780952D01*
X96285714Y-82161904D01*
X96238095Y-82257142D01*
X96190476Y-82304761D01*
X96095238Y-82352380D01*
X95904761Y-82352380D01*
X95809523Y-82304761D01*
X95761904Y-82257142D01*
X95714285Y-82161904D01*
X95714285Y-81923809D01*
X95761904Y-81828571D01*
X95809523Y-81780952D01*
X95904761Y-81733333D01*
X96095238Y-81733333D01*
X96190476Y-81780952D01*
X96238095Y-81828571D01*
X96285714Y-81923809D01*
X54866666Y-86052380D02*
X55200000Y-85576190D01*
X55438095Y-86052380D02*
X55438095Y-85052380D01*
X55057142Y-85052380D01*
X54961904Y-85100000D01*
X54914285Y-85147619D01*
X54866666Y-85242857D01*
X54866666Y-85385714D01*
X54914285Y-85480952D01*
X54961904Y-85528571D01*
X55057142Y-85576190D01*
X55438095Y-85576190D01*
X54533333Y-85052380D02*
X53866666Y-85052380D01*
X54295238Y-86052380D01*
X78766666Y-86052380D02*
X79100000Y-85576190D01*
X79338095Y-86052380D02*
X79338095Y-85052380D01*
X78957142Y-85052380D01*
X78861904Y-85100000D01*
X78814285Y-85147619D01*
X78766666Y-85242857D01*
X78766666Y-85385714D01*
X78814285Y-85480952D01*
X78861904Y-85528571D01*
X78957142Y-85576190D01*
X79338095Y-85576190D01*
X78195238Y-85480952D02*
X78290476Y-85433333D01*
X78338095Y-85385714D01*
X78385714Y-85290476D01*
X78385714Y-85242857D01*
X78338095Y-85147619D01*
X78290476Y-85100000D01*
X78195238Y-85052380D01*
X78004761Y-85052380D01*
X77909523Y-85100000D01*
X77861904Y-85147619D01*
X77814285Y-85242857D01*
X77814285Y-85290476D01*
X77861904Y-85385714D01*
X77909523Y-85433333D01*
X78004761Y-85480952D01*
X78195238Y-85480952D01*
X78290476Y-85528571D01*
X78338095Y-85576190D01*
X78385714Y-85671428D01*
X78385714Y-85861904D01*
X78338095Y-85957142D01*
X78290476Y-86004761D01*
X78195238Y-86052380D01*
X78004761Y-86052380D01*
X77909523Y-86004761D01*
X77861904Y-85957142D01*
X77814285Y-85861904D01*
X77814285Y-85671428D01*
X77861904Y-85576190D01*
X77909523Y-85528571D01*
X78004761Y-85480952D01*
X54866666Y-87852380D02*
X55200000Y-87376190D01*
X55438095Y-87852380D02*
X55438095Y-86852380D01*
X55057142Y-86852380D01*
X54961904Y-86900000D01*
X54914285Y-86947619D01*
X54866666Y-87042857D01*
X54866666Y-87185714D01*
X54914285Y-87280952D01*
X54961904Y-87328571D01*
X55057142Y-87376190D01*
X55438095Y-87376190D01*
X54390476Y-87852380D02*
X54200000Y-87852380D01*
X54104761Y-87804761D01*
X54057142Y-87757142D01*
X53961904Y-87614285D01*
X53914285Y-87423809D01*
X53914285Y-87042857D01*
X53961904Y-86947619D01*
X54009523Y-86900000D01*
X54104761Y-86852380D01*
X54295238Y-86852380D01*
X54390476Y-86900000D01*
X54438095Y-86947619D01*
X54485714Y-87042857D01*
X54485714Y-87280952D01*
X54438095Y-87376190D01*
X54390476Y-87423809D01*
X54295238Y-87471428D01*
X54104761Y-87471428D01*
X54009523Y-87423809D01*
X53961904Y-87376190D01*
X53914285Y-87280952D01*
X78942857Y-87952380D02*
X79276190Y-87476190D01*
X79514285Y-87952380D02*
X79514285Y-86952380D01*
X79133333Y-86952380D01*
X79038095Y-87000000D01*
X78990476Y-87047619D01*
X78942857Y-87142857D01*
X78942857Y-87285714D01*
X78990476Y-87380952D01*
X79038095Y-87428571D01*
X79133333Y-87476190D01*
X79514285Y-87476190D01*
X77990476Y-87952380D02*
X78561904Y-87952380D01*
X78276190Y-87952380D02*
X78276190Y-86952380D01*
X78371428Y-87095238D01*
X78466666Y-87190476D01*
X78561904Y-87238095D01*
X77371428Y-86952380D02*
X77276190Y-86952380D01*
X77180952Y-87000000D01*
X77133333Y-87047619D01*
X77085714Y-87142857D01*
X77038095Y-87333333D01*
X77038095Y-87571428D01*
X77085714Y-87761904D01*
X77133333Y-87857142D01*
X77180952Y-87904761D01*
X77276190Y-87952380D01*
X77371428Y-87952380D01*
X77466666Y-87904761D01*
X77514285Y-87857142D01*
X77561904Y-87761904D01*
X77609523Y-87571428D01*
X77609523Y-87333333D01*
X77561904Y-87142857D01*
X77514285Y-87047619D01*
X77466666Y-87000000D01*
X77371428Y-86952380D01*
X54742857Y-82352380D02*
X55076190Y-81876190D01*
X55314285Y-82352380D02*
X55314285Y-81352380D01*
X54933333Y-81352380D01*
X54838095Y-81400000D01*
X54790476Y-81447619D01*
X54742857Y-81542857D01*
X54742857Y-81685714D01*
X54790476Y-81780952D01*
X54838095Y-81828571D01*
X54933333Y-81876190D01*
X55314285Y-81876190D01*
X53790476Y-82352380D02*
X54361904Y-82352380D01*
X54076190Y-82352380D02*
X54076190Y-81352380D01*
X54171428Y-81495238D01*
X54266666Y-81590476D01*
X54361904Y-81638095D01*
X52838095Y-82352380D02*
X53409523Y-82352380D01*
X53123809Y-82352380D02*
X53123809Y-81352380D01*
X53219047Y-81495238D01*
X53314285Y-81590476D01*
X53409523Y-81638095D01*
X78942857Y-81352380D02*
X79276190Y-80876190D01*
X79514285Y-81352380D02*
X79514285Y-80352380D01*
X79133333Y-80352380D01*
X79038095Y-80400000D01*
X78990476Y-80447619D01*
X78942857Y-80542857D01*
X78942857Y-80685714D01*
X78990476Y-80780952D01*
X79038095Y-80828571D01*
X79133333Y-80876190D01*
X79514285Y-80876190D01*
X77990476Y-81352380D02*
X78561904Y-81352380D01*
X78276190Y-81352380D02*
X78276190Y-80352380D01*
X78371428Y-80495238D01*
X78466666Y-80590476D01*
X78561904Y-80638095D01*
X77609523Y-80447619D02*
X77561904Y-80400000D01*
X77466666Y-80352380D01*
X77228571Y-80352380D01*
X77133333Y-80400000D01*
X77085714Y-80447619D01*
X77038095Y-80542857D01*
X77038095Y-80638095D01*
X77085714Y-80780952D01*
X77657142Y-81352380D01*
X77038095Y-81352380D01*
X73242857Y-76652380D02*
X73576190Y-76176190D01*
X73814285Y-76652380D02*
X73814285Y-75652380D01*
X73433333Y-75652380D01*
X73338095Y-75700000D01*
X73290476Y-75747619D01*
X73242857Y-75842857D01*
X73242857Y-75985714D01*
X73290476Y-76080952D01*
X73338095Y-76128571D01*
X73433333Y-76176190D01*
X73814285Y-76176190D01*
X72290476Y-76652380D02*
X72861904Y-76652380D01*
X72576190Y-76652380D02*
X72576190Y-75652380D01*
X72671428Y-75795238D01*
X72766666Y-75890476D01*
X72861904Y-75938095D01*
X71957142Y-75652380D02*
X71338095Y-75652380D01*
X71671428Y-76033333D01*
X71528571Y-76033333D01*
X71433333Y-76080952D01*
X71385714Y-76128571D01*
X71338095Y-76223809D01*
X71338095Y-76461904D01*
X71385714Y-76557142D01*
X71433333Y-76604761D01*
X71528571Y-76652380D01*
X71814285Y-76652380D01*
X71909523Y-76604761D01*
X71957142Y-76557142D01*
X97042857Y-76652380D02*
X97376190Y-76176190D01*
X97614285Y-76652380D02*
X97614285Y-75652380D01*
X97233333Y-75652380D01*
X97138095Y-75700000D01*
X97090476Y-75747619D01*
X97042857Y-75842857D01*
X97042857Y-75985714D01*
X97090476Y-76080952D01*
X97138095Y-76128571D01*
X97233333Y-76176190D01*
X97614285Y-76176190D01*
X96090476Y-76652380D02*
X96661904Y-76652380D01*
X96376190Y-76652380D02*
X96376190Y-75652380D01*
X96471428Y-75795238D01*
X96566666Y-75890476D01*
X96661904Y-75938095D01*
X95233333Y-75985714D02*
X95233333Y-76652380D01*
X95471428Y-75604761D02*
X95709523Y-76319047D01*
X95090476Y-76319047D01*
X73242857Y-78452380D02*
X73576190Y-77976190D01*
X73814285Y-78452380D02*
X73814285Y-77452380D01*
X73433333Y-77452380D01*
X73338095Y-77500000D01*
X73290476Y-77547619D01*
X73242857Y-77642857D01*
X73242857Y-77785714D01*
X73290476Y-77880952D01*
X73338095Y-77928571D01*
X73433333Y-77976190D01*
X73814285Y-77976190D01*
X72290476Y-78452380D02*
X72861904Y-78452380D01*
X72576190Y-78452380D02*
X72576190Y-77452380D01*
X72671428Y-77595238D01*
X72766666Y-77690476D01*
X72861904Y-77738095D01*
X71385714Y-77452380D02*
X71861904Y-77452380D01*
X71909523Y-77928571D01*
X71861904Y-77880952D01*
X71766666Y-77833333D01*
X71528571Y-77833333D01*
X71433333Y-77880952D01*
X71385714Y-77928571D01*
X71338095Y-78023809D01*
X71338095Y-78261904D01*
X71385714Y-78357142D01*
X71433333Y-78404761D01*
X71528571Y-78452380D01*
X71766666Y-78452380D01*
X71861904Y-78404761D01*
X71909523Y-78357142D01*
X97042857Y-78452380D02*
X97376190Y-77976190D01*
X97614285Y-78452380D02*
X97614285Y-77452380D01*
X97233333Y-77452380D01*
X97138095Y-77500000D01*
X97090476Y-77547619D01*
X97042857Y-77642857D01*
X97042857Y-77785714D01*
X97090476Y-77880952D01*
X97138095Y-77928571D01*
X97233333Y-77976190D01*
X97614285Y-77976190D01*
X96090476Y-78452380D02*
X96661904Y-78452380D01*
X96376190Y-78452380D02*
X96376190Y-77452380D01*
X96471428Y-77595238D01*
X96566666Y-77690476D01*
X96661904Y-77738095D01*
X95233333Y-77452380D02*
X95423809Y-77452380D01*
X95519047Y-77500000D01*
X95566666Y-77547619D01*
X95661904Y-77690476D01*
X95709523Y-77880952D01*
X95709523Y-78261904D01*
X95661904Y-78357142D01*
X95614285Y-78404761D01*
X95519047Y-78452380D01*
X95328571Y-78452380D01*
X95233333Y-78404761D01*
X95185714Y-78357142D01*
X95138095Y-78261904D01*
X95138095Y-78023809D01*
X95185714Y-77928571D01*
X95233333Y-77880952D01*
X95328571Y-77833333D01*
X95519047Y-77833333D01*
X95614285Y-77880952D01*
X95661904Y-77928571D01*
X95709523Y-78023809D01*
X73342857Y-73052380D02*
X73676190Y-72576190D01*
X73914285Y-73052380D02*
X73914285Y-72052380D01*
X73533333Y-72052380D01*
X73438095Y-72100000D01*
X73390476Y-72147619D01*
X73342857Y-72242857D01*
X73342857Y-72385714D01*
X73390476Y-72480952D01*
X73438095Y-72528571D01*
X73533333Y-72576190D01*
X73914285Y-72576190D01*
X72390476Y-73052380D02*
X72961904Y-73052380D01*
X72676190Y-73052380D02*
X72676190Y-72052380D01*
X72771428Y-72195238D01*
X72866666Y-72290476D01*
X72961904Y-72338095D01*
X72057142Y-72052380D02*
X71390476Y-72052380D01*
X71819047Y-73052380D01*
X96942857Y-72252380D02*
X97276190Y-71776190D01*
X97514285Y-72252380D02*
X97514285Y-71252380D01*
X97133333Y-71252380D01*
X97038095Y-71300000D01*
X96990476Y-71347619D01*
X96942857Y-71442857D01*
X96942857Y-71585714D01*
X96990476Y-71680952D01*
X97038095Y-71728571D01*
X97133333Y-71776190D01*
X97514285Y-71776190D01*
X95990476Y-72252380D02*
X96561904Y-72252380D01*
X96276190Y-72252380D02*
X96276190Y-71252380D01*
X96371428Y-71395238D01*
X96466666Y-71490476D01*
X96561904Y-71538095D01*
X95419047Y-71680952D02*
X95514285Y-71633333D01*
X95561904Y-71585714D01*
X95609523Y-71490476D01*
X95609523Y-71442857D01*
X95561904Y-71347619D01*
X95514285Y-71300000D01*
X95419047Y-71252380D01*
X95228571Y-71252380D01*
X95133333Y-71300000D01*
X95085714Y-71347619D01*
X95038095Y-71442857D01*
X95038095Y-71490476D01*
X95085714Y-71585714D01*
X95133333Y-71633333D01*
X95228571Y-71680952D01*
X95419047Y-71680952D01*
X95514285Y-71728571D01*
X95561904Y-71776190D01*
X95609523Y-71871428D01*
X95609523Y-72061904D01*
X95561904Y-72157142D01*
X95514285Y-72204761D01*
X95419047Y-72252380D01*
X95228571Y-72252380D01*
X95133333Y-72204761D01*
X95085714Y-72157142D01*
X95038095Y-72061904D01*
X95038095Y-71871428D01*
X95085714Y-71776190D01*
X95133333Y-71728571D01*
X95228571Y-71680952D01*
X55042857Y-76852380D02*
X55376190Y-76376190D01*
X55614285Y-76852380D02*
X55614285Y-75852380D01*
X55233333Y-75852380D01*
X55138095Y-75900000D01*
X55090476Y-75947619D01*
X55042857Y-76042857D01*
X55042857Y-76185714D01*
X55090476Y-76280952D01*
X55138095Y-76328571D01*
X55233333Y-76376190D01*
X55614285Y-76376190D01*
X54090476Y-76852380D02*
X54661904Y-76852380D01*
X54376190Y-76852380D02*
X54376190Y-75852380D01*
X54471428Y-75995238D01*
X54566666Y-76090476D01*
X54661904Y-76138095D01*
X53614285Y-76852380D02*
X53423809Y-76852380D01*
X53328571Y-76804761D01*
X53280952Y-76757142D01*
X53185714Y-76614285D01*
X53138095Y-76423809D01*
X53138095Y-76042857D01*
X53185714Y-75947619D01*
X53233333Y-75900000D01*
X53328571Y-75852380D01*
X53519047Y-75852380D01*
X53614285Y-75900000D01*
X53661904Y-75947619D01*
X53709523Y-76042857D01*
X53709523Y-76280952D01*
X53661904Y-76376190D01*
X53614285Y-76423809D01*
X53519047Y-76471428D01*
X53328571Y-76471428D01*
X53233333Y-76423809D01*
X53185714Y-76376190D01*
X53138095Y-76280952D01*
X78742857Y-76752380D02*
X79076190Y-76276190D01*
X79314285Y-76752380D02*
X79314285Y-75752380D01*
X78933333Y-75752380D01*
X78838095Y-75800000D01*
X78790476Y-75847619D01*
X78742857Y-75942857D01*
X78742857Y-76085714D01*
X78790476Y-76180952D01*
X78838095Y-76228571D01*
X78933333Y-76276190D01*
X79314285Y-76276190D01*
X78361904Y-75847619D02*
X78314285Y-75800000D01*
X78219047Y-75752380D01*
X77980952Y-75752380D01*
X77885714Y-75800000D01*
X77838095Y-75847619D01*
X77790476Y-75942857D01*
X77790476Y-76038095D01*
X77838095Y-76180952D01*
X78409523Y-76752380D01*
X77790476Y-76752380D01*
X77171428Y-75752380D02*
X77076190Y-75752380D01*
X76980952Y-75800000D01*
X76933333Y-75847619D01*
X76885714Y-75942857D01*
X76838095Y-76133333D01*
X76838095Y-76371428D01*
X76885714Y-76561904D01*
X76933333Y-76657142D01*
X76980952Y-76704761D01*
X77076190Y-76752380D01*
X77171428Y-76752380D01*
X77266666Y-76704761D01*
X77314285Y-76657142D01*
X77361904Y-76561904D01*
X77409523Y-76371428D01*
X77409523Y-76133333D01*
X77361904Y-75942857D01*
X77314285Y-75847619D01*
X77266666Y-75800000D01*
X77171428Y-75752380D01*
X67042857Y-123052380D02*
X67376190Y-122576190D01*
X67614285Y-123052380D02*
X67614285Y-122052380D01*
X67233333Y-122052380D01*
X67138095Y-122100000D01*
X67090476Y-122147619D01*
X67042857Y-122242857D01*
X67042857Y-122385714D01*
X67090476Y-122480952D01*
X67138095Y-122528571D01*
X67233333Y-122576190D01*
X67614285Y-122576190D01*
X66661904Y-122147619D02*
X66614285Y-122100000D01*
X66519047Y-122052380D01*
X66280952Y-122052380D01*
X66185714Y-122100000D01*
X66138095Y-122147619D01*
X66090476Y-122242857D01*
X66090476Y-122338095D01*
X66138095Y-122480952D01*
X66709523Y-123052380D01*
X66090476Y-123052380D01*
X65138095Y-123052380D02*
X65709523Y-123052380D01*
X65423809Y-123052380D02*
X65423809Y-122052380D01*
X65519047Y-122195238D01*
X65614285Y-122290476D01*
X65709523Y-122338095D01*
X67042857Y-115352380D02*
X67376190Y-114876190D01*
X67614285Y-115352380D02*
X67614285Y-114352380D01*
X67233333Y-114352380D01*
X67138095Y-114400000D01*
X67090476Y-114447619D01*
X67042857Y-114542857D01*
X67042857Y-114685714D01*
X67090476Y-114780952D01*
X67138095Y-114828571D01*
X67233333Y-114876190D01*
X67614285Y-114876190D01*
X66661904Y-114447619D02*
X66614285Y-114400000D01*
X66519047Y-114352380D01*
X66280952Y-114352380D01*
X66185714Y-114400000D01*
X66138095Y-114447619D01*
X66090476Y-114542857D01*
X66090476Y-114638095D01*
X66138095Y-114780952D01*
X66709523Y-115352380D01*
X66090476Y-115352380D01*
X65709523Y-114447619D02*
X65661904Y-114400000D01*
X65566666Y-114352380D01*
X65328571Y-114352380D01*
X65233333Y-114400000D01*
X65185714Y-114447619D01*
X65138095Y-114542857D01*
X65138095Y-114638095D01*
X65185714Y-114780952D01*
X65757142Y-115352380D01*
X65138095Y-115352380D01*
X67042857Y-117952380D02*
X67376190Y-117476190D01*
X67614285Y-117952380D02*
X67614285Y-116952380D01*
X67233333Y-116952380D01*
X67138095Y-117000000D01*
X67090476Y-117047619D01*
X67042857Y-117142857D01*
X67042857Y-117285714D01*
X67090476Y-117380952D01*
X67138095Y-117428571D01*
X67233333Y-117476190D01*
X67614285Y-117476190D01*
X66661904Y-117047619D02*
X66614285Y-117000000D01*
X66519047Y-116952380D01*
X66280952Y-116952380D01*
X66185714Y-117000000D01*
X66138095Y-117047619D01*
X66090476Y-117142857D01*
X66090476Y-117238095D01*
X66138095Y-117380952D01*
X66709523Y-117952380D01*
X66090476Y-117952380D01*
X65757142Y-116952380D02*
X65138095Y-116952380D01*
X65471428Y-117333333D01*
X65328571Y-117333333D01*
X65233333Y-117380952D01*
X65185714Y-117428571D01*
X65138095Y-117523809D01*
X65138095Y-117761904D01*
X65185714Y-117857142D01*
X65233333Y-117904761D01*
X65328571Y-117952380D01*
X65614285Y-117952380D01*
X65709523Y-117904761D01*
X65757142Y-117857142D01*
X67042857Y-120552380D02*
X67376190Y-120076190D01*
X67614285Y-120552380D02*
X67614285Y-119552380D01*
X67233333Y-119552380D01*
X67138095Y-119600000D01*
X67090476Y-119647619D01*
X67042857Y-119742857D01*
X67042857Y-119885714D01*
X67090476Y-119980952D01*
X67138095Y-120028571D01*
X67233333Y-120076190D01*
X67614285Y-120076190D01*
X66661904Y-119647619D02*
X66614285Y-119600000D01*
X66519047Y-119552380D01*
X66280952Y-119552380D01*
X66185714Y-119600000D01*
X66138095Y-119647619D01*
X66090476Y-119742857D01*
X66090476Y-119838095D01*
X66138095Y-119980952D01*
X66709523Y-120552380D01*
X66090476Y-120552380D01*
X65233333Y-119885714D02*
X65233333Y-120552380D01*
X65471428Y-119504761D02*
X65709523Y-120219047D01*
X65090476Y-120219047D01*
X67042857Y-105252380D02*
X67376190Y-104776190D01*
X67614285Y-105252380D02*
X67614285Y-104252380D01*
X67233333Y-104252380D01*
X67138095Y-104300000D01*
X67090476Y-104347619D01*
X67042857Y-104442857D01*
X67042857Y-104585714D01*
X67090476Y-104680952D01*
X67138095Y-104728571D01*
X67233333Y-104776190D01*
X67614285Y-104776190D01*
X66661904Y-104347619D02*
X66614285Y-104300000D01*
X66519047Y-104252380D01*
X66280952Y-104252380D01*
X66185714Y-104300000D01*
X66138095Y-104347619D01*
X66090476Y-104442857D01*
X66090476Y-104538095D01*
X66138095Y-104680952D01*
X66709523Y-105252380D01*
X66090476Y-105252380D01*
X65185714Y-104252380D02*
X65661904Y-104252380D01*
X65709523Y-104728571D01*
X65661904Y-104680952D01*
X65566666Y-104633333D01*
X65328571Y-104633333D01*
X65233333Y-104680952D01*
X65185714Y-104728571D01*
X65138095Y-104823809D01*
X65138095Y-105061904D01*
X65185714Y-105157142D01*
X65233333Y-105204761D01*
X65328571Y-105252380D01*
X65566666Y-105252380D01*
X65661904Y-105204761D01*
X65709523Y-105157142D01*
X67042857Y-107852380D02*
X67376190Y-107376190D01*
X67614285Y-107852380D02*
X67614285Y-106852380D01*
X67233333Y-106852380D01*
X67138095Y-106900000D01*
X67090476Y-106947619D01*
X67042857Y-107042857D01*
X67042857Y-107185714D01*
X67090476Y-107280952D01*
X67138095Y-107328571D01*
X67233333Y-107376190D01*
X67614285Y-107376190D01*
X66661904Y-106947619D02*
X66614285Y-106900000D01*
X66519047Y-106852380D01*
X66280952Y-106852380D01*
X66185714Y-106900000D01*
X66138095Y-106947619D01*
X66090476Y-107042857D01*
X66090476Y-107138095D01*
X66138095Y-107280952D01*
X66709523Y-107852380D01*
X66090476Y-107852380D01*
X65233333Y-106852380D02*
X65423809Y-106852380D01*
X65519047Y-106900000D01*
X65566666Y-106947619D01*
X65661904Y-107090476D01*
X65709523Y-107280952D01*
X65709523Y-107661904D01*
X65661904Y-107757142D01*
X65614285Y-107804761D01*
X65519047Y-107852380D01*
X65328571Y-107852380D01*
X65233333Y-107804761D01*
X65185714Y-107757142D01*
X65138095Y-107661904D01*
X65138095Y-107423809D01*
X65185714Y-107328571D01*
X65233333Y-107280952D01*
X65328571Y-107233333D01*
X65519047Y-107233333D01*
X65614285Y-107280952D01*
X65661904Y-107328571D01*
X65709523Y-107423809D01*
X55142857Y-79052380D02*
X55476190Y-78576190D01*
X55714285Y-79052380D02*
X55714285Y-78052380D01*
X55333333Y-78052380D01*
X55238095Y-78100000D01*
X55190476Y-78147619D01*
X55142857Y-78242857D01*
X55142857Y-78385714D01*
X55190476Y-78480952D01*
X55238095Y-78528571D01*
X55333333Y-78576190D01*
X55714285Y-78576190D01*
X54761904Y-78147619D02*
X54714285Y-78100000D01*
X54619047Y-78052380D01*
X54380952Y-78052380D01*
X54285714Y-78100000D01*
X54238095Y-78147619D01*
X54190476Y-78242857D01*
X54190476Y-78338095D01*
X54238095Y-78480952D01*
X54809523Y-79052380D01*
X54190476Y-79052380D01*
X53857142Y-78052380D02*
X53190476Y-78052380D01*
X53619047Y-79052380D01*
X78742857Y-78452380D02*
X79076190Y-77976190D01*
X79314285Y-78452380D02*
X79314285Y-77452380D01*
X78933333Y-77452380D01*
X78838095Y-77500000D01*
X78790476Y-77547619D01*
X78742857Y-77642857D01*
X78742857Y-77785714D01*
X78790476Y-77880952D01*
X78838095Y-77928571D01*
X78933333Y-77976190D01*
X79314285Y-77976190D01*
X78361904Y-77547619D02*
X78314285Y-77500000D01*
X78219047Y-77452380D01*
X77980952Y-77452380D01*
X77885714Y-77500000D01*
X77838095Y-77547619D01*
X77790476Y-77642857D01*
X77790476Y-77738095D01*
X77838095Y-77880952D01*
X78409523Y-78452380D01*
X77790476Y-78452380D01*
X77219047Y-77880952D02*
X77314285Y-77833333D01*
X77361904Y-77785714D01*
X77409523Y-77690476D01*
X77409523Y-77642857D01*
X77361904Y-77547619D01*
X77314285Y-77500000D01*
X77219047Y-77452380D01*
X77028571Y-77452380D01*
X76933333Y-77500000D01*
X76885714Y-77547619D01*
X76838095Y-77642857D01*
X76838095Y-77690476D01*
X76885714Y-77785714D01*
X76933333Y-77833333D01*
X77028571Y-77880952D01*
X77219047Y-77880952D01*
X77314285Y-77928571D01*
X77361904Y-77976190D01*
X77409523Y-78071428D01*
X77409523Y-78261904D01*
X77361904Y-78357142D01*
X77314285Y-78404761D01*
X77219047Y-78452380D01*
X77028571Y-78452380D01*
X76933333Y-78404761D01*
X76885714Y-78357142D01*
X76838095Y-78261904D01*
X76838095Y-78071428D01*
X76885714Y-77976190D01*
X76933333Y-77928571D01*
X77028571Y-77880952D01*
X55142857Y-72152380D02*
X55476190Y-71676190D01*
X55714285Y-72152380D02*
X55714285Y-71152380D01*
X55333333Y-71152380D01*
X55238095Y-71200000D01*
X55190476Y-71247619D01*
X55142857Y-71342857D01*
X55142857Y-71485714D01*
X55190476Y-71580952D01*
X55238095Y-71628571D01*
X55333333Y-71676190D01*
X55714285Y-71676190D01*
X54761904Y-71247619D02*
X54714285Y-71200000D01*
X54619047Y-71152380D01*
X54380952Y-71152380D01*
X54285714Y-71200000D01*
X54238095Y-71247619D01*
X54190476Y-71342857D01*
X54190476Y-71438095D01*
X54238095Y-71580952D01*
X54809523Y-72152380D01*
X54190476Y-72152380D01*
X53714285Y-72152380D02*
X53523809Y-72152380D01*
X53428571Y-72104761D01*
X53380952Y-72057142D01*
X53285714Y-71914285D01*
X53238095Y-71723809D01*
X53238095Y-71342857D01*
X53285714Y-71247619D01*
X53333333Y-71200000D01*
X53428571Y-71152380D01*
X53619047Y-71152380D01*
X53714285Y-71200000D01*
X53761904Y-71247619D01*
X53809523Y-71342857D01*
X53809523Y-71580952D01*
X53761904Y-71676190D01*
X53714285Y-71723809D01*
X53619047Y-71771428D01*
X53428571Y-71771428D01*
X53333333Y-71723809D01*
X53285714Y-71676190D01*
X53238095Y-71580952D01*
X78842857Y-72252380D02*
X79176190Y-71776190D01*
X79414285Y-72252380D02*
X79414285Y-71252380D01*
X79033333Y-71252380D01*
X78938095Y-71300000D01*
X78890476Y-71347619D01*
X78842857Y-71442857D01*
X78842857Y-71585714D01*
X78890476Y-71680952D01*
X78938095Y-71728571D01*
X79033333Y-71776190D01*
X79414285Y-71776190D01*
X78509523Y-71252380D02*
X77890476Y-71252380D01*
X78223809Y-71633333D01*
X78080952Y-71633333D01*
X77985714Y-71680952D01*
X77938095Y-71728571D01*
X77890476Y-71823809D01*
X77890476Y-72061904D01*
X77938095Y-72157142D01*
X77985714Y-72204761D01*
X78080952Y-72252380D01*
X78366666Y-72252380D01*
X78461904Y-72204761D01*
X78509523Y-72157142D01*
X77271428Y-71252380D02*
X77176190Y-71252380D01*
X77080952Y-71300000D01*
X77033333Y-71347619D01*
X76985714Y-71442857D01*
X76938095Y-71633333D01*
X76938095Y-71871428D01*
X76985714Y-72061904D01*
X77033333Y-72157142D01*
X77080952Y-72204761D01*
X77176190Y-72252380D01*
X77271428Y-72252380D01*
X77366666Y-72204761D01*
X77414285Y-72157142D01*
X77461904Y-72061904D01*
X77509523Y-71871428D01*
X77509523Y-71633333D01*
X77461904Y-71442857D01*
X77414285Y-71347619D01*
X77366666Y-71300000D01*
X77271428Y-71252380D01*
X84342857Y-96652380D02*
X84676190Y-96176190D01*
X84914285Y-96652380D02*
X84914285Y-95652380D01*
X84533333Y-95652380D01*
X84438095Y-95700000D01*
X84390476Y-95747619D01*
X84342857Y-95842857D01*
X84342857Y-95985714D01*
X84390476Y-96080952D01*
X84438095Y-96128571D01*
X84533333Y-96176190D01*
X84914285Y-96176190D01*
X84009523Y-95652380D02*
X83390476Y-95652380D01*
X83723809Y-96033333D01*
X83580952Y-96033333D01*
X83485714Y-96080952D01*
X83438095Y-96128571D01*
X83390476Y-96223809D01*
X83390476Y-96461904D01*
X83438095Y-96557142D01*
X83485714Y-96604761D01*
X83580952Y-96652380D01*
X83866666Y-96652380D01*
X83961904Y-96604761D01*
X84009523Y-96557142D01*
X82438095Y-96652380D02*
X83009523Y-96652380D01*
X82723809Y-96652380D02*
X82723809Y-95652380D01*
X82819047Y-95795238D01*
X82914285Y-95890476D01*
X83009523Y-95938095D01*
X86142857Y-98352380D02*
X86476190Y-97876190D01*
X86714285Y-98352380D02*
X86714285Y-97352380D01*
X86333333Y-97352380D01*
X86238095Y-97400000D01*
X86190476Y-97447619D01*
X86142857Y-97542857D01*
X86142857Y-97685714D01*
X86190476Y-97780952D01*
X86238095Y-97828571D01*
X86333333Y-97876190D01*
X86714285Y-97876190D01*
X85809523Y-97352380D02*
X85190476Y-97352380D01*
X85523809Y-97733333D01*
X85380952Y-97733333D01*
X85285714Y-97780952D01*
X85238095Y-97828571D01*
X85190476Y-97923809D01*
X85190476Y-98161904D01*
X85238095Y-98257142D01*
X85285714Y-98304761D01*
X85380952Y-98352380D01*
X85666666Y-98352380D01*
X85761904Y-98304761D01*
X85809523Y-98257142D01*
X84809523Y-97447619D02*
X84761904Y-97400000D01*
X84666666Y-97352380D01*
X84428571Y-97352380D01*
X84333333Y-97400000D01*
X84285714Y-97447619D01*
X84238095Y-97542857D01*
X84238095Y-97638095D01*
X84285714Y-97780952D01*
X84857142Y-98352380D01*
X84238095Y-98352380D01*
X57042857Y-135752380D02*
X57376190Y-135276190D01*
X57614285Y-135752380D02*
X57614285Y-134752380D01*
X57233333Y-134752380D01*
X57138095Y-134800000D01*
X57090476Y-134847619D01*
X57042857Y-134942857D01*
X57042857Y-135085714D01*
X57090476Y-135180952D01*
X57138095Y-135228571D01*
X57233333Y-135276190D01*
X57614285Y-135276190D01*
X56709523Y-134752380D02*
X56090476Y-134752380D01*
X56423809Y-135133333D01*
X56280952Y-135133333D01*
X56185714Y-135180952D01*
X56138095Y-135228571D01*
X56090476Y-135323809D01*
X56090476Y-135561904D01*
X56138095Y-135657142D01*
X56185714Y-135704761D01*
X56280952Y-135752380D01*
X56566666Y-135752380D01*
X56661904Y-135704761D01*
X56709523Y-135657142D01*
X55757142Y-134752380D02*
X55138095Y-134752380D01*
X55471428Y-135133333D01*
X55328571Y-135133333D01*
X55233333Y-135180952D01*
X55185714Y-135228571D01*
X55138095Y-135323809D01*
X55138095Y-135561904D01*
X55185714Y-135657142D01*
X55233333Y-135704761D01*
X55328571Y-135752380D01*
X55614285Y-135752380D01*
X55709523Y-135704761D01*
X55757142Y-135657142D01*
X56442857Y-139252380D02*
X56776190Y-138776190D01*
X57014285Y-139252380D02*
X57014285Y-138252380D01*
X56633333Y-138252380D01*
X56538095Y-138300000D01*
X56490476Y-138347619D01*
X56442857Y-138442857D01*
X56442857Y-138585714D01*
X56490476Y-138680952D01*
X56538095Y-138728571D01*
X56633333Y-138776190D01*
X57014285Y-138776190D01*
X56109523Y-138252380D02*
X55490476Y-138252380D01*
X55823809Y-138633333D01*
X55680952Y-138633333D01*
X55585714Y-138680952D01*
X55538095Y-138728571D01*
X55490476Y-138823809D01*
X55490476Y-139061904D01*
X55538095Y-139157142D01*
X55585714Y-139204761D01*
X55680952Y-139252380D01*
X55966666Y-139252380D01*
X56061904Y-139204761D01*
X56109523Y-139157142D01*
X54633333Y-138585714D02*
X54633333Y-139252380D01*
X54871428Y-138204761D02*
X55109523Y-138919047D01*
X54490476Y-138919047D01*
X56942857Y-128252380D02*
X57276190Y-127776190D01*
X57514285Y-128252380D02*
X57514285Y-127252380D01*
X57133333Y-127252380D01*
X57038095Y-127300000D01*
X56990476Y-127347619D01*
X56942857Y-127442857D01*
X56942857Y-127585714D01*
X56990476Y-127680952D01*
X57038095Y-127728571D01*
X57133333Y-127776190D01*
X57514285Y-127776190D01*
X56609523Y-127252380D02*
X55990476Y-127252380D01*
X56323809Y-127633333D01*
X56180952Y-127633333D01*
X56085714Y-127680952D01*
X56038095Y-127728571D01*
X55990476Y-127823809D01*
X55990476Y-128061904D01*
X56038095Y-128157142D01*
X56085714Y-128204761D01*
X56180952Y-128252380D01*
X56466666Y-128252380D01*
X56561904Y-128204761D01*
X56609523Y-128157142D01*
X55085714Y-127252380D02*
X55561904Y-127252380D01*
X55609523Y-127728571D01*
X55561904Y-127680952D01*
X55466666Y-127633333D01*
X55228571Y-127633333D01*
X55133333Y-127680952D01*
X55085714Y-127728571D01*
X55038095Y-127823809D01*
X55038095Y-128061904D01*
X55085714Y-128157142D01*
X55133333Y-128204761D01*
X55228571Y-128252380D01*
X55466666Y-128252380D01*
X55561904Y-128204761D01*
X55609523Y-128157142D01*
X56942857Y-130652380D02*
X57276190Y-130176190D01*
X57514285Y-130652380D02*
X57514285Y-129652380D01*
X57133333Y-129652380D01*
X57038095Y-129700000D01*
X56990476Y-129747619D01*
X56942857Y-129842857D01*
X56942857Y-129985714D01*
X56990476Y-130080952D01*
X57038095Y-130128571D01*
X57133333Y-130176190D01*
X57514285Y-130176190D01*
X56609523Y-129652380D02*
X55990476Y-129652380D01*
X56323809Y-130033333D01*
X56180952Y-130033333D01*
X56085714Y-130080952D01*
X56038095Y-130128571D01*
X55990476Y-130223809D01*
X55990476Y-130461904D01*
X56038095Y-130557142D01*
X56085714Y-130604761D01*
X56180952Y-130652380D01*
X56466666Y-130652380D01*
X56561904Y-130604761D01*
X56609523Y-130557142D01*
X55133333Y-129652380D02*
X55323809Y-129652380D01*
X55419047Y-129700000D01*
X55466666Y-129747619D01*
X55561904Y-129890476D01*
X55609523Y-130080952D01*
X55609523Y-130461904D01*
X55561904Y-130557142D01*
X55514285Y-130604761D01*
X55419047Y-130652380D01*
X55228571Y-130652380D01*
X55133333Y-130604761D01*
X55085714Y-130557142D01*
X55038095Y-130461904D01*
X55038095Y-130223809D01*
X55085714Y-130128571D01*
X55133333Y-130080952D01*
X55228571Y-130033333D01*
X55419047Y-130033333D01*
X55514285Y-130080952D01*
X55561904Y-130128571D01*
X55609523Y-130223809D01*
X56942857Y-133152380D02*
X57276190Y-132676190D01*
X57514285Y-133152380D02*
X57514285Y-132152380D01*
X57133333Y-132152380D01*
X57038095Y-132200000D01*
X56990476Y-132247619D01*
X56942857Y-132342857D01*
X56942857Y-132485714D01*
X56990476Y-132580952D01*
X57038095Y-132628571D01*
X57133333Y-132676190D01*
X57514285Y-132676190D01*
X56609523Y-132152380D02*
X55990476Y-132152380D01*
X56323809Y-132533333D01*
X56180952Y-132533333D01*
X56085714Y-132580952D01*
X56038095Y-132628571D01*
X55990476Y-132723809D01*
X55990476Y-132961904D01*
X56038095Y-133057142D01*
X56085714Y-133104761D01*
X56180952Y-133152380D01*
X56466666Y-133152380D01*
X56561904Y-133104761D01*
X56609523Y-133057142D01*
X55657142Y-132152380D02*
X54990476Y-132152380D01*
X55419047Y-133152380D01*
X62661904Y-87352380D02*
X62661904Y-88161904D01*
X62614285Y-88257142D01*
X62566666Y-88304761D01*
X62471428Y-88352380D01*
X62280952Y-88352380D01*
X62185714Y-88304761D01*
X62138095Y-88257142D01*
X62090476Y-88161904D01*
X62090476Y-87352380D01*
X61661904Y-87447619D02*
X61614285Y-87400000D01*
X61519047Y-87352380D01*
X61280952Y-87352380D01*
X61185714Y-87400000D01*
X61138095Y-87447619D01*
X61090476Y-87542857D01*
X61090476Y-87638095D01*
X61138095Y-87780952D01*
X61709523Y-88352380D01*
X61090476Y-88352380D01*
X65861904Y-71052380D02*
X65861904Y-71861904D01*
X65814285Y-71957142D01*
X65766666Y-72004761D01*
X65671428Y-72052380D01*
X65480952Y-72052380D01*
X65385714Y-72004761D01*
X65338095Y-71957142D01*
X65290476Y-71861904D01*
X65290476Y-71052380D01*
X64909523Y-71052380D02*
X64290476Y-71052380D01*
X64623809Y-71433333D01*
X64480952Y-71433333D01*
X64385714Y-71480952D01*
X64338095Y-71528571D01*
X64290476Y-71623809D01*
X64290476Y-71861904D01*
X64338095Y-71957142D01*
X64385714Y-72004761D01*
X64480952Y-72052380D01*
X64766666Y-72052380D01*
X64861904Y-72004761D01*
X64909523Y-71957142D01*
X85761904Y-87252380D02*
X85761904Y-88061904D01*
X85714285Y-88157142D01*
X85666666Y-88204761D01*
X85571428Y-88252380D01*
X85380952Y-88252380D01*
X85285714Y-88204761D01*
X85238095Y-88157142D01*
X85190476Y-88061904D01*
X85190476Y-87252380D01*
X84285714Y-87585714D02*
X84285714Y-88252380D01*
X84523809Y-87204761D02*
X84761904Y-87919047D01*
X84142857Y-87919047D01*
X89661904Y-71052380D02*
X89661904Y-71861904D01*
X89614285Y-71957142D01*
X89566666Y-72004761D01*
X89471428Y-72052380D01*
X89280952Y-72052380D01*
X89185714Y-72004761D01*
X89138095Y-71957142D01*
X89090476Y-71861904D01*
X89090476Y-71052380D01*
X88138095Y-71052380D02*
X88614285Y-71052380D01*
X88661904Y-71528571D01*
X88614285Y-71480952D01*
X88519047Y-71433333D01*
X88280952Y-71433333D01*
X88185714Y-71480952D01*
X88138095Y-71528571D01*
X88090476Y-71623809D01*
X88090476Y-71861904D01*
X88138095Y-71957142D01*
X88185714Y-72004761D01*
X88280952Y-72052380D01*
X88519047Y-72052380D01*
X88614285Y-72004761D01*
X88661904Y-71957142D01*
M02*
