G04 #@! TF.GenerationSoftware,KiCad,Pcbnew,(5.1.4)-1*
G04 #@! TF.CreationDate,2020-06-25T03:09:23+09:00*
G04 #@! TF.ProjectId,voice-dg,766f6963-652d-4646-972e-6b696361645f,rev?*
G04 #@! TF.SameCoordinates,Original*
G04 #@! TF.FileFunction,Legend,Top*
G04 #@! TF.FilePolarity,Positive*
%FSLAX46Y46*%
G04 Gerber Fmt 4.6, Leading zero omitted, Abs format (unit mm)*
G04 Created by KiCad (PCBNEW (5.1.4)-1) date 2020-06-25 03:09:23*
%MOMM*%
%LPD*%
G04 APERTURE LIST*
%ADD10C,0.300000*%
G04 APERTURE END LIST*
D10*
X60604761Y-59254761D02*
X60604761Y-57254761D01*
X61080952Y-57254761D01*
X61366666Y-57350000D01*
X61557142Y-57540476D01*
X61652380Y-57730952D01*
X61747619Y-58111904D01*
X61747619Y-58397619D01*
X61652380Y-58778571D01*
X61557142Y-58969047D01*
X61366666Y-59159523D01*
X61080952Y-59254761D01*
X60604761Y-59254761D01*
X63652380Y-57350000D02*
X63461904Y-57254761D01*
X63176190Y-57254761D01*
X62890476Y-57350000D01*
X62700000Y-57540476D01*
X62604761Y-57730952D01*
X62509523Y-58111904D01*
X62509523Y-58397619D01*
X62604761Y-58778571D01*
X62700000Y-58969047D01*
X62890476Y-59159523D01*
X63176190Y-59254761D01*
X63366666Y-59254761D01*
X63652380Y-59159523D01*
X63747619Y-59064285D01*
X63747619Y-58397619D01*
X63366666Y-58397619D01*
X65842857Y-57254761D02*
X66509523Y-59254761D01*
X67176190Y-57254761D01*
X68223809Y-57254761D02*
X68604761Y-57254761D01*
X68795238Y-57350000D01*
X68985714Y-57540476D01*
X69080952Y-57921428D01*
X69080952Y-58588095D01*
X68985714Y-58969047D01*
X68795238Y-59159523D01*
X68604761Y-59254761D01*
X68223809Y-59254761D01*
X68033333Y-59159523D01*
X67842857Y-58969047D01*
X67747619Y-58588095D01*
X67747619Y-57921428D01*
X67842857Y-57540476D01*
X68033333Y-57350000D01*
X68223809Y-57254761D01*
X69938095Y-59254761D02*
X69938095Y-57254761D01*
X72033333Y-59064285D02*
X71938095Y-59159523D01*
X71652380Y-59254761D01*
X71461904Y-59254761D01*
X71176190Y-59159523D01*
X70985714Y-58969047D01*
X70890476Y-58778571D01*
X70795238Y-58397619D01*
X70795238Y-58111904D01*
X70890476Y-57730952D01*
X70985714Y-57540476D01*
X71176190Y-57350000D01*
X71461904Y-57254761D01*
X71652380Y-57254761D01*
X71938095Y-57350000D01*
X72033333Y-57445238D01*
X72890476Y-58207142D02*
X73557142Y-58207142D01*
X73842857Y-59254761D02*
X72890476Y-59254761D01*
X72890476Y-57254761D01*
X73842857Y-57254761D01*
X76128571Y-57159523D02*
X74414285Y-59730952D01*
X77461904Y-58207142D02*
X76795238Y-58207142D01*
X76795238Y-59254761D02*
X76795238Y-57254761D01*
X77747619Y-57254761D01*
X78319047Y-57254761D02*
X79652380Y-59254761D01*
X79652380Y-57254761D02*
X78319047Y-59254761D01*
X82604761Y-58207142D02*
X82890476Y-58302380D01*
X82985714Y-58397619D01*
X83080952Y-58588095D01*
X83080952Y-58873809D01*
X82985714Y-59064285D01*
X82890476Y-59159523D01*
X82700000Y-59254761D01*
X81938095Y-59254761D01*
X81938095Y-57254761D01*
X82604761Y-57254761D01*
X82795238Y-57350000D01*
X82890476Y-57445238D01*
X82985714Y-57635714D01*
X82985714Y-57826190D01*
X82890476Y-58016666D01*
X82795238Y-58111904D01*
X82604761Y-58207142D01*
X81938095Y-58207142D01*
X84319047Y-57254761D02*
X84700000Y-57254761D01*
X84890476Y-57350000D01*
X85080952Y-57540476D01*
X85176190Y-57921428D01*
X85176190Y-58588095D01*
X85080952Y-58969047D01*
X84890476Y-59159523D01*
X84700000Y-59254761D01*
X84319047Y-59254761D01*
X84128571Y-59159523D01*
X83938095Y-58969047D01*
X83842857Y-58588095D01*
X83842857Y-57921428D01*
X83938095Y-57540476D01*
X84128571Y-57350000D01*
X84319047Y-57254761D01*
X85938095Y-58683333D02*
X86890476Y-58683333D01*
X85747619Y-59254761D02*
X86414285Y-57254761D01*
X87080952Y-59254761D01*
X88890476Y-59254761D02*
X88223809Y-58302380D01*
X87747619Y-59254761D02*
X87747619Y-57254761D01*
X88509523Y-57254761D01*
X88699999Y-57350000D01*
X88795238Y-57445238D01*
X88890476Y-57635714D01*
X88890476Y-57921428D01*
X88795238Y-58111904D01*
X88699999Y-58207142D01*
X88509523Y-58302380D01*
X87747619Y-58302380D01*
X89747619Y-59254761D02*
X89747619Y-57254761D01*
X90223809Y-57254761D01*
X90509523Y-57350000D01*
X90699999Y-57540476D01*
X90795238Y-57730952D01*
X90890476Y-58111904D01*
X90890476Y-58397619D01*
X90795238Y-58778571D01*
X90699999Y-58969047D01*
X90509523Y-59159523D01*
X90223809Y-59254761D01*
X89747619Y-59254761D01*
X70604761Y-61221428D02*
X71080952Y-62554761D01*
X71557142Y-61221428D01*
X73080952Y-62459523D02*
X72890476Y-62554761D01*
X72509523Y-62554761D01*
X72319047Y-62459523D01*
X72223809Y-62269047D01*
X72223809Y-61507142D01*
X72319047Y-61316666D01*
X72509523Y-61221428D01*
X72890476Y-61221428D01*
X73080952Y-61316666D01*
X73176190Y-61507142D01*
X73176190Y-61697619D01*
X72223809Y-61888095D01*
X74033333Y-62554761D02*
X74033333Y-61221428D01*
X74033333Y-61602380D02*
X74128571Y-61411904D01*
X74223809Y-61316666D01*
X74414285Y-61221428D01*
X74604761Y-61221428D01*
X77176190Y-60554761D02*
X77366666Y-60554761D01*
X77557142Y-60650000D01*
X77652380Y-60745238D01*
X77747619Y-60935714D01*
X77842857Y-61316666D01*
X77842857Y-61792857D01*
X77747619Y-62173809D01*
X77652380Y-62364285D01*
X77557142Y-62459523D01*
X77366666Y-62554761D01*
X77176190Y-62554761D01*
X76985714Y-62459523D01*
X76890476Y-62364285D01*
X76795238Y-62173809D01*
X76700000Y-61792857D01*
X76700000Y-61316666D01*
X76795238Y-60935714D01*
X76890476Y-60745238D01*
X76985714Y-60650000D01*
X77176190Y-60554761D01*
X78700000Y-62364285D02*
X78795238Y-62459523D01*
X78700000Y-62554761D01*
X78604761Y-62459523D01*
X78700000Y-62364285D01*
X78700000Y-62554761D01*
X80700000Y-62554761D02*
X79557142Y-62554761D01*
X80128571Y-62554761D02*
X80128571Y-60554761D01*
X79938095Y-60840476D01*
X79747619Y-61030952D01*
X79557142Y-61126190D01*
M02*
