M48
; DRILL file {KiCad (5.1.4)-1} date 2020/06/25 3:09:25
; FORMAT={-:-/ absolute / inch / decimal}
; #@! TF.CreationDate,2020-06-25T03:09:25+09:00
; #@! TF.GenerationSoftware,Kicad,Pcbnew,(5.1.4)-1
; #@! TF.FileFunction,Plated,1,2,PTH
FMAT,2
INCH
T1C0.0118
T2C0.0236
T3C0.0256
T4C0.0400
T5C0.1260
%
G90
G05
T1
X2.0079Y-2.4803
X2.0079Y-2.7953
X2.0079Y-3.0709
X2.0079Y-3.3465
X2.0079Y-3.622
X2.0079Y-3.8976
X2.0079Y-4.252
X2.0079Y-4.6457
X2.0079Y-4.9606
X2.0079Y-5.5118
X2.0079Y-5.8465
X2.0079Y-6.1614
X2.0079Y-6.4764
X2.0079Y-6.5945
X2.0118Y-4.1457
X2.0512Y-5.689
X2.0709Y-3.2205
X2.0748Y-3.2717
X2.1181Y-2.8583
X2.1181Y-3.9252
X2.126Y-5.4921
X2.126Y-5.6496
X2.1504Y-5.0268
X2.1535Y-3.2559
X2.1535Y-5.126
X2.1575Y-3.0512
X2.1575Y-5.2244
X2.1575Y-5.3228
X2.1575Y-5.4252
X2.1654Y-3.1693
X2.189Y-2.8583
X2.1929Y-3.2244
X2.2047Y-6.5945
X2.2244Y-5.0787
X2.2244Y-5.1772
X2.2244Y-5.1772
X2.2244Y-5.2756
X2.2425Y-5.4268
X2.2441Y-5.374
X2.2638Y-4.252
X2.2638Y-4.6457
X2.2638Y-4.9606
X2.2717Y-3.8819
X2.2717Y-3.9685
X2.2717Y-4.1457
X2.3268Y-3.1693
X2.3425Y-5.6299
X2.3425Y-5.689
X2.3504Y-3.4449
X2.374Y-3.0827
X2.4016Y-4.9803
X2.4016Y-5.1772
X2.4016Y-5.2756
X2.4094Y-4.0748
X2.4134Y-3.7835
X2.4134Y-3.874
X2.4134Y-3.9764
X2.4449Y-2.7638
X2.4528Y-3.1299
X2.4724Y-5.1299
X2.4843Y-2.626
X2.5157Y-5.2323
X2.5197Y-6.5945
X2.5472Y-5.2795
X2.5551Y-3.1496
X2.5551Y-3.5197
X2.5591Y-5.4921
X2.5591Y-5.5709
X2.5748Y-3.9488
X2.5787Y-3.6575
X2.5984Y-5.6496
X2.626Y-5.5354
X2.6339Y-5.7283
X2.6535Y-3.8701
X2.6575Y-2.9764
X2.6614Y-3.3425
X2.6614Y-3.7402
X2.7087Y-6.1575
X2.7126Y-4.4764
X2.7283Y-3.622
X2.7559Y-2.5591
X2.7717Y-6.4331
X2.7756Y-6.122
X2.7795Y-4.1535
X2.7795Y-4.2362
X2.7913Y-5.1142
X2.8031Y-2.8583
X2.8031Y-3.4803
X2.8071Y-3.2244
X2.811Y-3.2717
X2.8189Y-3.6378
X2.8228Y-2.811
X2.8465Y-6.0512
X2.8543Y-6.5945
X2.8583Y-6.4094
X2.874Y-3.6614
X2.878Y-4.2795
X2.8819Y-4.1535
X2.8819Y-5.2795
X2.9055Y-2.8583
X2.9449Y-3.2244
X2.9449Y-5.7283
X2.9488Y-2.5945
X2.9843Y-3.4528
X3.0118Y-4.874
X3.0118Y-4.9724
X3.0118Y-4.9724
X3.0118Y-5.0709
X3.0118Y-6.1575
X3.0157Y-4.6732
X3.0157Y-4.7795
X3.0236Y-3.5984
X3.0236Y-5.1654
X3.0315Y-2.5394
X3.0315Y-3.2244
X3.0315Y-4.1496
X3.0394Y-4.2441
X3.063Y-2.8583
X3.063Y-6.126
X3.0709Y-4.2953
X3.0709Y-4.8228
X3.0827Y-3.689
X3.0827Y-3.7598
X3.098Y-4.2673
X3.1024Y-3.4488
X3.1024Y-4.9213
X3.1102Y-2.5984
X3.1102Y-3.5984
X3.126Y-3.2244
X3.1299Y-2.8583
X3.1299Y-4.2205
X3.1299Y-5.0236
X3.1457Y-2.7953
X3.1457Y-3.6417
X3.1496Y-2.6417
X3.1654Y-4.189
X3.1654Y-5.122
X3.1732Y-6.063
X3.189Y-5.5315
X3.189Y-5.7677
X3.2047Y-4.7638
X3.2087Y-6.5945
X3.2165Y-4.5079
X3.2283Y-6.3189
X3.2953Y-3.5945
X3.2953Y-4.2165
X3.2953Y-4.2673
X3.2992Y-5.2756
X3.3071Y-4.6811
X3.3189Y-2.6339
X3.3189Y-3.1102
X3.3189Y-5.3346
X3.3228Y-2.748
X3.3228Y-3.7598
X3.3228Y-4.189
X3.3228Y-4.2441
X3.3228Y-4.2913
X3.3465Y-4.063
X3.3583Y-2.5787
X3.3661Y-3.4567
X3.4094Y-3.5472
X3.4094Y-4.3898
X3.4094Y-4.4331
X3.4094Y-4.4882
X3.4094Y-4.6811
X3.4291Y-2.5827
X3.4291Y-2.748
X3.4291Y-3.1102
X3.4528Y-3.5039
X3.4921Y-4.1535
X3.4921Y-4.2362
X3.5433Y-3.7638
X3.5512Y-3.5039
X3.563Y-4.7835
X3.563Y-5.0197
X3.563Y-5.2756
X3.563Y-5.5315
X3.563Y-5.7677
X3.563Y-6.0433
X3.563Y-6.3189
X3.563Y-6.5945
X3.5827Y-3.189
X3.6024Y-3.4921
X3.6063Y-3.689
X3.6063Y-4.3937
X3.6496Y-4.4921
X3.6496Y-4.6811
X3.6535Y-3.5906
X3.6614Y-3.8583
X3.6929Y-4.7244
X3.7008Y-3.6299
X3.7205Y-2.6732
X3.7205Y-2.7953
X3.7244Y-4.437
X3.7402Y-2.8583
X3.7441Y-3.2244
X3.7598Y-3.1693
X3.7598Y-3.2874
X3.7598Y-3.6811
X3.7598Y-3.7598
X3.7677Y-2.6063
X3.7992Y-4.0551
X3.8071Y-2.8583
X3.8386Y-3.878
X3.8425Y-2.6339
X3.8465Y-3.2244
X3.878Y-3.7205
X3.9173Y-2.4803
X3.9173Y-2.7953
X3.9173Y-3.1102
X3.9173Y-3.4449
X3.9173Y-3.6614
X3.9173Y-4.1535
X3.9173Y-4.2323
X3.9173Y-4.5079
X3.9173Y-4.7638
X3.9173Y-5.0197
X3.9173Y-5.2756
X3.9173Y-5.5315
X3.9173Y-5.7677
X3.9173Y-6.0433
X3.9173Y-6.3189
X3.9173Y-6.5945
T2
X2.5Y-3.5787
X2.6181Y-3.1496
X2.6181Y-3.5197
X2.7008Y-2.7362
X2.8504Y-3.5197
X2.8543Y-3.1457
T3
X2.3311Y-2.4697
X2.3311Y-2.5197
X2.3811Y-2.4697
X2.3811Y-2.5197
X2.4311Y-2.4697
X2.4311Y-2.5197
X2.4811Y-2.4697
X2.4811Y-2.5197
X2.5311Y-2.4697
X2.5311Y-2.5197
X2.5811Y-2.4697
X2.5811Y-2.5197
X2.6311Y-2.4697
X2.6311Y-2.5197
X2.6811Y-2.4697
X2.6811Y-2.5197
X2.9134Y-6.2992
X2.9134Y-6.3492
X2.9634Y-6.2992
X2.9634Y-6.3492
X3.0134Y-6.2992
X3.0134Y-6.3492
X3.0634Y-6.2992
X3.0634Y-6.3492
X3.1134Y-6.2992
X3.1134Y-6.3492
X3.2681Y-2.4697
X3.2681Y-2.5197
X3.3181Y-2.4697
X3.3181Y-2.5197
X3.3681Y-2.4697
X3.3681Y-2.5197
X3.4181Y-2.4697
X3.4181Y-2.5197
X3.4681Y-2.4697
X3.4681Y-2.5197
X3.5181Y-2.4697
X3.5181Y-2.5197
X3.5681Y-2.4697
X3.5681Y-2.5197
X3.6181Y-2.4697
X3.6181Y-2.5197
T4
X2.3426Y-3.6268
X2.3426Y-3.8268
X2.3426Y-4.0268
X2.3426Y-4.2268
X2.3426Y-4.4268
X2.3426Y-4.6268
X2.3426Y-4.8268
X2.3426Y-5.0268
X2.3426Y-5.2268
X2.3426Y-5.4268
X2.3526Y-3.7268
X2.3526Y-3.9268
X2.3526Y-4.1268
X2.3526Y-4.3268
X2.3526Y-4.5268
X2.3526Y-4.7268
X2.3526Y-4.9268
X2.3526Y-5.1268
X2.3526Y-5.3268
X2.3526Y-5.5268
X2.9426Y-3.6268
X2.9426Y-3.8268
X2.9426Y-4.0268
X2.9426Y-4.2268
X2.9426Y-4.4268
X2.9426Y-4.6268
X2.9426Y-4.8268
X2.9426Y-5.0268
X2.9426Y-5.2268
X2.9426Y-5.4268
X2.9526Y-3.7268
X2.9526Y-3.9268
X2.9526Y-4.1268
X2.9526Y-4.3268
X2.9526Y-4.5268
X2.9526Y-4.7268
X2.9526Y-4.9268
X2.9526Y-5.1268
X2.9526Y-5.3268
X2.9526Y-5.5268
T5
X3.6063Y-2.0866G85X3.7165Y-2.0866
G05
X2.2087Y-2.0866G85X2.3189Y-2.0866
G05
X2.2087Y-6.9094G85X2.3189Y-6.9094
G05
X3.6063Y-6.9094G85X3.7165Y-6.9094
G05
T0
M30
